<svg width="20" height="22" viewBox="0 0 20 22" fill="none" xmlns="http://www.w3.org/2000/svg">
<path d="M15 18.4211L10 15.1316L5 18.4211V3.94737C5 3.77288 5.06585 3.60555 5.18306 3.48217C5.30027 3.35879 5.45924 3.28947 5.625 3.28947H14.375C14.5408 3.28947 14.6997 3.35879 14.8169 3.48217C14.9342 3.60555 15 3.77288 15 3.94737V18.4211Z" stroke="#D1D1D4" stroke-width="1.5" stroke-linecap="round" stroke-linejoin="round"/>
<path d="M12.1161 9.18739V9.03739H11.9661H10.6074V7.54523V7.39523H10.4574H9.95564H9.80564V7.54523V9.03739H8.44685H8.29685V9.18739V9.71165V9.86165H8.44685H9.80564V11.3461V11.4961H9.95564H10.4574H10.6074V11.3461V9.86165H11.9661H12.1161V9.71165V9.18739Z" fill="#D1D1D4" stroke="#D1D1D4" stroke-width="0.3"/>
</svg>
