<svg width="20" height="20" viewBox="0 0 20 20" fill="none" xmlns="http://www.w3.org/2000/svg">
<path d="M17.3125 11.6719C17.4421 11.103 17.505 10.5209 17.5 9.9375C17.4688 5.80469 14.0469 2.46094 9.92188 2.5C8.15964 2.51859 6.46023 3.15714 5.12181 4.30363C3.78338 5.45013 2.89144 7.03133 2.60247 8.76981C2.3135 10.5083 2.64596 12.293 3.54152 13.8108C4.43708 15.3287 5.83854 16.4826 7.50001 17.0703C7.78263 17.1721 8.08565 17.2042 8.38335 17.1639C8.68104 17.1236 8.96461 17.0121 9.20999 16.8388C9.45537 16.6655 9.65531 16.4356 9.79285 16.1685C9.93038 15.9014 10.0014 15.6051 10 15.3047V15C9.99897 14.7535 10.0468 14.5092 10.1406 14.2813C10.2345 14.0533 10.3726 13.8462 10.5469 13.6719C10.7212 13.4976 10.9283 13.3595 11.1563 13.2656C11.3842 13.1718 11.6285 13.124 11.875 13.125H15.4844C15.9085 13.1253 16.3203 12.9817 16.6523 12.7178C16.9843 12.4539 17.2171 12.0852 17.3125 11.6719V11.6719Z" stroke="white" stroke-opacity="0.95" stroke-width="1.2" stroke-linecap="round" stroke-linejoin="round"/>
<path d="M10 6.5625C10.3452 6.5625 10.625 6.28268 10.625 5.9375C10.625 5.59232 10.3452 5.3125 10 5.3125C9.65482 5.3125 9.375 5.59232 9.375 5.9375C9.375 6.28268 9.65482 6.5625 10 6.5625Z" fill="white" fill-opacity="0.95"/>
<path d="M6.48438 8.59375C6.82955 8.59375 7.10938 8.31393 7.10938 7.96875C7.10938 7.62357 6.82955 7.34375 6.48438 7.34375C6.1392 7.34375 5.85938 7.62357 5.85938 7.96875C5.85938 8.31393 6.1392 8.59375 6.48438 8.59375Z" fill="white" fill-opacity="0.95"/>
<path d="M6.48438 12.6562C6.82955 12.6562 7.10938 12.3764 7.10938 12.0312C7.10938 11.6861 6.82955 11.4062 6.48438 11.4062C6.1392 11.4062 5.85938 11.6861 5.85938 12.0312C5.85938 12.3764 6.1392 12.6562 6.48438 12.6562Z" fill="white" fill-opacity="0.95"/>
<path d="M13.5156 8.59375C13.8608 8.59375 14.1406 8.31393 14.1406 7.96875C14.1406 7.62357 13.8608 7.34375 13.5156 7.34375C13.1704 7.34375 12.8906 7.62357 12.8906 7.96875C12.8906 8.31393 13.1704 8.59375 13.5156 8.59375Z" fill="white" fill-opacity="0.95"/>
</svg>
