<svg width="21" height="20" viewBox="0 0 21 20" fill="none" xmlns="http://www.w3.org/2000/svg">
<path d="M10.0439 10L17.5439 2.5" stroke="white" stroke-opacity="0.95" stroke-width="1.2" stroke-linecap="round" stroke-linejoin="round"/>
<path d="M15.3486 4.69531C14.019 3.36168 12.2371 2.57582 10.3557 2.49328C8.47429 2.41073 6.63046 3.03752 5.18913 4.24957C3.74781 5.46163 2.81404 7.17062 2.57264 9.0383C2.33124 10.906 2.79981 12.7962 3.8856 14.3349C4.97139 15.8736 6.59527 16.9486 8.43583 17.3471C10.2764 17.7456 12.1995 17.4386 13.8245 16.4869C15.4495 15.5351 16.658 14.008 17.2108 12.2078C17.7636 10.4075 17.6204 8.46533 16.8095 6.76562" stroke="white" stroke-opacity="0.95" stroke-width="1.2" stroke-linecap="round" stroke-linejoin="round"/>
<path d="M12.6923 7.35156C12.073 6.73395 11.2569 6.35279 10.3857 6.27431C9.51457 6.19583 8.64345 6.42497 7.92369 6.92194C7.20392 7.41892 6.68097 8.15231 6.44568 8.99474C6.21039 9.83717 6.27763 10.7354 6.63571 11.5334C6.99379 12.3314 7.6201 12.9788 8.40583 13.3631C9.19157 13.7474 10.0871 13.8443 10.9368 13.637C11.7866 13.4297 12.5369 12.9313 13.0574 12.2283C13.5779 11.5254 13.8357 10.6623 13.7861 9.78906" stroke="white" stroke-opacity="0.95" stroke-width="1.2" stroke-linecap="round" stroke-linejoin="round"/>
</svg>
