<svg width="21" height="20" viewBox="0 0 21 20" fill="none" xmlns="http://www.w3.org/2000/svg">
<path d="M10.0146 13.7773C12.1008 13.7935 13.805 12.1154 13.8212 10.0293C13.8373 7.94312 12.1593 6.23886 10.0731 6.2227C7.987 6.20654 6.28274 7.88459 6.26657 9.97074C6.25041 12.0569 7.92847 13.7612 10.0146 13.7773Z" stroke="white" stroke-opacity="0.95" stroke-width="1.2" stroke-linecap="round" stroke-linejoin="round"/>
<path fill-rule="evenodd" clip-rule="evenodd" d="M3.14386 10C3.14386 6.18923 6.23309 3.1 10.0439 3.1C13.3624 3.1 16.1338 5.44273 16.7943 8.56456C17.0184 8.44731 17.2734 8.38099 17.5439 8.38099C17.7003 8.38099 17.8516 8.40318 17.9947 8.44459C17.2693 4.71523 13.9854 1.9 10.0439 1.9C5.57035 1.9 1.94386 5.52649 1.94386 10C1.94386 14.4735 5.57035 18.1 10.0439 18.1C13.9854 18.1 17.2693 15.2848 17.9947 11.5554C17.8516 11.5968 17.7003 11.619 17.5439 11.619C17.2734 11.619 17.0184 11.5527 16.7943 11.4354C16.1338 14.5573 13.3624 16.9 10.0439 16.9C6.23309 16.9 3.14386 13.8108 3.14386 10Z" fill="white" fill-opacity="0.95"/>
<circle cx="17.3787" cy="10.1651" r="1.52117" stroke="white" stroke-opacity="0.95" stroke-width="1.2"/>
</svg>
