<svg width="20" height="20" viewBox="0 0 20 20" fill="none" xmlns="http://www.w3.org/2000/svg">
<g clip-path="url(#clip0_42_460)">
<path d="M10.8028 2.11111L10.4737 6.16444C10.318 6.14667 10.1623 6.13778 10.0022 6.13778C9.80209 6.13778 9.6064 6.15111 9.41516 6.18222L9.22836 4.21778C9.22392 4.15556 9.27284 4.10222 9.3351 4.10222H9.66866L9.50855 2.11556C9.50411 2.05333 9.55303 2 9.61085 2H10.7005C10.7627 2 10.8117 2.05333 10.8028 2.11556V2.11111ZM8.05423 2.31111C8.03644 2.25333 7.97418 2.21778 7.91636 2.24L6.89345 2.61333C6.83563 2.63556 6.80894 2.70222 6.83563 2.75556L7.6673 4.56889L7.35153 4.68444C7.29372 4.70667 7.26703 4.77333 7.29372 4.82667L8.14318 6.60889C8.45006 6.44 8.78362 6.31111 9.13497 6.23111L8.05868 2.31111H8.05423ZM5.54586 3.44L7.89857 6.75556C7.60059 6.95111 7.3293 7.18222 7.09803 7.44889L5.68818 6.06222C5.64371 6.01778 5.64816 5.94667 5.69263 5.90667L5.95058 5.69333L4.54963 4.27556C4.50516 4.23111 4.5096 4.16 4.55853 4.12L5.3902 3.42222C5.43912 3.38222 5.50584 3.39111 5.54142 3.44H5.54586ZM3.57119 5.36C3.52227 5.32444 3.45111 5.34222 3.41998 5.39556L2.87738 6.33778C2.84625 6.39111 2.86849 6.45778 2.92186 6.48444L4.72753 7.33778L4.55853 7.62667C4.52739 7.68 4.54963 7.75111 4.60745 7.77333L6.40422 8.59556C6.5332 8.26222 6.70665 7.95111 6.92013 7.67111L3.57119 5.36ZM2.2414 7.92C2.25029 7.85778 2.31256 7.82222 2.37037 7.83556L6.30638 8.86222C6.20409 9.19556 6.14627 9.54667 6.13738 9.91111L4.16715 9.75111C4.10488 9.74667 4.06041 9.68889 4.07375 9.62667L4.13157 9.29778L2.14355 9.11111C2.08129 9.10667 2.04126 9.04889 2.05016 8.98667L2.23695 7.91556L2.2414 7.92ZM2.09463 10.5778C2.03237 10.5822 1.99234 10.64 2.00123 10.7022L2.19247 11.7733C2.20137 11.8356 2.26363 11.8711 2.32145 11.8578L4.25165 11.3556L4.30947 11.6844C4.31836 11.7467 4.38063 11.7822 4.43844 11.7689L6.34196 11.2444C6.23077 10.9156 6.15961 10.5644 6.14182 10.2044L2.09018 10.5778H2.09463ZM2.72617 13.3956C2.69504 13.3422 2.71728 13.2756 2.77065 13.2489L6.44425 11.5067C6.58212 11.8356 6.76892 12.1422 6.99129 12.4178L5.38131 13.5644C5.33239 13.6 5.26123 13.5867 5.23009 13.5333L5.06109 13.24L3.41998 14.3733C3.37105 14.4089 3.29989 14.3911 3.26876 14.3378L2.72172 13.3956H2.72617ZM7.17808 12.6311L4.31836 15.5244C4.27389 15.5689 4.27834 15.64 4.32726 15.68L5.16338 16.3778C5.2123 16.4178 5.27902 16.4089 5.3146 16.36L6.47094 14.7333L6.72889 14.9511C6.77781 14.9911 6.84897 14.9822 6.88455 14.9289L8.00531 13.3022C7.70288 13.1156 7.42269 12.8889 7.18253 12.6311H7.17808ZM6.61326 17.2756C6.55544 17.2533 6.52875 17.1867 6.55544 17.1333L8.24992 13.4356C8.56124 13.5956 8.89925 13.7156 9.2506 13.7822L8.75249 15.6933C8.73914 15.7511 8.67243 15.7867 8.61461 15.7644L8.29884 15.6489L7.7696 17.5733C7.75181 17.6311 7.68954 17.6667 7.63172 17.6444L6.60881 17.2711L6.61326 17.2756ZM9.53079 13.8311L9.20168 17.8844C9.19723 17.9467 9.24615 18 9.30397 18H10.3936C10.4559 18 10.5048 17.9467 10.4959 17.8844L10.3358 15.8978H10.6693C10.7316 15.8978 10.7805 15.8444 10.7761 15.7822L10.5893 13.8178C10.398 13.8489 10.2024 13.8622 10.0022 13.8622C9.84212 13.8622 9.68645 13.8533 9.53079 13.8311ZM13.4535 2.85778C13.4801 2.8 13.4535 2.73778 13.3956 2.71556L12.3727 2.34222C12.3149 2.32 12.2526 2.35556 12.2349 2.41333L11.7056 4.33778L11.3898 4.22222C11.332 4.2 11.2698 4.23556 11.252 4.29333L10.7538 6.20444C11.1096 6.27556 11.4432 6.39556 11.7545 6.55111L13.4535 2.85778ZM15.6861 4.47111L12.8264 7.36444C12.5862 7.10667 12.3105 6.88 12.0036 6.69333L13.1243 5.06667C13.1599 5.01778 13.2311 5.00444 13.28 5.04444L13.538 5.26222L14.6943 3.63556C14.7299 3.58667 14.801 3.57778 14.8455 3.61778L15.6816 4.31556C15.7306 4.35556 15.7306 4.42667 15.6905 4.47111H15.6861ZM17.2338 6.74667C17.2916 6.72 17.3094 6.65333 17.2783 6.6L16.7312 5.65778C16.7001 5.60444 16.6289 5.59111 16.58 5.62222L14.9389 6.75556L14.7699 6.46667C14.7388 6.41333 14.6676 6.39556 14.6187 6.43556L13.0087 7.58222C13.2311 7.85778 13.4134 8.16444 13.5557 8.49333L17.2294 6.75111L17.2338 6.74667ZM17.812 8.22222L17.9988 9.29333C18.0077 9.35556 17.9676 9.40889 17.9054 9.41778L13.8537 9.79556C13.8359 9.43111 13.7648 9.08444 13.6536 8.75556L15.5571 8.23111C15.6149 8.21333 15.6772 8.25333 15.6861 8.31556L15.7439 8.64444L17.6741 8.14222C17.7319 8.12889 17.7942 8.16444 17.8031 8.22667L17.812 8.22222ZM17.6296 12.1556C17.6874 12.1689 17.7497 12.1333 17.7586 12.0711L17.9454 11C17.9543 10.9378 17.9143 10.8844 17.852 10.8756L15.864 10.6889L15.9218 10.36C15.9307 10.2978 15.8907 10.2444 15.8284 10.2356L13.8582 10.0756C13.8493 10.44 13.7915 10.7911 13.6892 11.1244L17.6252 12.1511L17.6296 12.1556ZM16.58 14.6C16.5489 14.6533 16.4777 14.6667 16.4288 14.6356L13.0799 12.3244C13.2933 12.0444 13.4668 11.7333 13.5958 11.4L15.3926 12.2222C15.4504 12.2489 15.4726 12.3156 15.4415 12.3689L15.2725 12.6578L17.0781 13.5111C17.1315 13.5378 17.1537 13.6044 17.1226 13.6578L16.58 14.6ZM12.1014 13.2356L14.4541 16.5511C14.4897 16.6 14.5609 16.6089 14.6054 16.5689L15.437 15.8711C15.4859 15.8311 15.4859 15.76 15.4459 15.7156L14.045 14.2978L14.3029 14.0844C14.3518 14.0444 14.3518 13.9733 14.3074 13.9289L12.8975 12.5422C12.6618 12.8089 12.395 13.0444 12.097 13.2356H12.1014ZM12.0792 17.7511C12.0214 17.7733 11.9591 17.7378 11.9413 17.68L10.865 13.76C11.2164 13.68 11.5499 13.5511 11.8568 13.3822L12.7063 15.1644C12.733 15.2222 12.7063 15.2889 12.6485 15.3067L12.3327 15.4222L13.1644 17.2356C13.1911 17.2933 13.1644 17.3556 13.1066 17.3778L12.0836 17.7511H12.0792Z" fill="white"/>
</g>
<defs>
<clipPath id="clip0_42_460">
<rect width="16" height="16" fill="white" transform="translate(2 2)"/>
</clipPath>
</defs>
</svg>
