<svg width="20" height="20" viewBox="0 0 20 20" fill="none" xmlns="http://www.w3.org/2000/svg">
<path d="M10 17.5C14.1421 17.5 17.5 14.1421 17.5 10C17.5 5.85786 14.1421 2.5 10 2.5C5.85786 2.5 2.5 5.85786 2.5 10C2.5 14.1421 5.85786 17.5 10 17.5Z" stroke="white" stroke-width="1.2" stroke-linecap="round" stroke-linejoin="round"/>
<path d="M9.26077 12.1212V12.2212H9.36077H10.213H10.313V12.1212V12.0794C10.3177 11.7916 10.3479 11.5563 10.4014 11.3713C10.4545 11.1878 10.5388 11.032 10.6538 10.9019L10.6543 10.9013C10.7717 10.7662 10.9302 10.6351 11.1322 10.5088C11.3478 10.3764 11.533 10.2236 11.6868 10.05C11.8442 9.87502 11.9643 9.67614 12.0467 9.45401C12.132 9.23042 12.1738 8.98268 12.1738 8.71211C12.1738 8.32688 12.0848 7.98002 11.9044 7.67433C11.7266 7.36883 11.4736 7.12895 11.1482 6.95503C10.8233 6.78009 10.4442 6.69449 10.0142 6.69449C9.61713 6.69449 9.25291 6.77302 8.92324 6.93166L8.92297 6.93179C8.59462 7.09098 8.32882 7.32177 8.12711 7.6231L8.1271 7.6231L8.12679 7.62358C7.92585 7.92749 7.81745 8.2901 7.79782 8.70741L7.79289 8.81211H7.89771H8.79259H8.88604L8.89236 8.71887C8.91046 8.45187 8.97664 8.2449 9.08408 8.09111C9.19519 7.93207 9.33171 7.81773 9.49394 7.74515C9.66122 7.67032 9.83435 7.63313 10.0142 7.63313C10.2224 7.63313 10.4092 7.67622 10.5762 7.76084C10.7427 7.84517 10.8748 7.96442 10.9739 8.11964C11.0711 8.27176 11.1216 8.45369 11.1216 8.66949C11.1216 8.8445 11.0906 9.00129 11.0303 9.1413L11.0303 9.14129L11.0298 9.1425C10.9704 9.28538 10.8895 9.41112 10.7868 9.52039C10.6818 9.62983 10.5633 9.72487 10.4311 9.80556C10.1933 9.94875 9.98785 10.1063 9.81563 10.2785C9.63699 10.4571 9.50192 10.688 9.40803 10.9672C9.31334 11.2488 9.26557 11.6204 9.26078 12.0775H9.26077V12.0786V12.1212ZM10.1864 14.224L10.187 14.2236C10.2978 14.1561 10.3864 14.0663 10.4516 13.9552C10.5202 13.8423 10.5545 13.7179 10.5545 13.5843C10.5545 13.3822 10.481 13.2065 10.337 13.0626C10.1931 12.9186 10.0174 12.8451 9.81532 12.8451C9.61323 12.8451 9.43757 12.9186 9.29361 13.0626C9.14966 13.2065 9.07611 13.3822 9.07611 13.5843C9.07611 13.7864 9.14966 13.962 9.29361 14.106C9.43757 14.2499 9.61323 14.3235 9.81532 14.3235C9.95046 14.3235 10.075 14.2908 10.1864 14.224Z" fill="white" stroke="white" stroke-width="0.2"/>
</svg>
