<svg width="21" height="20" viewBox="0 0 21 20" fill="none" xmlns="http://www.w3.org/2000/svg">
<path d="M7.54388 13.125C10.6505 13.125 13.1689 10.6066 13.1689 7.5C13.1689 4.3934 10.6505 1.875 7.54388 1.875C4.43728 1.875 1.91888 4.3934 1.91888 7.5C1.91888 10.6066 4.43728 13.125 7.54388 13.125Z" stroke="white" stroke-opacity="0.95" stroke-width="1.2" stroke-linecap="round" stroke-linejoin="round"/>
<path d="M12.5439 18.125C15.6505 18.125 18.1689 15.6066 18.1689 12.5C18.1689 9.3934 15.6505 6.875 12.5439 6.875C9.43728 6.875 6.91888 9.3934 6.91888 12.5C6.91888 15.6066 9.43728 18.125 12.5439 18.125Z" stroke="white" stroke-opacity="0.95" stroke-width="1.2" stroke-linecap="round" stroke-linejoin="round"/>
<path d="M9.6142 7.69531L12.3486 10.4297" stroke="white" stroke-opacity="0.95" stroke-width="1.2" stroke-linecap="round" stroke-linejoin="round"/>
<path d="M7.7392 9.57031L10.4736 12.3047" stroke="white" stroke-opacity="0.95" stroke-width="1.2" stroke-linecap="round" stroke-linejoin="round"/>
</svg>
