<?xml version="1.0" encoding="utf-8"?>
<!-- Generator: Adobe Illustrator 25.2.1, SVG Export Plug-In . SVG Version: 6.00 Build 0)  -->
<svg version="1.1" id="Layer_1" xmlns="http://www.w3.org/2000/svg" xmlns:xlink="http://www.w3.org/1999/xlink" x="0px" y="0px"
	 viewBox="0 0 5 6" style="enable-background:new 0 0 5 6;" xml:space="preserve">
<style type="text/css">
	.st0{fill:#012252;}
</style>
<g>
	<path class="st0" d="M3.2,2.3c-0.1,0-0.1,0.1-0.1,0.1v2.2c0,0.1,0.1,0.1,0.1,0.1c0.1,0,0.1-0.1,0.1-0.1V2.4
		C3.3,2.4,3.3,2.3,3.2,2.3L3.2,2.3z M3.2,2.3"/>
	<path class="st0" d="M1.8,2.3c-0.1,0-0.1,0.1-0.1,0.1v2.2c0,0.1,0.1,0.1,0.1,0.1c0.1,0,0.1-0.1,0.1-0.1V2.4
		C1.9,2.4,1.9,2.3,1.8,2.3L1.8,2.3z M1.8,2.3"/>
	<path class="st0" d="M0.8,2v2.9C0.8,5,0.9,5.2,1,5.3c0.1,0.1,0.3,0.2,0.4,0.2h2.2c0.2,0,0.3-0.1,0.4-0.2C4.1,5.2,4.2,5,4.2,4.9V2
		c0.2-0.1,0.4-0.3,0.3-0.5c0-0.2-0.2-0.4-0.4-0.4H3.5V1c0-0.1,0-0.2-0.1-0.3C3.3,0.6,3.1,0.5,3,0.5H2c-0.1,0-0.2,0-0.3,0.1
		C1.6,0.7,1.5,0.8,1.5,1v0.1H0.9c-0.2,0-0.4,0.2-0.4,0.4C0.5,1.7,0.6,1.9,0.8,2L0.8,2z M3.6,5.3H1.4C1.2,5.3,1,5.1,1,4.9V2H4v2.9
		C4,5.1,3.8,5.3,3.6,5.3L3.6,5.3z M1.8,1c0-0.1,0-0.1,0.1-0.2c0,0,0.1-0.1,0.2-0.1h1c0.1,0,0.1,0,0.2,0.1c0,0,0.1,0.1,0.1,0.2v0.1
		H1.8V1z M0.9,1.3h3.2c0.1,0,0.2,0.1,0.2,0.2S4.2,1.8,4.1,1.8H0.9c-0.1,0-0.2-0.1-0.2-0.2S0.8,1.3,0.9,1.3L0.9,1.3z M0.9,1.3"/>
	<path class="st0" d="M2.5,2.3c-0.1,0-0.1,0.1-0.1,0.1v2.2c0,0.1,0.1,0.1,0.1,0.1c0.1,0,0.1-0.1,0.1-0.1V2.4
		C2.6,2.4,2.6,2.3,2.5,2.3L2.5,2.3z M2.5,2.3"/>
</g>
</svg>
