<?xml version="1.0" encoding="utf-8"?>
<!-- Generator: Adobe Illustrator 25.2.1, SVG Export Plug-In . SVG Version: 6.00 Build 0)  -->
<svg version="1.1" id="Layer_1" xmlns="http://www.w3.org/2000/svg" xmlns:xlink="http://www.w3.org/1999/xlink" x="0px" y="0px"
	 viewBox="0 0 7 7" style="enable-background:new 0 0 7 7;" xml:space="preserve">
<style type="text/css">
	.st0{fill:#012252;}
</style>
<g>
	<path class="st0" d="M5.7,1.9H4.5v0.7h1.2c0.3,0,0.6,0.2,0.6,0.3v3c0,0.2-0.3,0.3-0.6,0.3H1.3C1,6.3,0.7,6.1,0.7,5.9v-3
		c0-0.2,0.3-0.3,0.6-0.3h1.2V1.9H1.3C0.6,1.9,0,2.4,0,2.9v3c0,0.6,0.6,1,1.3,1h4.4C6.4,7,7,6.5,7,5.9v-3C7,2.4,6.4,1.9,5.7,1.9
		L5.7,1.9z M5.7,1.9"/>
	<path class="st0" d="M4.5,3.3c-0.1,0-0.2,0-0.2,0.1L3.9,3.9V0.4C3.9,0.2,3.7,0,3.5,0C3.3,0,3.2,0.2,3.2,0.4v3.5L2.7,3.4
		C2.7,3.4,2.6,3.3,2.5,3.3c-0.1,0-0.2,0-0.2,0.1c-0.1,0.1-0.1,0.3,0,0.5l1,1C3.3,5,3.4,5,3.5,5c0,0,0,0,0,0c0,0,0,0,0,0
		c0.1,0,0.2,0,0.2-0.1l1-1c0.1-0.1,0.1-0.3,0-0.5C4.7,3.4,4.6,3.3,4.5,3.3L4.5,3.3z M4.5,3.3"/>
</g>
</svg>
