<?xml version="1.0" encoding="UTF-8"?><svg id="Layer_1" xmlns="http://www.w3.org/2000/svg" xmlns:xlink="http://www.w3.org/1999/xlink" viewBox="0 0 3200 1800"><defs><style>.cls-1{fill:#fff;}.cls-2{fill:#224d9d;}.cls-3{fill:none;stroke:#f1f2f2;stroke-miterlimit:10;stroke-width:2px;}.cls-4{opacity:.8;}.cls-5{fill:#ff8329;}.cls-6{fill:#00be1c;}.cls-7{fill:url(#linear-gradient);}.cls-8{fill:#151521;}.cls-9{fill:red;}</style><linearGradient id="linear-gradient" x1="3557.84" y1="1464.14" x2="3557.84" y2="535.8" gradientTransform="translate(-17390.76 2964.08) scale(5.32 -2.32)" gradientUnits="userSpaceOnUse"><stop offset="0" stop-color="#ef472d"/><stop offset=".25" stop-color="#f37131"/><stop offset=".33" stop-color="#f3a129"/><stop offset=".4" stop-color="#f3c823"/><stop offset=".46" stop-color="#f3e120"/><stop offset=".5" stop-color="#f4ea1f"/><stop offset=".54" stop-color="#ebe722"/><stop offset=".59" stop-color="#d2df2d"/><stop offset=".67" stop-color="#abd23e"/><stop offset=".75" stop-color="#76c155"/><stop offset="1" stop-color="#3fb55c"/></linearGradient></defs><rect class="cls-8" width="3200" height="1800"/><g><path class="cls-1" d="M383.05,79.39v59.92h-7.74v-59.92h7.74Z"/><path class="cls-1" d="M466.06,97.11c3.31,3.48,4.97,8.51,4.97,15.09v27.12h-7.73v-26.43c0-4.59-1.12-8.1-3.36-10.54-2.24-2.44-5.31-3.66-9.22-3.66s-7.35,1.35-9.82,4.04c-2.46,2.69-3.7,6.64-3.7,11.86v24.74h-7.73v-26.43c0-4.59-1.13-8.1-3.4-10.54-2.27-2.44-5.33-3.66-9.18-3.66-4.14,0-7.44,1.35-9.9,4.04-2.46,2.69-3.7,6.64-3.7,11.86v24.74h-7.74v-46.67h7.74v10.62c1.13-3.68,3.16-6.5,6.08-8.46,2.92-1.96,6.28-2.93,10.07-2.93s7.41,1.01,10.33,3.02c2.92,2.01,5,4.97,6.25,8.88,1.3-3.8,3.49-6.73,6.54-8.8,3.06-2.07,6.52-3.1,10.37-3.1,5.44,0,9.82,1.74,13.13,5.23Z"/><path class="cls-1" d="M519.9,94.94c3.23,1.93,5.76,4.7,7.61,8.33,1.84,3.63,2.76,7.88,2.76,12.75s-.92,9.11-2.76,12.71c-1.84,3.6-4.38,6.36-7.61,8.29-3.23,1.93-6.91,2.89-11.05,2.89-4.53,0-8.37-1.15-11.52-3.44-3.15-2.29-5.31-5.31-6.5-9.05v34h-7.74V92.65h7.74v11.9c1.19-3.74,3.36-6.76,6.5-9.05,3.14-2.29,6.98-3.44,11.52-3.44,4.14,0,7.82,.96,11.05,2.89Zm-21.42,6.08c-2.44,1.39-4.33,3.39-5.7,5.99s-2.04,5.61-2.04,9.01,.68,6.39,2.04,8.97c1.36,2.58,3.26,4.58,5.7,5.99,2.44,1.42,5.16,2.12,8.16,2.12,4.82,0,8.66-1.52,11.52-4.55,2.86-3.03,4.29-7.21,4.29-12.54s-1.43-9.5-4.29-12.54c-2.86-3.03-6.7-4.55-11.52-4.55-3,0-5.72,.69-8.16,2.08Z"/><path class="cls-1" d="M583.06,117.64h-37.31c.17,5.33,1.68,9.32,4.55,11.98,2.86,2.67,6.36,4,10.5,4,3.74,0,6.87-.95,9.39-2.85,2.52-1.9,4.06-4.43,4.63-7.61h8.25c-.57,3.23-1.83,6.12-3.78,8.67-1.96,2.55-4.49,4.54-7.61,5.95-3.12,1.42-6.63,2.12-10.54,2.12-4.48,0-8.44-.96-11.9-2.89-3.46-1.93-6.16-4.69-8.12-8.29s-2.93-7.83-2.93-12.71,.98-9.12,2.93-12.75c1.96-3.63,4.66-6.4,8.12-8.33,3.46-1.93,7.42-2.89,11.9-2.89s8.49,.96,11.86,2.89c3.37,1.93,5.95,4.5,7.73,7.74,1.79,3.23,2.68,6.8,2.68,10.71,0,1.64-.11,3.06-.34,4.25Zm-9.18-12.41c-1.3-2.32-3.09-4.05-5.36-5.18-2.27-1.13-4.73-1.7-7.39-1.7-4.25,0-7.82,1.32-10.71,3.95-2.89,2.63-4.45,6.5-4.67,11.6h29.83c.17-3.46-.4-6.35-1.7-8.67Z"/><path class="cls-1" d="M608.05,94.56c2.95-1.78,6.46-2.68,10.54-2.68v8.42h-2.38c-4.36,0-7.93,1.12-10.71,3.36-2.78,2.24-4.17,5.94-4.17,11.09v24.57h-7.74v-46.67h7.74v9.43c1.53-3.23,3.77-5.74,6.71-7.52Z"/><path class="cls-1" d="M638.35,83.72c-1.62,1.47-2.42,4.02-2.42,7.65v1.28h11.05v6.8h-11.05v39.87h-7.73v-39.87h-6.72v-6.8h6.72v-1.87c0-11.16,6.26-16.49,18.78-15.98v6.8c-4.14-.06-7.01,.65-8.63,2.12Z"/><path class="cls-1" d="M698.06,117.64h-37.32c.17,5.33,1.69,9.32,4.55,11.98,2.86,2.67,6.36,4,10.5,4,3.74,0,6.87-.95,9.39-2.85,2.52-1.9,4.07-4.43,4.63-7.61h8.25c-.57,3.23-1.83,6.12-3.78,8.67-1.96,2.55-4.49,4.54-7.61,5.95-3.12,1.42-6.63,2.12-10.54,2.12-4.48,0-8.44-.96-11.9-2.89-3.46-1.93-6.16-4.69-8.12-8.29s-2.93-7.83-2.93-12.71,.98-9.12,2.93-12.75c1.96-3.63,4.66-6.4,8.12-8.33,3.46-1.93,7.42-2.89,11.9-2.89s8.49,.96,11.86,2.89c3.37,1.93,5.95,4.5,7.74,7.74,1.78,3.23,2.68,6.8,2.68,10.71,0,1.64-.11,3.06-.34,4.25Zm-9.18-12.41c-1.3-2.32-3.09-4.05-5.36-5.18-2.27-1.13-4.73-1.7-7.39-1.7-4.25,0-7.82,1.32-10.71,3.95-2.89,2.63-4.45,6.5-4.68,11.6h29.84c.17-3.46-.4-6.35-1.7-8.67Z"/><path class="cls-1" d="M744.05,96.81c3.91,3.17,6.32,7.42,7.23,12.75h-8.16c-.57-3.34-2.11-5.96-4.63-7.86-2.52-1.9-5.65-2.85-9.39-2.85-2.72,0-5.2,.62-7.44,1.87-2.24,1.25-4.04,3.16-5.4,5.74-1.36,2.58-2.04,5.77-2.04,9.56s.68,6.98,2.04,9.56c1.36,2.58,3.16,4.49,5.4,5.74,2.24,1.25,4.72,1.87,7.44,1.87,3.74,0,6.87-.96,9.39-2.89,2.52-1.93,4.07-4.56,4.63-7.91h8.16c-.91,5.38-3.32,9.65-7.23,12.79-3.91,3.14-8.84,4.72-14.79,4.72-4.48,0-8.44-.96-11.9-2.89-3.46-1.93-6.16-4.69-8.12-8.29s-2.93-7.83-2.93-12.71,.98-9.12,2.93-12.75c1.96-3.63,4.66-6.4,8.12-8.33,3.46-1.93,7.42-2.89,11.9-2.89,5.95,0,10.88,1.59,14.79,4.76Z"/><path class="cls-1" d="M783.74,132.51v6.8h-5.78c-4.76,0-8.32-1.13-10.67-3.4-2.35-2.27-3.53-6.06-3.53-11.39v-25.16h-6.97v-6.71h6.97v-11.64h7.82v11.64h12.07v6.71h-12.07v25.33c0,3,.55,5.06,1.66,6.16,1.11,1.1,3.02,1.66,5.74,1.66h4.76Z"/><path class="cls-1" d="M855.82,92.65v46.67h-7.74v-10.96c-1.19,3.8-3.3,6.7-6.33,8.71-3.03,2.01-6.56,3.02-10.58,3.02-5.38,0-9.75-1.74-13.09-5.23-3.34-3.48-5.01-8.49-5.01-15v-27.2h7.73v26.43c0,4.65,1.19,8.23,3.57,10.75,2.38,2.52,5.61,3.78,9.69,3.78s7.65-1.37,10.2-4.12c2.55-2.75,3.83-6.76,3.83-12.03v-24.82h7.74Z"/><path class="cls-1" d="M906.05,97.11c3.34,3.48,5.02,8.51,5.02,15.09v27.12h-7.74v-26.43c0-4.65-1.19-8.22-3.57-10.71-2.38-2.49-5.61-3.74-9.69-3.74s-7.65,1.37-10.2,4.12c-2.55,2.75-3.83,6.76-3.83,12.03v24.74h-7.73v-46.67h7.73v11.05c1.19-3.8,3.3-6.71,6.33-8.75,3.03-2.04,6.53-3.06,10.5-3.06,5.44,0,9.83,1.74,13.17,5.23Z"/><path class="cls-1" d="M953.69,95.45c3.15,2.27,5.34,5.3,6.59,9.1v-28.14h7.74v62.9h-7.74v-11.9c-1.25,3.8-3.44,6.83-6.59,9.1-3.14,2.27-6.98,3.4-11.52,3.4-4.14,0-7.82-.96-11.05-2.89-3.23-1.93-5.77-4.69-7.61-8.29-1.84-3.6-2.76-7.83-2.76-12.71s.92-9.12,2.76-12.75c1.84-3.63,4.38-6.4,7.61-8.33,3.23-1.93,6.91-2.89,11.05-2.89,4.53,0,8.37,1.13,11.52,3.4Zm-20.74,8.03c-2.86,3.03-4.29,7.21-4.29,12.54s1.43,9.51,4.29,12.54c2.86,3.03,6.67,4.55,11.43,4.55,3.06,0,5.79-.71,8.2-2.12,2.41-1.42,4.29-3.41,5.65-5.99,1.36-2.58,2.04-5.57,2.04-8.97s-.68-6.4-2.04-9.01-3.24-4.6-5.65-5.99c-2.41-1.39-5.14-2.08-8.2-2.08-4.76,0-8.57,1.52-11.43,4.55Z"/><path class="cls-1" d="M1023.01,117.64h-37.31c.17,5.33,1.68,9.32,4.55,11.98,2.86,2.67,6.36,4,10.5,4,3.74,0,6.87-.95,9.39-2.85,2.52-1.9,4.07-4.43,4.63-7.61h8.25c-.57,3.23-1.83,6.12-3.78,8.67-1.96,2.55-4.49,4.54-7.61,5.95-3.12,1.42-6.63,2.12-10.54,2.12-4.48,0-8.44-.96-11.9-2.89-3.46-1.93-6.16-4.69-8.12-8.29s-2.93-7.83-2.93-12.71,.98-9.12,2.93-12.75c1.96-3.63,4.66-6.4,8.12-8.33,3.46-1.93,7.42-2.89,11.9-2.89s8.49,.96,11.86,2.89c3.37,1.93,5.95,4.5,7.74,7.74,1.79,3.23,2.68,6.8,2.68,10.71,0,1.64-.11,3.06-.34,4.25Zm-9.18-12.41c-1.3-2.32-3.09-4.05-5.36-5.18s-4.73-1.7-7.39-1.7c-4.25,0-7.82,1.32-10.71,3.95-2.89,2.63-4.45,6.5-4.67,11.6h29.83c.17-3.46-.4-6.35-1.7-8.67Z"/><path class="cls-1" d="M1048,94.56c2.95-1.78,6.46-2.68,10.54-2.68v8.42h-2.38c-4.36,0-7.93,1.12-10.71,3.36-2.78,2.24-4.17,5.94-4.17,11.09v24.57h-7.73v-46.67h7.73v9.43c1.53-3.23,3.77-5.74,6.71-7.52Z"/><path class="cls-1" d="M1093.6,96.17c3.2,2.75,5.14,6.45,5.82,11.09h-7.39c-.34-2.78-1.49-5.06-3.44-6.84s-4.58-2.68-7.86-2.68c-2.78,0-4.95,.67-6.5,2-1.56,1.33-2.34,3.13-2.34,5.4,0,1.7,.52,3.07,1.57,4.12,1.05,1.05,2.35,1.84,3.91,2.38,1.56,.54,3.7,1.12,6.42,1.74,3.46,.79,6.25,1.6,8.37,2.42,2.12,.82,3.94,2.14,5.44,3.95,1.5,1.81,2.25,4.25,2.25,7.31,0,3.8-1.43,6.88-4.29,9.27-2.86,2.38-6.67,3.57-11.43,3.57-5.55,0-10.09-1.33-13.6-4-3.51-2.66-5.58-6.38-6.21-11.13h7.48c.28,2.83,1.52,5.13,3.7,6.88,2.18,1.76,5.06,2.64,8.63,2.64,2.66,0,4.75-.68,6.25-2.04,1.5-1.36,2.25-3.15,2.25-5.36,0-1.81-.54-3.26-1.61-4.33-1.08-1.08-2.41-1.9-4-2.46-1.59-.57-3.77-1.16-6.54-1.79-3.46-.79-6.22-1.59-8.29-2.38-2.07-.79-3.83-2.05-5.27-3.78-1.45-1.73-2.17-4.07-2.17-7.01,0-3.91,1.45-7.07,4.33-9.48,2.89-2.41,6.83-3.61,11.82-3.61,5.27,0,9.5,1.37,12.71,4.12Z"/><path class="cls-1" d="M1132.57,132.51v6.8h-5.78c-4.76,0-8.32-1.13-10.67-3.4-2.35-2.27-3.53-6.06-3.53-11.39v-25.16h-6.97v-6.71h6.97v-11.64h7.82v11.64h12.07v6.71h-12.07v25.33c0,3,.55,5.06,1.66,6.16,1.11,1.1,3.02,1.66,5.74,1.66h4.76Z"/><path class="cls-1" d="M1172.74,95.45c3.15,2.27,5.34,5.3,6.59,9.1v-11.9h7.73v46.67h-7.73v-11.9c-1.25,3.8-3.44,6.83-6.59,9.1-3.14,2.27-6.98,3.4-11.52,3.4-4.14,0-7.82-.96-11.05-2.89-3.23-1.93-5.77-4.69-7.61-8.29-1.84-3.6-2.76-7.83-2.76-12.71s.92-9.12,2.76-12.75c1.84-3.63,4.38-6.4,7.61-8.33,3.23-1.93,6.91-2.89,11.05-2.89,4.53,0,8.37,1.13,11.52,3.4Zm-20.74,8.03c-2.86,3.03-4.29,7.21-4.29,12.54s1.43,9.51,4.29,12.54c2.86,3.03,6.67,4.55,11.43,4.55,3.06,0,5.79-.71,8.2-2.12,2.41-1.42,4.29-3.41,5.65-5.99,1.36-2.58,2.04-5.57,2.04-8.97s-.68-6.4-2.04-9.01c-1.36-2.61-3.25-4.6-5.65-5.99-2.41-1.39-5.14-2.08-8.2-2.08-4.76,0-8.57,1.52-11.43,4.55Z"/><path class="cls-1" d="M1237.21,97.11c3.34,3.48,5.02,8.51,5.02,15.09v27.12h-7.74v-26.43c0-4.65-1.19-8.22-3.57-10.71-2.38-2.49-5.61-3.74-9.69-3.74s-7.65,1.37-10.2,4.12c-2.55,2.75-3.83,6.76-3.83,12.03v24.74h-7.73v-46.67h7.73v11.05c1.19-3.8,3.3-6.71,6.33-8.75,3.03-2.04,6.53-3.06,10.5-3.06,5.44,0,9.83,1.74,13.17,5.23Z"/><path class="cls-1" d="M1284.85,95.45c3.14,2.27,5.34,5.3,6.59,9.1v-28.14h7.74v62.9h-7.74v-11.9c-1.25,3.8-3.44,6.83-6.59,9.1-3.15,2.27-6.99,3.4-11.52,3.4-4.14,0-7.82-.96-11.05-2.89-3.23-1.93-5.77-4.69-7.61-8.29-1.84-3.6-2.76-7.83-2.76-12.71s.92-9.12,2.76-12.75c1.84-3.63,4.38-6.4,7.61-8.33,3.23-1.93,6.91-2.89,11.05-2.89,4.53,0,8.37,1.13,11.52,3.4Zm-20.74,8.03c-2.86,3.03-4.29,7.21-4.29,12.54s1.43,9.51,4.29,12.54c2.86,3.03,6.67,4.55,11.43,4.55,3.06,0,5.79-.71,8.2-2.12,2.41-1.42,4.29-3.41,5.65-5.99,1.36-2.58,2.04-5.57,2.04-8.97s-.68-6.4-2.04-9.01c-1.36-2.61-3.24-4.6-5.65-5.99-2.41-1.39-5.14-2.08-8.2-2.08-4.76,0-8.57,1.52-11.43,4.55Z"/><path class="cls-1" d="M1311.67,75.52c.96-.88,2.24-1.32,3.83-1.32s2.86,.44,3.83,1.32c.96,.88,1.45,2.03,1.45,3.44s-.48,2.56-1.45,3.44c-.96,.88-2.24,1.32-3.83,1.32s-2.86-.44-3.83-1.32c-.96-.88-1.44-2.03-1.44-3.44s.48-2.56,1.44-3.44Zm7.65,17.13v46.67h-7.74v-46.67h7.74Z"/><path class="cls-1" d="M1369.55,97.11c3.34,3.48,5.01,8.51,5.01,15.09v27.12h-7.74v-26.43c0-4.65-1.19-8.22-3.57-10.71-2.38-2.49-5.61-3.74-9.69-3.74s-7.65,1.37-10.2,4.12c-2.55,2.75-3.82,6.76-3.82,12.03v24.74h-7.74v-46.67h7.74v11.05c1.19-3.8,3.3-6.71,6.33-8.75,3.03-2.04,6.53-3.06,10.5-3.06,5.44,0,9.83,1.74,13.17,5.23Z"/><path class="cls-1" d="M1417.19,95.45c3.14,2.27,5.34,5.3,6.59,9.1v-11.9h7.74v47.43c0,4.31-.91,8.13-2.72,11.48-1.81,3.34-4.36,5.95-7.65,7.82-3.29,1.87-7.11,2.81-11.47,2.81-6.29,0-11.42-1.52-15.39-4.55-3.97-3.03-6.49-7.13-7.56-12.28h7.65c.91,3.12,2.62,5.57,5.14,7.35s5.77,2.68,9.73,2.68c4.19,0,7.66-1.35,10.41-4.04,2.75-2.69,4.12-6.45,4.12-11.26v-12.67c-1.25,3.8-3.44,6.83-6.59,9.1-3.15,2.27-6.98,3.4-11.52,3.4-4.14,0-7.82-.96-11.05-2.89-3.23-1.93-5.77-4.69-7.61-8.29s-2.76-7.83-2.76-12.71,.92-9.12,2.76-12.75c1.84-3.63,4.38-6.4,7.61-8.33,3.23-1.93,6.91-2.89,11.05-2.89,4.53,0,8.37,1.13,11.52,3.4Zm-20.74,8.03c-2.86,3.03-4.29,7.21-4.29,12.54s1.43,9.51,4.29,12.54c2.86,3.03,6.67,4.55,11.43,4.55,3.06,0,5.79-.71,8.2-2.12,2.41-1.42,4.29-3.41,5.65-5.99,1.36-2.58,2.04-5.57,2.04-8.97s-.68-6.4-2.04-9.01c-1.36-2.61-3.24-4.6-5.65-5.99-2.41-1.39-5.14-2.08-8.2-2.08-4.76,0-8.57,1.52-11.43,4.55Z"/><path class="cls-1" d="M1498.2,94.94c3.54,1.93,6.32,4.7,8.33,8.33,2.01,3.63,3.02,7.88,3.02,12.75s-1.01,9.11-3.02,12.71c-2.01,3.6-4.79,6.36-8.33,8.29-3.54,1.93-7.55,2.89-12.03,2.89s-8.49-.96-12.03-2.89c-3.54-1.93-6.33-4.69-8.37-8.29s-3.06-7.83-3.06-12.71,1.02-9.12,3.06-12.75c2.04-3.63,4.83-6.4,8.37-8.33,3.54-1.93,7.55-2.89,12.03-2.89s8.49,.96,12.03,2.89Zm-19.72,5.78c-2.35,1.25-4.25,3.16-5.7,5.74-1.45,2.58-2.17,5.77-2.17,9.56s.72,6.9,2.17,9.48c1.45,2.58,3.34,4.49,5.7,5.74,2.35,1.25,4.92,1.87,7.69,1.87s5.34-.62,7.69-1.87c2.35-1.25,4.25-3.16,5.7-5.74,1.44-2.58,2.17-5.74,2.17-9.48s-.72-6.98-2.17-9.56c-1.45-2.58-3.34-4.49-5.7-5.74-2.35-1.25-4.92-1.87-7.69-1.87s-5.34,.62-7.69,1.87Z"/><path class="cls-1" d="M1531.77,83.72c-1.62,1.47-2.42,4.02-2.42,7.65v1.28h11.05v6.8h-11.05v39.87h-7.73v-39.87h-6.72v-6.8h6.72v-1.87c0-11.16,6.26-16.49,18.78-15.98v6.8c-4.14-.06-7.01,.65-8.63,2.12Z"/><path class="cls-1" d="M1634.07,92.65l-13.43,46.67h-8.33l-12.83-38-12.92,38h-8.42l-13.26-46.67h7.82l9.94,39.27,12.92-39.27h8.08l13,39.18,10.03-39.18h7.4Z"/><path class="cls-1" d="M1679.12,97.11c3.34,3.48,5.01,8.51,5.01,15.09v27.12h-7.73v-26.43c0-4.65-1.19-8.22-3.57-10.71-2.38-2.49-5.61-3.74-9.69-3.74s-7.65,1.37-10.2,4.12c-2.55,2.75-3.83,6.76-3.83,12.03v24.74h-7.74v-62.9h7.74v27.29c1.19-3.8,3.3-6.71,6.33-8.75,3.03-2.04,6.53-3.06,10.5-3.06,5.44,0,9.83,1.74,13.17,5.23Z"/><path class="cls-1" d="M1738.7,117.64h-37.31c.17,5.33,1.69,9.32,4.55,11.98,2.86,2.67,6.36,4,10.5,4,3.74,0,6.87-.95,9.39-2.85,2.52-1.9,4.06-4.43,4.63-7.61h8.25c-.57,3.23-1.83,6.12-3.78,8.67-1.96,2.55-4.49,4.54-7.61,5.95-3.12,1.42-6.63,2.12-10.54,2.12-4.48,0-8.44-.96-11.9-2.89-3.46-1.93-6.16-4.69-8.12-8.29s-2.93-7.83-2.93-12.71,.98-9.12,2.93-12.75c1.96-3.63,4.66-6.4,8.12-8.33,3.46-1.93,7.42-2.89,11.9-2.89s8.49,.96,11.86,2.89c3.37,1.93,5.95,4.5,7.73,7.74,1.79,3.23,2.68,6.8,2.68,10.71,0,1.64-.11,3.06-.34,4.25Zm-9.18-12.41c-1.3-2.32-3.09-4.05-5.36-5.18-2.27-1.13-4.73-1.7-7.39-1.7-4.25,0-7.82,1.32-10.71,3.95-2.89,2.63-4.45,6.5-4.67,11.6h29.83c.17-3.46-.4-6.35-1.7-8.67Z"/><path class="cls-1" d="M1763.69,94.56c2.95-1.78,6.46-2.68,10.54-2.68v8.42h-2.38c-4.36,0-7.93,1.12-10.71,3.36-2.78,2.24-4.17,5.94-4.17,11.09v24.57h-7.74v-46.67h7.74v9.43c1.53-3.23,3.77-5.74,6.71-7.52Z"/><path class="cls-1" d="M1824.55,117.64h-37.32c.17,5.33,1.69,9.32,4.55,11.98,2.86,2.67,6.36,4,10.5,4,3.74,0,6.87-.95,9.39-2.85,2.52-1.9,4.07-4.43,4.63-7.61h8.25c-.57,3.23-1.83,6.12-3.78,8.67-1.96,2.55-4.49,4.54-7.61,5.95-3.12,1.42-6.63,2.12-10.54,2.12-4.48,0-8.44-.96-11.9-2.89-3.46-1.93-6.16-4.69-8.12-8.29s-2.93-7.83-2.93-12.71,.98-9.12,2.93-12.75c1.96-3.63,4.66-6.4,8.12-8.33,3.46-1.93,7.42-2.89,11.9-2.89s8.49,.96,11.86,2.89c3.37,1.93,5.95,4.5,7.73,7.74,1.79,3.23,2.68,6.8,2.68,10.71,0,1.64-.11,3.06-.34,4.25Zm-9.18-12.41c-1.3-2.32-3.09-4.05-5.36-5.18-2.27-1.13-4.73-1.7-7.39-1.7-4.25,0-7.82,1.32-10.71,3.95-2.89,2.63-4.45,6.5-4.68,11.6h29.84c.17-3.46-.4-6.35-1.7-8.67Z"/><path class="cls-1" d="M1886.81,95.45c3.15,2.27,5.34,5.3,6.59,9.1v-11.9h7.73v46.67h-7.73v-11.9c-1.25,3.8-3.44,6.83-6.59,9.1-3.14,2.27-6.98,3.4-11.52,3.4-4.14,0-7.82-.96-11.05-2.89-3.23-1.93-5.77-4.69-7.61-8.29-1.84-3.6-2.76-7.83-2.76-12.71s.92-9.12,2.76-12.75c1.84-3.63,4.38-6.4,7.61-8.33,3.23-1.93,6.91-2.89,11.05-2.89,4.53,0,8.37,1.13,11.52,3.4Zm-20.74,8.03c-2.86,3.03-4.29,7.21-4.29,12.54s1.43,9.51,4.29,12.54c2.86,3.03,6.67,4.55,11.43,4.55,3.06,0,5.79-.71,8.2-2.12,2.41-1.42,4.29-3.41,5.65-5.99,1.36-2.58,2.04-5.57,2.04-8.97s-.68-6.4-2.04-9.01-3.25-4.6-5.65-5.99c-2.41-1.39-5.14-2.08-8.2-2.08-4.76,0-8.57,1.52-11.43,4.55Z"/><path class="cls-1" d="M1921.28,76.41v62.9h-7.74v-62.9h7.74Z"/><path class="cls-1" d="M1970.58,94.94c3.23,1.93,5.77,4.7,7.61,8.33,1.84,3.63,2.76,7.88,2.76,12.75s-.92,9.11-2.76,12.71c-1.84,3.6-4.38,6.36-7.61,8.29-3.23,1.93-6.91,2.89-11.05,2.89-4.53,0-8.37-1.15-11.52-3.44-3.14-2.29-5.31-5.31-6.5-9.05v34h-7.73V92.65h7.73v11.9c1.19-3.74,3.36-6.76,6.5-9.05,3.15-2.29,6.98-3.44,11.52-3.44,4.14,0,7.82,.96,11.05,2.89Zm-21.42,6.08c-2.44,1.39-4.33,3.39-5.7,5.99-1.36,2.61-2.04,5.61-2.04,9.01s.68,6.39,2.04,8.97c1.36,2.58,3.26,4.58,5.7,5.99,2.44,1.42,5.16,2.12,8.16,2.12,4.82,0,8.66-1.52,11.52-4.55,2.86-3.03,4.29-7.21,4.29-12.54s-1.43-9.5-4.29-12.54c-2.86-3.03-6.7-4.55-11.52-4.55-3,0-5.72,.69-8.16,2.08Z"/><path class="cls-1" d="M2028.89,97.11c3.34,3.48,5.01,8.51,5.01,15.09v27.12h-7.73v-26.43c0-4.65-1.19-8.22-3.57-10.71-2.38-2.49-5.61-3.74-9.69-3.74s-7.65,1.37-10.2,4.12c-2.55,2.75-3.83,6.76-3.83,12.03v24.74h-7.73v-62.9h7.73v27.29c1.19-3.8,3.3-6.71,6.33-8.75s6.53-3.06,10.5-3.06c5.44,0,9.83,1.74,13.17,5.23Z"/><path class="cls-1" d="M2076.53,95.45c3.15,2.27,5.34,5.3,6.59,9.1v-11.9h7.73v46.67h-7.73v-11.9c-1.25,3.8-3.44,6.83-6.59,9.1-3.14,2.27-6.98,3.4-11.52,3.4-4.14,0-7.82-.96-11.05-2.89-3.23-1.93-5.77-4.69-7.61-8.29-1.84-3.6-2.76-7.83-2.76-12.71s.92-9.12,2.76-12.75c1.84-3.63,4.38-6.4,7.61-8.33,3.23-1.93,6.91-2.89,11.05-2.89,4.53,0,8.37,1.13,11.52,3.4Zm-20.74,8.03c-2.86,3.03-4.29,7.21-4.29,12.54s1.43,9.51,4.29,12.54c2.86,3.03,6.67,4.55,11.43,4.55,3.06,0,5.79-.71,8.2-2.12,2.41-1.42,4.29-3.41,5.65-5.99,1.36-2.58,2.04-5.57,2.04-8.97s-.68-6.4-2.04-9.01-3.25-4.6-5.65-5.99c-2.41-1.39-5.14-2.08-8.2-2.08-4.76,0-8.57,1.52-11.43,4.55Z"/><path class="cls-1" d="M2159.79,96.81c3.91,3.17,6.32,7.42,7.23,12.75h-8.16c-.57-3.34-2.11-5.96-4.63-7.86-2.52-1.9-5.65-2.85-9.39-2.85-2.72,0-5.2,.62-7.44,1.87-2.24,1.25-4.04,3.16-5.4,5.74-1.36,2.58-2.04,5.77-2.04,9.56s.68,6.98,2.04,9.56c1.36,2.58,3.16,4.49,5.4,5.74,2.24,1.25,4.72,1.87,7.44,1.87,3.74,0,6.87-.96,9.39-2.89,2.52-1.93,4.07-4.56,4.63-7.91h8.16c-.91,5.38-3.32,9.65-7.23,12.79-3.91,3.14-8.84,4.72-14.79,4.72-4.48,0-8.44-.96-11.9-2.89-3.46-1.93-6.16-4.69-8.12-8.29s-2.93-7.83-2.93-12.71,.98-9.12,2.93-12.75c1.96-3.63,4.66-6.4,8.12-8.33,3.46-1.93,7.42-2.89,11.9-2.89,5.95,0,10.88,1.59,14.79,4.76Z"/><path class="cls-1" d="M2210.4,94.94c3.54,1.93,6.32,4.7,8.33,8.33,2.01,3.63,3.02,7.88,3.02,12.75s-1.01,9.11-3.02,12.71c-2.01,3.6-4.79,6.36-8.33,8.29-3.54,1.93-7.55,2.89-12.03,2.89s-8.49-.96-12.03-2.89c-3.54-1.93-6.33-4.69-8.37-8.29-2.04-3.6-3.06-7.83-3.06-12.71s1.02-9.12,3.06-12.75c2.04-3.63,4.83-6.4,8.37-8.33,3.54-1.93,7.55-2.89,12.03-2.89s8.49,.96,12.03,2.89Zm-19.72,5.78c-2.35,1.25-4.25,3.16-5.7,5.74-1.44,2.58-2.17,5.77-2.17,9.56s.72,6.9,2.17,9.48c1.45,2.58,3.34,4.49,5.7,5.74,2.35,1.25,4.92,1.87,7.69,1.87s5.34-.62,7.69-1.87c2.35-1.25,4.25-3.16,5.7-5.74,1.44-2.58,2.17-5.74,2.17-9.48s-.72-6.98-2.17-9.56c-1.45-2.58-3.34-4.49-5.7-5.74-2.35-1.25-4.92-1.87-7.69-1.87s-5.34,.62-7.69,1.87Z"/><path class="cls-1" d="M2302.46,97.11c3.31,3.48,4.97,8.51,4.97,15.09v27.12h-7.74v-26.43c0-4.59-1.12-8.1-3.36-10.54-2.24-2.44-5.31-3.66-9.22-3.66s-7.35,1.35-9.82,4.04c-2.46,2.69-3.7,6.64-3.7,11.86v24.74h-7.74v-26.43c0-4.59-1.13-8.1-3.4-10.54-2.27-2.44-5.33-3.66-9.18-3.66-4.14,0-7.44,1.35-9.9,4.04-2.46,2.69-3.7,6.64-3.7,11.86v24.74h-7.74v-46.67h7.74v10.62c1.13-3.68,3.16-6.5,6.08-8.46,2.92-1.96,6.28-2.93,10.07-2.93s7.41,1.01,10.33,3.02c2.92,2.01,5,4.97,6.25,8.88,1.3-3.8,3.49-6.73,6.54-8.8,3.06-2.07,6.52-3.1,10.37-3.1,5.44,0,9.82,1.74,13.13,5.23Z"/><path class="cls-1" d="M2362.08,117.64h-37.32c.17,5.33,1.69,9.32,4.55,11.98,2.86,2.67,6.36,4,10.5,4,3.74,0,6.87-.95,9.39-2.85,2.52-1.9,4.07-4.43,4.63-7.61h8.25c-.57,3.23-1.83,6.12-3.78,8.67-1.96,2.55-4.49,4.54-7.61,5.95-3.12,1.42-6.63,2.12-10.54,2.12-4.48,0-8.44-.96-11.9-2.89-3.46-1.93-6.16-4.69-8.12-8.29s-2.93-7.83-2.93-12.71,.98-9.12,2.93-12.75c1.96-3.63,4.66-6.4,8.12-8.33,3.46-1.93,7.42-2.89,11.9-2.89s8.49,.96,11.86,2.89c3.37,1.93,5.95,4.5,7.74,7.74,1.79,3.23,2.68,6.8,2.68,10.71,0,1.64-.11,3.06-.34,4.25Zm-9.18-12.41c-1.3-2.32-3.09-4.05-5.35-5.18-2.27-1.13-4.73-1.7-7.4-1.7-4.25,0-7.82,1.32-10.71,3.95-2.89,2.63-4.45,6.5-4.67,11.6h29.83c.17-3.46-.4-6.35-1.7-8.67Z"/><path class="cls-1" d="M2399.95,96.17c3.2,2.75,5.14,6.45,5.82,11.09h-7.4c-.34-2.78-1.49-5.06-3.44-6.84s-4.58-2.68-7.86-2.68c-2.78,0-4.94,.67-6.5,2-1.56,1.33-2.34,3.13-2.34,5.4,0,1.7,.52,3.07,1.57,4.12,1.05,1.05,2.35,1.84,3.91,2.38,1.56,.54,3.7,1.12,6.42,1.74,3.46,.79,6.25,1.6,8.37,2.42,2.12,.82,3.94,2.14,5.44,3.95,1.5,1.81,2.25,4.25,2.25,7.31,0,3.8-1.43,6.88-4.29,9.27-2.86,2.38-6.67,3.57-11.43,3.57-5.55,0-10.09-1.33-13.6-4-3.51-2.66-5.58-6.38-6.21-11.13h7.48c.28,2.83,1.51,5.13,3.7,6.88,2.18,1.76,5.06,2.64,8.63,2.64,2.66,0,4.75-.68,6.25-2.04,1.5-1.36,2.25-3.15,2.25-5.36,0-1.81-.54-3.26-1.62-4.33-1.08-1.08-2.41-1.9-3.99-2.46-1.59-.57-3.77-1.16-6.54-1.79-3.46-.79-6.22-1.59-8.29-2.38-2.07-.79-3.83-2.05-5.27-3.78-1.45-1.73-2.17-4.07-2.17-7.01,0-3.91,1.45-7.07,4.33-9.48,2.89-2.41,6.83-3.61,11.82-3.61,5.27,0,9.5,1.37,12.71,4.12Z"/><path class="cls-1" d="M2449.76,83.72c-1.62,1.47-2.42,4.02-2.42,7.65v1.28h11.05v6.8h-11.05v39.87h-7.74v-39.87h-6.71v-6.8h6.71v-1.87c0-11.16,6.26-16.49,18.79-15.98v6.8c-4.14-.06-7.01,.65-8.63,2.12Z"/><path class="cls-1" d="M2481.34,94.56c2.95-1.78,6.46-2.68,10.54-2.68v8.42h-2.38c-4.36,0-7.93,1.12-10.71,3.36-2.78,2.24-4.17,5.94-4.17,11.09v24.57h-7.74v-46.67h7.74v9.43c1.53-3.23,3.77-5.74,6.71-7.52Z"/><path class="cls-1" d="M2532.8,94.94c3.54,1.93,6.32,4.7,8.33,8.33,2.01,3.63,3.02,7.88,3.02,12.75s-1.01,9.11-3.02,12.71-4.79,6.36-8.33,8.29c-3.54,1.93-7.55,2.89-12.03,2.89s-8.49-.96-12.03-2.89c-3.54-1.93-6.33-4.69-8.37-8.29s-3.06-7.83-3.06-12.71,1.02-9.12,3.06-12.75c2.04-3.63,4.83-6.4,8.37-8.33,3.54-1.93,7.55-2.89,12.03-2.89s8.49,.96,12.03,2.89Zm-19.72,5.78c-2.35,1.25-4.25,3.16-5.69,5.74-1.45,2.58-2.17,5.77-2.17,9.56s.72,6.9,2.17,9.48c1.44,2.58,3.34,4.49,5.69,5.74,2.35,1.25,4.92,1.87,7.69,1.87s5.34-.62,7.69-1.87c2.35-1.25,4.25-3.16,5.69-5.74,1.45-2.58,2.17-5.74,2.17-9.48s-.72-6.98-2.17-9.56c-1.44-2.58-3.34-4.49-5.69-5.74-2.35-1.25-4.92-1.87-7.69-1.87s-5.34,.62-7.69,1.87Z"/><path class="cls-1" d="M2624.86,97.11c3.32,3.48,4.97,8.51,4.97,15.09v27.12h-7.74v-26.43c0-4.59-1.12-8.1-3.36-10.54-2.24-2.44-5.31-3.66-9.22-3.66s-7.35,1.35-9.82,4.04c-2.46,2.69-3.7,6.64-3.7,11.86v24.74h-7.73v-26.43c0-4.59-1.13-8.1-3.4-10.54-2.27-2.44-5.33-3.66-9.18-3.66-4.14,0-7.44,1.35-9.9,4.04-2.46,2.69-3.7,6.64-3.7,11.86v24.74h-7.74v-46.67h7.74v10.62c1.13-3.68,3.16-6.5,6.08-8.46,2.92-1.96,6.28-2.93,10.07-2.93s7.41,1.01,10.33,3.02c2.92,2.01,5,4.97,6.25,8.88,1.3-3.8,3.48-6.73,6.54-8.8,3.06-2.07,6.52-3.1,10.37-3.1,5.44,0,9.82,1.74,13.13,5.23Z"/><path class="cls-1" d="M2648.61,93.5v9.1h-9.35v-9.1h9.35Zm0,36.72v9.09h-9.35v-9.09h9.35Z"/></g><g class="cls-4"><g><g id="tmjHHr"><g><path class="cls-1" d="M688.92,1737.47c0-3.4,0-6.8,0-10.2,0-1.54,.54-2.22,2.03-2.22,7.18,.04,14.36-.33,21.54,.22,1.41,.11,2.75,.48,4.03,1.05,2.37,1.05,3.74,2.83,3.82,5.47,.04,1.2,.04,2.4,0,3.59-.1,2.69-1.53,4.45-3.95,5.49-2.56,1.1-5.28,1.23-7.99,1.27-3.96,.05-7.92,.01-11.88,.02q-1.47,0-1.47,1.52c0,1.43,.02,2.86,0,4.29-.03,1.47-.79,2.27-2.28,2.4-.5,.04-1.01,.04-1.51,0-1.55-.12-2.3-.9-2.31-2.46-.02-3.48,0-6.96,0-10.43Zm14.43-7.54s0-.06,0-.09c-2.41,0-4.81,.03-7.22-.02-.88-.02-1.14,.28-1.11,1.14,.06,1.77,.05,3.55,0,5.33-.02,.81,.22,1.06,1.04,1.05,3.8-.04,7.6-.03,11.41-.01,1.32,0,2.64-.03,3.95-.21,2.07-.29,2.75-1.06,2.75-3.11,0-.46-.03-.93,0-1.39,.09-1.19-.5-1.86-1.57-2.27-.66-.25-1.34-.4-2.04-.41-2.4-.02-4.81,0-7.21,0Z"/><path class="cls-1" d="M725.28,1737.55c0-3.32,0-6.65,0-9.97,0-1.98,.92-2.76,3.16-2.75,2.08,0,2.95,.79,2.97,2.69,.01,2.28,.03,4.56-.01,6.84-.01,.75,.21,1,.99,.99,5.71-.03,11.42-.03,17.13,0,.77,0,1-.24,.98-.99-.04-2.32-.03-4.64,0-6.96,.01-1.79,.92-2.57,2.96-2.57,2.15,0,3.12,.75,3.12,2.54,.01,6.84,.01,13.68,0,20.52,0,1.55-.77,2.35-2.32,2.47-.5,.04-1.01,.04-1.51,0-1.47-.13-2.23-.93-2.25-2.42-.02-2.24-.04-4.48,0-6.73,.02-.78-.18-1.07-1.03-1.06-5.67,.03-11.34,.03-17.01,0-.79,0-1.09,.19-1.07,1.03,.05,2.2,.03,4.41,.01,6.61-.01,1.69-.76,2.47-2.45,2.59-.42,.03-.86,.03-1.28,0-1.63-.11-2.39-.89-2.4-2.51-.02-3.44,0-6.88,0-10.32Z"/><path class="cls-1" d="M649.14,1750.4c-1.19,.09-2.1-.57-2.79-1.59-.87-1.28-1.74-2.56-2.56-3.87-.33-.52-.71-.71-1.32-.71-5.08,.02-10.17,.02-15.25,0-.68,0-1.05,.24-1.39,.79-.78,1.25-1.6,2.47-2.43,3.67-1.12,1.61-2.6,2.11-4.48,1.59-1.5-.42-2.19-1.84-1.55-3.29,.19-.42,.45-.81,.72-1.19,4.38-6.32,8.77-12.65,13.17-18.96,1.94-2.78,5.05-2.78,6.99,0,4.34,6.21,8.67,12.43,13.01,18.65,.13,.19,.26,.38,.4,.57,.69,.97,1.07,2.01,.47,3.14-.6,1.11-1.71,1.21-2.95,1.21Zm-19.74-10.74h10.85c-1.86-2.79-3.62-5.42-5.45-8.16-1.84,2.77-3.56,5.38-5.4,8.16Z"/><path class="cls-1" d="M764.08,1750.4c-1.26,0-2.34-.16-2.94-1.27-.59-1.1-.2-2.09,.45-3.03,4.55-6.54,9.07-13.09,13.65-19.61,1.66-2.37,4.87-2.29,6.57,.14,4.51,6.42,8.99,12.87,13.47,19.31,1.17,1.69,1.14,3.07-.02,3.91-1.33,.98-3.81,.71-4.85-.65-1.01-1.32-1.91-2.72-2.79-4.13-.4-.64-.86-.85-1.6-.84-4.97,.03-9.94,.03-14.91,0-.75,0-1.21,.21-1.6,.85-.74,1.22-1.55,2.4-2.36,3.58-.76,1.12-1.75,1.86-3.07,1.73Zm19.91-10.73c-1.88-2.81-3.62-5.43-5.45-8.16-1.83,2.76-3.57,5.39-5.41,8.16h10.86Z"/><path class="cls-1" d="M655.82,1735.62c0-2.71-.01-5.41,0-8.12,.01-1.89,.89-2.66,2.99-2.67,2.16,0,3.11,.79,3.12,2.68,.01,4.91,0,9.82,0,14.73,0,1.75,.61,2.53,2.35,2.9,1.06,.22,2.14,.35,3.24,.34,4.89-.02,9.79-.02,14.68,0,1.94,.01,2.81,1.02,2.56,2.86-.11,.8-.52,1.38-1.27,1.66-.39,.15-.83,.27-1.24,.27-6.1-.05-12.2,.24-18.29-.17-1.59-.11-3.15-.47-4.59-1.19-2.28-1.14-3.54-2.94-3.55-5.53,0-2.59,0-5.18,0-7.77Z"/></g></g><path class="cls-1" d="M375.64,1726.25l18.65,15.9v-14.8c0-1.65,1.06-2.46,3.12-2.46s3.08,.81,3.08,2.46v20.74c0,1.69-1.06,2.53-3.22,2.53-1.5,0-2.24-.48-3.33-1.43l-18.61-15.94v14.84c0,1.69-1.03,2.53-3.12,2.53s-3.08-.84-3.08-2.53v-20.63c0-1.72,1.06-2.57,3.19-2.57,1.46,0,2.27,.44,3.33,1.36"/><path class="cls-1" d="M463.49,1727.05l6.85,15.17,6.38-15.39c.51-1.25,1.36-1.94,3.15-1.94,2.02,0,3.12,.84,3.12,2.53,0,.48-.11,.92-.48,1.72l-8.54,18.87c-.84,1.83-1.39,2.6-3.44,2.6s-3.01-.88-3.74-2.6l-6.67-14.44-6.63,14.44c-.81,1.72-1.57,2.6-3.7,2.6s-2.6-.77-3.48-2.6l-8.54-18.87c-.37-.77-.48-1.25-.48-1.72,0-1.69,1.1-2.53,3.15-2.53,1.76,0,2.64,.7,3.15,1.94l6.34,15.43,6.89-15.21c.59-1.28,1.25-2.16,3.33-2.16s2.75,.88,3.33,2.16"/><path class="cls-1" d="M521.46,1744.39h-17.04l-2.97,4.47c-.77,1.17-1.76,1.76-3.01,1.76-2.13,0-3.3-.84-3.3-2.46,0-.66,.22-1.17,.88-2.12l13.6-19.53c.73-1.06,1.87-1.61,3.26-1.61s2.46,.55,3.19,1.61l13.63,19.53c.66,.95,.88,1.46,.88,2.12,0,1.61-1.1,2.46-3.26,2.46-1.14,0-2.13-.59-2.9-1.76l-2.97-4.47Zm-14.04-4.51h11.03l-5.53-8.28-5.5,8.28Z"/><path class="cls-1" d="M546,1750.43c-7.48,0-11.21-2.38-11.21-7.18v-11.36c0-4.54,3.67-6.82,11.03-6.82h4.4c1.87,0,2.78,.81,2.78,2.38s-.92,2.45-2.78,2.45h-4.29c-3.3,0-4.95,.73-4.95,2.16v10.96c0,1.69,1.8,2.57,5.39,2.57h7.88c3.59,0,5.42-.88,5.42-2.57v-5.83c0-1.69,1.02-2.53,3.08-2.53s3.12,.84,3.12,2.53v6.05c0,4.8-3.77,7.18-11.21,7.18h-8.65Z"/><path class="cls-1" d="M583.85,1750.43c-7.48,0-11.21-2.38-11.21-7.15v-11.36c0-4.58,3.67-6.85,11.03-6.85h4.62c1.83,0,2.78,.81,2.78,2.38s-.95,2.45-2.78,2.45h-4.51c-3.3,0-4.95,.73-4.95,2.2v3.3h16.34c1.72,0,2.57,.73,2.57,2.24s-.84,2.27-2.57,2.27h-16.34v3.15c0,1.69,1.8,2.53,5.39,2.53h17.51c1.83,0,2.78,.77,2.78,2.38s-.95,2.45-2.78,2.45h-17.88Z"/><path class="cls-1" d="M418.65,1750.43c-7.48,0-11.21-2.38-11.21-7.15v-11.36c0-4.58,3.67-6.85,11.03-6.85h4.62c1.83,0,2.78,.81,2.78,2.38s-.95,2.45-2.78,2.45h-4.51c-3.3,0-4.95,.73-4.95,2.2v3.3h16.34c1.72,0,2.56,.73,2.56,2.24s-.84,2.27-2.56,2.27h-16.34v3.15c0,1.69,1.8,2.53,5.39,2.53h17.51c1.83,0,2.78,.77,2.78,2.38s-.95,2.45-2.78,2.45h-17.88Z"/><path class="cls-1" d="M794.73,1730.28c0-3.14,2.27-5.47,5.33-5.47s5.31,2.25,5.31,5.42-2.27,5.47-5.33,5.47-5.31-2.25-5.31-5.42Zm9.98-.03c0-2.81-1.98-4.87-4.69-4.87s-4.64,2.01-4.64,4.88,1.96,4.85,4.67,4.85,4.66-2.01,4.66-4.87Zm-3.37,2.53l-1.78-1.99h-.7v1.91c0,.21-.11,.34-.31,.34h-.11c-.21,0-.33-.15-.33-.38v-4.84c0-.28,.16-.44,.42-.44h1.65c1.37,0,2.11,.57,2.11,1.7,0,.85-.46,1.44-1.42,1.6-.16,.03-.33,.05-.52,.05l1.91,1.99c.03,.07-.15,.31-.41,.31-.15,0-.34-.07-.51-.26Zm-1.16-2.6c.91,0,1.39-.41,1.39-1.09s-.49-1.08-1.42-1.08h-1.31v2.17h1.34Z"/></g></g><polygon class="cls-5" points="0 182.15 273.55 182.15 234.56 58.99 0 58.99 0 182.15"/><line class="cls-3" x1="0" y1="182.15" x2="3200.03" y2="182.15"/><g><path class="cls-1" d="M1410.72,1727.19v1.37h-7.49v6.46h6.48v1.32h-6.48v7.78h-1.7v-16.92h9.19Z"/><path class="cls-1" d="M1422.73,1731.65c.98,.54,1.76,1.31,2.32,2.33,.56,1.02,.84,2.21,.84,3.59s-.28,2.57-.84,3.58c-.56,1.01-1.33,1.78-2.32,2.33-.98,.54-2.1,.82-3.35,.82s-2.37-.27-3.36-.82c-.99-.54-1.77-1.32-2.34-2.34-.57-1.02-.85-2.2-.85-3.56s.28-2.57,.85-3.59c.57-1.02,1.35-1.79,2.34-2.33,.99-.54,2.11-.8,3.36-.8s2.36,.27,3.35,.8Zm-5.75,1.24c-.74,.38-1.33,.97-1.78,1.76s-.67,1.76-.67,2.92,.22,2.12,.67,2.9c.45,.78,1.04,1.37,1.78,1.75,.74,.38,1.54,.58,2.4,.58s1.64-.19,2.36-.58c.73-.38,1.32-.97,1.76-1.75,.45-.78,.67-1.75,.67-2.9s-.22-2.12-.67-2.92c-.45-.79-1.04-1.38-1.76-1.76-.73-.38-1.52-.58-2.36-.58s-1.66,.19-2.4,.58Z"/><path class="cls-1" d="M1432.48,1731.54c.85-.51,1.88-.77,3.1-.77v1.82h-.55c-1.26,0-2.31,.34-3.14,1.02-.83,.68-1.25,1.79-1.25,3.32v7.18h-1.7v-13.1h1.7v2.71c.38-.94,1-1.67,1.85-2.18Z"/><path class="cls-1" d="M1447.06,1728.19c-.49,.46-.73,1.22-.73,2.29v.53h3.29v1.49h-3.29v11.62h-1.68v-11.62h-1.94v-1.49h1.94v-.65c0-1.47,.4-2.58,1.2-3.31,.8-.74,2.06-1.07,3.77-1.01v1.49c-1.22-.02-2.07,.2-2.56,.66Z"/><path class="cls-1" d="M1452.13,1726.28c.23-.21,.53-.31,.9-.31s.66,.1,.89,.31c.22,.21,.34,.49,.34,.84s-.11,.61-.34,.82c-.22,.21-.52,.31-.89,.31s-.67-.1-.9-.31c-.23-.21-.35-.48-.35-.82s.12-.63,.35-.84Zm1.74,4.73v13.1h-1.7v-13.1h1.7Z"/><path class="cls-1" d="M1467.8,1732.22c.95,.97,1.43,2.39,1.43,4.26v7.63h-1.66v-7.51c0-1.42-.36-2.52-1.08-3.28s-1.7-1.14-2.95-1.14c-1.31,0-2.36,.42-3.13,1.26-.78,.84-1.16,2.08-1.16,3.71v6.96h-1.7v-13.1h1.7v3.22c.34-1.12,.94-1.98,1.82-2.57s1.89-.89,3.02-.89c1.52,0,2.76,.48,3.71,1.45Z"/><path class="cls-1" d="M1481.72,1731.87c.94,.69,1.58,1.6,1.93,2.74v-3.6h1.66v13.1h-1.66v-3.6c-.35,1.14-1,2.05-1.93,2.74-.94,.69-2.07,1.03-3.4,1.03-1.18,0-2.24-.27-3.18-.82-.94-.54-1.66-1.32-2.18-2.34-.52-1.02-.78-2.2-.78-3.56s.26-2.57,.78-3.59c.52-1.02,1.24-1.79,2.17-2.33,.93-.54,1.99-.8,3.19-.8,1.33,0,2.46,.34,3.4,1.03Zm-6.5,1.86c-.89,.94-1.33,2.21-1.33,3.83s.44,2.89,1.33,3.83c.89,.94,2.07,1.4,3.54,1.4,.93,0,1.76-.22,2.51-.65s1.33-1.04,1.75-1.84c.42-.79,.64-1.71,.64-2.75s-.21-1.96-.64-2.75c-.42-.79-1.01-1.4-1.75-1.84s-1.58-.65-2.51-.65c-1.47,0-2.65,.47-3.54,1.4Z"/><path class="cls-1" d="M1499.24,1732.22c.95,.97,1.43,2.39,1.43,4.26v7.63h-1.66v-7.51c0-1.42-.36-2.52-1.08-3.28-.72-.76-1.7-1.14-2.95-1.14-1.31,0-2.36,.42-3.13,1.26-.78,.84-1.16,2.08-1.16,3.71v6.96h-1.7v-13.1h1.7v3.22c.34-1.12,.94-1.98,1.82-2.57s1.89-.89,3.02-.89c1.52,0,2.76,.48,3.71,1.45Z"/><path class="cls-1" d="M1514.17,1732.16c1.1,.88,1.76,2.05,2,3.5h-1.75c-.18-1.04-.66-1.86-1.46-2.46-.8-.6-1.78-.9-2.95-.9-.85,0-1.63,.19-2.34,.58-.71,.38-1.28,.97-1.7,1.76s-.64,1.76-.64,2.92,.21,2.12,.64,2.92,.99,1.38,1.7,1.76c.71,.38,1.49,.58,2.34,.58,1.17,0,2.15-.3,2.95-.9,.8-.6,1.29-1.42,1.46-2.46h1.75c-.24,1.46-.91,2.62-2,3.5-1.1,.88-2.48,1.32-4.14,1.32-1.25,0-2.36-.27-3.32-.8-.97-.54-1.72-1.31-2.27-2.33s-.82-2.21-.82-3.59,.27-2.57,.82-3.59,1.3-1.79,2.27-2.33c.97-.54,2.08-.8,3.32-.8,1.66,0,3.04,.44,4.14,1.32Z"/><path class="cls-1" d="M1519.18,1726.28c.23-.21,.53-.31,.9-.31s.66,.1,.89,.31c.22,.21,.34,.49,.34,.84s-.11,.61-.34,.82c-.22,.21-.52,.31-.89,.31s-.67-.1-.9-.31c-.23-.21-.35-.48-.35-.82s.12-.63,.35-.84Zm1.74,4.73v13.1h-1.7v-13.1h1.7Z"/><path class="cls-1" d="M1533.51,1731.87c.94,.69,1.58,1.6,1.93,2.74v-3.6h1.66v13.1h-1.66v-3.6c-.35,1.14-1,2.05-1.93,2.74-.94,.69-2.07,1.03-3.4,1.03-1.18,0-2.24-.27-3.18-.82-.94-.54-1.66-1.32-2.18-2.34-.52-1.02-.78-2.2-.78-3.56s.26-2.57,.78-3.59c.52-1.02,1.24-1.79,2.17-2.33,.93-.54,1.99-.8,3.19-.8,1.33,0,2.46,.34,3.4,1.03Zm-6.5,1.86c-.89,.94-1.33,2.21-1.33,3.83s.44,2.89,1.33,3.83c.89,.94,2.07,1.4,3.54,1.4,.93,0,1.76-.22,2.51-.65s1.33-1.04,1.75-1.84c.42-.79,.64-1.71,.64-2.75s-.21-1.96-.64-2.75c-.42-.79-1.01-1.4-1.75-1.84s-1.58-.65-2.51-.65c-1.47,0-2.65,.47-3.54,1.4Z"/><path class="cls-1" d="M1542.47,1726.35v17.76h-1.7v-17.76h1.7Z"/><path class="cls-1" d="M1562.6,1731.65c.92,.54,1.64,1.31,2.16,2.33,.52,1.02,.78,2.21,.78,3.59s-.26,2.55-.78,3.56c-.52,1.02-1.24,1.8-2.17,2.34-.93,.54-1.98,.82-3.17,.82-1.34,0-2.48-.34-3.41-1.03-.93-.69-1.57-1.6-1.92-2.74v9.79h-1.68v-19.3h1.68v3.6c.35-1.14,.99-2.05,1.92-2.74,.93-.69,2.06-1.03,3.41-1.03,1.2,0,2.26,.27,3.18,.8Zm-6.14,1.33c-.74,.43-1.32,1.04-1.74,1.84s-.62,1.71-.62,2.75,.21,1.96,.62,2.75,1,1.4,1.74,1.84,1.58,.65,2.51,.65c1.49,0,2.67-.47,3.55-1.4,.88-.94,1.32-2.21,1.32-3.83s-.44-2.89-1.32-3.83c-.88-.94-2.06-1.4-3.55-1.4-.93,0-1.76,.22-2.51,.65Z"/><path class="cls-1" d="M1572.14,1731.54c.85-.51,1.88-.77,3.1-.77v1.82h-.55c-1.26,0-2.31,.34-3.14,1.02-.83,.68-1.25,1.79-1.25,3.32v7.18h-1.7v-13.1h1.7v2.71c.38-.94,1-1.67,1.85-2.18Z"/><path class="cls-1" d="M1586.77,1731.65c.98,.54,1.76,1.31,2.32,2.33,.56,1.02,.84,2.21,.84,3.59s-.28,2.57-.84,3.58c-.56,1.01-1.33,1.78-2.32,2.33-.98,.54-2.1,.82-3.35,.82s-2.37-.27-3.36-.82c-.99-.54-1.77-1.32-2.34-2.34-.57-1.02-.85-2.2-.85-3.56s.28-2.57,.85-3.59c.57-1.02,1.35-1.79,2.34-2.33,.99-.54,2.11-.8,3.36-.8s2.36,.27,3.35,.8Zm-5.75,1.24c-.74,.38-1.33,.97-1.78,1.76s-.67,1.76-.67,2.92,.22,2.12,.67,2.9c.45,.78,1.04,1.37,1.78,1.75,.74,.38,1.54,.58,2.4,.58s1.64-.19,2.36-.58c.73-.38,1.32-.97,1.76-1.75,.45-.78,.67-1.75,.67-2.9s-.22-2.12-.67-2.92c-.45-.79-1.04-1.38-1.76-1.76-.73-.38-1.52-.58-2.36-.58s-1.66,.19-2.4,.58Z"/><path class="cls-1" d="M1595.93,1728.19c-.49,.46-.73,1.22-.73,2.29v.53h3.29v1.49h-3.29v11.62h-1.68v-11.62h-1.94v-1.49h1.94v-.65c0-1.47,.4-2.58,1.2-3.31,.8-.74,2.06-1.07,3.77-1.01v1.49c-1.22-.02-2.07,.2-2.56,.66Z"/><path class="cls-1" d="M1609.72,1742c.8-.59,1.28-1.39,1.44-2.4h1.78c-.24,1.39-.9,2.52-1.99,3.38-1.09,.86-2.46,1.3-4.13,1.3-1.25,0-2.36-.27-3.32-.8-.97-.54-1.72-1.31-2.27-2.33-.54-1.02-.82-2.21-.82-3.59s.27-2.57,.82-3.59c.54-1.02,1.3-1.79,2.27-2.33,.97-.54,2.08-.8,3.32-.8s2.39,.27,3.32,.8c.94,.54,1.65,1.25,2.14,2.15,.49,.9,.73,1.87,.73,2.93,0,.45-.03,.86-.1,1.22h-10.85c.02,1.1,.24,2.03,.68,2.77,.44,.74,1.01,1.29,1.72,1.64,.7,.35,1.46,.53,2.28,.53,1.18,0,2.18-.3,2.98-.89Zm-5.23-9.26c-.7,.35-1.28,.89-1.72,1.62-.44,.73-.68,1.64-.71,2.72h9.26c.06-1.07-.11-1.98-.53-2.71-.42-.74-.98-1.28-1.68-1.63-.7-.35-1.47-.53-2.3-.53s-1.62,.18-2.33,.53Z"/><path class="cls-1" d="M1623.45,1731.97c.86,.75,1.39,1.77,1.58,3.05h-1.61c-.1-.85-.44-1.55-1.04-2.1-.6-.55-1.4-.83-2.41-.83-.86,0-1.54,.21-2.03,.64-.49,.42-.73,.99-.73,1.69,0,.53,.16,.95,.47,1.27,.31,.32,.7,.56,1.16,.73s1.09,.34,1.87,.52c.96,.22,1.73,.45,2.32,.68,.58,.23,1.08,.6,1.5,1.09,.42,.5,.62,1.17,.62,2.02,0,1.04-.39,1.89-1.16,2.56-.78,.66-1.8,1-3.08,1-1.5,0-2.74-.37-3.7-1.12s-1.53-1.76-1.7-3.06h1.63c.1,.86,.47,1.57,1.13,2.11,.66,.54,1.54,.82,2.66,.82,.83,0,1.48-.22,1.94-.65,.46-.43,.7-.99,.7-1.68,0-.56-.16-1.01-.48-1.34s-.72-.59-1.19-.76c-.47-.17-1.12-.35-1.93-.54-.94-.22-1.7-.45-2.27-.67-.57-.22-1.05-.57-1.45-1.04-.4-.47-.6-1.12-.6-1.93,0-1.07,.39-1.94,1.18-2.59s1.85-.98,3.19-.98c1.42,0,2.57,.38,3.43,1.13Z"/><path class="cls-1" d="M1635.64,1731.97c.86,.75,1.39,1.77,1.58,3.05h-1.61c-.1-.85-.44-1.55-1.04-2.1-.6-.55-1.4-.83-2.41-.83-.86,0-1.54,.21-2.03,.64-.49,.42-.73,.99-.73,1.69,0,.53,.16,.95,.47,1.27,.31,.32,.7,.56,1.16,.73,.46,.17,1.09,.34,1.87,.52,.96,.22,1.73,.45,2.32,.68,.58,.23,1.08,.6,1.5,1.09,.42,.5,.62,1.17,.62,2.02,0,1.04-.39,1.89-1.16,2.56s-1.8,1-3.08,1c-1.5,0-2.74-.37-3.7-1.12s-1.53-1.76-1.7-3.06h1.63c.1,.86,.47,1.57,1.13,2.11,.66,.54,1.54,.82,2.66,.82,.83,0,1.48-.22,1.94-.65,.46-.43,.7-.99,.7-1.68,0-.56-.16-1.01-.48-1.34-.32-.34-.72-.59-1.19-.76s-1.12-.35-1.93-.54c-.94-.22-1.7-.45-2.27-.67-.57-.22-1.05-.57-1.45-1.04-.4-.47-.6-1.12-.6-1.93,0-1.07,.39-1.94,1.18-2.59s1.85-.98,3.19-.98c1.42,0,2.57,.38,3.43,1.13Z"/><path class="cls-1" d="M1640.4,1726.28c.23-.21,.53-.31,.9-.31s.66,.1,.89,.31,.34,.49,.34,.84-.11,.61-.34,.82c-.22,.21-.52,.31-.89,.31s-.67-.1-.9-.31c-.23-.21-.35-.48-.35-.82s.12-.63,.35-.84Zm1.74,4.73v13.1h-1.7v-13.1h1.7Z"/><path class="cls-1" d="M1655.09,1731.65c.98,.54,1.75,1.31,2.32,2.33s.84,2.21,.84,3.59-.28,2.57-.84,3.58c-.56,1.01-1.33,1.78-2.32,2.33-.98,.54-2.1,.82-3.35,.82s-2.37-.27-3.36-.82c-.99-.54-1.77-1.32-2.34-2.34-.57-1.02-.85-2.2-.85-3.56s.28-2.57,.85-3.59c.57-1.02,1.35-1.79,2.34-2.33,.99-.54,2.11-.8,3.36-.8s2.36,.27,3.35,.8Zm-5.75,1.24c-.74,.38-1.33,.97-1.78,1.76s-.67,1.76-.67,2.92,.22,2.12,.67,2.9c.45,.78,1.04,1.37,1.78,1.75,.74,.38,1.54,.58,2.4,.58s1.64-.19,2.36-.58c.73-.38,1.32-.97,1.76-1.75,.45-.78,.67-1.75,.67-2.9s-.22-2.12-.67-2.92-1.04-1.38-1.76-1.76c-.73-.38-1.52-.58-2.36-.58s-1.66,.19-2.4,.58Z"/><path class="cls-1" d="M1671.56,1732.22c.95,.97,1.43,2.39,1.43,4.26v7.63h-1.66v-7.51c0-1.42-.36-2.52-1.08-3.28-.72-.76-1.7-1.14-2.95-1.14-1.31,0-2.36,.42-3.13,1.26-.78,.84-1.16,2.08-1.16,3.71v6.96h-1.7v-13.1h1.7v3.22c.34-1.12,.94-1.98,1.82-2.57s1.89-.89,3.02-.89c1.52,0,2.76,.48,3.71,1.45Z"/><path class="cls-1" d="M1685.48,1731.87c.94,.69,1.58,1.6,1.93,2.74v-3.6h1.66v13.1h-1.66v-3.6c-.35,1.14-1,2.05-1.93,2.74-.94,.69-2.07,1.03-3.4,1.03-1.18,0-2.24-.27-3.18-.82-.94-.54-1.66-1.32-2.18-2.34-.52-1.02-.78-2.2-.78-3.56s.26-2.57,.78-3.59c.52-1.02,1.24-1.79,2.17-2.33,.93-.54,1.99-.8,3.19-.8,1.33,0,2.46,.34,3.4,1.03Zm-6.5,1.86c-.89,.94-1.33,2.21-1.33,3.83s.44,2.89,1.33,3.83c.89,.94,2.07,1.4,3.54,1.4,.93,0,1.76-.22,2.51-.65,.74-.43,1.33-1.04,1.75-1.84,.42-.79,.64-1.71,.64-2.75s-.21-1.96-.64-2.75c-.42-.79-1.01-1.4-1.75-1.84-.74-.43-1.58-.65-2.51-.65-1.47,0-2.65,.47-3.54,1.4Z"/><path class="cls-1" d="M1694.44,1726.35v17.76h-1.7v-17.76h1.7Z"/><path class="cls-1" d="M1715.68,1731.01v13.1h-1.68v-3.24c-.34,1.14-.94,2-1.82,2.59-.88,.59-1.89,.89-3.02,.89-1.54,0-2.78-.48-3.73-1.45-.95-.97-1.43-2.39-1.43-4.26v-7.63h1.68v7.49c0,1.44,.36,2.54,1.08,3.3,.72,.76,1.7,1.14,2.95,1.14,1.31,0,2.36-.42,3.13-1.26,.78-.84,1.16-2.08,1.16-3.71v-6.96h1.68Z"/><path class="cls-1" d="M1726.77,1731.97c.86,.75,1.39,1.77,1.58,3.05h-1.61c-.1-.85-.44-1.55-1.04-2.1-.6-.55-1.4-.83-2.41-.83-.86,0-1.54,.21-2.03,.64-.49,.42-.73,.99-.73,1.69,0,.53,.16,.95,.47,1.27,.31,.32,.7,.56,1.16,.73s1.09,.34,1.87,.52c.96,.22,1.73,.45,2.32,.68,.58,.23,1.08,.6,1.5,1.09,.42,.5,.62,1.17,.62,2.02,0,1.04-.39,1.89-1.16,2.56-.78,.66-1.8,1-3.08,1-1.5,0-2.74-.37-3.7-1.12s-1.53-1.76-1.7-3.06h1.63c.1,.86,.47,1.57,1.13,2.11,.66,.54,1.54,.82,2.66,.82,.83,0,1.48-.22,1.94-.65,.46-.43,.7-.99,.7-1.68,0-.56-.16-1.01-.48-1.34s-.72-.59-1.19-.76c-.47-.17-1.12-.35-1.93-.54-.94-.22-1.7-.45-2.27-.67-.57-.22-1.05-.57-1.45-1.04-.4-.47-.6-1.12-.6-1.93,0-1.07,.39-1.94,1.18-2.59s1.85-.98,3.19-.98c1.42,0,2.57,.38,3.43,1.13Z"/><path class="cls-1" d="M1740.25,1742c.8-.59,1.28-1.39,1.44-2.4h1.78c-.24,1.39-.9,2.52-1.99,3.38-1.09,.86-2.46,1.3-4.13,1.3-1.25,0-2.36-.27-3.32-.8-.97-.54-1.72-1.31-2.27-2.33s-.82-2.21-.82-3.59,.27-2.57,.82-3.59,1.3-1.79,2.27-2.33c.97-.54,2.08-.8,3.32-.8s2.39,.27,3.32,.8c.94,.54,1.65,1.25,2.14,2.15,.49,.9,.73,1.87,.73,2.93,0,.45-.03,.86-.1,1.22h-10.85c.02,1.1,.24,2.03,.68,2.77,.44,.74,1.01,1.29,1.72,1.64,.7,.35,1.46,.53,2.28,.53,1.18,0,2.18-.3,2.98-.89Zm-5.23-9.26c-.7,.35-1.28,.89-1.72,1.62-.44,.73-.68,1.64-.71,2.72h9.26c.06-1.07-.11-1.98-.53-2.71-.42-.74-.98-1.28-1.68-1.63-.7-.35-1.47-.53-2.3-.53s-1.62,.18-2.33,.53Z"/><path class="cls-1" d="M1762.13,1731.65c.98,.54,1.76,1.31,2.32,2.33,.56,1.02,.84,2.21,.84,3.59s-.28,2.57-.84,3.58c-.56,1.01-1.33,1.78-2.32,2.33-.98,.54-2.1,.82-3.35,.82s-2.37-.27-3.36-.82c-.99-.54-1.77-1.32-2.34-2.34-.57-1.02-.85-2.2-.85-3.56s.28-2.57,.85-3.59c.57-1.02,1.35-1.79,2.34-2.33,.99-.54,2.11-.8,3.36-.8s2.36,.27,3.35,.8Zm-5.75,1.24c-.74,.38-1.33,.97-1.78,1.76-.45,.79-.67,1.76-.67,2.92s.22,2.12,.67,2.9c.45,.78,1.04,1.37,1.78,1.75,.74,.38,1.54,.58,2.4,.58s1.64-.19,2.36-.58c.73-.38,1.32-.97,1.76-1.75,.45-.78,.67-1.75,.67-2.9s-.22-2.12-.67-2.92c-.45-.79-1.04-1.38-1.76-1.76-.73-.38-1.52-.58-2.36-.58s-1.66,.19-2.4,.58Z"/><path class="cls-1" d="M1778.59,1732.22c.95,.97,1.43,2.39,1.43,4.26v7.63h-1.66v-7.51c0-1.42-.36-2.52-1.08-3.28s-1.7-1.14-2.95-1.14c-1.31,0-2.36,.42-3.13,1.26-.78,.84-1.16,2.08-1.16,3.71v6.96h-1.7v-13.1h1.7v3.22c.34-1.12,.94-1.98,1.82-2.57,.88-.59,1.89-.89,3.02-.89,1.52,0,2.76,.48,3.71,1.45Z"/><path class="cls-1" d="M1785.3,1726.35v17.76h-1.7v-17.76h1.7Z"/><path class="cls-1" d="M1789.34,1731.01l4.56,10.92,4.2-10.92h1.87l-7.7,19.3h-1.92l2.64-6.34-5.52-12.96h1.87Z"/></g><g><path class="cls-1" d="M1020.81,1078.98v3.84h-3.26c-2.69,0-4.7-.64-6.02-1.92-1.33-1.28-1.99-3.42-1.99-6.43v-14.21h-3.94v-3.79h3.94v-6.58h4.42v6.58h6.82v3.79h-6.82v14.3c0,1.7,.31,2.86,.94,3.48,.62,.62,1.7,.94,3.24,.94h2.69Z"/><path class="cls-1" d="M1047.5,1058.99c1.89,1.97,2.83,4.81,2.83,8.52v15.31h-4.37v-14.93c0-2.62-.67-4.64-2.02-6.05-1.34-1.41-3.17-2.11-5.47-2.11s-4.32,.78-5.76,2.33c-1.44,1.55-2.16,3.82-2.16,6.79v13.97h-4.37v-35.52h4.37v15.41c.67-2.14,1.86-3.79,3.58-4.94,1.71-1.15,3.69-1.73,5.93-1.73,3.07,0,5.55,.98,7.44,2.95Z"/><path class="cls-1" d="M1081.15,1070.58h-21.07c.1,3.01,.95,5.26,2.57,6.77,1.62,1.5,3.59,2.26,5.93,2.26,2.11,0,3.88-.54,5.3-1.61,1.42-1.07,2.3-2.5,2.62-4.3h4.66c-.32,1.82-1.03,3.46-2.14,4.9-1.1,1.44-2.54,2.56-4.3,3.36-1.76,.8-3.74,1.2-5.95,1.2-2.53,0-4.77-.54-6.72-1.63-1.95-1.09-3.48-2.65-4.58-4.68-1.1-2.03-1.66-4.42-1.66-7.18s.55-5.15,1.66-7.2c1.1-2.05,2.63-3.62,4.58-4.7,1.95-1.09,4.19-1.63,6.72-1.63s4.79,.54,6.7,1.63c1.9,1.09,3.36,2.54,4.37,4.37,1.01,1.82,1.51,3.84,1.51,6.05,0,.93-.06,1.73-.19,2.4Zm-5.18-7.01c-.74-1.31-1.74-2.29-3.02-2.93-1.28-.64-2.67-.96-4.18-.96-2.4,0-4.42,.74-6.05,2.23-1.63,1.49-2.51,3.67-2.64,6.55h16.85c.1-1.95-.22-3.58-.96-4.9Z"/><path class="cls-1" d="M1116.31,1058.06c1.78,1.28,3.02,2.99,3.72,5.14v-6.72h4.37v26.78c0,2.43-.51,4.59-1.54,6.48-1.02,1.89-2.46,3.36-4.32,4.42-1.86,1.06-4.02,1.58-6.48,1.58-3.55,0-6.45-.86-8.69-2.57-2.24-1.71-3.66-4.02-4.27-6.94h4.32c.51,1.76,1.48,3.14,2.9,4.15,1.42,1.01,3.26,1.51,5.5,1.51,2.37,0,4.33-.76,5.88-2.28,1.55-1.52,2.33-3.64,2.33-6.36v-7.15c-.7,2.14-1.94,3.86-3.72,5.14-1.78,1.28-3.94,1.92-6.5,1.92-2.34,0-4.42-.54-6.24-1.63s-3.26-2.65-4.3-4.68c-1.04-2.03-1.56-4.42-1.56-7.18s.52-5.15,1.56-7.2c1.04-2.05,2.47-3.62,4.3-4.7,1.82-1.09,3.9-1.63,6.24-1.63,2.56,0,4.73,.64,6.5,1.92Zm-11.71,4.54c-1.62,1.71-2.42,4.07-2.42,7.08s.81,5.37,2.42,7.08c1.62,1.71,3.77,2.57,6.46,2.57,1.73,0,3.27-.4,4.63-1.2,1.36-.8,2.42-1.93,3.19-3.38,.77-1.46,1.15-3.14,1.15-5.06s-.38-3.62-1.15-5.09c-.77-1.47-1.83-2.6-3.19-3.38-1.36-.78-2.9-1.18-4.63-1.18-2.69,0-4.84,.86-6.46,2.57Z"/><path class="cls-1" d="M1150.15,1057.77c2,1.09,3.57,2.66,4.7,4.7,1.13,2.05,1.7,4.45,1.7,7.2s-.57,5.14-1.7,7.18c-1.14,2.03-2.71,3.59-4.7,4.68-2,1.09-4.26,1.63-6.79,1.63s-4.79-.54-6.79-1.63c-2-1.09-3.58-2.65-4.73-4.68-1.15-2.03-1.73-4.42-1.73-7.18s.58-5.15,1.73-7.2c1.15-2.05,2.73-3.62,4.73-4.7,2-1.09,4.26-1.63,6.79-1.63s4.79,.54,6.79,1.63Zm-11.14,3.26c-1.33,.7-2.4,1.78-3.22,3.24-.82,1.46-1.22,3.26-1.22,5.4s.41,3.9,1.22,5.35c.82,1.46,1.89,2.54,3.22,3.24,1.33,.7,2.78,1.06,4.34,1.06s3.02-.35,4.34-1.06c1.33-.7,2.4-1.78,3.22-3.24,.82-1.46,1.22-3.24,1.22-5.35s-.41-3.94-1.22-5.4c-.82-1.46-1.89-2.54-3.22-3.24-1.33-.7-2.78-1.06-4.34-1.06s-3.02,.35-4.34,1.06Z"/><path class="cls-1" d="M1179.62,1058.06c1.78,1.28,3.02,2.99,3.72,5.14v-6.72h4.37v26.35h-4.37v-6.72c-.7,2.14-1.94,3.86-3.72,5.14-1.78,1.28-3.94,1.92-6.5,1.92-2.34,0-4.42-.54-6.24-1.63s-3.26-2.65-4.3-4.68c-1.04-2.03-1.56-4.42-1.56-7.18s.52-5.15,1.56-7.2c1.04-2.05,2.47-3.62,4.3-4.7,1.82-1.09,3.9-1.63,6.24-1.63,2.56,0,4.73,.64,6.5,1.92Zm-11.71,4.54c-1.62,1.71-2.42,4.07-2.42,7.08s.81,5.37,2.42,7.08c1.62,1.71,3.77,2.57,6.46,2.57,1.73,0,3.27-.4,4.63-1.2,1.36-.8,2.42-1.93,3.19-3.38,.77-1.46,1.15-3.14,1.15-5.06s-.38-3.62-1.15-5.09c-.77-1.47-1.83-2.6-3.19-3.38-1.36-.78-2.9-1.18-4.63-1.18-2.69,0-4.84,.86-6.46,2.57Z"/><path class="cls-1" d="M1199.08,1047.3v35.52h-4.37v-35.52h4.37Z"/><path class="cls-1" d="M1233.48,1058.46c1.81,1.55,2.9,3.64,3.29,6.26h-4.18c-.19-1.57-.84-2.86-1.94-3.86-1.1-1.01-2.58-1.51-4.44-1.51-1.57,0-2.79,.38-3.67,1.13-.88,.75-1.32,1.77-1.32,3.05,0,.96,.3,1.74,.89,2.33,.59,.59,1.33,1.04,2.21,1.34,.88,.3,2.09,.63,3.62,.98,1.95,.45,3.53,.9,4.73,1.37s2.22,1.21,3.07,2.23c.85,1.02,1.27,2.4,1.27,4.13,0,2.14-.81,3.89-2.42,5.23-1.62,1.34-3.77,2.02-6.46,2.02-3.14,0-5.7-.75-7.68-2.26-1.98-1.5-3.15-3.6-3.5-6.29h4.22c.16,1.6,.86,2.9,2.09,3.89,1.23,.99,2.86,1.49,4.87,1.49,1.5,0,2.68-.38,3.53-1.15,.85-.77,1.27-1.78,1.27-3.02,0-1.02-.3-1.84-.91-2.45-.61-.61-1.36-1.07-2.26-1.39-.9-.32-2.13-.66-3.7-1.01-1.95-.45-3.51-.9-4.68-1.34-1.17-.45-2.16-1.16-2.98-2.14s-1.22-2.3-1.22-3.96c0-2.21,.82-3.99,2.45-5.35,1.63-1.36,3.86-2.04,6.67-2.04,2.98,0,5.37,.78,7.18,2.33Z"/><path class="cls-1" d="M1264.22,1058.99c1.89,1.97,2.83,4.81,2.83,8.52v15.31h-4.37v-14.93c0-2.62-.67-4.64-2.02-6.05-1.34-1.41-3.17-2.11-5.47-2.11s-4.32,.78-5.76,2.33c-1.44,1.55-2.16,3.82-2.16,6.79v13.97h-4.37v-35.52h4.37v15.41c.67-2.14,1.86-3.79,3.58-4.94,1.71-1.15,3.69-1.73,5.93-1.73,3.07,0,5.55,.98,7.44,2.95Z"/><path class="cls-1" d="M1292.56,1057.77c2,1.09,3.57,2.66,4.7,4.7,1.14,2.05,1.7,4.45,1.7,7.2s-.57,5.14-1.7,7.18c-1.14,2.03-2.7,3.59-4.7,4.68s-4.26,1.63-6.79,1.63-4.79-.54-6.79-1.63-3.58-2.65-4.73-4.68c-1.15-2.03-1.73-4.42-1.73-7.18s.58-5.15,1.73-7.2c1.15-2.05,2.73-3.62,4.73-4.7,2-1.09,4.26-1.63,6.79-1.63s4.79,.54,6.79,1.63Zm-11.14,3.26c-1.33,.7-2.4,1.78-3.22,3.24-.82,1.46-1.22,3.26-1.22,5.4s.41,3.9,1.22,5.35c.82,1.46,1.89,2.54,3.22,3.24,1.33,.7,2.78,1.06,4.34,1.06s3.02-.35,4.34-1.06c1.33-.7,2.4-1.78,3.22-3.24,.82-1.46,1.22-3.24,1.22-5.35s-.41-3.94-1.22-5.4c-.82-1.46-1.89-2.54-3.22-3.24-1.33-.7-2.78-1.06-4.34-1.06s-3.02,.35-4.34,1.06Z"/><path class="cls-1" d="M1328.15,1056.47v26.35h-4.37v-6.19c-.67,2.14-1.86,3.78-3.58,4.92-1.71,1.14-3.7,1.7-5.98,1.7-3.04,0-5.5-.98-7.39-2.95-1.89-1.97-2.83-4.79-2.83-8.47v-15.36h4.37v14.93c0,2.62,.67,4.65,2.02,6.07,1.34,1.42,3.17,2.14,5.47,2.14s4.32-.78,5.76-2.33c1.44-1.55,2.16-3.82,2.16-6.79v-14.02h4.37Z"/><path class="cls-1" d="M1339.58,1047.3v35.52h-4.37v-35.52h4.37Z"/><path class="cls-1" d="M1363.94,1058.06c1.78,1.28,3.02,2.99,3.72,5.14v-15.89h4.37v35.52h-4.37v-6.72c-.7,2.14-1.94,3.86-3.72,5.14-1.78,1.28-3.94,1.92-6.5,1.92-2.34,0-4.42-.54-6.24-1.63-1.82-1.09-3.26-2.65-4.3-4.68-1.04-2.03-1.56-4.42-1.56-7.18s.52-5.15,1.56-7.2c1.04-2.05,2.47-3.62,4.3-4.7,1.82-1.09,3.9-1.63,6.24-1.63,2.56,0,4.73,.64,6.5,1.92Zm-11.71,4.54c-1.62,1.71-2.42,4.07-2.42,7.08s.81,5.37,2.42,7.08c1.62,1.71,3.77,2.57,6.46,2.57,1.73,0,3.27-.4,4.63-1.2,1.36-.8,2.42-1.93,3.19-3.38,.77-1.46,1.15-3.14,1.15-5.06s-.38-3.62-1.15-5.09c-.77-1.47-1.83-2.6-3.19-3.38-1.36-.78-2.9-1.18-4.63-1.18-2.69,0-4.84,.86-6.46,2.57Z"/><path class="cls-1" d="M1411.72,1057.77c1.82,1.09,3.26,2.66,4.3,4.7,1.04,2.05,1.56,4.45,1.56,7.2s-.52,5.14-1.56,7.18c-1.04,2.03-2.47,3.59-4.3,4.68s-3.9,1.63-6.24,1.63c-2.56,0-4.73-.65-6.5-1.94-1.78-1.3-3-3-3.67-5.11v6.72h-4.37v-35.52h4.37v15.89c.67-2.11,1.9-3.82,3.67-5.11,1.78-1.3,3.94-1.94,6.5-1.94,2.34,0,4.42,.54,6.24,1.63Zm-12.1,3.43c-1.38,.78-2.45,1.91-3.22,3.38-.77,1.47-1.15,3.17-1.15,5.09s.38,3.61,1.15,5.06c.77,1.46,1.84,2.58,3.22,3.38,1.38,.8,2.91,1.2,4.61,1.2,2.72,0,4.89-.86,6.5-2.57,1.62-1.71,2.42-4.07,2.42-7.08s-.81-5.37-2.42-7.08c-1.62-1.71-3.79-2.57-6.5-2.57-1.7,0-3.23,.39-4.61,1.18Z"/><path class="cls-1" d="M1447.38,1070.58h-21.07c.1,3.01,.95,5.26,2.57,6.77,1.62,1.5,3.59,2.26,5.93,2.26,2.11,0,3.88-.54,5.3-1.61,1.42-1.07,2.3-2.5,2.62-4.3h4.66c-.32,1.82-1.03,3.46-2.14,4.9-1.1,1.44-2.54,2.56-4.3,3.36-1.76,.8-3.74,1.2-5.95,1.2-2.53,0-4.77-.54-6.72-1.63-1.95-1.09-3.48-2.65-4.58-4.68-1.1-2.03-1.66-4.42-1.66-7.18s.55-5.15,1.66-7.2c1.1-2.05,2.63-3.62,4.58-4.7,1.95-1.09,4.19-1.63,6.72-1.63s4.79,.54,6.7,1.63c1.9,1.09,3.36,2.54,4.37,4.37,1.01,1.82,1.51,3.84,1.51,6.05,0,.93-.06,1.73-.19,2.4Zm-5.18-7.01c-.74-1.31-1.75-2.29-3.02-2.93-1.28-.64-2.67-.96-4.18-.96-2.4,0-4.42,.74-6.05,2.23-1.63,1.49-2.51,3.67-2.64,6.55h16.85c.1-1.95-.22-3.58-.96-4.9Z"/><path class="cls-1" d="M1477.82,1078.98v3.84h-3.26c-2.69,0-4.7-.64-6.02-1.92-1.33-1.28-1.99-3.42-1.99-6.43v-14.21h-3.94v-3.79h3.94v-6.58h4.42v6.58h6.82v3.79h-6.82v14.3c0,1.7,.31,2.86,.94,3.48,.62,.62,1.7,.94,3.24,.94h2.69Z"/><path class="cls-1" d="M1501.94,1057.77c2,1.09,3.57,2.66,4.7,4.7,1.14,2.05,1.7,4.45,1.7,7.2s-.57,5.14-1.7,7.18c-1.14,2.03-2.7,3.59-4.7,4.68s-4.26,1.63-6.79,1.63-4.79-.54-6.79-1.63-3.58-2.65-4.73-4.68c-1.15-2.03-1.73-4.42-1.73-7.18s.58-5.15,1.73-7.2c1.15-2.05,2.73-3.62,4.73-4.7,2-1.09,4.26-1.63,6.79-1.63s4.79,.54,6.79,1.63Zm-11.14,3.26c-1.33,.7-2.4,1.78-3.22,3.24-.82,1.46-1.22,3.26-1.22,5.4s.41,3.9,1.22,5.35c.82,1.46,1.89,2.54,3.22,3.24,1.33,.7,2.78,1.06,4.34,1.06s3.02-.35,4.34-1.06c1.33-.7,2.4-1.78,3.22-3.24,.82-1.46,1.22-3.24,1.22-5.35s-.41-3.94-1.22-5.4c-.82-1.46-1.89-2.54-3.22-3.24-1.33-.7-2.78-1.06-4.34-1.06s-3.02,.35-4.34,1.06Z"/><path class="cls-1" d="M1543.31,1058.06c1.78,1.28,3.02,2.99,3.72,5.14v-6.72h4.37v26.35h-4.37v-6.72c-.7,2.14-1.94,3.86-3.72,5.14-1.78,1.28-3.94,1.92-6.5,1.92-2.34,0-4.42-.54-6.24-1.63-1.82-1.09-3.26-2.65-4.3-4.68-1.04-2.03-1.56-4.42-1.56-7.18s.52-5.15,1.56-7.2c1.04-2.05,2.47-3.62,4.3-4.7,1.82-1.09,3.9-1.63,6.24-1.63,2.56,0,4.73,.64,6.5,1.92Zm-11.71,4.54c-1.62,1.71-2.42,4.07-2.42,7.08s.81,5.37,2.42,7.08c1.62,1.71,3.77,2.57,6.46,2.57,1.73,0,3.27-.4,4.63-1.2,1.36-.8,2.42-1.93,3.19-3.38,.77-1.46,1.15-3.14,1.15-5.06s-.38-3.62-1.15-5.09c-.77-1.47-1.83-2.6-3.19-3.38-1.36-.78-2.9-1.18-4.63-1.18-2.69,0-4.84,.86-6.46,2.57Z"/><path class="cls-1" d="M1568.63,1078.17l8.16-21.7h4.7l-10.32,26.35h-5.18l-10.32-26.35h4.7l8.26,21.7Z"/><path class="cls-1" d="M1604.56,1057.77c2,1.09,3.57,2.66,4.7,4.7,1.13,2.05,1.7,4.45,1.7,7.2s-.57,5.14-1.7,7.18c-1.14,2.03-2.71,3.59-4.7,4.68-2,1.09-4.26,1.63-6.79,1.63s-4.79-.54-6.79-1.63c-2-1.09-3.58-2.65-4.73-4.68-1.15-2.03-1.73-4.42-1.73-7.18s.58-5.15,1.73-7.2c1.15-2.05,2.73-3.62,4.73-4.7,2-1.09,4.26-1.63,6.79-1.63s4.79,.54,6.79,1.63Zm-11.14,3.26c-1.33,.7-2.4,1.78-3.22,3.24-.82,1.46-1.22,3.26-1.22,5.4s.41,3.9,1.22,5.35c.82,1.46,1.89,2.54,3.22,3.24,1.33,.7,2.78,1.06,4.34,1.06s3.02-.35,4.34-1.06c1.33-.7,2.4-1.78,3.22-3.24,.82-1.46,1.22-3.24,1.22-5.35s-.41-3.94-1.22-5.4c-.82-1.46-1.89-2.54-3.22-3.24-1.33-.7-2.78-1.06-4.34-1.06s-3.02,.35-4.34,1.06Z"/><path class="cls-1" d="M1616.77,1046.8c.54-.5,1.26-.74,2.16-.74s1.62,.25,2.16,.74,.82,1.14,.82,1.94-.27,1.45-.82,1.94c-.54,.5-1.26,.74-2.16,.74s-1.62-.25-2.16-.74c-.54-.5-.82-1.14-.82-1.94s.27-1.45,.82-1.94Zm4.32,9.67v26.35h-4.37v-26.35h4.37Z"/><path class="cls-1" d="M1645.45,1058.06c1.78,1.28,3.02,2.99,3.72,5.14v-15.89h4.37v35.52h-4.37v-6.72c-.7,2.14-1.94,3.86-3.72,5.14-1.78,1.28-3.94,1.92-6.5,1.92-2.34,0-4.42-.54-6.24-1.63s-3.26-2.65-4.3-4.68c-1.04-2.03-1.56-4.42-1.56-7.18s.52-5.15,1.56-7.2c1.04-2.05,2.47-3.62,4.3-4.7,1.82-1.09,3.9-1.63,6.24-1.63,2.56,0,4.73,.64,6.5,1.92Zm-11.71,4.54c-1.62,1.71-2.42,4.07-2.42,7.08s.81,5.37,2.42,7.08c1.62,1.71,3.77,2.57,6.46,2.57,1.73,0,3.27-.4,4.63-1.2,1.36-.8,2.42-1.93,3.19-3.38,.77-1.46,1.15-3.14,1.15-5.06s-.38-3.62-1.15-5.09c-.77-1.47-1.83-2.6-3.19-3.38-1.36-.78-2.9-1.18-4.63-1.18-2.69,0-4.84,.86-6.46,2.57Z"/><path class="cls-9" d="M1678.79,1047.3v35.52h-6.77v-35.52h6.77Z"/><path class="cls-9" d="M1704.25,1057.53c2.06,1.09,3.69,2.66,4.87,4.73,1.18,2.06,1.78,4.49,1.78,7.27s-.59,5.2-1.78,7.25c-1.18,2.05-2.81,3.62-4.87,4.73s-4.39,1.66-6.98,1.66-4.92-.55-6.98-1.66c-2.06-1.1-3.69-2.68-4.87-4.73-1.18-2.05-1.78-4.46-1.78-7.25s.59-5.21,1.78-7.27c1.18-2.06,2.81-3.64,4.87-4.73,2.06-1.09,4.39-1.63,6.98-1.63s4.92,.54,6.98,1.63Zm-11.78,6.22c-1.31,1.33-1.97,3.26-1.97,5.78s.66,4.46,1.97,5.78c1.31,1.33,2.91,1.99,4.8,1.99s3.49-.66,4.8-1.99c1.31-1.33,1.97-3.26,1.97-5.78s-.66-4.46-1.97-5.78c-1.31-1.33-2.91-1.99-4.8-1.99s-3.49,.66-4.8,1.99Z"/><path class="cls-9" d="M1732.69,1058.34c1.95,1.63,3.17,3.81,3.65,6.53h-6.34c-.26-1.28-.83-2.3-1.73-3.07-.9-.77-2.06-1.15-3.5-1.15-1.15,0-2.05,.27-2.69,.82-.64,.54-.96,1.28-.96,2.21,0,.74,.26,1.33,.77,1.78,.51,.45,1.15,.8,1.92,1.06,.77,.26,1.87,.56,3.31,.91,2.02,.45,3.66,.92,4.92,1.42,1.26,.5,2.35,1.28,3.26,2.35,.91,1.07,1.37,2.52,1.37,4.34,0,2.27-.89,4.11-2.66,5.52-1.78,1.41-4.17,2.11-7.18,2.11-3.46,0-6.22-.78-8.3-2.33-2.08-1.55-3.34-3.77-3.79-6.65h6.48c.16,1.31,.74,2.34,1.73,3.1,.99,.75,2.29,1.13,3.89,1.13,1.15,0,2.03-.28,2.64-.84,.61-.56,.91-1.29,.91-2.18,0-.77-.26-1.39-.79-1.87-.53-.48-1.18-.85-1.97-1.1-.78-.26-1.9-.56-3.34-.91-1.98-.45-3.59-.9-4.82-1.37-1.23-.46-2.29-1.21-3.17-2.23-.88-1.02-1.32-2.43-1.32-4.22,0-2.3,.88-4.18,2.64-5.62,1.76-1.44,4.19-2.16,7.3-2.16s5.82,.82,7.78,2.45Z"/><path class="cls-9" d="M1766.53,1070.82h-19.49c.1,2.37,.74,4.11,1.92,5.23,1.18,1.12,2.66,1.68,4.42,1.68,1.57,0,2.87-.38,3.91-1.15s1.7-1.81,1.99-3.12h7.15c-.35,1.86-1.1,3.52-2.26,4.99-1.15,1.47-2.63,2.62-4.44,3.46-1.81,.83-3.82,1.25-6.02,1.25-2.59,0-4.9-.55-6.91-1.66-2.02-1.1-3.58-2.68-4.7-4.73-1.12-2.05-1.68-4.46-1.68-7.25s.56-5.21,1.68-7.27c1.12-2.06,2.69-3.64,4.7-4.73,2.02-1.09,4.32-1.63,6.91-1.63s4.92,.54,6.89,1.63c1.97,1.09,3.49,2.58,4.56,4.49,1.07,1.9,1.61,4.07,1.61,6.5,0,.67-.08,1.44-.24,2.3Zm-8.28-7.92c-1.23-1.12-2.74-1.68-4.54-1.68s-3.36,.56-4.61,1.68-1.94,2.77-2.06,4.94h12.91c.1-2.18-.47-3.82-1.7-4.94Z"/><path class="cls-9" d="M1782.32,1057.31c1.63-.98,3.46-1.46,5.47-1.46v7.25h-1.97c-4.96,0-7.44,2.3-7.44,6.91v12.82h-6.77v-26.59h6.77v5.09c.99-1.7,2.3-3.03,3.94-4.01Z"/><path class="cls-9" d="M1808.53,1058.34c1.95,1.63,3.17,3.81,3.65,6.53h-6.34c-.26-1.28-.83-2.3-1.73-3.07-.9-.77-2.06-1.15-3.5-1.15-1.15,0-2.05,.27-2.69,.82-.64,.54-.96,1.28-.96,2.21,0,.74,.25,1.33,.77,1.78,.51,.45,1.15,.8,1.92,1.06,.77,.26,1.87,.56,3.31,.91,2.02,.45,3.66,.92,4.92,1.42,1.26,.5,2.35,1.28,3.26,2.35,.91,1.07,1.37,2.52,1.37,4.34,0,2.27-.89,4.11-2.66,5.52-1.78,1.41-4.17,2.11-7.18,2.11-3.46,0-6.22-.78-8.3-2.33-2.08-1.55-3.34-3.77-3.79-6.65h6.48c.16,1.31,.74,2.34,1.73,3.1,.99,.75,2.29,1.13,3.89,1.13,1.15,0,2.03-.28,2.64-.84,.61-.56,.91-1.29,.91-2.18,0-.77-.26-1.39-.79-1.87s-1.18-.85-1.97-1.1c-.79-.26-1.9-.56-3.34-.91-1.99-.45-3.59-.9-4.82-1.37-1.23-.46-2.29-1.21-3.17-2.23-.88-1.02-1.32-2.43-1.32-4.22,0-2.3,.88-4.18,2.64-5.62s4.19-2.16,7.3-2.16,5.82,.82,7.78,2.45Z"/><path class="cls-9" d="M1823.22,1075.77v7.06h-7.3v-7.06h7.3Z"/></g><g><path class="cls-1" d="M1485.57,1239.93h-8.46l-18.96-28.8v28.8h-8.46v-42.36h8.46l18.96,29.04v-29.04h8.46v42.36Z"/><path class="cls-1" d="M1524.27,1224.93h-24.36c.12,2.96,.92,5.14,2.4,6.54,1.48,1.4,3.32,2.1,5.52,2.1,1.96,0,3.59-.48,4.89-1.44s2.13-2.26,2.49-3.9h8.94c-.44,2.32-1.38,4.4-2.82,6.24-1.44,1.84-3.29,3.28-5.55,4.32-2.26,1.04-4.77,1.56-7.53,1.56-3.24,0-6.12-.69-8.64-2.07-2.52-1.38-4.48-3.35-5.88-5.91-1.4-2.56-2.1-5.58-2.1-9.06s.7-6.51,2.1-9.09c1.4-2.58,3.36-4.55,5.88-5.91,2.52-1.36,5.4-2.04,8.64-2.04s6.15,.68,8.61,2.04c2.46,1.36,4.36,3.23,5.7,5.61,1.34,2.38,2.01,5.09,2.01,8.13,0,.84-.1,1.8-.3,2.88Zm-10.35-9.9c-1.54-1.4-3.43-2.1-5.67-2.1s-4.2,.7-5.76,2.1c-1.56,1.4-2.42,3.46-2.58,6.18h16.14c.12-2.72-.59-4.78-2.13-6.18Z"/><path class="cls-1" d="M1578.21,1206.69l-8.94,33.24h-9.36l-7.14-24.18-7.32,24.18h-9.36l-8.88-33.24h8.46l5.4,25.68,7.38-25.68h8.94l7.44,25.68,5.46-25.68h7.92Z"/><path class="cls-1" d="M1621.41,1231.41h-16.98l-3,8.52h-8.94l15.6-41.88h9.66l15.54,41.88h-8.94l-2.94-8.52Zm-2.28-6.42l-6.24-17.88-6.24,17.88h12.48Z"/><path class="cls-1" d="M1658.13,1208.25c2,1.32,3.42,3.1,4.26,5.34v-6.9h8.4v33.36c0,3.08-.61,5.85-1.83,8.31-1.22,2.46-3.04,4.39-5.46,5.79-2.42,1.4-5.35,2.1-8.79,2.1-4.8,0-8.68-1.14-11.64-3.42s-4.76-5.38-5.4-9.3h8.34c.48,1.68,1.41,2.99,2.79,3.93,1.38,.94,3.15,1.41,5.31,1.41,2.48,0,4.48-.73,6-2.19,1.52-1.46,2.28-3.67,2.28-6.63v-7.08c-.84,2.24-2.26,4.03-4.26,5.37-2,1.34-4.4,2.01-7.2,2.01s-5.32-.68-7.56-2.04c-2.24-1.36-3.99-3.33-5.25-5.91s-1.89-5.61-1.89-9.09,.63-6.51,1.89-9.09,3.01-4.55,5.25-5.91c2.24-1.36,4.76-2.04,7.56-2.04s5.2,.66,7.2,1.98Zm-10.92,7.98c-1.6,1.72-2.4,4.08-2.4,7.08s.8,5.35,2.4,7.05c1.6,1.7,3.72,2.55,6.36,2.55s4.67-.87,6.33-2.61c1.66-1.74,2.49-4.07,2.49-6.99s-.83-5.31-2.49-7.05c-1.66-1.74-3.77-2.61-6.33-2.61s-4.76,.86-6.36,2.58Z"/><path class="cls-1" d="M1709.49,1224.93h-24.36c.12,2.96,.92,5.14,2.4,6.54,1.48,1.4,3.32,2.1,5.52,2.1,1.96,0,3.59-.48,4.89-1.44,1.3-.96,2.13-2.26,2.49-3.9h8.94c-.44,2.32-1.38,4.4-2.82,6.24-1.44,1.84-3.29,3.28-5.55,4.32-2.26,1.04-4.77,1.56-7.53,1.56-3.24,0-6.12-.69-8.64-2.07-2.52-1.38-4.48-3.35-5.88-5.91-1.4-2.56-2.1-5.58-2.1-9.06s.7-6.51,2.1-9.09c1.4-2.58,3.36-4.55,5.88-5.91,2.52-1.36,5.4-2.04,8.64-2.04s6.15,.68,8.61,2.04c2.46,1.36,4.36,3.23,5.7,5.61,1.34,2.38,2.01,5.09,2.01,8.13,0,.84-.1,1.8-.3,2.88Zm-10.35-9.9c-1.54-1.4-3.43-2.1-5.67-2.1s-4.2,.7-5.76,2.1c-1.56,1.4-2.42,3.46-2.58,6.18h16.14c.12-2.72-.59-4.78-2.13-6.18Z"/><path class="cls-1" d="M1754.79,1231.41h-16.98l-3,8.52h-8.94l15.6-41.88h9.66l15.54,41.88h-8.94l-2.94-8.52Zm-2.28-6.42l-6.24-17.88-6.24,17.88h12.48Z"/><path class="cls-1" d="M1779.75,1195.53v44.4h-8.46v-44.4h8.46Z"/><path class="cls-1" d="M1814.91,1208.31c2.24,1.36,3.99,3.33,5.25,5.91s1.89,5.61,1.89,9.09-.63,6.51-1.89,9.09-3.01,4.55-5.25,5.91c-2.24,1.36-4.76,2.04-7.56,2.04s-5.19-.67-7.17-2.01c-1.98-1.34-3.39-3.13-4.23-5.37v22.8h-8.46v-49.08h8.46v6.9c.84-2.24,2.25-4.02,4.23-5.34,1.98-1.32,4.37-1.98,7.17-1.98s5.32,.68,7.56,2.04Zm-16.53,7.95c-1.66,1.74-2.49,4.09-2.49,7.05s.83,5.25,2.49,6.99c1.66,1.74,3.77,2.61,6.33,2.61s4.76-.85,6.36-2.55c1.6-1.7,2.4-4.05,2.4-7.05s-.8-5.36-2.4-7.08c-1.6-1.72-3.72-2.58-6.36-2.58s-4.67,.87-6.33,2.61Z"/><path class="cls-1" d="M1857.09,1209.99c2.28,2.52,3.42,6.06,3.42,10.62v19.32h-8.4v-18.36c0-2.64-.68-4.69-2.04-6.15-1.36-1.46-3.22-2.19-5.58-2.19s-4.32,.78-5.76,2.34c-1.44,1.56-2.16,3.8-2.16,6.72v17.64h-8.46v-44.4h8.46v17.82c.88-2.24,2.33-3.99,4.35-5.25,2.02-1.26,4.35-1.89,6.99-1.89,3.84,0,6.9,1.26,9.18,3.78Z"/><path class="cls-1" d="M1888.23,1208.25c2,1.32,3.42,3.1,4.26,5.34v-6.9h8.4v33.24h-8.4v-6.96c-.84,2.24-2.26,4.03-4.26,5.37-2,1.34-4.4,2.01-7.2,2.01s-5.32-.68-7.56-2.04c-2.24-1.36-3.99-3.33-5.25-5.91-1.26-2.58-1.89-5.61-1.89-9.09s.63-6.51,1.89-9.09c1.26-2.58,3.01-4.55,5.25-5.91,2.24-1.36,4.76-2.04,7.56-2.04s5.2,.66,7.2,1.98Zm-10.92,7.98c-1.6,1.72-2.4,4.08-2.4,7.08s.8,5.35,2.4,7.05c1.6,1.7,3.72,2.55,6.36,2.55s4.67-.87,6.33-2.61c1.66-1.74,2.49-4.07,2.49-6.99s-.83-5.31-2.49-7.05c-1.66-1.74-3.77-2.61-6.33-2.61s-4.76,.86-6.36,2.58Z"/><path class="cls-1" d="M1922.25,1193.82c.96-.86,2.22-1.29,3.78-1.29s2.82,.43,3.78,1.29c.96,.86,1.44,1.97,1.44,3.33s-.48,2.41-1.44,3.27c-.96,.86-2.22,1.29-3.78,1.29s-2.82-.43-3.78-1.29c-.96-.86-1.44-1.95-1.44-3.27s.48-2.47,1.44-3.33Zm7.98,12.87v33.24h-8.46v-33.24h8.46Z"/><path class="cls-1" d="M1959.15,1209.33c2.44,2.04,3.96,4.76,4.56,8.16h-7.92c-.32-1.6-1.04-2.88-2.16-3.84-1.12-.96-2.58-1.44-4.38-1.44-1.44,0-2.56,.34-3.36,1.02-.8,.68-1.2,1.6-1.2,2.76,0,.92,.32,1.66,.96,2.22,.64,.56,1.44,1,2.4,1.32,.96,.32,2.34,.7,4.14,1.14,2.52,.56,4.57,1.15,6.15,1.77,1.58,.62,2.94,1.6,4.08,2.94,1.14,1.34,1.71,3.15,1.71,5.43,0,2.84-1.11,5.14-3.33,6.9-2.22,1.76-5.21,2.64-8.97,2.64-4.32,0-7.78-.97-10.38-2.91-2.6-1.94-4.18-4.71-4.74-8.31h8.1c.2,1.64,.92,2.93,2.16,3.87,1.24,.94,2.86,1.41,4.86,1.41,1.44,0,2.54-.35,3.3-1.05,.76-.7,1.14-1.61,1.14-2.73,0-.96-.33-1.74-.99-2.34-.66-.6-1.48-1.06-2.46-1.38-.98-.32-2.37-.7-4.17-1.14-2.48-.56-4.49-1.13-6.03-1.71-1.54-.58-2.86-1.51-3.96-2.79-1.1-1.28-1.65-3.04-1.65-5.28,0-2.88,1.1-5.22,3.3-7.02,2.2-1.8,5.24-2.7,9.12-2.7s7.28,1.02,9.72,3.06Z"/><path class="cls-1" d="M1977.51,1231.11v8.82h-9.12v-8.82h9.12Z"/><path class="cls-1" d="M1990.22,1231.11v8.82h-9.12v-8.82h9.12Z"/><path class="cls-1" d="M2002.95,1231.11v8.82h-9.12v-8.82h9.12Z"/></g><g><path class="cls-1" d="M1602.92,1299.36c2,1.32,3.42,3.1,4.26,5.34v-6.9h8.4v33.24h-8.4v-6.96c-.84,2.24-2.26,4.03-4.26,5.37-2,1.34-4.4,2.01-7.2,2.01s-5.32-.68-7.56-2.04c-2.24-1.36-3.99-3.33-5.25-5.91s-1.89-5.61-1.89-9.09,.63-6.51,1.89-9.09,3.01-4.55,5.25-5.91c2.24-1.36,4.76-2.04,7.56-2.04s5.2,.66,7.2,1.98Zm-10.92,7.98c-1.6,1.72-2.4,4.08-2.4,7.08s.8,5.35,2.4,7.05c1.6,1.7,3.72,2.55,6.36,2.55s4.67-.87,6.33-2.61,2.49-4.07,2.49-6.99-.83-5.31-2.49-7.05c-1.66-1.74-3.77-2.61-6.33-2.61s-4.76,.86-6.36,2.58Z"/><path class="cls-1" d="M1637.78,1322.58l8.4-24.78h9l-12.3,33.24h-10.32l-12.3-33.24h9.06l8.46,24.78Z"/><path class="cls-1" d="M1684.01,1299.42c2.58,1.36,4.61,3.33,6.09,5.91,1.48,2.58,2.22,5.61,2.22,9.09s-.74,6.5-2.22,9.06c-1.48,2.56-3.51,4.53-6.09,5.91-2.58,1.38-5.49,2.07-8.73,2.07s-6.15-.69-8.73-2.07-4.61-3.35-6.09-5.91c-1.48-2.56-2.22-5.58-2.22-9.06s.74-6.51,2.22-9.09c1.48-2.58,3.51-4.55,6.09-5.91,2.58-1.36,5.49-2.04,8.73-2.04s6.15,.68,8.73,2.04Zm-14.73,7.77c-1.64,1.66-2.46,4.07-2.46,7.23s.82,5.57,2.46,7.23c1.64,1.66,3.64,2.49,6,2.49s4.36-.83,6-2.49c1.64-1.66,2.46-4.07,2.46-7.23s-.82-5.57-2.46-7.23c-1.64-1.66-3.64-2.49-6-2.49s-4.36,.83-6,2.49Z"/><path class="cls-1" d="M1698.86,1284.93c.96-.86,2.22-1.29,3.78-1.29s2.82,.43,3.78,1.29c.96,.86,1.44,1.97,1.44,3.33s-.48,2.41-1.44,3.27c-.96,.86-2.22,1.29-3.78,1.29s-2.82-.43-3.78-1.29c-.96-.86-1.44-1.95-1.44-3.27s.48-2.47,1.44-3.33Zm7.98,12.87v33.24h-8.46v-33.24h8.46Z"/><path class="cls-1" d="M1734.77,1299.36c1.98,1.32,3.41,3.1,4.29,5.34v-18.06h8.4v44.4h-8.4v-6.96c-.88,2.24-2.31,4.03-4.29,5.37-1.98,1.34-4.37,2.01-7.17,2.01s-5.32-.68-7.56-2.04c-2.24-1.36-3.99-3.33-5.25-5.91s-1.89-5.61-1.89-9.09,.63-6.51,1.89-9.09,3.01-4.55,5.25-5.91c2.24-1.36,4.76-2.04,7.56-2.04s5.19,.66,7.17,1.98Zm-10.89,7.98c-1.6,1.72-2.4,4.08-2.4,7.08s.8,5.35,2.4,7.05c1.6,1.7,3.72,2.55,6.36,2.55s4.67-.87,6.33-2.61,2.49-4.07,2.49-6.99-.83-5.31-2.49-7.05c-1.66-1.74-3.77-2.61-6.33-2.61s-4.76,.86-6.36,2.58Z"/><path class="cls-1" d="M1755.68,1284.93c.96-.86,2.22-1.29,3.78-1.29s2.82,.43,3.78,1.29c.96,.86,1.44,1.97,1.44,3.33s-.48,2.41-1.44,3.27c-.96,.86-2.22,1.29-3.78,1.29s-2.82-.43-3.78-1.29c-.96-.86-1.44-1.95-1.44-3.27s.48-2.47,1.44-3.33Zm7.98,12.87v33.24h-8.46v-33.24h8.46Z"/><path class="cls-1" d="M1800.38,1301.1c2.28,2.52,3.42,6.06,3.42,10.62v19.32h-8.4v-18.36c0-2.64-.68-4.69-2.04-6.15-1.36-1.46-3.22-2.19-5.58-2.19s-4.32,.78-5.76,2.34-2.16,3.8-2.16,6.72v17.64h-8.46v-33.24h8.46v6.66c.88-2.24,2.33-3.99,4.35-5.25,2.02-1.26,4.35-1.89,6.99-1.89,3.84,0,6.9,1.26,9.18,3.78Z"/><path class="cls-1" d="M1831.52,1299.36c2,1.32,3.42,3.1,4.26,5.34v-6.9h8.4v33.36c0,3.08-.61,5.85-1.83,8.31-1.22,2.46-3.04,4.39-5.46,5.79-2.42,1.4-5.35,2.1-8.79,2.1-4.8,0-8.68-1.14-11.64-3.42-2.96-2.28-4.76-5.38-5.4-9.3h8.34c.48,1.68,1.41,2.99,2.79,3.93,1.38,.94,3.15,1.41,5.31,1.41,2.48,0,4.48-.73,6-2.19,1.52-1.46,2.28-3.67,2.28-6.63v-7.08c-.84,2.24-2.26,4.03-4.26,5.37-2,1.34-4.4,2.01-7.2,2.01s-5.32-.68-7.56-2.04c-2.24-1.36-3.99-3.33-5.25-5.91s-1.89-5.61-1.89-9.09,.63-6.51,1.89-9.09,3.01-4.55,5.25-5.91c2.24-1.36,4.76-2.04,7.56-2.04s5.2,.66,7.2,1.98Zm-10.92,7.98c-1.6,1.72-2.4,4.08-2.4,7.08s.8,5.35,2.4,7.05c1.6,1.7,3.72,2.55,6.36,2.55s4.67-.87,6.33-2.61,2.49-4.07,2.49-6.99-.83-5.31-2.49-7.05c-1.66-1.74-3.77-2.61-6.33-2.61s-4.76,.86-6.36,2.58Z"/><path class="cls-1" d="M1882.82,1323.78v7.26h-4.44c-3.72,0-6.57-.9-8.55-2.7-1.98-1.8-2.97-4.8-2.97-9v-14.4h-4.62v-7.14h4.62v-8.22h8.46v8.22h7.44v7.14h-7.44v14.52c0,1.6,.32,2.72,.96,3.36,.64,.64,1.72,.96,3.24,.96h3.3Z"/><path class="cls-1" d="M1917.92,1301.1c2.28,2.52,3.42,6.06,3.42,10.62v19.32h-8.4v-18.36c0-2.64-.68-4.69-2.04-6.15-1.36-1.46-3.22-2.19-5.58-2.19s-4.32,.78-5.76,2.34-2.16,3.8-2.16,6.72v17.64h-8.46v-44.4h8.46v17.82c.88-2.24,2.33-3.99,4.35-5.25,2.02-1.26,4.35-1.89,6.99-1.89,3.84,0,6.9,1.26,9.18,3.78Z"/><path class="cls-1" d="M1959.8,1316.04h-24.36c.12,2.96,.92,5.14,2.4,6.54,1.48,1.4,3.32,2.1,5.52,2.1,1.96,0,3.59-.48,4.89-1.44s2.13-2.26,2.49-3.9h8.94c-.44,2.32-1.38,4.4-2.82,6.24-1.44,1.84-3.29,3.28-5.55,4.32-2.26,1.04-4.77,1.56-7.53,1.56-3.24,0-6.12-.69-8.64-2.07-2.52-1.38-4.48-3.35-5.88-5.91-1.4-2.56-2.1-5.58-2.1-9.06s.7-6.51,2.1-9.09c1.4-2.58,3.36-4.55,5.88-5.91,2.52-1.36,5.4-2.04,8.64-2.04s6.15,.68,8.61,2.04c2.46,1.36,4.36,3.23,5.7,5.61,1.34,2.38,2.01,5.09,2.01,8.13,0,.84-.1,1.8-.3,2.88Zm-10.35-9.9c-1.54-1.4-3.43-2.1-5.67-2.1s-4.2,.7-5.76,2.1c-1.56,1.4-2.42,3.46-2.58,6.18h16.14c.12-2.72-.59-4.78-2.13-6.18Z"/><path class="cls-1" d="M1987.76,1286.64v44.4h-8.46v-44.4h8.46Z"/><path class="cls-1" d="M2019.59,1299.42c2.58,1.36,4.61,3.33,6.09,5.91,1.48,2.58,2.22,5.61,2.22,9.09s-.74,6.5-2.22,9.06c-1.48,2.56-3.51,4.53-6.09,5.91-2.58,1.38-5.49,2.07-8.73,2.07s-6.15-.69-8.73-2.07-4.61-3.35-6.09-5.91c-1.48-2.56-2.22-5.58-2.22-9.06s.74-6.51,2.22-9.09c1.48-2.58,3.51-4.55,6.09-5.91,2.58-1.36,5.49-2.04,8.73-2.04s6.15,.68,8.73,2.04Zm-14.73,7.77c-1.64,1.66-2.46,4.07-2.46,7.23s.82,5.57,2.46,7.23c1.64,1.66,3.64,2.49,6,2.49s4.36-.83,6-2.49c1.64-1.66,2.46-4.07,2.46-7.23s-.82-5.57-2.46-7.23c-1.64-1.66-3.64-2.49-6-2.49s-4.36,.83-6,2.49Z"/><path class="cls-1" d="M2055.13,1300.44c2.44,2.04,3.96,4.76,4.56,8.16h-7.92c-.32-1.6-1.04-2.88-2.16-3.84-1.12-.96-2.58-1.44-4.38-1.44-1.44,0-2.56,.34-3.36,1.02-.8,.68-1.2,1.6-1.2,2.76,0,.92,.32,1.66,.96,2.22,.64,.56,1.44,1,2.4,1.32,.96,.32,2.34,.7,4.14,1.14,2.52,.56,4.57,1.15,6.15,1.77,1.58,.62,2.94,1.6,4.08,2.94,1.14,1.34,1.71,3.15,1.71,5.43,0,2.84-1.11,5.14-3.33,6.9-2.22,1.76-5.21,2.64-8.97,2.64-4.32,0-7.78-.97-10.38-2.91-2.6-1.94-4.18-4.71-4.74-8.31h8.1c.2,1.64,.92,2.93,2.16,3.87,1.24,.94,2.86,1.41,4.86,1.41,1.44,0,2.54-.35,3.3-1.05,.76-.7,1.14-1.61,1.14-2.73,0-.96-.33-1.74-.99-2.34-.66-.6-1.48-1.06-2.46-1.38-.98-.32-2.37-.7-4.17-1.14-2.48-.56-4.49-1.13-6.03-1.71-1.54-.58-2.86-1.51-3.96-2.79-1.1-1.28-1.65-3.04-1.65-5.28,0-2.88,1.1-5.22,3.3-7.02,2.2-1.8,5.24-2.7,9.12-2.7s7.28,1.02,9.72,3.06Z"/><path class="cls-1" d="M2097.43,1316.04h-24.36c.12,2.96,.92,5.14,2.4,6.54,1.48,1.4,3.32,2.1,5.52,2.1,1.96,0,3.59-.48,4.89-1.44,1.3-.96,2.13-2.26,2.49-3.9h8.94c-.44,2.32-1.38,4.4-2.82,6.24-1.44,1.84-3.29,3.28-5.55,4.32-2.26,1.04-4.77,1.56-7.53,1.56-3.24,0-6.12-.69-8.64-2.07s-4.48-3.35-5.88-5.91c-1.4-2.56-2.1-5.58-2.1-9.06s.7-6.51,2.1-9.09c1.4-2.58,3.36-4.55,5.88-5.91,2.52-1.36,5.4-2.04,8.64-2.04s6.15,.68,8.61,2.04c2.46,1.36,4.36,3.23,5.7,5.61,1.34,2.38,2.01,5.09,2.01,8.13,0,.84-.1,1.8-.3,2.88Zm-10.35-9.9c-1.54-1.4-3.43-2.1-5.67-2.1s-4.2,.7-5.76,2.1c-1.56,1.4-2.42,3.46-2.58,6.18h16.14c.12-2.72-.59-4.78-2.13-6.18Z"/><path class="cls-1" d="M2117.17,1299.15c2.04-1.22,4.32-1.83,6.84-1.83v9.06h-2.46c-6.2,0-9.3,2.88-9.3,8.64v16.02h-8.46v-33.24h8.46v6.36c1.24-2.12,2.88-3.79,4.92-5.01Z"/><path class="cls-1" d="M2149.93,1300.44c2.44,2.04,3.96,4.76,4.56,8.16h-7.92c-.32-1.6-1.04-2.88-2.16-3.84-1.12-.96-2.58-1.44-4.38-1.44-1.44,0-2.56,.34-3.36,1.02-.8,.68-1.2,1.6-1.2,2.76,0,.92,.32,1.66,.96,2.22,.64,.56,1.44,1,2.4,1.32,.96,.32,2.34,.7,4.14,1.14,2.52,.56,4.57,1.15,6.15,1.77,1.58,.62,2.94,1.6,4.08,2.94,1.14,1.34,1.71,3.15,1.71,5.43,0,2.84-1.11,5.14-3.33,6.9-2.22,1.76-5.21,2.64-8.97,2.64-4.32,0-7.78-.97-10.38-2.91-2.6-1.94-4.18-4.71-4.74-8.31h8.1c.2,1.64,.92,2.93,2.16,3.87,1.24,.94,2.86,1.41,4.86,1.41,1.44,0,2.54-.35,3.3-1.05,.76-.7,1.14-1.61,1.14-2.73,0-.96-.33-1.74-.99-2.34-.66-.6-1.48-1.06-2.46-1.38-.98-.32-2.37-.7-4.17-1.14-2.48-.56-4.49-1.13-6.03-1.71-1.54-.58-2.86-1.51-3.96-2.79-1.1-1.28-1.65-3.04-1.65-5.28,0-2.88,1.1-5.22,3.3-7.02,2.2-1.8,5.24-2.7,9.12-2.7s7.28,1.02,9.72,3.06Z"/><path class="cls-1" d="M2168.29,1322.22v8.82h-9.12v-8.82h9.12Z"/></g><g><path class="cls-1" d="M539.41,957.88v3.55h-9.55v30.29h-4.37v-30.29h-9.55v-3.55h23.47Z"/><path class="cls-1" d="M565.09,967.88c1.89,1.97,2.83,4.81,2.83,8.52v15.31h-4.37v-14.93c0-2.62-.67-4.64-2.02-6.05-1.34-1.41-3.17-2.11-5.47-2.11s-4.32,.78-5.76,2.33c-1.44,1.55-2.16,3.82-2.16,6.79v13.97h-4.37v-35.52h4.37v15.41c.67-2.14,1.86-3.79,3.58-4.94,1.71-1.15,3.69-1.73,5.93-1.73,3.07,0,5.55,.98,7.44,2.95Z"/><path class="cls-1" d="M598.73,979.48h-21.07c.1,3.01,.95,5.26,2.57,6.77,1.62,1.5,3.59,2.26,5.93,2.26,2.11,0,3.88-.54,5.3-1.61,1.42-1.07,2.3-2.5,2.62-4.3h4.66c-.32,1.82-1.03,3.46-2.14,4.9-1.1,1.44-2.54,2.56-4.3,3.36-1.76,.8-3.74,1.2-5.95,1.2-2.53,0-4.77-.54-6.72-1.63-1.95-1.09-3.48-2.65-4.58-4.68-1.1-2.03-1.66-4.42-1.66-7.18s.55-5.15,1.66-7.2c1.1-2.05,2.63-3.62,4.58-4.7,1.95-1.09,4.19-1.63,6.72-1.63s4.79,.54,6.7,1.63c1.9,1.09,3.36,2.54,4.37,4.37,1.01,1.82,1.51,3.84,1.51,6.05,0,.93-.06,1.73-.19,2.4Zm-5.18-7.01c-.74-1.31-1.75-2.29-3.02-2.93-1.28-.64-2.67-.96-4.18-.96-2.4,0-4.42,.74-6.05,2.23-1.63,1.49-2.51,3.67-2.64,6.55h16.85c.1-1.95-.22-3.58-.96-4.9Z"/><path class="cls-1" d="M633.89,966.95c1.78,1.28,3.02,2.99,3.72,5.14v-6.72h4.37v26.78c0,2.43-.51,4.59-1.54,6.48-1.03,1.89-2.46,3.36-4.32,4.42-1.86,1.06-4.02,1.58-6.48,1.58-3.55,0-6.45-.86-8.69-2.57-2.24-1.71-3.66-4.02-4.27-6.94h4.32c.51,1.76,1.48,3.14,2.9,4.15,1.42,1.01,3.25,1.51,5.5,1.51,2.37,0,4.33-.76,5.88-2.28,1.55-1.52,2.33-3.64,2.33-6.36v-7.15c-.71,2.14-1.94,3.86-3.72,5.14-1.78,1.28-3.94,1.92-6.5,1.92-2.34,0-4.42-.54-6.24-1.63-1.82-1.09-3.26-2.65-4.29-4.68-1.04-2.03-1.56-4.42-1.56-7.18s.52-5.15,1.56-7.2c1.04-2.05,2.47-3.62,4.29-4.7,1.82-1.09,3.9-1.63,6.24-1.63,2.56,0,4.73,.64,6.5,1.92Zm-11.71,4.54c-1.62,1.71-2.42,4.07-2.42,7.08s.81,5.37,2.42,7.08c1.62,1.71,3.77,2.57,6.46,2.57,1.73,0,3.27-.4,4.63-1.2,1.36-.8,2.42-1.93,3.19-3.38,.77-1.46,1.15-3.14,1.15-5.06s-.38-3.62-1.15-5.09c-.77-1.47-1.83-2.6-3.19-3.38-1.36-.78-2.9-1.18-4.63-1.18-2.69,0-4.84,.86-6.46,2.57Z"/><path class="cls-1" d="M667.73,966.66c2,1.09,3.57,2.66,4.71,4.7,1.13,2.05,1.7,4.45,1.7,7.2s-.57,5.14-1.7,7.18c-1.14,2.03-2.71,3.59-4.71,4.68-2,1.09-4.26,1.63-6.79,1.63s-4.79-.54-6.79-1.63c-2-1.09-3.58-2.65-4.73-4.68-1.15-2.03-1.73-4.42-1.73-7.18s.58-5.15,1.73-7.2c1.15-2.05,2.73-3.62,4.73-4.7s4.26-1.63,6.79-1.63,4.79,.54,6.79,1.63Zm-11.14,3.26c-1.33,.7-2.4,1.78-3.22,3.24-.82,1.46-1.22,3.26-1.22,5.4s.41,3.9,1.22,5.35c.82,1.46,1.89,2.54,3.22,3.24,1.33,.7,2.78,1.06,4.34,1.06s3.02-.35,4.34-1.06c1.33-.7,2.4-1.78,3.22-3.24,.82-1.46,1.22-3.24,1.22-5.35s-.41-3.94-1.22-5.4c-.82-1.46-1.89-2.54-3.22-3.24-1.33-.7-2.78-1.06-4.34-1.06s-3.02,.35-4.34,1.06Z"/><path class="cls-1" d="M697.2,966.95c1.78,1.28,3.02,2.99,3.72,5.14v-6.72h4.37v26.35h-4.37v-6.72c-.7,2.14-1.94,3.86-3.72,5.14-1.78,1.28-3.94,1.92-6.5,1.92-2.34,0-4.42-.54-6.24-1.63-1.82-1.09-3.26-2.65-4.3-4.68-1.04-2.03-1.56-4.42-1.56-7.18s.52-5.15,1.56-7.2c1.04-2.05,2.47-3.62,4.3-4.7,1.82-1.09,3.9-1.63,6.24-1.63,2.56,0,4.73,.64,6.5,1.92Zm-11.71,4.54c-1.62,1.71-2.42,4.07-2.42,7.08s.81,5.37,2.42,7.08c1.62,1.71,3.77,2.57,6.46,2.57,1.73,0,3.27-.4,4.63-1.2,1.36-.8,2.42-1.93,3.19-3.38,.77-1.46,1.15-3.14,1.15-5.06s-.38-3.62-1.15-5.09c-.77-1.47-1.83-2.6-3.19-3.38-1.36-.78-2.9-1.18-4.63-1.18-2.69,0-4.84,.86-6.46,2.57Z"/><path class="cls-1" d="M716.67,956.2v35.52h-4.37v-35.52h4.37Z"/><path class="cls-1" d="M751.06,967.36c1.81,1.55,2.9,3.64,3.29,6.26h-4.18c-.19-1.57-.84-2.86-1.94-3.86-1.1-1.01-2.58-1.51-4.44-1.51-1.57,0-2.79,.38-3.67,1.13-.88,.75-1.32,1.77-1.32,3.05,0,.96,.3,1.74,.89,2.33,.59,.59,1.33,1.04,2.21,1.34,.88,.3,2.09,.63,3.62,.98,1.95,.45,3.53,.9,4.73,1.37,1.2,.46,2.22,1.21,3.07,2.23,.85,1.02,1.27,2.4,1.27,4.13,0,2.14-.81,3.89-2.42,5.23-1.62,1.34-3.77,2.02-6.46,2.02-3.14,0-5.7-.75-7.68-2.26-1.98-1.5-3.15-3.6-3.5-6.29h4.22c.16,1.6,.86,2.9,2.09,3.89,1.23,.99,2.86,1.49,4.87,1.49,1.5,0,2.68-.38,3.53-1.15,.85-.77,1.27-1.78,1.27-3.02,0-1.02-.3-1.84-.91-2.45-.61-.61-1.36-1.07-2.26-1.39-.9-.32-2.13-.66-3.7-1.01-1.95-.45-3.51-.9-4.68-1.34-1.17-.45-2.16-1.16-2.98-2.14-.82-.98-1.22-2.3-1.22-3.96,0-2.21,.82-3.99,2.45-5.35,1.63-1.36,3.86-2.04,6.67-2.04,2.98,0,5.37,.78,7.18,2.33Z"/><path class="cls-1" d="M781.8,967.88c1.89,1.97,2.83,4.81,2.83,8.52v15.31h-4.37v-14.93c0-2.62-.67-4.64-2.02-6.05-1.34-1.41-3.17-2.11-5.47-2.11s-4.32,.78-5.76,2.33c-1.44,1.55-2.16,3.82-2.16,6.79v13.97h-4.37v-35.52h4.37v15.41c.67-2.14,1.86-3.79,3.58-4.94,1.71-1.15,3.69-1.73,5.93-1.73,3.07,0,5.55,.98,7.44,2.95Z"/><path class="cls-1" d="M810.15,966.66c2,1.09,3.57,2.66,4.71,4.7,1.13,2.05,1.7,4.45,1.7,7.2s-.57,5.14-1.7,7.18c-1.14,2.03-2.71,3.59-4.71,4.68-2,1.09-4.26,1.63-6.79,1.63s-4.79-.54-6.79-1.63c-2-1.09-3.58-2.65-4.73-4.68-1.15-2.03-1.73-4.42-1.73-7.18s.58-5.15,1.73-7.2c1.15-2.05,2.73-3.62,4.73-4.7s4.26-1.63,6.79-1.63,4.79,.54,6.79,1.63Zm-11.14,3.26c-1.33,.7-2.4,1.78-3.22,3.24-.82,1.46-1.22,3.26-1.22,5.4s.41,3.9,1.22,5.35c.82,1.46,1.89,2.54,3.22,3.24,1.33,.7,2.78,1.06,4.34,1.06s3.02-.35,4.34-1.06c1.33-.7,2.4-1.78,3.22-3.24,.82-1.46,1.22-3.24,1.22-5.35s-.41-3.94-1.22-5.4c-.82-1.46-1.89-2.54-3.22-3.24-1.33-.7-2.78-1.06-4.34-1.06s-3.02,.35-4.34,1.06Z"/><path class="cls-1" d="M845.74,965.36v26.35h-4.37v-6.19c-.67,2.14-1.87,3.78-3.58,4.92-1.71,1.14-3.71,1.7-5.98,1.7-3.04,0-5.5-.98-7.39-2.95-1.89-1.97-2.83-4.79-2.83-8.47v-15.36h4.37v14.93c0,2.62,.67,4.65,2.02,6.07,1.34,1.42,3.17,2.14,5.47,2.14s4.32-.78,5.76-2.33c1.44-1.55,2.16-3.82,2.16-6.79v-14.02h4.37Z"/><path class="cls-1" d="M857.16,956.2v35.52h-4.37v-35.52h4.37Z"/><path class="cls-1" d="M881.52,966.95c1.78,1.28,3.02,2.99,3.72,5.14v-15.89h4.37v35.52h-4.37v-6.72c-.71,2.14-1.94,3.86-3.72,5.14-1.78,1.28-3.94,1.92-6.5,1.92-2.34,0-4.42-.54-6.24-1.63-1.82-1.09-3.26-2.65-4.29-4.68-1.04-2.03-1.56-4.42-1.56-7.18s.52-5.15,1.56-7.2c1.04-2.05,2.47-3.62,4.29-4.7,1.82-1.09,3.9-1.63,6.24-1.63,2.56,0,4.73,.64,6.5,1.92Zm-11.71,4.54c-1.62,1.71-2.42,4.07-2.42,7.08s.81,5.37,2.42,7.08c1.62,1.71,3.77,2.57,6.46,2.57,1.73,0,3.27-.4,4.63-1.2,1.36-.8,2.42-1.93,3.19-3.38,.77-1.46,1.15-3.14,1.15-5.06s-.38-3.62-1.15-5.09c-.77-1.47-1.83-2.6-3.19-3.38-1.36-.78-2.9-1.18-4.63-1.18-2.69,0-4.84,.86-6.46,2.57Z"/><path class="cls-1" d="M917.93,967.88c1.89,1.97,2.83,4.81,2.83,8.52v15.31h-4.37v-14.93c0-2.62-.67-4.64-2.02-6.05-1.34-1.41-3.17-2.11-5.47-2.11s-4.32,.78-5.76,2.33c-1.44,1.55-2.16,3.82-2.16,6.79v13.97h-4.37v-26.35h4.37v6.24c.67-2.14,1.86-3.79,3.58-4.94,1.71-1.15,3.69-1.73,5.93-1.73,3.07,0,5.55,.98,7.44,2.95Z"/><path class="cls-1" d="M930.79,958.31c0,1.79-.41,3.14-1.22,4.06-.82,.91-2.02,1.37-3.62,1.37v-1.97c.83,0,1.42-.22,1.78-.65,.35-.43,.53-1.1,.53-1.99v-1.1h-2.4v-4.13h4.42c.35,1.54,.53,3.01,.53,4.42Z"/><path class="cls-1" d="M948.7,987.88v3.84h-3.26c-2.69,0-4.7-.64-6.02-1.92-1.33-1.28-1.99-3.42-1.99-6.43v-14.21h-3.94v-3.79h3.94v-6.58h4.42v6.58h6.82v3.79h-6.82v14.3c0,1.7,.31,2.86,.94,3.48,.62,.62,1.7,.94,3.24,.94h2.69Z"/><path class="cls-1" d="M986.76,966.66c1.82,1.09,3.26,2.66,4.3,4.7,1.04,2.05,1.56,4.45,1.56,7.2s-.52,5.14-1.56,7.18c-1.04,2.03-2.47,3.59-4.3,4.68-1.82,1.09-3.9,1.63-6.24,1.63-2.56,0-4.73-.65-6.5-1.94-1.78-1.3-3-3-3.67-5.11v6.72h-4.37v-35.52h4.37v15.89c.67-2.11,1.9-3.82,3.67-5.11,1.78-1.3,3.94-1.94,6.5-1.94,2.34,0,4.42,.54,6.24,1.63Zm-12.1,3.43c-1.38,.78-2.45,1.91-3.22,3.38-.77,1.47-1.15,3.17-1.15,5.09s.38,3.61,1.15,5.06c.77,1.46,1.84,2.58,3.22,3.38,1.38,.8,2.91,1.2,4.61,1.2,2.72,0,4.89-.86,6.5-2.57,1.62-1.71,2.42-4.07,2.42-7.08s-.81-5.37-2.42-7.08c-1.62-1.71-3.78-2.57-6.5-2.57-1.7,0-3.23,.39-4.61,1.18Z"/><path class="cls-1" d="M1022.42,979.48h-21.07c.1,3.01,.95,5.26,2.57,6.77,1.62,1.5,3.59,2.26,5.93,2.26,2.11,0,3.88-.54,5.3-1.61,1.42-1.07,2.29-2.5,2.62-4.3h4.66c-.32,1.82-1.03,3.46-2.14,4.9-1.1,1.44-2.54,2.56-4.3,3.36-1.76,.8-3.74,1.2-5.95,1.2-2.53,0-4.77-.54-6.72-1.63-1.95-1.09-3.48-2.65-4.58-4.68-1.1-2.03-1.66-4.42-1.66-7.18s.55-5.15,1.66-7.2c1.1-2.05,2.63-3.62,4.58-4.7,1.95-1.09,4.19-1.63,6.72-1.63s4.79,.54,6.7,1.63c1.9,1.09,3.36,2.54,4.37,4.37,1.01,1.82,1.51,3.84,1.51,6.05,0,.93-.06,1.73-.19,2.4Zm-5.18-7.01c-.74-1.31-1.74-2.29-3.02-2.93-1.28-.64-2.67-.96-4.18-.96-2.4,0-4.42,.74-6.05,2.23-1.63,1.49-2.51,3.67-2.64,6.55h16.85c.1-1.95-.22-3.58-.96-4.9Z"/><path class="cls-1" d="M1052.86,987.88v3.84h-3.26c-2.69,0-4.7-.64-6.02-1.92-1.33-1.28-1.99-3.42-1.99-6.43v-14.21h-3.94v-3.79h3.94v-6.58h4.42v6.58h6.82v3.79h-6.82v14.3c0,1.7,.31,2.86,.94,3.48,.62,.62,1.7,.94,3.24,.94h2.69Z"/><path class="cls-1" d="M1076.97,966.66c2,1.09,3.57,2.66,4.7,4.7,1.14,2.05,1.7,4.45,1.7,7.2s-.57,5.14-1.7,7.18c-1.14,2.03-2.7,3.59-4.7,4.68-2,1.09-4.26,1.63-6.79,1.63s-4.79-.54-6.79-1.63c-2-1.09-3.58-2.65-4.73-4.68-1.15-2.03-1.73-4.42-1.73-7.18s.58-5.15,1.73-7.2c1.15-2.05,2.73-3.62,4.73-4.7s4.26-1.63,6.79-1.63,4.79,.54,6.79,1.63Zm-11.14,3.26c-1.33,.7-2.4,1.78-3.21,3.24-.82,1.46-1.22,3.26-1.22,5.4s.41,3.9,1.22,5.35c.82,1.46,1.89,2.54,3.21,3.24,1.33,.7,2.78,1.06,4.34,1.06s3.02-.35,4.34-1.06c1.33-.7,2.4-1.78,3.22-3.24,.82-1.46,1.22-3.24,1.22-5.35s-.41-3.94-1.22-5.4c-.82-1.46-1.89-2.54-3.22-3.24-1.33-.7-2.78-1.06-4.34-1.06s-3.02,.35-4.34,1.06Z"/><path class="cls-1" d="M1121.83,966.66c1.82,1.09,3.26,2.66,4.3,4.7,1.04,2.05,1.56,4.45,1.56,7.2s-.52,5.14-1.56,7.18c-1.04,2.03-2.47,3.59-4.3,4.68-1.82,1.09-3.9,1.63-6.24,1.63-2.56,0-4.73-.65-6.5-1.94s-3-3-3.67-5.11v19.2h-4.37v-38.83h4.37v6.72c.67-2.11,1.9-3.82,3.67-5.11,1.78-1.3,3.94-1.94,6.5-1.94,2.34,0,4.42,.54,6.24,1.63Zm-12.1,3.43c-1.38,.78-2.45,1.91-3.22,3.38-.77,1.47-1.15,3.17-1.15,5.09s.38,3.61,1.15,5.06c.77,1.46,1.84,2.58,3.22,3.38,1.38,.8,2.91,1.2,4.61,1.2,2.72,0,4.89-.86,6.5-2.57,1.62-1.71,2.42-4.07,2.42-7.08s-.81-5.37-2.42-7.08c-1.62-1.71-3.78-2.57-6.5-2.57-1.7,0-3.23,.39-4.61,1.18Z"/><path class="cls-1" d="M1133.49,955.69c.54-.5,1.26-.74,2.16-.74s1.62,.25,2.16,.74c.54,.5,.82,1.14,.82,1.94s-.27,1.45-.82,1.94c-.54,.5-1.26,.74-2.16,.74s-1.62-.25-2.16-.74c-.54-.5-.82-1.14-.82-1.94s.27-1.45,.82-1.94Zm4.32,9.67v26.35h-4.37v-26.35h4.37Z"/><path class="cls-1" d="M1164.89,967.72c2.21,1.79,3.57,4.19,4.08,7.2h-4.61c-.32-1.89-1.19-3.37-2.62-4.44-1.42-1.07-3.19-1.61-5.3-1.61-1.54,0-2.94,.35-4.2,1.06-1.27,.7-2.28,1.78-3.05,3.24-.77,1.46-1.15,3.26-1.15,5.4s.38,3.94,1.15,5.4c.77,1.46,1.78,2.54,3.05,3.24,1.26,.7,2.66,1.06,4.2,1.06,2.11,0,3.88-.54,5.3-1.63,1.42-1.09,2.29-2.58,2.62-4.46h4.61c-.51,3.04-1.87,5.45-4.08,7.22-2.21,1.78-4.99,2.66-8.35,2.66-2.53,0-4.77-.54-6.72-1.63-1.95-1.09-3.48-2.65-4.58-4.68-1.1-2.03-1.66-4.42-1.66-7.18s.55-5.15,1.66-7.2c1.1-2.05,2.63-3.62,4.58-4.7,1.95-1.09,4.19-1.63,6.72-1.63,3.36,0,6.14,.9,8.35,2.69Z"/><path class="cls-1" d="M1189.17,991.72l-10.08-11.86v11.86h-4.37v-35.52h4.37v20.64l9.94-11.47h5.33l-11.81,13.1,12.1,13.25h-5.47Z"/><path class="cls-6" d="M1248.07,965.12l-7.15,26.59h-7.49l-5.71-19.34-5.86,19.34h-7.49l-7.1-26.59h6.77l4.32,20.54,5.9-20.54h7.15l5.95,20.54,4.37-20.54h6.34Z"/><path class="cls-6" d="M1251.86,954.83c.77-.69,1.78-1.03,3.02-1.03s2.26,.34,3.02,1.03c.77,.69,1.15,1.58,1.15,2.66s-.38,1.93-1.15,2.62c-.77,.69-1.78,1.03-3.02,1.03s-2.26-.34-3.02-1.03c-.77-.69-1.15-1.56-1.15-2.62s.38-1.98,1.15-2.66Zm6.38,10.3v26.59h-6.77v-26.59h6.77Z"/><path class="cls-6" d="M1287.62,967.76c1.82,2.02,2.74,4.85,2.74,8.5v15.46h-6.72v-14.69c0-2.11-.54-3.75-1.63-4.92-1.09-1.17-2.58-1.75-4.46-1.75s-3.46,.62-4.61,1.87-1.73,3.04-1.73,5.38v14.11h-6.77v-26.59h6.77v5.33c.7-1.79,1.86-3.19,3.48-4.2,1.62-1.01,3.48-1.51,5.59-1.51,3.07,0,5.52,1.01,7.34,3.02Z"/><path class="cls-6" d="M1319.54,967.76c1.82,2.02,2.74,4.85,2.74,8.5v15.46h-6.72v-14.69c0-2.11-.54-3.75-1.63-4.92-1.09-1.17-2.58-1.75-4.46-1.75s-3.46,.62-4.61,1.87-1.73,3.04-1.73,5.38v14.11h-6.77v-26.59h6.77v5.33c.7-1.79,1.86-3.19,3.48-4.2,1.62-1.01,3.48-1.51,5.59-1.51,3.07,0,5.52,1.01,7.34,3.02Z"/><path class="cls-6" d="M1353.04,979.72h-19.49c.1,2.37,.74,4.11,1.92,5.23,1.18,1.12,2.66,1.68,4.42,1.68,1.57,0,2.87-.38,3.91-1.15,1.04-.77,1.7-1.81,1.99-3.12h7.15c-.35,1.86-1.1,3.52-2.26,4.99-1.15,1.47-2.63,2.62-4.44,3.46-1.81,.83-3.82,1.25-6.02,1.25-2.59,0-4.9-.55-6.91-1.66s-3.58-2.68-4.7-4.73c-1.12-2.05-1.68-4.46-1.68-7.25s.56-5.21,1.68-7.27c1.12-2.06,2.69-3.64,4.7-4.73,2.02-1.09,4.32-1.63,6.91-1.63s4.92,.54,6.89,1.63c1.97,1.09,3.49,2.58,4.56,4.49,1.07,1.9,1.61,4.07,1.61,6.5,0,.67-.08,1.44-.24,2.3Zm-8.28-7.92c-1.23-1.12-2.74-1.68-4.54-1.68s-3.36,.56-4.61,1.68c-1.25,1.12-1.94,2.77-2.06,4.94h12.91c.1-2.18-.47-3.82-1.7-4.94Z"/><path class="cls-6" d="M1368.83,966.2c1.63-.98,3.46-1.46,5.47-1.46v7.25h-1.97c-4.96,0-7.44,2.3-7.44,6.91v12.82h-6.77v-26.59h6.77v5.09c.99-1.7,2.3-3.03,3.94-4.01Z"/><path class="cls-6" d="M1395.04,967.24c1.95,1.63,3.17,3.81,3.65,6.53h-6.34c-.26-1.28-.83-2.3-1.73-3.07s-2.06-1.15-3.5-1.15c-1.15,0-2.05,.27-2.69,.82-.64,.54-.96,1.28-.96,2.21,0,.74,.25,1.33,.77,1.78,.51,.45,1.15,.8,1.92,1.06,.77,.26,1.87,.56,3.31,.91,2.02,.45,3.66,.92,4.92,1.42,1.26,.5,2.35,1.28,3.26,2.35,.91,1.07,1.37,2.52,1.37,4.34,0,2.27-.89,4.11-2.66,5.52-1.78,1.41-4.17,2.11-7.18,2.11-3.46,0-6.22-.78-8.3-2.33-2.08-1.55-3.34-3.77-3.79-6.65h6.48c.16,1.31,.74,2.34,1.73,3.1,.99,.75,2.29,1.13,3.89,1.13,1.15,0,2.03-.28,2.64-.84,.61-.56,.91-1.29,.91-2.18,0-.77-.26-1.39-.79-1.87-.53-.48-1.18-.85-1.97-1.1-.78-.26-1.9-.56-3.34-.91-1.99-.45-3.59-.9-4.82-1.37-1.23-.46-2.29-1.21-3.17-2.23-.88-1.02-1.32-2.43-1.32-4.22,0-2.3,.88-4.18,2.64-5.62,1.76-1.44,4.19-2.16,7.3-2.16s5.82,.82,7.78,2.45Z"/><path class="cls-6" d="M1409.73,984.66v7.06h-7.29v-7.06h7.29Z"/><path class="cls-6" d="M1419.9,984.66v7.06h-7.29v-7.06h7.29Z"/><path class="cls-6" d="M1430.08,984.66v7.06h-7.29v-7.06h7.29Z"/></g><path class="cls-2" d="M2710.47,410.77H427.93c-34.36,0-62.21,27.85-62.21,62.21v239c0,34.36,27.85,62.21,62.21,62.21H2809.06c44.29,0,74.4-44.98,57.51-85.93l-98.59-239c-9.61-23.29-32.31-38.48-57.51-38.48Z"/><rect class="cls-7" x="1517.64" y="-436.15" width="39.45" height="2156.79" rx="19.73" ry="19.73" transform="translate(2179.49 -895.17) rotate(90)"/><g><path class="cls-1" d="M536.31,539.51l-9.54,38.93h-9.6l-7.28-28.23-7.33,28.23h-9.54l-9.54-38.93h8.44l5.96,30.16,7.72-30.16h8.55l7.78,30.16,5.96-30.16h8.44Z"/><path class="cls-1" d="M542.05,536.07c.88-.79,2.04-1.19,3.47-1.19s2.59,.4,3.47,1.19c.88,.79,1.32,1.81,1.32,3.06s-.44,2.22-1.32,3.01c-.88,.79-2.04,1.19-3.47,1.19s-2.59-.39-3.47-1.19c-.88-.79-1.32-1.79-1.32-3.01s.44-2.27,1.32-3.06Zm7.33,11.83v30.55h-7.78v-30.55h7.78Z"/><path class="cls-1" d="M583.07,550.93c2.1,2.32,3.14,5.57,3.14,9.76v17.76h-7.72v-16.87c0-2.43-.63-4.31-1.88-5.65-1.25-1.34-2.96-2.01-5.13-2.01s-3.97,.72-5.29,2.15c-1.32,1.43-1.99,3.49-1.99,6.18v16.21h-7.78v-30.55h7.78v6.12c.81-2.06,2.14-3.67,4-4.83,1.86-1.16,4-1.74,6.42-1.74,3.53,0,6.34,1.16,8.44,3.47Z"/><path class="cls-1" d="M619.69,550.93c2.09,2.32,3.14,5.57,3.14,9.76v17.76h-7.72v-16.87c0-2.43-.62-4.31-1.88-5.65-1.25-1.34-2.96-2.01-5.13-2.01s-3.97,.72-5.29,2.15c-1.32,1.43-1.98,3.49-1.98,6.18v16.21h-7.78v-30.55h7.78v6.12c.81-2.06,2.14-3.67,4-4.83,1.86-1.16,4-1.74,6.42-1.74,3.53,0,6.34,1.16,8.44,3.47Z"/><path class="cls-1" d="M658.12,564.66h-22.39c.11,2.72,.85,4.72,2.21,6.01,1.36,1.29,3.05,1.93,5.07,1.93,1.8,0,3.3-.44,4.49-1.32s1.96-2.08,2.29-3.58h8.22c-.4,2.13-1.27,4.04-2.59,5.73-1.32,1.69-3.03,3.01-5.1,3.97-2.08,.96-4.38,1.43-6.92,1.43-2.98,0-5.62-.63-7.94-1.9-2.32-1.27-4.12-3.08-5.4-5.43-1.29-2.35-1.93-5.13-1.93-8.33s.64-5.98,1.93-8.35c1.29-2.37,3.09-4.18,5.4-5.43,2.32-1.25,4.96-1.88,7.94-1.88s5.65,.63,7.91,1.88c2.26,1.25,4.01,2.97,5.24,5.16,1.23,2.19,1.85,4.68,1.85,7.47,0,.77-.09,1.65-.28,2.65Zm-9.51-9.1c-1.42-1.29-3.15-1.93-5.21-1.93s-3.86,.64-5.29,1.93c-1.43,1.29-2.22,3.18-2.37,5.68h14.83c.11-2.5-.54-4.39-1.96-5.68Z"/><path class="cls-1" d="M676.21,549.14c1.88-1.12,3.97-1.68,6.29-1.68v8.33h-2.26c-5.7,0-8.55,2.65-8.55,7.94v14.72h-7.78v-30.55h7.78v5.85c1.14-1.95,2.65-3.48,4.52-4.6Z"/><path class="cls-1" d="M706.26,550.32c2.24,1.88,3.64,4.38,4.19,7.5h-7.28c-.29-1.47-.96-2.65-1.99-3.53-1.03-.88-2.37-1.32-4.03-1.32-1.32,0-2.35,.31-3.09,.94-.74,.63-1.1,1.47-1.1,2.54,0,.85,.29,1.53,.88,2.04,.59,.52,1.32,.92,2.21,1.21,.88,.29,2.15,.64,3.81,1.05,2.31,.52,4.2,1.06,5.65,1.63,1.45,.57,2.7,1.47,3.75,2.7,1.05,1.23,1.57,2.9,1.57,4.99,0,2.61-1.02,4.72-3.06,6.34-2.04,1.62-4.79,2.43-8.24,2.43-3.97,0-7.15-.89-9.54-2.67-2.39-1.78-3.84-4.33-4.36-7.64h7.45c.18,1.51,.85,2.69,1.98,3.56,1.14,.86,2.63,1.3,4.47,1.3,1.32,0,2.33-.32,3.03-.96,.7-.64,1.05-1.48,1.05-2.51,0-.88-.3-1.6-.91-2.15-.61-.55-1.36-.97-2.26-1.27-.9-.29-2.18-.64-3.83-1.05-2.28-.51-4.13-1.04-5.54-1.57-1.41-.53-2.63-1.39-3.64-2.56-1.01-1.18-1.52-2.79-1.52-4.85,0-2.65,1.01-4.8,3.03-6.45s4.82-2.48,8.38-2.48,6.69,.94,8.93,2.81Z"/></g><g><path class="cls-1" d="M2404.77,572.49h13.07v5.96h-20.84v-38.93h7.78v32.98Z"/><path class="cls-1" d="M2444.61,549.38c2.37,1.25,4.24,3.06,5.6,5.43,1.36,2.37,2.04,5.16,2.04,8.35s-.68,5.97-2.04,8.33c-1.36,2.35-3.23,4.16-5.6,5.43-2.37,1.27-5.04,1.9-8.02,1.9s-5.65-.63-8.02-1.9c-2.37-1.27-4.24-3.08-5.6-5.43-1.36-2.35-2.04-5.13-2.04-8.33s.68-5.98,2.04-8.35c1.36-2.37,3.23-4.18,5.6-5.43,2.37-1.25,5.04-1.88,8.02-1.88s5.65,.63,8.02,1.88Zm-13.54,7.14c-1.51,1.53-2.26,3.74-2.26,6.65s.75,5.12,2.26,6.65c1.51,1.53,3.34,2.29,5.51,2.29s4.01-.76,5.51-2.29c1.51-1.53,2.26-3.74,2.26-6.65s-.75-5.12-2.26-6.65c-1.51-1.52-3.35-2.29-5.51-2.29s-4.01,.76-5.51,2.29Z"/><path class="cls-1" d="M2477.23,550.32c2.24,1.88,3.64,4.38,4.19,7.5h-7.28c-.29-1.47-.96-2.65-1.99-3.53-1.03-.88-2.37-1.32-4.03-1.32-1.32,0-2.35,.31-3.09,.94-.74,.63-1.1,1.47-1.1,2.54,0,.85,.29,1.53,.88,2.04,.59,.52,1.32,.92,2.21,1.21,.88,.29,2.15,.64,3.81,1.05,2.31,.52,4.2,1.06,5.65,1.63,1.45,.57,2.7,1.47,3.75,2.7,1.05,1.23,1.57,2.9,1.57,4.99,0,2.61-1.02,4.72-3.06,6.34-2.04,1.62-4.79,2.43-8.24,2.43-3.97,0-7.15-.89-9.54-2.67-2.39-1.78-3.84-4.33-4.36-7.64h7.45c.18,1.51,.85,2.69,1.98,3.56,1.14,.86,2.63,1.3,4.47,1.3,1.32,0,2.33-.32,3.03-.96,.7-.64,1.05-1.48,1.05-2.51,0-.88-.3-1.6-.91-2.15-.61-.55-1.36-.97-2.26-1.27-.9-.29-2.18-.64-3.83-1.05-2.28-.51-4.13-1.04-5.54-1.57-1.41-.53-2.63-1.39-3.64-2.56-1.01-1.18-1.52-2.79-1.52-4.85,0-2.65,1.01-4.8,3.03-6.45s4.82-2.48,8.38-2.48,6.69,.94,8.93,2.81Z"/><path class="cls-1" d="M2516.05,564.65h-22.39c.11,2.72,.85,4.72,2.21,6.01,1.36,1.29,3.05,1.93,5.07,1.93,1.8,0,3.3-.44,4.49-1.32,1.19-.88,1.96-2.08,2.29-3.58h8.21c-.4,2.13-1.27,4.04-2.59,5.73-1.32,1.69-3.02,3.01-5.1,3.97-2.08,.96-4.38,1.43-6.92,1.43-2.98,0-5.62-.63-7.94-1.9-2.32-1.27-4.12-3.08-5.4-5.43-1.29-2.35-1.93-5.13-1.93-8.33s.64-5.98,1.93-8.35c1.29-2.37,3.09-4.18,5.4-5.43,2.32-1.25,4.96-1.88,7.94-1.88s5.65,.63,7.91,1.88c2.26,1.25,4.01,2.97,5.24,5.16,1.23,2.19,1.85,4.68,1.85,7.47,0,.77-.09,1.65-.28,2.65Zm-9.51-9.1c-1.42-1.29-3.15-1.93-5.21-1.93s-3.86,.64-5.29,1.93c-1.43,1.29-2.22,3.18-2.37,5.68h14.83c.11-2.5-.54-4.39-1.96-5.68Z"/><path class="cls-1" d="M2534.14,549.13c1.88-1.12,3.97-1.68,6.29-1.68v8.33h-2.26c-5.7,0-8.55,2.65-8.55,7.94v14.72h-7.78v-30.55h7.78v5.85c1.14-1.95,2.65-3.48,4.52-4.6Z"/><path class="cls-1" d="M2564.19,550.32c2.24,1.88,3.64,4.38,4.19,7.5h-7.28c-.29-1.47-.96-2.65-1.98-3.53-1.03-.88-2.37-1.32-4.03-1.32-1.32,0-2.35,.31-3.09,.94-.74,.63-1.1,1.47-1.1,2.54,0,.85,.29,1.53,.88,2.04,.59,.52,1.32,.92,2.21,1.21,.88,.29,2.15,.64,3.8,1.05,2.32,.52,4.2,1.06,5.65,1.63,1.45,.57,2.7,1.47,3.75,2.7,1.05,1.23,1.57,2.9,1.57,4.99,0,2.61-1.02,4.72-3.06,6.34-2.04,1.62-4.79,2.43-8.24,2.43-3.97,0-7.15-.89-9.54-2.67-2.39-1.78-3.84-4.33-4.36-7.64h7.44c.18,1.51,.85,2.69,1.99,3.56,1.14,.86,2.63,1.3,4.47,1.3,1.32,0,2.33-.32,3.03-.96,.7-.64,1.05-1.48,1.05-2.51,0-.88-.3-1.6-.91-2.15-.61-.55-1.36-.97-2.26-1.27-.9-.29-2.18-.64-3.83-1.05-2.28-.51-4.13-1.04-5.54-1.57-1.42-.53-2.63-1.39-3.64-2.56-1.01-1.18-1.52-2.79-1.52-4.85,0-2.65,1.01-4.8,3.03-6.45,2.02-1.65,4.81-2.48,8.38-2.48s6.69,.94,8.93,2.81Z"/></g><g><path class="cls-1" d="M1414.15,584.51c-1.58,2.6-3.9,4.68-6.97,6.23-3.07,1.55-6.79,2.32-11.16,2.32-6.59,0-12.01-1.6-16.27-4.81-4.26-3.21-6.59-7.69-6.97-13.45h15.11c.22,2.21,1.01,3.96,2.37,5.23,1.35,1.27,3.08,1.91,5.19,1.91,1.83,0,3.26-.5,4.32-1.49,1.05-1,1.58-2.32,1.58-3.98,0-1.49-.48-2.74-1.45-3.73s-2.17-1.81-3.61-2.45c-1.44-.64-3.43-1.4-5.98-2.28-3.71-1.27-6.74-2.5-9.09-3.69-2.35-1.19-4.37-2.96-6.06-5.31-1.69-2.35-2.53-5.41-2.53-9.17,0-3.49,.88-6.5,2.66-9.05,1.77-2.54,4.22-4.5,7.35-5.85,3.12-1.36,6.71-2.03,10.75-2.03,6.53,0,11.72,1.55,15.56,4.65,3.85,3.1,6.02,7.36,6.52,12.78h-15.36c-.28-1.94-.98-3.47-2.12-4.61-1.13-1.13-2.67-1.7-4.61-1.7-1.66,0-3,.44-4.03,1.33-1.02,.89-1.54,2.19-1.54,3.9,0,1.38,.46,2.56,1.37,3.53,.91,.97,2.06,1.76,3.45,2.37,1.38,.61,3.38,1.38,5.98,2.32,3.76,1.27,6.83,2.53,9.21,3.78,2.38,1.24,4.43,3.06,6.14,5.44,1.71,2.38,2.57,5.48,2.57,9.3,0,3.1-.79,5.95-2.37,8.55Z"/><path class="cls-1" d="M1462.58,592.48l-6.81-8.22c-.55,.89-1.03,1.58-1.41,2.07-1.22,2.05-3,3.68-5.36,4.9-2.35,1.22-5.08,1.83-8.18,1.83-3.93,0-7.32-.8-10.17-2.41-2.85-1.6-5.02-3.78-6.52-6.52-1.49-2.74-2.24-5.82-2.24-9.26,0-4.81,1.27-8.76,3.82-11.83,2.54-3.07,5.81-4.86,9.79-5.35l-1-1.66c-.88-1.38-1.55-2.77-1.99-4.15-.44-1.38-.66-2.9-.66-4.56,0-2.49,.66-4.81,1.99-6.97s3.28-3.89,5.85-5.19c2.57-1.3,5.66-1.95,9.25-1.95,5.04,0,8.94,1.07,11.7,3.2,2.77,2.13,4.65,4.91,5.64,8.34,.78,2.44,1.08,5.12,.91,8.05h-13.2c0-.94-.06-1.96-.17-3.07-.17-3.15-1.72-4.73-4.65-4.73-1.22,0-2.2,.36-2.95,1.08-.75,.72-1.12,1.63-1.12,2.74,0,.94,.21,1.8,.62,2.57,.41,.78,1.09,1.8,2.03,3.07l29.05,38.02h-14.28Zm-16.81-13.03c1.24-1.22,1.87-2.77,1.87-4.65s-.69-3.54-2.07-4.81c-1.38-1.27-3.04-1.91-4.98-1.91s-3.5,.55-4.69,1.66c-1.19,1.11-1.79,2.68-1.79,4.73s.65,3.69,1.95,4.94c1.3,1.25,2.95,1.87,4.94,1.87s3.53-.61,4.77-1.83Z"/><path class="cls-1" d="M1496.12,571.9v20.58h-14.19v-58.68h22.99c6.97,0,12.28,1.73,15.94,5.19,3.65,3.46,5.48,8.12,5.48,13.99,0,3.65-.82,6.9-2.45,9.75-1.63,2.85-4.05,5.09-7.26,6.72-3.21,1.63-7.11,2.45-11.7,2.45h-8.8Zm15.77-18.93c0-5.15-2.85-7.72-8.55-7.72h-7.22v15.27h7.22c5.7,0,8.55-2.52,8.55-7.55Z"/><path class="cls-1" d="M1591.82,544.84h-26.4v11.87c1.16-1.33,2.78-2.37,4.86-3.11,2.08-.75,4.33-1.12,6.77-1.12,3.93,0,7.22,.87,9.88,2.61s4.62,4.08,5.89,7.01c1.27,2.93,1.91,6.17,1.91,9.71,0,6.42-1.8,11.5-5.39,15.23-3.6,3.74-8.66,5.6-15.19,5.6-4.43,0-8.27-.79-11.54-2.37s-5.78-3.78-7.55-6.6c-1.77-2.82-2.71-6.09-2.82-9.79h13.86c.28,1.88,1.04,3.43,2.28,4.65,1.25,1.22,2.95,1.83,5.11,1.83,2.49,0,4.36-.8,5.6-2.41,1.25-1.6,1.87-3.74,1.87-6.39s-.66-4.51-1.99-5.89c-1.33-1.38-3.18-2.08-5.56-2.08-1.83,0-3.35,.4-4.56,1.2-1.22,.8-2.05,1.84-2.49,3.11h-13.78v-35.53h39.26v12.45Z"/><path class="cls-1" d="M1601.86,562.52c0-9.13,1.85-16.36,5.56-21.71,3.71-5.34,9.63-8.01,17.76-8.01s13.99,2.67,17.72,8.01c3.74,5.34,5.6,12.58,5.6,21.71s-1.87,16.46-5.6,21.83c-3.73,5.37-9.64,8.05-17.72,8.05s-14.06-2.68-17.76-8.05c-3.71-5.37-5.56-12.64-5.56-21.83Zm32.54,0c0-5.26-.62-9.28-1.87-12.08-1.25-2.79-3.69-4.19-7.35-4.19s-6.2,1.41-7.47,4.23c-1.27,2.82-1.91,6.83-1.91,12.04s.64,9.31,1.91,12.16c1.27,2.85,3.76,4.27,7.47,4.27s6.1-1.42,7.35-4.27c1.24-2.85,1.87-6.9,1.87-12.16Z"/><path class="cls-1" d="M1655.31,562.52c0-9.13,1.85-16.36,5.56-21.71,3.71-5.34,9.63-8.01,17.76-8.01s13.99,2.67,17.72,8.01c3.73,5.34,5.6,12.58,5.6,21.71s-1.87,16.46-5.6,21.83c-3.74,5.37-9.64,8.05-17.72,8.05s-14.06-2.68-17.76-8.05c-3.71-5.37-5.56-12.64-5.56-21.83Zm32.54,0c0-5.26-.62-9.28-1.87-12.08-1.24-2.79-3.69-4.19-7.35-4.19s-6.2,1.41-7.47,4.23c-1.27,2.82-1.91,6.83-1.91,12.04s.63,9.31,1.91,12.16c1.27,2.85,3.76,4.27,7.47,4.27s6.1-1.42,7.35-4.27c1.25-2.85,1.87-6.9,1.87-12.16Z"/></g></svg>