<?xml version="1.0" encoding="UTF-8"?><svg id="Layer_1" xmlns="http://www.w3.org/2000/svg" viewBox="0 0 3200 1800"><defs><style>.cls-1{fill:#fff;}.cls-2{opacity:.8;}.cls-3{fill:none;stroke:#fff;stroke-miterlimit:10;stroke-width:2px;}.cls-4{fill:#ff8329;}.cls-5{fill:#151521;}</style></defs><rect class="cls-5" x=".03" width="3200" height="1800"/><g><path class="cls-1" d="m449.02,79.39l-15.22,59.92h-9.43l-13.85-48.96-13.86,48.96h-9.43l-15.3-59.92h8.59l11.47,50.92,14.19-50.92h8.59l14.19,50.75,11.56-50.75h8.5Z"/><path class="cls-1" d="m495.94,97.11c3.34,3.48,5.02,8.51,5.02,15.09v27.12h-7.74v-26.43c0-4.65-1.19-8.22-3.57-10.71-2.38-2.49-5.61-3.74-9.69-3.74s-7.65,1.37-10.2,4.12c-2.55,2.75-3.82,6.76-3.82,12.03v24.74h-7.73v-62.9h7.73v27.29c1.19-3.8,3.3-6.71,6.33-8.75,3.03-2.04,6.53-3.06,10.5-3.06,5.44,0,9.83,1.74,13.18,5.23Z"/><path class="cls-1" d="m516.16,92.65l15.13,36.72,14.03-36.72h8.58l-27.71,68.76h-8.76l9.69-22.86-19.64-45.9h8.67Z"/><path class="cls-1" d="m617.99,131.66c-1.36,2.44-3.43,4.42-6.2,5.95-2.78,1.53-6.21,2.29-10.29,2.29s-7.49-.72-10.58-2.17c-3.09-1.45-5.55-3.43-7.4-5.95-1.84-2.52-2.9-5.4-3.19-8.63h8.24c.17,1.7.75,3.36,1.74,4.97.99,1.62,2.41,2.95,4.25,4,1.84,1.05,4.07,1.57,6.67,1.57,3.4,0,6.01-.91,7.82-2.72,1.81-1.81,2.72-4.14,2.72-6.97,0-2.44-.64-4.42-1.91-5.95-1.28-1.53-2.85-2.73-4.72-3.61-1.87-.88-4.42-1.83-7.65-2.85-3.8-1.25-6.84-2.42-9.14-3.53-2.3-1.11-4.25-2.76-5.86-4.97-1.62-2.21-2.42-5.13-2.42-8.75,0-3.12.75-5.87,2.25-8.25,1.5-2.38,3.66-4.22,6.46-5.53,2.81-1.3,6.11-1.96,9.9-1.96,5.89,0,10.57,1.43,14.02,4.29,3.46,2.86,5.47,6.5,6.04,10.92h-8.33c-.45-2.38-1.67-4.48-3.66-6.29-1.98-1.81-4.68-2.72-8.07-2.72-3.12,0-5.61.81-7.48,2.42s-2.8,3.9-2.8,6.84c0,2.32.61,4.21,1.83,5.65,1.22,1.45,2.73,2.58,4.55,3.4,1.81.82,4.31,1.74,7.48,2.76,3.85,1.25,6.96,2.44,9.31,3.57,2.35,1.13,4.35,2.85,5.99,5.14,1.64,2.29,2.46,5.34,2.46,9.14,0,2.83-.68,5.47-2.04,7.9Z"/><path class="cls-1" d="m638.22,115.17v24.14h-7.73v-59.92h19.04c6.86,0,11.98,1.6,15.39,4.8,3.4,3.2,5.1,7.58,5.1,13.13s-1.76,9.99-5.27,13.13c-3.51,3.14-8.58,4.72-15.21,4.72h-11.31Zm20.78-9.44c2.07-1.98,3.1-4.79,3.1-8.42s-1.03-6.59-3.1-8.54c-2.07-1.96-5.45-2.93-10.16-2.93h-10.62v22.87h10.62c4.7,0,8.09-.99,10.16-2.98Z"/><path class="cls-1" d="m714.21,125.46h-26.35l-5.02,13.86h-8.33l22.19-58.82h8.76l22.1,58.82h-8.33l-5.01-13.86Zm-2.21-6.03l-10.96-30.26-10.96,30.26h21.93Z"/><path class="cls-1" d="m780.09,84.19c4.76,3.6,8.05,8.51,9.86,14.75h-8.16c-1.53-3.97-3.99-7.12-7.4-9.48-3.4-2.35-7.57-3.53-12.49-3.53-3.91,0-7.41.95-10.5,2.85-3.09,1.9-5.52,4.62-7.31,8.16-1.79,3.54-2.68,7.69-2.68,12.45s.89,8.81,2.68,12.33c1.79,3.51,4.22,6.22,7.31,8.12,3.09,1.9,6.59,2.85,10.5,2.85,4.93,0,9.09-1.18,12.49-3.53,3.4-2.35,5.86-5.51,7.4-9.48h8.16c-1.81,6.23-5.1,11.15-9.86,14.75-4.76,3.6-10.79,5.4-18.1,5.4-5.61,0-10.57-1.29-14.88-3.87-4.31-2.58-7.66-6.18-10.07-10.79-2.41-4.62-3.61-9.87-3.61-15.77s1.2-11.25,3.61-15.9c2.41-4.65,5.77-8.26,10.07-10.84,4.31-2.58,9.27-3.87,14.88-3.87,7.31,0,13.34,1.8,18.1,5.4Z"/><path class="cls-1" d="m808.13,85.68v20.48h22.78v5.95h-22.78v20.91h25.33v6.29h-33.07v-59.92h33.07v6.29h-25.33Z"/></g><g class="cls-2"><g><g id="tmjHHr"><g><path class="cls-1" d="m688.92,1737.47c0-3.4,0-6.8,0-10.2,0-1.54.54-2.22,2.03-2.22,7.18.04,14.36-.33,21.54.22,1.41.11,2.75.48,4.03,1.05,2.37,1.05,3.74,2.83,3.82,5.47.04,1.2.04,2.4,0,3.59-.1,2.69-1.53,4.45-3.95,5.49-2.56,1.1-5.28,1.23-7.99,1.27-3.96.05-7.92.01-11.88.02q-1.47,0-1.47,1.52c0,1.43.02,2.86,0,4.29-.03,1.47-.79,2.27-2.28,2.4-.5.04-1.01.04-1.51,0-1.55-.12-2.3-.9-2.31-2.46-.02-3.48,0-6.96,0-10.43Zm14.43-7.54s0-.06,0-.09c-2.41,0-4.81.03-7.22-.02-.88-.02-1.14.28-1.11,1.14.06,1.77.05,3.55,0,5.33-.02.81.22,1.06,1.04,1.05,3.8-.04,7.6-.03,11.41-.01,1.32,0,2.64-.03,3.95-.21,2.07-.29,2.75-1.06,2.75-3.11,0-.46-.03-.93,0-1.39.09-1.19-.5-1.86-1.57-2.27-.66-.25-1.34-.4-2.04-.41-2.4-.02-4.81,0-7.21,0Z"/><path class="cls-1" d="m725.28,1737.55c0-3.32,0-6.65,0-9.97,0-1.98.92-2.76,3.16-2.75,2.08,0,2.95.79,2.97,2.69.01,2.28.03,4.56-.01,6.84-.01.75.21,1,.99.99,5.71-.03,11.42-.03,17.13,0,.77,0,1-.24.98-.99-.04-2.32-.03-4.64,0-6.96.01-1.79.92-2.57,2.96-2.57,2.15,0,3.12.75,3.12,2.54.01,6.84.01,13.68,0,20.52,0,1.55-.77,2.35-2.32,2.47-.5.04-1.01.04-1.51,0-1.47-.13-2.23-.93-2.25-2.42-.02-2.24-.04-4.48,0-6.73.02-.78-.18-1.07-1.03-1.06-5.67.03-11.34.03-17.01,0-.79,0-1.09.19-1.07,1.03.05,2.2.03,4.41.01,6.61-.01,1.69-.76,2.47-2.45,2.59-.42.03-.86.03-1.28,0-1.63-.11-2.39-.89-2.4-2.51-.02-3.44,0-6.88,0-10.32Z"/><path class="cls-1" d="m649.14,1750.4c-1.19.09-2.1-.57-2.79-1.59-.87-1.28-1.74-2.56-2.56-3.87-.33-.52-.71-.71-1.32-.71-5.08.02-10.17.02-15.25,0-.68,0-1.05.24-1.39.79-.78,1.25-1.6,2.47-2.43,3.67-1.12,1.61-2.6,2.11-4.48,1.59-1.5-.42-2.19-1.84-1.55-3.29.19-.42.45-.81.72-1.19,4.38-6.32,8.77-12.65,13.17-18.96,1.94-2.78,5.05-2.78,6.99,0,4.34,6.21,8.67,12.43,13.01,18.65.13.19.26.38.4.57.69.97,1.07,2.01.47,3.14-.6,1.11-1.71,1.21-2.95,1.21Zm-19.74-10.74h10.85c-1.86-2.79-3.62-5.42-5.45-8.16-1.84,2.77-3.56,5.38-5.4,8.16Z"/><path class="cls-1" d="m764.08,1750.4c-1.26,0-2.34-.16-2.94-1.27-.59-1.1-.2-2.09.45-3.03,4.55-6.54,9.07-13.09,13.65-19.61,1.66-2.37,4.87-2.29,6.57.14,4.51,6.42,8.99,12.87,13.47,19.31,1.17,1.69,1.14,3.07-.02,3.91-1.33.98-3.81.71-4.85-.65-1.01-1.32-1.91-2.72-2.79-4.13-.4-.64-.86-.85-1.6-.84-4.97.03-9.94.03-14.91,0-.75,0-1.21.21-1.6.85-.74,1.22-1.55,2.4-2.36,3.58-.76,1.12-1.75,1.86-3.07,1.73Zm19.91-10.73c-1.88-2.81-3.62-5.43-5.45-8.16-1.83,2.76-3.57,5.39-5.41,8.16h10.86Z"/><path class="cls-1" d="m655.82,1735.62c0-2.71-.01-5.41,0-8.12.01-1.89.89-2.66,2.99-2.67,2.16,0,3.11.79,3.12,2.68.01,4.91,0,9.82,0,14.73,0,1.75.61,2.53,2.35,2.9,1.06.22,2.14.35,3.24.34,4.89-.02,9.79-.02,14.68,0,1.94.01,2.81,1.02,2.56,2.86-.11.8-.52,1.38-1.27,1.66-.39.15-.83.27-1.24.27-6.1-.05-12.2.24-18.29-.17-1.59-.11-3.15-.47-4.59-1.19-2.28-1.14-3.54-2.94-3.55-5.53,0-2.59,0-5.18,0-7.77Z"/></g></g><path class="cls-1" d="m375.64,1726.25l18.65,15.9v-14.8c0-1.65,1.06-2.46,3.12-2.46s3.08.81,3.08,2.46v20.74c0,1.69-1.06,2.53-3.22,2.53-1.5,0-2.24-.48-3.33-1.43l-18.61-15.94v14.84c0,1.69-1.03,2.53-3.12,2.53s-3.08-.84-3.08-2.53v-20.63c0-1.72,1.06-2.57,3.19-2.57,1.46,0,2.27.44,3.33,1.36"/><path class="cls-1" d="m463.49,1727.05l6.85,15.17,6.38-15.39c.51-1.25,1.36-1.94,3.15-1.94,2.02,0,3.12.84,3.12,2.53,0,.48-.11.92-.48,1.72l-8.54,18.87c-.84,1.83-1.39,2.6-3.44,2.6s-3.01-.88-3.74-2.6l-6.67-14.44-6.63,14.44c-.81,1.72-1.57,2.6-3.7,2.6s-2.6-.77-3.48-2.6l-8.54-18.87c-.37-.77-.48-1.25-.48-1.72,0-1.69,1.1-2.53,3.15-2.53,1.76,0,2.64.7,3.15,1.94l6.34,15.43,6.89-15.21c.59-1.28,1.25-2.16,3.33-2.16s2.75.88,3.33,2.16"/><path class="cls-1" d="m521.46,1744.39h-17.04l-2.97,4.47c-.77,1.17-1.76,1.76-3.01,1.76-2.13,0-3.3-.84-3.3-2.46,0-.66.22-1.17.88-2.12l13.6-19.53c.73-1.06,1.87-1.61,3.26-1.61s2.46.55,3.19,1.61l13.63,19.53c.66.95.88,1.46.88,2.12,0,1.61-1.1,2.46-3.26,2.46-1.14,0-2.13-.59-2.9-1.76l-2.97-4.47Zm-14.04-4.51h11.03l-5.53-8.28-5.5,8.28Z"/><path class="cls-1" d="m546,1750.43c-7.48,0-11.21-2.38-11.21-7.18v-11.36c0-4.54,3.67-6.82,11.03-6.82h4.4c1.87,0,2.78.81,2.78,2.38s-.92,2.45-2.78,2.45h-4.29c-3.3,0-4.95.73-4.95,2.16v10.96c0,1.69,1.8,2.57,5.39,2.57h7.88c3.59,0,5.42-.88,5.42-2.57v-5.83c0-1.69,1.02-2.53,3.08-2.53s3.12.84,3.12,2.53v6.05c0,4.8-3.77,7.18-11.21,7.18h-8.65Z"/><path class="cls-1" d="m583.85,1750.43c-7.48,0-11.21-2.38-11.21-7.15v-11.36c0-4.58,3.67-6.85,11.03-6.85h4.62c1.83,0,2.78.81,2.78,2.38s-.95,2.45-2.78,2.45h-4.51c-3.3,0-4.95.73-4.95,2.2v3.3h16.34c1.72,0,2.57.73,2.57,2.24s-.84,2.27-2.57,2.27h-16.34v3.15c0,1.69,1.8,2.53,5.39,2.53h17.51c1.83,0,2.78.77,2.78,2.38s-.95,2.45-2.78,2.45h-17.88Z"/><path class="cls-1" d="m418.65,1750.43c-7.48,0-11.21-2.38-11.21-7.15v-11.36c0-4.58,3.67-6.85,11.03-6.85h4.62c1.83,0,2.78.81,2.78,2.38s-.95,2.45-2.78,2.45h-4.51c-3.3,0-4.95.73-4.95,2.2v3.3h16.34c1.72,0,2.56.73,2.56,2.24s-.84,2.27-2.56,2.27h-16.34v3.15c0,1.69,1.8,2.53,5.39,2.53h17.51c1.83,0,2.78.77,2.78,2.38s-.95,2.45-2.78,2.45h-17.88Z"/><path class="cls-1" d="m794.73,1730.28c0-3.14,2.27-5.47,5.33-5.47s5.31,2.25,5.31,5.42-2.27,5.47-5.33,5.47-5.31-2.25-5.31-5.42Zm9.98-.03c0-2.81-1.98-4.87-4.69-4.87s-4.64,2.01-4.64,4.88,1.96,4.85,4.67,4.85,4.66-2.01,4.66-4.87Zm-3.37,2.53l-1.78-1.99h-.7v1.91c0,.21-.11.34-.31.34h-.11c-.21,0-.33-.15-.33-.38v-4.84c0-.28.16-.44.42-.44h1.65c1.37,0,2.11.57,2.11,1.7,0,.85-.46,1.44-1.42,1.6-.16.03-.33.05-.52.05l1.91,1.99c.03.07-.15.31-.41.31-.15,0-.34-.07-.51-.26Zm-1.16-2.6c.91,0,1.39-.41,1.39-1.09s-.49-1.08-1.42-1.08h-1.31v2.17h1.34Z"/></g></g><polygon class="cls-4" points="0 182.15 273.55 182.15 234.56 58.99 0 58.99 0 182.15"/><line class="cls-3" x1="0" y1="182.15" x2="3200.04" y2="182.15"/><g><path class="cls-1" d="m1410.71,1727.2v1.37h-7.49v6.46h6.48v1.32h-6.48v7.78h-1.7v-16.92h9.19Z"/><path class="cls-1" d="m1422.73,1731.65c.98.54,1.76,1.31,2.32,2.33.56,1.02.84,2.21.84,3.59s-.28,2.57-.84,3.58c-.56,1.01-1.33,1.79-2.32,2.33-.98.54-2.1.82-3.35.82s-2.37-.27-3.36-.82c-.99-.54-1.77-1.32-2.34-2.34-.57-1.02-.85-2.2-.85-3.56s.28-2.57.85-3.59c.57-1.02,1.35-1.79,2.34-2.33.99-.54,2.11-.8,3.36-.8s2.36.27,3.35.8Zm-5.75,1.24c-.74.38-1.33.97-1.78,1.76-.45.79-.67,1.76-.67,2.92s.22,2.12.67,2.9c.45.78,1.04,1.37,1.78,1.75.74.38,1.54.58,2.4.58s1.64-.19,2.36-.58c.73-.38,1.32-.97,1.76-1.75.45-.78.67-1.75.67-2.9s-.22-2.12-.67-2.92c-.45-.79-1.04-1.38-1.76-1.76-.73-.38-1.52-.58-2.36-.58s-1.66.19-2.4.58Z"/><path class="cls-1" d="m1432.48,1731.54c.85-.51,1.88-.77,3.1-.77v1.82h-.55c-1.26,0-2.31.34-3.14,1.02-.83.68-1.25,1.79-1.25,3.32v7.18h-1.7v-13.1h1.7v2.71c.38-.94,1-1.67,1.85-2.18Z"/><path class="cls-1" d="m1447.06,1728.19c-.49.46-.73,1.22-.73,2.29v.53h3.29v1.49h-3.29v11.62h-1.68v-11.62h-1.94v-1.49h1.94v-.65c0-1.47.4-2.58,1.2-3.31.8-.74,2.06-1.07,3.77-1.01v1.49c-1.22-.02-2.07.2-2.56.66Z"/><path class="cls-1" d="m1452.13,1726.28c.23-.21.53-.31.9-.31s.66.1.89.31c.22.21.34.49.34.84s-.11.61-.34.82c-.22.21-.52.31-.89.31s-.67-.1-.9-.31c-.23-.21-.35-.48-.35-.82s.12-.63.35-.84Zm1.74,4.73v13.1h-1.7v-13.1h1.7Z"/><path class="cls-1" d="m1467.8,1732.22c.95.97,1.43,2.39,1.43,4.26v7.63h-1.66v-7.51c0-1.42-.36-2.52-1.08-3.28-.72-.76-1.7-1.14-2.95-1.14-1.31,0-2.36.42-3.13,1.26-.78.84-1.16,2.08-1.16,3.71v6.96h-1.7v-13.1h1.7v3.22c.34-1.12.94-1.98,1.82-2.57.88-.59,1.89-.89,3.02-.89,1.52,0,2.76.48,3.71,1.45Z"/><path class="cls-1" d="m1481.72,1731.88c.94.69,1.58,1.6,1.93,2.74v-3.6h1.66v13.1h-1.66v-3.6c-.35,1.14-1,2.05-1.93,2.74-.94.69-2.07,1.03-3.4,1.03-1.18,0-2.24-.27-3.18-.82-.94-.54-1.66-1.32-2.18-2.34-.52-1.02-.78-2.2-.78-3.56s.26-2.57.78-3.59c.52-1.02,1.24-1.79,2.17-2.33.93-.54,1.99-.8,3.19-.8,1.33,0,2.46.34,3.4,1.03Zm-6.5,1.86c-.89.94-1.33,2.21-1.33,3.83s.44,2.89,1.33,3.83c.89.94,2.07,1.4,3.54,1.4.93,0,1.76-.22,2.51-.65.74-.43,1.33-1.04,1.75-1.84.42-.79.64-1.71.64-2.75s-.21-1.96-.64-2.75c-.42-.79-1.01-1.4-1.75-1.84-.74-.43-1.58-.65-2.51-.65-1.47,0-2.65.47-3.54,1.4Z"/><path class="cls-1" d="m1499.24,1732.22c.95.97,1.43,2.39,1.43,4.26v7.63h-1.66v-7.51c0-1.42-.36-2.52-1.08-3.28s-1.7-1.14-2.95-1.14c-1.31,0-2.36.42-3.13,1.26-.78.84-1.16,2.08-1.16,3.71v6.96h-1.7v-13.1h1.7v3.22c.34-1.12.94-1.98,1.82-2.57.88-.59,1.89-.89,3.02-.89,1.52,0,2.76.48,3.71,1.45Z"/><path class="cls-1" d="m1514.17,1732.16c1.1.88,1.76,2.05,2,3.5h-1.75c-.18-1.04-.66-1.86-1.46-2.46-.8-.6-1.78-.9-2.95-.9-.85,0-1.63.19-2.34.58-.71.38-1.28.97-1.7,1.76-.42.79-.64,1.76-.64,2.92s.21,2.12.64,2.92c.42.79.99,1.38,1.7,1.76.71.38,1.49.58,2.34.58,1.17,0,2.15-.3,2.95-.9.8-.6,1.29-1.42,1.46-2.46h1.75c-.24,1.46-.91,2.62-2,3.5-1.1.88-2.48,1.32-4.14,1.32-1.25,0-2.36-.27-3.32-.8-.97-.54-1.72-1.31-2.27-2.33-.54-1.02-.82-2.21-.82-3.59s.27-2.57.82-3.59c.54-1.02,1.3-1.79,2.27-2.33.97-.54,2.08-.8,3.32-.8,1.66,0,3.04.44,4.14,1.32Z"/><path class="cls-1" d="m1519.18,1726.28c.23-.21.53-.31.9-.31s.66.1.89.31c.22.21.34.49.34.84s-.11.61-.34.82c-.22.21-.52.31-.89.31s-.67-.1-.9-.31-.35-.48-.35-.82.12-.63.35-.84Zm1.74,4.73v13.1h-1.7v-13.1h1.7Z"/><path class="cls-1" d="m1533.51,1731.88c.94.69,1.58,1.6,1.93,2.74v-3.6h1.66v13.1h-1.66v-3.6c-.35,1.14-1,2.05-1.93,2.74-.94.69-2.07,1.03-3.4,1.03-1.18,0-2.24-.27-3.18-.82-.94-.54-1.66-1.32-2.18-2.34-.52-1.02-.78-2.2-.78-3.56s.26-2.57.78-3.59c.52-1.02,1.24-1.79,2.17-2.33.93-.54,1.99-.8,3.19-.8,1.33,0,2.46.34,3.4,1.03Zm-6.5,1.86c-.89.94-1.33,2.21-1.33,3.83s.44,2.89,1.33,3.83c.89.94,2.07,1.4,3.54,1.4.93,0,1.76-.22,2.51-.65.74-.43,1.33-1.04,1.75-1.84.42-.79.64-1.71.64-2.75s-.21-1.96-.64-2.75c-.42-.79-1.01-1.4-1.75-1.84-.74-.43-1.58-.65-2.51-.65-1.47,0-2.65.47-3.54,1.4Z"/><path class="cls-1" d="m1542.47,1726.36v17.76h-1.7v-17.76h1.7Z"/><path class="cls-1" d="m1562.6,1731.65c.92.54,1.64,1.31,2.16,2.33.52,1.02.78,2.21.78,3.59s-.26,2.55-.78,3.56c-.52,1.02-1.24,1.8-2.17,2.34-.93.54-1.98.82-3.17.82-1.34,0-2.48-.34-3.41-1.03-.93-.69-1.57-1.6-1.92-2.74v9.79h-1.68v-19.3h1.68v3.6c.35-1.14.99-2.05,1.92-2.74.93-.69,2.06-1.03,3.41-1.03,1.2,0,2.26.27,3.18.8Zm-6.14,1.33c-.74.43-1.32,1.04-1.74,1.84-.42.79-.62,1.71-.62,2.75s.21,1.96.62,2.75c.42.79,1,1.4,1.74,1.84.74.43,1.58.65,2.51.65,1.49,0,2.67-.47,3.55-1.4.88-.94,1.32-2.21,1.32-3.83s-.44-2.89-1.32-3.83c-.88-.94-2.06-1.4-3.55-1.4-.93,0-1.76.22-2.51.65Z"/><path class="cls-1" d="m1572.14,1731.54c.85-.51,1.88-.77,3.1-.77v1.82h-.55c-1.26,0-2.31.34-3.14,1.02-.83.68-1.25,1.79-1.25,3.32v7.18h-1.7v-13.1h1.7v2.71c.38-.94,1-1.67,1.85-2.18Z"/><path class="cls-1" d="m1586.76,1731.65c.98.54,1.76,1.31,2.32,2.33.56,1.02.84,2.21.84,3.59s-.28,2.57-.84,3.58c-.56,1.01-1.33,1.79-2.32,2.33-.98.54-2.1.82-3.35.82s-2.37-.27-3.36-.82c-.99-.54-1.77-1.32-2.34-2.34-.57-1.02-.85-2.2-.85-3.56s.28-2.57.85-3.59c.57-1.02,1.35-1.79,2.34-2.33.99-.54,2.11-.8,3.36-.8s2.36.27,3.35.8Zm-5.75,1.24c-.74.38-1.33.97-1.78,1.76-.45.79-.67,1.76-.67,2.92s.22,2.12.67,2.9c.45.78,1.04,1.37,1.78,1.75.74.38,1.54.58,2.4.58s1.64-.19,2.36-.58c.73-.38,1.32-.97,1.76-1.75.45-.78.67-1.75.67-2.9s-.22-2.12-.67-2.92c-.45-.79-1.04-1.38-1.76-1.76-.73-.38-1.52-.58-2.36-.58s-1.66.19-2.4.58Z"/><path class="cls-1" d="m1595.93,1728.19c-.49.46-.73,1.22-.73,2.29v.53h3.29v1.49h-3.29v11.62h-1.68v-11.62h-1.94v-1.49h1.94v-.65c0-1.47.4-2.58,1.2-3.31.8-.74,2.06-1.07,3.77-1.01v1.49c-1.22-.02-2.07.2-2.56.66Z"/><path class="cls-1" d="m1609.72,1742c.8-.59,1.28-1.39,1.44-2.4h1.78c-.24,1.39-.9,2.52-1.99,3.38-1.09.86-2.46,1.3-4.13,1.3-1.25,0-2.36-.27-3.32-.8-.97-.54-1.72-1.31-2.27-2.33-.54-1.02-.82-2.21-.82-3.59s.27-2.57.82-3.59c.54-1.02,1.3-1.79,2.27-2.33.97-.54,2.08-.8,3.32-.8s2.39.27,3.32.8c.94.54,1.65,1.25,2.14,2.15.49.9.73,1.87.73,2.93,0,.45-.03.86-.1,1.22h-10.85c.02,1.1.24,2.03.68,2.77.44.74,1.01,1.29,1.72,1.64.7.35,1.46.53,2.28.53,1.18,0,2.18-.29,2.98-.89Zm-5.23-9.26c-.7.35-1.28.89-1.72,1.62-.44.73-.68,1.64-.71,2.72h9.26c.06-1.07-.11-1.98-.53-2.71-.42-.74-.98-1.28-1.68-1.63-.7-.35-1.47-.53-2.3-.53s-1.62.18-2.33.53Z"/><path class="cls-1" d="m1623.45,1731.97c.86.75,1.39,1.77,1.58,3.05h-1.61c-.1-.85-.44-1.55-1.04-2.1-.6-.55-1.4-.83-2.41-.83-.86,0-1.54.21-2.03.64-.49.42-.73.99-.73,1.69,0,.53.16.95.47,1.27s.7.56,1.16.73c.46.17,1.09.34,1.87.52.96.22,1.73.45,2.32.68.58.23,1.08.6,1.5,1.09.42.5.62,1.17.62,2.02,0,1.04-.39,1.89-1.16,2.56-.78.66-1.8,1-3.08,1-1.5,0-2.74-.37-3.7-1.12s-1.53-1.76-1.7-3.06h1.63c.1.86.47,1.57,1.13,2.11.66.54,1.54.82,2.66.82.83,0,1.48-.22,1.94-.65.46-.43.7-.99.7-1.68,0-.56-.16-1.01-.48-1.34-.32-.34-.72-.59-1.19-.76-.47-.17-1.12-.35-1.93-.54-.94-.22-1.7-.45-2.27-.67-.57-.22-1.05-.57-1.45-1.04-.4-.47-.6-1.12-.6-1.93,0-1.07.39-1.94,1.18-2.59.78-.66,1.85-.98,3.19-.98,1.42,0,2.57.38,3.43,1.13Z"/><path class="cls-1" d="m1635.64,1731.97c.86.75,1.39,1.77,1.58,3.05h-1.61c-.1-.85-.44-1.55-1.04-2.1-.6-.55-1.4-.83-2.41-.83-.86,0-1.54.21-2.03.64-.49.42-.73.99-.73,1.69,0,.53.16.95.47,1.27s.7.56,1.16.73,1.09.34,1.87.52c.96.22,1.73.45,2.32.68.58.23,1.08.6,1.5,1.09.42.5.62,1.17.62,2.02,0,1.04-.39,1.89-1.16,2.56-.78.66-1.8,1-3.08,1-1.5,0-2.74-.37-3.7-1.12-.96-.74-1.53-1.76-1.7-3.06h1.63c.1.86.47,1.57,1.13,2.11.66.54,1.54.82,2.66.82.83,0,1.48-.22,1.94-.65.46-.43.7-.99.7-1.68,0-.56-.16-1.01-.48-1.34s-.72-.59-1.19-.76c-.47-.17-1.12-.35-1.93-.54-.94-.22-1.7-.45-2.27-.67-.57-.22-1.05-.57-1.45-1.04-.4-.47-.6-1.12-.6-1.93,0-1.07.39-1.94,1.18-2.59.78-.66,1.85-.98,3.19-.98,1.42,0,2.57.38,3.43,1.13Z"/><path class="cls-1" d="m1640.4,1726.28c.23-.21.53-.31.9-.31s.66.1.89.31c.22.21.34.49.34.84s-.11.61-.34.82c-.22.21-.52.31-.89.31s-.67-.1-.9-.31c-.23-.21-.35-.48-.35-.82s.12-.63.35-.84Zm1.74,4.73v13.1h-1.7v-13.1h1.7Z"/><path class="cls-1" d="m1655.09,1731.65c.98.54,1.76,1.31,2.32,2.33.56,1.02.84,2.21.84,3.59s-.28,2.57-.84,3.58c-.56,1.01-1.33,1.79-2.32,2.33-.98.54-2.1.82-3.35.82s-2.37-.27-3.36-.82c-.99-.54-1.77-1.32-2.34-2.34-.57-1.02-.85-2.2-.85-3.56s.28-2.57.85-3.59c.57-1.02,1.35-1.79,2.34-2.33.99-.54,2.11-.8,3.36-.8s2.36.27,3.35.8Zm-5.75,1.24c-.74.38-1.33.97-1.78,1.76-.45.79-.67,1.76-.67,2.92s.22,2.12.67,2.9c.45.78,1.04,1.37,1.78,1.75.74.38,1.54.58,2.4.58s1.64-.19,2.36-.58c.73-.38,1.32-.97,1.76-1.75.45-.78.67-1.75.67-2.9s-.22-2.12-.67-2.92c-.45-.79-1.04-1.38-1.76-1.76-.73-.38-1.52-.58-2.36-.58s-1.66.19-2.4.58Z"/><path class="cls-1" d="m1671.55,1732.22c.95.97,1.43,2.39,1.43,4.26v7.63h-1.66v-7.51c0-1.42-.36-2.52-1.08-3.28s-1.7-1.14-2.95-1.14c-1.31,0-2.36.42-3.13,1.26-.78.84-1.16,2.08-1.16,3.71v6.96h-1.7v-13.1h1.7v3.22c.34-1.12.94-1.98,1.82-2.57.88-.59,1.89-.89,3.02-.89,1.52,0,2.76.48,3.71,1.45Z"/><path class="cls-1" d="m1685.47,1731.88c.94.69,1.58,1.6,1.93,2.74v-3.6h1.66v13.1h-1.66v-3.6c-.35,1.14-1,2.05-1.93,2.74-.94.69-2.07,1.03-3.4,1.03-1.18,0-2.24-.27-3.18-.82-.94-.54-1.66-1.32-2.18-2.34-.52-1.02-.78-2.2-.78-3.56s.26-2.57.78-3.59c.52-1.02,1.24-1.79,2.17-2.33.93-.54,1.99-.8,3.19-.8,1.33,0,2.46.34,3.4,1.03Zm-6.5,1.86c-.89.94-1.33,2.21-1.33,3.83s.44,2.89,1.33,3.83c.89.94,2.07,1.4,3.54,1.4.93,0,1.76-.22,2.51-.65.74-.43,1.33-1.04,1.75-1.84.42-.79.64-1.71.64-2.75s-.21-1.96-.64-2.75c-.42-.79-1.01-1.4-1.75-1.84-.74-.43-1.58-.65-2.51-.65-1.47,0-2.65.47-3.54,1.4Z"/><path class="cls-1" d="m1694.44,1726.36v17.76h-1.7v-17.76h1.7Z"/><path class="cls-1" d="m1715.68,1731.01v13.1h-1.68v-3.24c-.34,1.14-.94,2-1.82,2.59-.88.59-1.89.89-3.02.89-1.54,0-2.78-.48-3.73-1.45-.95-.97-1.43-2.39-1.43-4.26v-7.63h1.68v7.49c0,1.44.36,2.54,1.08,3.3s1.7,1.14,2.95,1.14c1.31,0,2.36-.42,3.13-1.26.78-.84,1.16-2.08,1.16-3.71v-6.96h1.68Z"/><path class="cls-1" d="m1726.77,1731.97c.86.75,1.39,1.77,1.58,3.05h-1.61c-.1-.85-.44-1.55-1.04-2.1s-1.4-.83-2.41-.83c-.86,0-1.54.21-2.03.64-.49.42-.73.99-.73,1.69,0,.53.16.95.47,1.27s.7.56,1.16.73c.46.17,1.09.34,1.87.52.96.22,1.73.45,2.32.68.58.23,1.08.6,1.5,1.09.42.5.62,1.17.62,2.02,0,1.04-.39,1.89-1.16,2.56-.78.66-1.8,1-3.08,1-1.5,0-2.74-.37-3.7-1.12-.96-.74-1.53-1.76-1.7-3.06h1.63c.1.86.47,1.57,1.13,2.11.66.54,1.54.82,2.66.82.83,0,1.48-.22,1.94-.65.46-.43.7-.99.7-1.68,0-.56-.16-1.01-.48-1.34-.32-.34-.72-.59-1.19-.76-.47-.17-1.12-.35-1.93-.54-.94-.22-1.7-.45-2.27-.67-.57-.22-1.05-.57-1.45-1.04-.4-.47-.6-1.12-.6-1.93,0-1.07.39-1.94,1.18-2.59.78-.66,1.85-.98,3.19-.98,1.42,0,2.57.38,3.43,1.13Z"/><path class="cls-1" d="m1740.25,1742c.8-.59,1.28-1.39,1.44-2.4h1.78c-.24,1.39-.9,2.52-1.99,3.38-1.09.86-2.46,1.3-4.13,1.3-1.25,0-2.36-.27-3.32-.8-.97-.54-1.72-1.31-2.27-2.33-.54-1.02-.82-2.21-.82-3.59s.27-2.57.82-3.59c.54-1.02,1.3-1.79,2.27-2.33.97-.54,2.08-.8,3.32-.8s2.39.27,3.32.8c.94.54,1.65,1.25,2.14,2.15.49.9.73,1.87.73,2.93,0,.45-.03.86-.1,1.22h-10.85c.02,1.1.24,2.03.68,2.77.44.74,1.01,1.29,1.72,1.64.7.35,1.46.53,2.28.53,1.18,0,2.18-.29,2.98-.89Zm-5.23-9.26c-.7.35-1.28.89-1.72,1.62-.44.73-.68,1.64-.71,2.72h9.26c.06-1.07-.11-1.98-.53-2.71-.42-.74-.98-1.28-1.68-1.63-.7-.35-1.47-.53-2.3-.53s-1.62.18-2.33.53Z"/><path class="cls-1" d="m1762.13,1731.65c.98.54,1.76,1.31,2.32,2.33.56,1.02.84,2.21.84,3.59s-.28,2.57-.84,3.58c-.56,1.01-1.33,1.79-2.32,2.33-.98.54-2.1.82-3.35.82s-2.37-.27-3.36-.82c-.99-.54-1.77-1.32-2.34-2.34-.57-1.02-.85-2.2-.85-3.56s.28-2.57.85-3.59c.57-1.02,1.35-1.79,2.34-2.33.99-.54,2.11-.8,3.36-.8s2.36.27,3.35.8Zm-5.75,1.24c-.74.38-1.33.97-1.78,1.76-.45.79-.67,1.76-.67,2.92s.22,2.12.67,2.9c.45.78,1.04,1.37,1.78,1.75.74.38,1.54.58,2.4.58s1.64-.19,2.36-.58c.73-.38,1.32-.97,1.76-1.75.45-.78.67-1.75.67-2.9s-.22-2.12-.67-2.92c-.45-.79-1.04-1.38-1.76-1.76-.73-.38-1.52-.58-2.36-.58s-1.66.19-2.4.58Z"/><path class="cls-1" d="m1778.59,1732.22c.95.97,1.43,2.39,1.43,4.26v7.63h-1.66v-7.51c0-1.42-.36-2.52-1.08-3.28s-1.7-1.14-2.95-1.14c-1.31,0-2.36.42-3.13,1.26-.78.84-1.16,2.08-1.16,3.71v6.96h-1.7v-13.1h1.7v3.22c.34-1.12.94-1.98,1.82-2.57.88-.59,1.89-.89,3.02-.89,1.52,0,2.76.48,3.71,1.45Z"/><path class="cls-1" d="m1785.3,1726.36v17.76h-1.7v-17.76h1.7Z"/><path class="cls-1" d="m1789.33,1731.01l4.56,10.92,4.2-10.92h1.87l-7.7,19.3h-1.92l2.64-6.34-5.52-12.96h1.87Z"/></g><g><path class="cls-1" d="m374.21,405.08c1.34-1.34,2.97-2.02,4.87-2.02s3.57.67,4.9,2.02c1.32,1.34,1.99,2.99,1.99,4.93s-.66,3.52-1.99,4.84c-1.33,1.33-2.96,1.99-4.9,1.99s-3.53-.66-4.87-1.99c-1.34-1.32-2.02-2.94-2.02-4.84s.67-3.58,2.02-4.93Z"/><path class="cls-1" d="m412.12,424.68h14v3.98h-19.1v-39.48h5.1v35.5Z"/><path class="cls-1" d="m459.44,414.37h-24.58c.11,3.51,1.11,6.14,3,7.9,1.88,1.76,4.19,2.63,6.92,2.63,2.46,0,4.53-.62,6.19-1.88,1.66-1.25,2.68-2.92,3.05-5.01h5.43c-.37,2.13-1.2,4.03-2.49,5.71-1.29,1.68-2.96,2.99-5.01,3.92-2.05.93-4.37,1.4-6.94,1.4-2.95,0-5.56-.63-7.84-1.9-2.28-1.27-4.06-3.09-5.35-5.46-1.29-2.37-1.93-5.16-1.93-8.37s.64-6.01,1.93-8.4c1.29-2.39,3.07-4.22,5.35-5.49,2.28-1.27,4.89-1.9,7.84-1.9s5.59.64,7.81,1.9c2.22,1.27,3.92,2.97,5.1,5.1s1.76,4.48,1.76,7.06c0,1.08-.08,2.02-.22,2.8Zm-6.05-8.18c-.86-1.53-2.04-2.67-3.53-3.42-1.49-.75-3.12-1.12-4.87-1.12-2.8,0-5.15.87-7.06,2.6-1.9,1.74-2.93,4.28-3.08,7.64h19.66c.11-2.28-.26-4.18-1.12-5.71Z"/><path class="cls-1" d="m478.31,423.22l9.52-25.31h5.49l-12.04,30.74h-6.05l-12.04-30.74h5.49l9.63,25.31Z"/><path class="cls-1" d="m526.42,414.37h-24.58c.11,3.51,1.11,6.14,3,7.9,1.88,1.76,4.19,2.63,6.92,2.63,2.46,0,4.53-.62,6.19-1.88,1.66-1.25,2.68-2.92,3.05-5.01h5.43c-.37,2.13-1.2,4.03-2.49,5.71-1.29,1.68-2.96,2.99-5.01,3.92-2.05.93-4.37,1.4-6.94,1.4-2.95,0-5.56-.63-7.84-1.9-2.28-1.27-4.06-3.09-5.35-5.46-1.29-2.37-1.93-5.16-1.93-8.37s.64-6.01,1.93-8.4c1.29-2.39,3.07-4.22,5.35-5.49,2.28-1.27,4.89-1.9,7.84-1.9s5.59.64,7.81,1.9c2.22,1.27,3.92,2.97,5.1,5.1s1.76,4.48,1.76,7.06c0,1.08-.08,2.02-.22,2.8Zm-6.05-8.18c-.86-1.53-2.04-2.67-3.53-3.42-1.49-.75-3.12-1.12-4.87-1.12-2.8,0-5.15.87-7.06,2.6-1.9,1.74-2.93,4.28-3.08,7.64h19.66c.11-2.28-.26-4.18-1.12-5.71Z"/><path class="cls-1" d="m542.88,399.17c1.94-1.18,4.26-1.76,6.94-1.76v5.54h-1.57c-2.88,0-5.23.74-7.06,2.21-1.83,1.47-2.74,3.91-2.74,7.31v16.18h-5.1v-30.74h5.1v6.22c1.01-2.13,2.48-3.78,4.42-4.96Z"/><path class="cls-1" d="m575.11,399.76c2.07,1.49,3.52,3.49,4.34,5.99v-7.84h5.1v30.74h-5.1v-7.84c-.82,2.5-2.27,4.5-4.34,5.99-2.07,1.49-4.6,2.24-7.59,2.24-2.73,0-5.15-.63-7.28-1.9-2.13-1.27-3.8-3.09-5.01-5.46-1.21-2.37-1.82-5.16-1.82-8.37s.61-6.01,1.82-8.4c1.21-2.39,2.88-4.22,5.01-5.49,2.13-1.27,4.55-1.9,7.28-1.9,2.99,0,5.52.75,7.59,2.24Zm-13.66,5.29c-1.89,2-2.83,4.75-2.83,8.26s.94,6.26,2.83,8.26c1.88,2,4.4,3,7.53,3,2.02,0,3.82-.47,5.4-1.4,1.59-.93,2.83-2.25,3.72-3.95.9-1.7,1.34-3.67,1.34-5.91s-.45-4.22-1.34-5.94c-.9-1.72-2.14-3.03-3.72-3.95-1.59-.91-3.39-1.37-5.4-1.37-3.14,0-5.65,1-7.53,3Z"/><path class="cls-1" d="m612.91,399.76c2.07,1.49,3.52,3.49,4.34,5.99v-7.84h5.1v31.25c0,2.84-.6,5.36-1.79,7.56-1.2,2.2-2.88,3.92-5.04,5.15-2.17,1.23-4.69,1.85-7.56,1.85-4.14,0-7.52-1-10.14-3-2.61-2-4.28-4.7-4.98-8.09h5.04c.6,2.05,1.73,3.67,3.39,4.84,1.66,1.18,3.8,1.76,6.41,1.76,2.76,0,5.05-.89,6.86-2.66,1.81-1.77,2.72-4.25,2.72-7.42v-8.34c-.82,2.5-2.27,4.5-4.34,5.99-2.07,1.49-4.6,2.24-7.59,2.24-2.73,0-5.15-.63-7.28-1.9-2.13-1.27-3.8-3.09-5.01-5.46-1.21-2.37-1.82-5.16-1.82-8.37s.61-6.01,1.82-8.4c1.21-2.39,2.88-4.22,5.01-5.49,2.13-1.27,4.55-1.9,7.28-1.9,2.99,0,5.52.75,7.59,2.24Zm-13.66,5.29c-1.89,2-2.83,4.75-2.83,8.26s.94,6.26,2.83,8.26c1.88,2,4.4,3,7.53,3,2.02,0,3.82-.47,5.4-1.4,1.59-.93,2.83-2.25,3.72-3.95.9-1.7,1.34-3.67,1.34-5.91s-.45-4.22-1.34-5.94c-.9-1.72-2.14-3.03-3.72-3.95-1.59-.91-3.39-1.37-5.4-1.37-3.14,0-5.65,1-7.53,3Z"/><path class="cls-1" d="m658.58,414.37h-24.58c.11,3.51,1.11,6.14,3,7.9,1.88,1.76,4.19,2.63,6.92,2.63,2.46,0,4.53-.62,6.19-1.88,1.66-1.25,2.68-2.92,3.05-5.01h5.43c-.37,2.13-1.2,4.03-2.49,5.71-1.29,1.68-2.96,2.99-5.01,3.92-2.05.93-4.37,1.4-6.94,1.4-2.95,0-5.56-.63-7.84-1.9-2.28-1.27-4.06-3.09-5.35-5.46-1.29-2.37-1.93-5.16-1.93-8.37s.64-6.01,1.93-8.4c1.29-2.39,3.07-4.22,5.35-5.49,2.28-1.27,4.89-1.9,7.84-1.9s5.59.64,7.81,1.9c2.22,1.27,3.92,2.97,5.1,5.1s1.76,4.48,1.76,7.06c0,1.08-.08,2.02-.22,2.8Zm-6.05-8.18c-.86-1.53-2.04-2.67-3.53-3.42-1.49-.75-3.12-1.12-4.87-1.12-2.8,0-5.15.87-7.06,2.6-1.9,1.74-2.93,4.28-3.08,7.64h19.66c.11-2.28-.26-4.18-1.12-5.71Z"/><path class="cls-1" d="m703.66,399.42c2.13,1.27,3.8,3.1,5.01,5.49,1.21,2.39,1.82,5.19,1.82,8.4s-.61,6-1.82,8.37c-1.21,2.37-2.88,4.19-5.01,5.46-2.13,1.27-4.56,1.9-7.28,1.9-2.99,0-5.52-.76-7.59-2.27-2.07-1.51-3.5-3.5-4.28-5.96v7.84h-5.1v-41.44h5.1v18.54c.78-2.46,2.21-4.45,4.28-5.96,2.07-1.51,4.6-2.27,7.59-2.27,2.72,0,5.15.64,7.28,1.9Zm-14.11,4c-1.61.92-2.86,2.23-3.75,3.95-.9,1.72-1.34,3.7-1.34,5.94s.45,4.21,1.34,5.91c.9,1.7,2.15,3.02,3.75,3.95,1.6.93,3.4,1.4,5.38,1.4,3.17,0,5.7-1,7.59-3,1.88-2,2.83-4.75,2.83-8.26s-.94-6.26-2.83-8.26c-1.89-2-4.42-3-7.59-3-1.98,0-3.77.46-5.38,1.37Z"/><path class="cls-1" d="m739.07,399.42c2.33,1.27,4.16,3.1,5.49,5.49,1.32,2.39,1.99,5.19,1.99,8.4s-.66,6-1.99,8.37c-1.33,2.37-3.16,4.19-5.49,5.46-2.33,1.27-4.98,1.9-7.92,1.9s-5.59-.63-7.92-1.9c-2.33-1.27-4.17-3.09-5.52-5.46-1.34-2.37-2.02-5.16-2.02-8.37s.67-6.01,2.02-8.4c1.34-2.39,3.18-4.22,5.52-5.49,2.33-1.27,4.97-1.9,7.92-1.9s5.59.64,7.92,1.9Zm-12.99,3.81c-1.55.82-2.8,2.08-3.75,3.78-.95,1.7-1.43,3.8-1.43,6.3s.48,4.55,1.43,6.24c.95,1.7,2.2,2.96,3.75,3.78,1.55.82,3.24,1.23,5.07,1.23s3.52-.41,5.07-1.23c1.55-.82,2.8-2.08,3.75-3.78.95-1.7,1.43-3.78,1.43-6.24s-.48-4.6-1.43-6.3c-.95-1.7-2.2-2.96-3.75-3.78-1.55-.82-3.24-1.23-5.07-1.23s-3.52.41-5.07,1.23Z"/><path class="cls-1" d="m767.94,424.17v4.48h-3.81c-3.14,0-5.48-.75-7.03-2.24-1.55-1.49-2.32-3.99-2.32-7.5v-16.58h-4.59v-4.42h4.59v-7.67h5.15v7.67h7.95v4.42h-7.95v16.69c0,1.98.36,3.33,1.09,4.06.73.73,1.99,1.09,3.78,1.09h3.14Z"/><path class="cls-1" d="m799.08,400.85c2.2,2.3,3.3,5.61,3.3,9.94v17.86h-5.1v-17.42c0-3.06-.78-5.41-2.35-7.06-1.57-1.64-3.7-2.46-6.38-2.46s-5.04.91-6.72,2.72c-1.68,1.81-2.52,4.45-2.52,7.92v16.3h-5.1v-41.44h5.1v17.98c.78-2.5,2.17-4.42,4.17-5.77,2-1.34,4.3-2.02,6.92-2.02,3.58,0,6.48,1.15,8.68,3.44Z"/><path class="cls-1" d="m847.74,420.7h-15.85l-2.8,7.95h-8.34l14.56-39.09h9.02l14.5,39.09h-8.34l-2.74-7.95Zm-2.13-5.99l-5.82-16.69-5.82,16.69h11.65Z"/><path class="cls-1" d="m887.08,400.49c2.67,2.17,4.34,5.12,5.01,8.85h-8.34c-.34-1.64-1.1-2.94-2.3-3.89-1.2-.95-2.71-1.43-4.54-1.43-2.09,0-3.84.78-5.24,2.32-1.4,1.55-2.1,3.82-2.1,6.8s.7,5.26,2.1,6.8c1.4,1.55,3.14,2.32,5.24,2.32,1.83,0,3.34-.48,4.54-1.43,1.19-.95,1.96-2.25,2.3-3.89h8.34c-.67,3.73-2.34,6.68-5.01,8.85-2.67,2.17-6,3.25-10,3.25-3.02,0-5.71-.64-8.06-1.93-2.35-1.29-4.18-3.13-5.49-5.52-1.31-2.39-1.96-5.21-1.96-8.46s.65-6.08,1.96-8.48c1.31-2.41,3.14-4.25,5.49-5.52,2.35-1.27,5.04-1.9,8.06-1.9,3.99,0,7.33,1.08,10,3.25Z"/><path class="cls-1" d="m914.32,421.88v6.78h-4.14c-3.47,0-6.13-.84-7.98-2.52-1.85-1.68-2.77-4.48-2.77-8.4v-13.44h-4.31v-6.66h4.31v-7.67h7.9v7.67h6.94v6.66h-6.94v13.55c0,1.49.3,2.54.9,3.14.6.6,1.6.9,3.02.9h3.08Z"/><path class="cls-1" d="m920.48,385.62c.9-.8,2.07-1.2,3.53-1.2s2.63.4,3.53,1.2,1.34,1.84,1.34,3.11-.45,2.25-1.34,3.05c-.9.8-2.07,1.2-3.53,1.2s-2.63-.4-3.53-1.2c-.9-.8-1.34-1.82-1.34-3.05s.45-2.3,1.34-3.11Zm7.45,12.01v31.02h-7.9v-31.02h7.9Z"/><path class="cls-1" d="m948.65,420.76l7.84-23.13h8.4l-11.48,31.02h-9.63l-11.48-31.02h8.46l7.9,23.13Z"/><path class="cls-1" d="m998.21,414.65h-22.74c.11,2.76.86,4.8,2.24,6.1,1.38,1.31,3.1,1.96,5.15,1.96,1.83,0,3.35-.45,4.56-1.34,1.21-.9,1.99-2.11,2.32-3.64h8.34c-.41,2.17-1.29,4.11-2.63,5.82-1.34,1.72-3.07,3.06-5.18,4.03-2.11.97-4.45,1.46-7.03,1.46-3.02,0-5.71-.64-8.06-1.93-2.35-1.29-4.18-3.13-5.49-5.52-1.31-2.39-1.96-5.21-1.96-8.46s.65-6.08,1.96-8.48c1.31-2.41,3.14-4.25,5.49-5.52,2.35-1.27,5.04-1.9,8.06-1.9s5.74.63,8.04,1.9c2.3,1.27,4.07,3.02,5.32,5.24,1.25,2.22,1.88,4.75,1.88,7.59,0,.78-.09,1.68-.28,2.69Zm-9.66-9.24c-1.44-1.31-3.2-1.96-5.29-1.96s-3.92.65-5.38,1.96-2.26,3.23-2.41,5.77h15.06c.11-2.54-.55-4.46-1.99-5.77Z"/><path class="cls-1" d="m1038.73,399.76c2.07,1.49,3.52,3.49,4.34,5.99v-7.84h5.1v30.74h-5.1v-7.84c-.82,2.5-2.27,4.5-4.34,5.99-2.07,1.49-4.6,2.24-7.59,2.24-2.73,0-5.15-.63-7.28-1.9-2.13-1.27-3.8-3.09-5.01-5.46-1.21-2.37-1.82-5.16-1.82-8.37s.61-6.01,1.82-8.4c1.21-2.39,2.88-4.22,5.01-5.49,2.13-1.27,4.55-1.9,7.28-1.9,2.99,0,5.52.75,7.59,2.24Zm-13.66,5.29c-1.89,2-2.83,4.75-2.83,8.26s.94,6.26,2.83,8.26c1.88,2,4.4,3,7.53,3,2.02,0,3.82-.47,5.4-1.4,1.59-.93,2.83-2.25,3.72-3.95.9-1.7,1.34-3.67,1.34-5.91s-.45-4.22-1.34-5.94c-.9-1.72-2.14-3.03-3.72-3.95-1.59-.91-3.39-1.37-5.4-1.37-3.14,0-5.65,1-7.53,3Z"/><path class="cls-1" d="m1081.2,400.85c2.2,2.3,3.3,5.61,3.3,9.94v17.86h-5.1v-17.42c0-3.06-.78-5.41-2.35-7.06-1.57-1.64-3.7-2.46-6.38-2.46s-5.04.91-6.72,2.72c-1.68,1.81-2.52,4.45-2.52,7.92v16.3h-5.1v-30.74h5.1v7.28c.78-2.5,2.17-4.42,4.17-5.77,2-1.34,4.3-2.02,6.92-2.02,3.58,0,6.48,1.15,8.68,3.44Z"/><path class="cls-1" d="m1112.59,399.76c2.07,1.49,3.52,3.49,4.34,5.99v-18.54h5.1v41.44h-5.1v-7.84c-.82,2.5-2.27,4.5-4.34,5.99-2.07,1.49-4.6,2.24-7.59,2.24-2.73,0-5.15-.63-7.28-1.9-2.13-1.27-3.8-3.09-5.01-5.46-1.21-2.37-1.82-5.16-1.82-8.37s.61-6.01,1.82-8.4c1.21-2.39,2.88-4.22,5.01-5.49,2.13-1.27,4.55-1.9,7.28-1.9,2.99,0,5.52.75,7.59,2.24Zm-13.66,5.29c-1.89,2-2.83,4.75-2.83,8.26s.94,6.26,2.83,8.26c1.88,2,4.4,3,7.53,3,2.02,0,3.82-.47,5.4-1.4,1.59-.93,2.83-2.25,3.72-3.95.9-1.7,1.34-3.67,1.34-5.91s-.45-4.22-1.34-5.94c-.9-1.72-2.14-3.03-3.72-3.95-1.59-.91-3.39-1.37-5.4-1.37-3.14,0-5.65,1-7.53,3Z"/><path class="cls-1" d="m1151.48,413.98v14.67h-7.9v-39.54h14.39c4.67,0,8.18,1.12,10.56,3.36,2.37,2.24,3.56,5.28,3.56,9.13s-1.22,6.78-3.67,9.02c-2.45,2.24-5.93,3.36-10.44,3.36h-6.5Zm12.6-12.38c0-1.98-.54-3.49-1.62-4.54-1.08-1.04-2.86-1.57-5.32-1.57h-5.66v12.15h5.66c4.63,0,6.94-2.02,6.94-6.05Z"/><path class="cls-1" d="m1196.17,399.09c1.87,1.23,3.19,2.89,3.98,4.98v-6.44h7.84v31.02h-7.84v-6.5c-.78,2.09-2.11,3.76-3.98,5.01-1.87,1.25-4.11,1.88-6.72,1.88s-4.97-.63-7.06-1.9c-2.09-1.27-3.72-3.11-4.9-5.52-1.18-2.41-1.76-5.24-1.76-8.48s.59-6.08,1.76-8.48c1.18-2.41,2.81-4.25,4.9-5.52,2.09-1.27,4.44-1.9,7.06-1.9s4.85.62,6.72,1.85Zm-10.19,7.45c-1.49,1.61-2.24,3.81-2.24,6.61s.75,4.99,2.24,6.58c1.49,1.59,3.47,2.38,5.94,2.38s4.36-.81,5.91-2.44c1.55-1.62,2.32-3.8,2.32-6.52s-.78-4.96-2.32-6.58c-1.55-1.62-3.52-2.44-5.91-2.44s-4.44.8-5.94,2.41Z"/><path class="cls-1" d="m1234.97,400.09c2.28,1.9,3.7,4.44,4.26,7.62h-7.39c-.3-1.49-.97-2.69-2.02-3.58-1.05-.9-2.41-1.34-4.09-1.34-1.34,0-2.39.32-3.14.95-.75.64-1.12,1.49-1.12,2.58,0,.86.3,1.55.9,2.07.6.52,1.34.93,2.24,1.23.9.3,2.18.65,3.86,1.06,2.35.52,4.26,1.07,5.74,1.65,1.47.58,2.74,1.49,3.81,2.74s1.6,2.94,1.6,5.07c0,2.65-1.04,4.8-3.11,6.44-2.07,1.64-4.86,2.46-8.37,2.46-4.03,0-7.26-.91-9.69-2.72-2.43-1.81-3.9-4.4-4.42-7.76h7.56c.19,1.53.86,2.73,2.02,3.61,1.16.88,2.67,1.32,4.54,1.32,1.34,0,2.37-.33,3.08-.98.71-.65,1.06-1.5,1.06-2.55,0-.9-.31-1.62-.92-2.18-.62-.56-1.38-.99-2.3-1.29-.92-.3-2.21-.65-3.89-1.06-2.31-.52-4.19-1.05-5.63-1.6-1.44-.54-2.67-1.41-3.7-2.6-1.03-1.2-1.54-2.84-1.54-4.93,0-2.69,1.03-4.87,3.08-6.55,2.05-1.68,4.89-2.52,8.51-2.52s6.79.95,9.07,2.86Z"/><path class="cls-1" d="m1265.33,400.09c2.28,1.9,3.7,4.44,4.26,7.62h-7.39c-.3-1.49-.97-2.69-2.02-3.58-1.05-.9-2.41-1.34-4.09-1.34-1.34,0-2.39.32-3.14.95-.75.64-1.12,1.49-1.12,2.58,0,.86.3,1.55.9,2.07.6.52,1.34.93,2.24,1.23.9.3,2.18.65,3.86,1.06,2.35.52,4.26,1.07,5.74,1.65,1.47.58,2.74,1.49,3.81,2.74s1.6,2.94,1.6,5.07c0,2.65-1.04,4.8-3.11,6.44-2.07,1.64-4.86,2.46-8.37,2.46-4.03,0-7.26-.91-9.69-2.72-2.43-1.81-3.9-4.4-4.42-7.76h7.56c.19,1.53.86,2.73,2.02,3.61,1.16.88,2.67,1.32,4.54,1.32,1.34,0,2.37-.33,3.08-.98.71-.65,1.06-1.5,1.06-2.55,0-.9-.31-1.62-.92-2.18-.62-.56-1.38-.99-2.3-1.29-.92-.3-2.21-.65-3.89-1.06-2.31-.52-4.19-1.05-5.63-1.6-1.44-.54-2.67-1.41-3.7-2.6-1.03-1.2-1.54-2.84-1.54-4.93,0-2.69,1.03-4.87,3.08-6.55,2.05-1.68,4.89-2.52,8.51-2.52s6.79.95,9.07,2.86Z"/><path class="cls-1" d="m1276.36,385.62c.9-.8,2.07-1.2,3.53-1.2s2.63.4,3.53,1.2,1.34,1.84,1.34,3.11-.45,2.25-1.34,3.05c-.9.8-2.07,1.2-3.53,1.2s-2.63-.4-3.53-1.2c-.9-.8-1.34-1.82-1.34-3.05s.45-2.3,1.34-3.11Zm7.45,12.01v31.02h-7.9v-31.02h7.9Z"/><path class="cls-1" d="m1304.52,420.76l7.84-23.13h8.4l-11.48,31.02h-9.63l-11.48-31.02h8.46l7.9,23.13Z"/><path class="cls-1" d="m1354.08,414.65h-22.74c.11,2.76.86,4.8,2.24,6.1,1.38,1.31,3.1,1.96,5.15,1.96,1.83,0,3.35-.45,4.56-1.34,1.21-.9,1.99-2.11,2.32-3.64h8.34c-.41,2.17-1.29,4.11-2.63,5.82-1.34,1.72-3.07,3.06-5.18,4.03-2.11.97-4.45,1.46-7.03,1.46-3.02,0-5.71-.64-8.06-1.93-2.35-1.29-4.18-3.13-5.49-5.52-1.31-2.39-1.96-5.21-1.96-8.46s.65-6.08,1.96-8.48c1.31-2.41,3.14-4.25,5.49-5.52,2.35-1.27,5.04-1.9,8.06-1.9s5.74.63,8.04,1.9c2.3,1.27,4.07,3.02,5.32,5.24,1.25,2.22,1.88,4.75,1.88,7.59,0,.78-.09,1.68-.28,2.69Zm-9.66-9.24c-1.44-1.31-3.2-1.96-5.29-1.96s-3.92.65-5.38,1.96-2.26,3.23-2.41,5.77h15.06c.11-2.54-.55-4.46-1.99-5.77Z"/><path class="cls-1" d="m1420.86,400.85c2.18,2.3,3.28,5.61,3.28,9.94v17.86h-5.1v-17.42c0-3.02-.74-5.34-2.21-6.94-1.48-1.6-3.5-2.41-6.08-2.41s-4.84.89-6.47,2.66c-1.62,1.77-2.44,4.38-2.44,7.81v16.3h-5.1v-17.42c0-3.02-.75-5.34-2.24-6.94-1.49-1.6-3.51-2.41-6.05-2.41-2.73,0-4.9.89-6.52,2.66-1.62,1.77-2.44,4.38-2.44,7.81v16.3h-5.1v-30.74h5.1v7c.75-2.43,2.08-4.28,4-5.57,1.92-1.29,4.13-1.93,6.64-1.93s4.88.66,6.8,1.99c1.92,1.33,3.29,3.28,4.12,5.85.86-2.5,2.3-4.43,4.31-5.8,2.02-1.36,4.29-2.04,6.83-2.04,3.58,0,6.47,1.15,8.65,3.44Z"/><path class="cls-1" d="m1452.28,399.76c2.07,1.49,3.52,3.49,4.34,5.99v-7.84h5.1v30.74h-5.1v-7.84c-.82,2.5-2.27,4.5-4.34,5.99-2.07,1.49-4.6,2.24-7.59,2.24-2.73,0-5.15-.63-7.28-1.9-2.13-1.27-3.8-3.09-5.01-5.46-1.21-2.37-1.82-5.16-1.82-8.37s.61-6.01,1.82-8.4c1.21-2.39,2.88-4.22,5.01-5.49,2.13-1.27,4.55-1.9,7.28-1.9,2.99,0,5.52.75,7.59,2.24Zm-13.66,5.29c-1.89,2-2.83,4.75-2.83,8.26s.94,6.26,2.83,8.26c1.88,2,4.4,3,7.53,3,2.02,0,3.82-.47,5.4-1.4,1.59-.93,2.83-2.25,3.72-3.95.9-1.7,1.34-3.67,1.34-5.91s-.45-4.22-1.34-5.94c-.9-1.72-2.14-3.03-3.72-3.95-1.59-.91-3.39-1.37-5.4-1.37-3.14,0-5.65,1-7.53,3Z"/><path class="cls-1" d="m1494.75,400.85c2.2,2.3,3.3,5.61,3.3,9.94v17.86h-5.1v-17.42c0-3.06-.78-5.41-2.35-7.06-1.57-1.64-3.7-2.46-6.38-2.46s-5.04.91-6.72,2.72c-1.68,1.81-2.52,4.45-2.52,7.92v16.3h-5.1v-30.74h5.1v7.28c.78-2.5,2.17-4.42,4.17-5.77,2-1.34,4.3-2.02,6.92-2.02,3.58,0,6.48,1.15,8.68,3.44Z"/><path class="cls-1" d="m1526.14,399.76c2.07,1.49,3.52,3.49,4.34,5.99v-7.84h5.1v30.74h-5.1v-7.84c-.82,2.5-2.27,4.5-4.34,5.99-2.07,1.49-4.6,2.24-7.59,2.24-2.73,0-5.15-.63-7.28-1.9-2.13-1.27-3.8-3.09-5.01-5.46-1.21-2.37-1.82-5.16-1.82-8.37s.61-6.01,1.82-8.4c1.21-2.39,2.88-4.22,5.01-5.49,2.13-1.27,4.55-1.9,7.28-1.9,2.99,0,5.52.75,7.59,2.24Zm-13.66,5.29c-1.89,2-2.83,4.75-2.83,8.26s.94,6.26,2.83,8.26c1.88,2,4.4,3,7.53,3,2.02,0,3.82-.47,5.4-1.4,1.59-.93,2.83-2.25,3.72-3.95.9-1.7,1.34-3.67,1.34-5.91s-.45-4.22-1.34-5.94c-.9-1.72-2.14-3.03-3.72-3.95-1.59-.91-3.39-1.37-5.4-1.37-3.14,0-5.65,1-7.53,3Z"/><path class="cls-1" d="m1563.94,399.76c2.07,1.49,3.52,3.49,4.34,5.99v-7.84h5.1v31.25c0,2.84-.6,5.36-1.79,7.56-1.2,2.2-2.88,3.92-5.04,5.15-2.17,1.23-4.69,1.85-7.56,1.85-4.14,0-7.52-1-10.14-3-2.61-2-4.28-4.7-4.98-8.09h5.04c.6,2.05,1.73,3.67,3.39,4.84,1.66,1.18,3.8,1.76,6.41,1.76,2.76,0,5.05-.89,6.86-2.66,1.81-1.77,2.72-4.25,2.72-7.42v-8.34c-.82,2.5-2.27,4.5-4.34,5.99-2.07,1.49-4.6,2.24-7.59,2.24-2.73,0-5.15-.63-7.28-1.9-2.13-1.27-3.8-3.09-5.01-5.46-1.21-2.37-1.82-5.16-1.82-8.37s.61-6.01,1.82-8.4c1.21-2.39,2.88-4.22,5.01-5.49,2.13-1.27,4.55-1.9,7.28-1.9,2.99,0,5.52.75,7.59,2.24Zm-13.66,5.29c-1.89,2-2.83,4.75-2.83,8.26s.94,6.26,2.83,8.26c1.88,2,4.4,3,7.53,3,2.02,0,3.82-.47,5.4-1.4,1.59-.93,2.83-2.25,3.72-3.95.9-1.7,1.34-3.67,1.34-5.91s-.45-4.22-1.34-5.94c-.9-1.72-2.14-3.03-3.72-3.95-1.59-.91-3.39-1.37-5.4-1.37-3.14,0-5.65,1-7.53,3Z"/><path class="cls-1" d="m1609.61,414.37h-24.58c.11,3.51,1.11,6.14,3,7.9,1.88,1.76,4.19,2.63,6.92,2.63,2.46,0,4.53-.62,6.19-1.88,1.66-1.25,2.68-2.92,3.05-5.01h5.43c-.37,2.13-1.2,4.03-2.49,5.71-1.29,1.68-2.96,2.99-5.01,3.92-2.05.93-4.37,1.4-6.94,1.4-2.95,0-5.56-.63-7.84-1.9-2.28-1.27-4.06-3.09-5.35-5.46-1.29-2.37-1.93-5.16-1.93-8.37s.64-6.01,1.93-8.4c1.29-2.39,3.07-4.22,5.35-5.49,2.28-1.27,4.89-1.9,7.84-1.9s5.59.64,7.81,1.9c2.22,1.27,3.92,2.97,5.1,5.1s1.76,4.48,1.76,7.06c0,1.08-.08,2.02-.22,2.8Zm-6.05-8.18c-.86-1.53-2.04-2.67-3.53-3.42-1.49-.75-3.12-1.12-4.87-1.12-2.8,0-5.15.87-7.06,2.6-1.9,1.74-2.93,4.28-3.08,7.64h19.66c.11-2.28-.26-4.18-1.12-5.71Z"/><path class="cls-1" d="m1663,400.85c2.18,2.3,3.28,5.61,3.28,9.94v17.86h-5.1v-17.42c0-3.02-.74-5.34-2.21-6.94-1.48-1.6-3.5-2.41-6.08-2.41s-4.84.89-6.47,2.66c-1.62,1.77-2.44,4.38-2.44,7.81v16.3h-5.1v-17.42c0-3.02-.75-5.34-2.24-6.94-1.49-1.6-3.51-2.41-6.05-2.41-2.73,0-4.9.89-6.52,2.66-1.62,1.77-2.44,4.38-2.44,7.81v16.3h-5.1v-30.74h5.1v7c.75-2.43,2.08-4.28,4-5.57,1.92-1.29,4.13-1.93,6.64-1.93s4.88.66,6.8,1.99c1.92,1.33,3.29,3.28,4.12,5.85.86-2.5,2.3-4.43,4.31-5.8,2.02-1.36,4.29-2.04,6.83-2.04,3.58,0,6.47,1.15,8.65,3.44Z"/><path class="cls-1" d="m1702.29,414.37h-24.58c.11,3.51,1.11,6.14,3,7.9,1.88,1.76,4.19,2.63,6.92,2.63,2.46,0,4.53-.62,6.19-1.88,1.66-1.25,2.68-2.92,3.05-5.01h5.43c-.37,2.13-1.2,4.03-2.49,5.71-1.29,1.68-2.96,2.99-5.01,3.92-2.05.93-4.37,1.4-6.94,1.4-2.95,0-5.56-.63-7.84-1.9-2.28-1.27-4.06-3.09-5.35-5.46-1.29-2.37-1.93-5.16-1.93-8.37s.64-6.01,1.93-8.4c1.29-2.39,3.07-4.22,5.35-5.49,2.28-1.27,4.89-1.9,7.84-1.9s5.59.64,7.81,1.9c2.22,1.27,3.92,2.97,5.1,5.1s1.76,4.48,1.76,7.06c0,1.08-.08,2.02-.22,2.8Zm-6.05-8.18c-.86-1.53-2.04-2.67-3.53-3.42-1.49-.75-3.12-1.12-4.87-1.12-2.8,0-5.15.87-7.06,2.6-1.9,1.74-2.93,4.28-3.08,7.64h19.66c.11-2.28-.26-4.18-1.12-5.71Z"/><path class="cls-1" d="m1734.1,400.85c2.2,2.3,3.3,5.61,3.3,9.94v17.86h-5.1v-17.42c0-3.06-.78-5.41-2.35-7.06-1.57-1.64-3.7-2.46-6.38-2.46s-5.04.91-6.72,2.72c-1.68,1.81-2.52,4.45-2.52,7.92v16.3h-5.1v-30.74h5.1v7.28c.78-2.5,2.17-4.42,4.17-5.77,2-1.34,4.3-2.02,6.92-2.02,3.58,0,6.48,1.15,8.68,3.44Z"/><path class="cls-1" d="m1759.97,424.17v4.48h-3.81c-3.14,0-5.48-.75-7.03-2.24-1.55-1.49-2.32-3.99-2.32-7.5v-16.58h-4.59v-4.42h4.59v-7.67h5.15v7.67h7.95v4.42h-7.95v16.69c0,1.98.36,3.33,1.09,4.06.73.73,1.99,1.09,3.78,1.09h3.14Z"/><path class="cls-1" d="m1794.8,424.17v4.48h-3.81c-3.14,0-5.48-.75-7.03-2.24-1.55-1.49-2.32-3.99-2.32-7.5v-16.58h-4.59v-4.42h4.59v-7.67h5.15v7.67h7.95v4.42h-7.95v16.69c0,1.98.36,3.33,1.09,4.06.73.73,1.99,1.09,3.78,1.09h3.14Z"/><path class="cls-1" d="m1822.94,399.42c2.33,1.27,4.16,3.1,5.49,5.49,1.32,2.39,1.99,5.19,1.99,8.4s-.66,6-1.99,8.37c-1.33,2.37-3.16,4.19-5.49,5.46-2.33,1.27-4.98,1.9-7.92,1.9s-5.59-.63-7.92-1.9c-2.33-1.27-4.17-3.09-5.52-5.46-1.34-2.37-2.02-5.16-2.02-8.37s.67-6.01,2.02-8.4c1.34-2.39,3.18-4.22,5.52-5.49,2.33-1.27,4.97-1.9,7.92-1.9s5.59.64,7.92,1.9Zm-12.99,3.81c-1.55.82-2.8,2.08-3.75,3.78-.95,1.7-1.43,3.8-1.43,6.3s.48,4.55,1.43,6.24c.95,1.7,2.2,2.96,3.75,3.78,1.55.82,3.24,1.23,5.07,1.23s3.52-.41,5.07-1.23c1.55-.82,2.8-2.08,3.75-3.78.95-1.7,1.43-3.78,1.43-6.24s-.48-4.6-1.43-6.3c-.95-1.7-2.2-2.96-3.75-3.78-1.55-.82-3.24-1.23-5.07-1.23s-3.52.41-5.07,1.23Z"/><path class="cls-1" d="m1879.08,414.37h-24.58c.11,3.51,1.11,6.14,3,7.9,1.88,1.76,4.19,2.63,6.92,2.63,2.46,0,4.53-.62,6.19-1.88,1.66-1.25,2.68-2.92,3.05-5.01h5.43c-.37,2.13-1.2,4.03-2.49,5.71-1.29,1.68-2.96,2.99-5.01,3.92-2.05.93-4.37,1.4-6.94,1.4-2.95,0-5.56-.63-7.84-1.9-2.28-1.27-4.06-3.09-5.35-5.46-1.29-2.37-1.93-5.16-1.93-8.37s.64-6.01,1.93-8.4c1.29-2.39,3.07-4.22,5.35-5.49,2.28-1.27,4.89-1.9,7.84-1.9s5.59.64,7.81,1.9c2.22,1.27,3.92,2.97,5.1,5.1s1.76,4.48,1.76,7.06c0,1.08-.08,2.02-.22,2.8Zm-6.05-8.18c-.86-1.53-2.04-2.67-3.53-3.42-1.49-.75-3.12-1.12-4.87-1.12-2.8,0-5.15.87-7.06,2.6-1.9,1.74-2.93,4.28-3.08,7.64h19.66c.11-2.28-.26-4.18-1.12-5.71Z"/><path class="cls-1" d="m1910.88,400.85c2.2,2.3,3.3,5.61,3.3,9.94v17.86h-5.1v-17.42c0-3.06-.78-5.41-2.35-7.06-1.57-1.64-3.7-2.46-6.38-2.46s-5.04.91-6.72,2.72c-1.68,1.81-2.52,4.45-2.52,7.92v16.3h-5.1v-30.74h5.1v7.28c.78-2.5,2.17-4.42,4.17-5.77,2-1.34,4.3-2.02,6.92-2.02,3.58,0,6.48,1.15,8.68,3.44Z"/><path class="cls-1" d="m1946.95,400.85c2.2,2.3,3.3,5.61,3.3,9.94v17.86h-5.1v-17.42c0-3.06-.78-5.41-2.35-7.06-1.57-1.64-3.7-2.46-6.38-2.46s-5.04.91-6.72,2.72c-1.68,1.81-2.52,4.45-2.52,7.92v16.3h-5.1v-41.44h5.1v17.98c.78-2.5,2.17-4.42,4.17-5.77,2-1.34,4.3-2.02,6.92-2.02,3.58,0,6.48,1.15,8.68,3.44Z"/><path class="cls-1" d="m1978.33,399.76c2.07,1.49,3.52,3.49,4.34,5.99v-7.84h5.1v30.74h-5.1v-7.84c-.82,2.5-2.27,4.5-4.34,5.99-2.07,1.49-4.6,2.24-7.59,2.24-2.73,0-5.15-.63-7.28-1.9-2.13-1.27-3.8-3.09-5.01-5.46-1.21-2.37-1.82-5.16-1.82-8.37s.61-6.01,1.82-8.4c1.21-2.39,2.88-4.22,5.01-5.49,2.13-1.27,4.55-1.9,7.28-1.9,2.99,0,5.52.75,7.59,2.24Zm-13.66,5.29c-1.89,2-2.83,4.75-2.83,8.26s.94,6.26,2.83,8.26c1.88,2,4.4,3,7.53,3,2.02,0,3.82-.47,5.4-1.4,1.59-.93,2.83-2.25,3.72-3.95.9-1.7,1.34-3.67,1.34-5.91s-.45-4.22-1.34-5.94c-.9-1.72-2.14-3.03-3.72-3.95-1.59-.91-3.39-1.37-5.4-1.37-3.14,0-5.65,1-7.53,3Z"/><path class="cls-1" d="m2020.81,400.85c2.2,2.3,3.3,5.61,3.3,9.94v17.86h-5.1v-17.42c0-3.06-.78-5.41-2.35-7.06-1.57-1.64-3.7-2.46-6.38-2.46s-5.04.91-6.72,2.72c-1.68,1.81-2.52,4.45-2.52,7.92v16.3h-5.1v-30.74h5.1v7.28c.78-2.5,2.17-4.42,4.17-5.77,2-1.34,4.3-2.02,6.92-2.02,3.58,0,6.48,1.15,8.68,3.44Z"/><path class="cls-1" d="m2055.36,400.65c2.58,2.09,4.16,4.89,4.76,8.4h-5.38c-.37-2.2-1.39-3.93-3.05-5.18-1.66-1.25-3.72-1.88-6.19-1.88-1.79,0-3.43.41-4.9,1.23-1.48.82-2.66,2.08-3.56,3.78-.9,1.7-1.34,3.8-1.34,6.3s.45,4.6,1.34,6.3c.9,1.7,2.08,2.96,3.56,3.78,1.47.82,3.11,1.23,4.9,1.23,2.46,0,4.53-.63,6.19-1.9,1.66-1.27,2.68-3,3.05-5.21h5.38c-.6,3.55-2.18,6.36-4.76,8.43-2.58,2.07-5.82,3.11-9.74,3.11-2.95,0-5.56-.63-7.84-1.9-2.28-1.27-4.06-3.09-5.35-5.46-1.29-2.37-1.93-5.16-1.93-8.37s.64-6.01,1.93-8.4c1.29-2.39,3.07-4.22,5.35-5.49,2.28-1.27,4.89-1.9,7.84-1.9,3.92,0,7.17,1.05,9.74,3.14Z"/><path class="cls-1" d="m2094.9,414.37h-24.58c.11,3.51,1.11,6.14,3,7.9,1.88,1.76,4.19,2.63,6.92,2.63,2.46,0,4.53-.62,6.19-1.88,1.66-1.25,2.68-2.92,3.05-5.01h5.43c-.37,2.13-1.2,4.03-2.49,5.71-1.29,1.68-2.96,2.99-5.01,3.92-2.05.93-4.37,1.4-6.94,1.4-2.95,0-5.56-.63-7.84-1.9-2.28-1.27-4.06-3.09-5.35-5.46-1.29-2.37-1.93-5.16-1.93-8.37s.64-6.01,1.93-8.4c1.29-2.39,3.07-4.22,5.35-5.49,2.28-1.27,4.89-1.9,7.84-1.9s5.59.64,7.81,1.9c2.22,1.27,3.92,2.97,5.1,5.1s1.76,4.48,1.76,7.06c0,1.08-.08,2.02-.22,2.8Zm-6.05-8.18c-.86-1.53-2.04-2.67-3.53-3.42-1.49-.75-3.12-1.12-4.87-1.12-2.8,0-5.15.87-7.06,2.6-1.9,1.74-2.93,4.28-3.08,7.64h19.66c.11-2.28-.26-4.18-1.12-5.71Z"/><path class="cls-1" d="m2117.85,397.91l9.97,24.19,9.24-24.19h5.66l-18.26,45.3h-5.77l6.38-15.06-12.94-30.24h5.71Z"/><path class="cls-1" d="m2169.29,399.42c2.33,1.27,4.16,3.1,5.49,5.49,1.32,2.39,1.99,5.19,1.99,8.4s-.66,6-1.99,8.37c-1.33,2.37-3.16,4.19-5.49,5.46-2.33,1.27-4.98,1.9-7.92,1.9s-5.59-.63-7.92-1.9c-2.33-1.27-4.17-3.09-5.52-5.46-1.34-2.37-2.02-5.16-2.02-8.37s.67-6.01,2.02-8.4c1.34-2.39,3.18-4.22,5.52-5.49,2.33-1.27,4.97-1.9,7.92-1.9s5.59.64,7.92,1.9Zm-12.99,3.81c-1.55.82-2.8,2.08-3.75,3.78-.95,1.7-1.43,3.8-1.43,6.3s.48,4.55,1.43,6.24c.95,1.7,2.2,2.96,3.75,3.78,1.55.82,3.24,1.23,5.07,1.23s3.52-.41,5.07-1.23c1.55-.82,2.8-2.08,3.75-3.78.95-1.7,1.43-3.78,1.43-6.24s-.48-4.6-1.43-6.3c-.95-1.7-2.2-2.96-3.75-3.78-1.55-.82-3.24-1.23-5.07-1.23s-3.52.41-5.07,1.23Z"/><path class="cls-1" d="m2210.81,397.91v30.74h-5.1v-7.22c-.78,2.5-2.18,4.42-4.17,5.74-2,1.33-4.32,1.99-6.97,1.99-3.55,0-6.42-1.15-8.62-3.44-2.2-2.3-3.3-5.59-3.3-9.88v-17.92h5.1v17.42c0,3.06.78,5.42,2.35,7.08,1.57,1.66,3.7,2.49,6.38,2.49s5.04-.91,6.72-2.72c1.68-1.81,2.52-4.45,2.52-7.92v-16.35h5.1Z"/><path class="cls-1" d="m2228.56,399.17c1.94-1.18,4.26-1.76,6.94-1.76v5.54h-1.57c-2.88,0-5.23.74-7.06,2.21-1.83,1.47-2.74,3.91-2.74,7.31v16.18h-5.1v-30.74h5.1v6.22c1.01-2.13,2.48-3.78,4.42-4.96Z"/><path class="cls-1" d="m2254.55,386.63c.63-.58,1.47-.87,2.52-.87s1.88.29,2.52.87c.63.58.95,1.33.95,2.27s-.32,1.69-.95,2.27c-.64.58-1.48.87-2.52.87s-1.89-.29-2.52-.87c-.64-.58-.95-1.33-.95-2.27s.32-1.69.95-2.27Zm5.04,11.28v30.74h-5.1v-30.74h5.1Z"/><path class="cls-1" d="m2292.68,400.85c2.2,2.3,3.3,5.61,3.3,9.94v17.86h-5.1v-17.42c0-3.06-.78-5.41-2.35-7.06-1.57-1.64-3.7-2.46-6.38-2.46s-5.04.91-6.72,2.72c-1.68,1.81-2.52,4.45-2.52,7.92v16.3h-5.1v-30.74h5.1v7.28c.78-2.5,2.17-4.42,4.17-5.77,2-1.34,4.3-2.02,6.92-2.02,3.58,0,6.48,1.15,8.68,3.44Z"/><path class="cls-1" d="m2315.81,423.22l9.52-25.31h5.49l-12.04,30.74h-6.05l-12.04-30.74h5.49l9.63,25.31Z"/><path class="cls-1" d="m2363.91,414.37h-24.58c.11,3.51,1.11,6.14,3,7.9,1.88,1.76,4.19,2.63,6.92,2.63,2.46,0,4.53-.62,6.19-1.88,1.66-1.25,2.68-2.92,3.05-5.01h5.43c-.37,2.13-1.2,4.03-2.49,5.71-1.29,1.68-2.96,2.99-5.01,3.92-2.05.93-4.37,1.4-6.94,1.4-2.95,0-5.56-.63-7.84-1.9-2.28-1.27-4.06-3.09-5.35-5.46-1.29-2.37-1.93-5.16-1.93-8.37s.64-6.01,1.93-8.4c1.29-2.39,3.07-4.22,5.35-5.49,2.28-1.27,4.89-1.9,7.84-1.9s5.59.64,7.81,1.9c2.22,1.27,3.92,2.97,5.1,5.1s1.76,4.48,1.76,7.06c0,1.08-.08,2.02-.22,2.8Zm-6.05-8.18c-.86-1.53-2.04-2.67-3.53-3.42-1.49-.75-3.12-1.12-4.87-1.12-2.8,0-5.15.87-7.06,2.6-1.9,1.74-2.93,4.28-3.08,7.64h19.66c.11-2.28-.26-4.18-1.12-5.71Z"/><path class="cls-1" d="m2388.86,400.23c2.11,1.81,3.39,4.25,3.84,7.31h-4.87c-.22-1.83-.98-3.33-2.27-4.51-1.29-1.18-3.02-1.76-5.18-1.76-1.83,0-3.26.44-4.28,1.32-1.03.88-1.54,2.06-1.54,3.56,0,1.12.34,2.03,1.04,2.72.69.69,1.55,1.21,2.58,1.57,1.03.36,2.44.74,4.23,1.15,2.28.52,4.12,1.05,5.52,1.6s2.59,1.41,3.58,2.6c.99,1.2,1.48,2.8,1.48,4.82,0,2.5-.94,4.54-2.83,6.1-1.89,1.57-4.4,2.35-7.53,2.35-3.66,0-6.65-.88-8.96-2.63-2.32-1.75-3.68-4.2-4.09-7.34h4.93c.19,1.87,1,3.38,2.44,4.54,1.44,1.16,3.33,1.74,5.68,1.74,1.75,0,3.13-.45,4.12-1.34.99-.9,1.48-2.07,1.48-3.53,0-1.19-.36-2.15-1.06-2.86-.71-.71-1.59-1.25-2.63-1.62-1.05-.37-2.48-.76-4.31-1.18-2.28-.52-4.1-1.04-5.46-1.57-1.36-.52-2.52-1.35-3.47-2.49-.95-1.14-1.43-2.68-1.43-4.62,0-2.58.95-4.66,2.86-6.24,1.9-1.59,4.5-2.38,7.78-2.38,3.47,0,6.26.91,8.37,2.72Z"/><path class="cls-1" d="m2414.54,424.17v4.48h-3.81c-3.14,0-5.48-.75-7.03-2.24-1.55-1.49-2.32-3.99-2.32-7.5v-16.58h-4.59v-4.42h4.59v-7.67h5.15v7.67h7.95v4.42h-7.95v16.69c0,1.98.36,3.33,1.09,4.06.73.73,1.99,1.09,3.78,1.09h3.14Z"/><path class="cls-1" d="m2467.26,400.85c2.18,2.3,3.28,5.61,3.28,9.94v17.86h-5.1v-17.42c0-3.02-.74-5.34-2.21-6.94-1.48-1.6-3.5-2.41-6.08-2.41s-4.84.89-6.47,2.66c-1.62,1.77-2.44,4.38-2.44,7.81v16.3h-5.1v-17.42c0-3.02-.75-5.34-2.24-6.94-1.49-1.6-3.51-2.41-6.05-2.41-2.73,0-4.9.89-6.52,2.66-1.62,1.77-2.44,4.38-2.44,7.81v16.3h-5.1v-30.74h5.1v7c.75-2.43,2.08-4.28,4-5.57,1.92-1.29,4.13-1.93,6.64-1.93s4.88.66,6.8,1.99c1.92,1.33,3.29,3.28,4.12,5.85.86-2.5,2.3-4.43,4.31-5.8,2.02-1.36,4.29-2.04,6.83-2.04,3.58,0,6.47,1.15,8.65,3.44Z"/><path class="cls-1" d="m2506.54,414.37h-24.58c.11,3.51,1.11,6.14,3,7.9,1.88,1.76,4.19,2.63,6.92,2.63,2.46,0,4.53-.62,6.19-1.88,1.66-1.25,2.68-2.92,3.05-5.01h5.43c-.37,2.13-1.2,4.03-2.49,5.71-1.29,1.68-2.96,2.99-5.01,3.92-2.05.93-4.37,1.4-6.94,1.4-2.95,0-5.56-.63-7.84-1.9-2.28-1.27-4.06-3.09-5.35-5.46-1.29-2.37-1.93-5.16-1.93-8.37s.64-6.01,1.93-8.4c1.29-2.39,3.07-4.22,5.35-5.49,2.28-1.27,4.89-1.9,7.84-1.9s5.59.64,7.81,1.9c2.22,1.27,3.92,2.97,5.1,5.1s1.76,4.48,1.76,7.06c0,1.08-.08,2.02-.22,2.8Zm-6.05-8.18c-.86-1.53-2.04-2.67-3.53-3.42-1.49-.75-3.12-1.12-4.87-1.12-2.8,0-5.15.87-7.06,2.6-1.9,1.74-2.93,4.28-3.08,7.64h19.66c.11-2.28-.26-4.18-1.12-5.71Z"/><path class="cls-1" d="m2538.35,400.85c2.2,2.3,3.3,5.61,3.3,9.94v17.86h-5.1v-17.42c0-3.06-.78-5.41-2.35-7.06-1.57-1.64-3.7-2.46-6.38-2.46s-5.04.91-6.72,2.72c-1.68,1.81-2.52,4.45-2.52,7.92v16.3h-5.1v-30.74h5.1v7.28c.78-2.5,2.17-4.42,4.17-5.77,2-1.34,4.3-2.02,6.92-2.02,3.58,0,6.48,1.15,8.68,3.44Z"/><path class="cls-1" d="m2564.22,424.17v4.48h-3.81c-3.14,0-5.48-.75-7.03-2.24-1.55-1.49-2.32-3.99-2.32-7.5v-16.58h-4.59v-4.42h4.59v-7.67h5.15v7.67h7.95v4.42h-7.95v16.69c0,1.98.36,3.33,1.09,4.06.73.73,1.99,1.09,3.78,1.09h3.14Z"/><path class="cls-1" d="m2608.63,399.42c2.13,1.27,3.8,3.1,5.01,5.49,1.21,2.39,1.82,5.19,1.82,8.4s-.61,6-1.82,8.37c-1.21,2.37-2.88,4.19-5.01,5.46-2.13,1.27-4.56,1.9-7.28,1.9-2.99,0-5.52-.76-7.59-2.27-2.07-1.51-3.5-3.5-4.28-5.96v22.4h-5.1v-45.3h5.1v7.84c.78-2.46,2.21-4.45,4.28-5.96,2.07-1.51,4.6-2.27,7.59-2.27,2.72,0,5.15.64,7.28,1.9Zm-14.11,4c-1.61.92-2.86,2.23-3.75,3.95-.9,1.72-1.34,3.7-1.34,5.94s.45,4.21,1.34,5.91c.9,1.7,2.15,3.02,3.75,3.95,1.6.93,3.4,1.4,5.38,1.4,3.17,0,5.7-1,7.59-3,1.88-2,2.83-4.75,2.83-8.26s-.94-6.26-2.83-8.26c-1.89-2-4.42-3-7.59-3-1.98,0-3.77.46-5.38,1.37Z"/><path class="cls-1" d="m2631.7,399.17c1.94-1.18,4.26-1.76,6.94-1.76v5.54h-1.57c-2.88,0-5.23.74-7.06,2.21-1.83,1.47-2.74,3.91-2.74,7.31v16.18h-5.1v-30.74h5.1v6.22c1.01-2.13,2.48-3.78,4.42-4.96Z"/><path class="cls-1" d="m2665.61,399.42c2.33,1.27,4.16,3.1,5.49,5.49,1.32,2.39,1.99,5.19,1.99,8.4s-.66,6-1.99,8.37c-1.33,2.37-3.16,4.19-5.49,5.46-2.33,1.27-4.98,1.9-7.92,1.9s-5.59-.63-7.92-1.9c-2.33-1.27-4.17-3.09-5.52-5.46-1.34-2.37-2.02-5.16-2.02-8.37s.67-6.01,2.02-8.4c1.34-2.39,3.18-4.22,5.52-5.49,2.33-1.27,4.97-1.9,7.92-1.9s5.59.64,7.92,1.9Zm-12.99,3.81c-1.55.82-2.8,2.08-3.75,3.78-.95,1.7-1.43,3.8-1.43,6.3s.48,4.55,1.43,6.24c.95,1.7,2.2,2.96,3.75,3.78,1.55.82,3.24,1.23,5.07,1.23s3.52-.41,5.07-1.23c1.55-.82,2.8-2.08,3.75-3.78.95-1.7,1.43-3.78,1.43-6.24s-.48-4.6-1.43-6.3c-.95-1.7-2.2-2.96-3.75-3.78-1.55-.82-3.24-1.23-5.07-1.23s-3.52.41-5.07,1.23Z"/><path class="cls-1" d="m2703.16,400.65c2.58,2.09,4.16,4.89,4.76,8.4h-5.38c-.37-2.2-1.39-3.93-3.05-5.18-1.66-1.25-3.72-1.88-6.19-1.88-1.79,0-3.43.41-4.9,1.23-1.48.82-2.66,2.08-3.56,3.78-.9,1.7-1.34,3.8-1.34,6.3s.45,4.6,1.34,6.3c.9,1.7,2.08,2.96,3.56,3.78,1.47.82,3.11,1.23,4.9,1.23,2.46,0,4.53-.63,6.19-1.9,1.66-1.27,2.68-3,3.05-5.21h5.38c-.6,3.55-2.18,6.36-4.76,8.43-2.58,2.07-5.82,3.11-9.74,3.11-2.95,0-5.56-.63-7.84-1.9-2.28-1.27-4.06-3.09-5.35-5.46-1.29-2.37-1.93-5.16-1.93-8.37s.64-6.01,1.93-8.4c1.29-2.39,3.07-4.22,5.35-5.49,2.28-1.27,4.89-1.9,7.84-1.9,3.92,0,7.17,1.05,9.74,3.14Z"/><path class="cls-1" d="m2742.69,414.37h-24.58c.11,3.51,1.11,6.14,3,7.9,1.88,1.76,4.19,2.63,6.92,2.63,2.46,0,4.53-.62,6.19-1.88,1.66-1.25,2.68-2.92,3.05-5.01h5.43c-.37,2.13-1.2,4.03-2.49,5.71-1.29,1.68-2.96,2.99-5.01,3.92-2.05.93-4.37,1.4-6.94,1.4-2.95,0-5.56-.63-7.84-1.9-2.28-1.27-4.06-3.09-5.35-5.46-1.29-2.37-1.93-5.16-1.93-8.37s.64-6.01,1.93-8.4c1.29-2.39,3.07-4.22,5.35-5.49,2.28-1.27,4.89-1.9,7.84-1.9s5.59.64,7.81,1.9c2.22,1.27,3.92,2.97,5.1,5.1s1.76,4.48,1.76,7.06c0,1.08-.08,2.02-.22,2.8Zm-6.05-8.18c-.86-1.53-2.04-2.67-3.53-3.42-1.49-.75-3.12-1.12-4.87-1.12-2.8,0-5.15.87-7.06,2.6-1.9,1.74-2.93,4.28-3.08,7.64h19.66c.11-2.28-.26-4.18-1.12-5.71Z"/><path class="cls-1" d="m2767.64,400.23c2.11,1.81,3.39,4.25,3.84,7.31h-4.87c-.22-1.83-.98-3.33-2.27-4.51-1.29-1.18-3.02-1.76-5.18-1.76-1.83,0-3.26.44-4.28,1.32-1.03.88-1.54,2.06-1.54,3.56,0,1.12.34,2.03,1.04,2.72.69.69,1.55,1.21,2.58,1.57,1.03.36,2.44.74,4.23,1.15,2.28.52,4.12,1.05,5.52,1.6s2.59,1.41,3.58,2.6c.99,1.2,1.48,2.8,1.48,4.82,0,2.5-.94,4.54-2.83,6.1-1.89,1.57-4.4,2.35-7.53,2.35-3.66,0-6.65-.88-8.96-2.63-2.32-1.75-3.68-4.2-4.09-7.34h4.93c.19,1.87,1,3.38,2.44,4.54,1.44,1.16,3.33,1.74,5.68,1.74,1.75,0,3.13-.45,4.12-1.34.99-.9,1.48-2.07,1.48-3.53,0-1.19-.36-2.15-1.06-2.86-.71-.71-1.59-1.25-2.63-1.62-1.05-.37-2.48-.76-4.31-1.18-2.28-.52-4.1-1.04-5.46-1.57-1.36-.52-2.52-1.35-3.47-2.49-.95-1.14-1.43-2.68-1.43-4.62,0-2.58.95-4.66,2.86-6.24,1.9-1.59,4.5-2.38,7.78-2.38,3.47,0,6.26.91,8.37,2.72Z"/><path class="cls-1" d="m2796.65,400.23c2.11,1.81,3.39,4.25,3.84,7.31h-4.87c-.22-1.83-.98-3.33-2.27-4.51-1.29-1.18-3.02-1.76-5.18-1.76-1.83,0-3.26.44-4.28,1.32-1.03.88-1.54,2.06-1.54,3.56,0,1.12.34,2.03,1.04,2.72.69.69,1.55,1.21,2.58,1.57,1.03.36,2.44.74,4.23,1.15,2.28.52,4.12,1.05,5.52,1.6s2.59,1.41,3.58,2.6c.99,1.2,1.48,2.8,1.48,4.82,0,2.5-.94,4.54-2.83,6.1-1.89,1.57-4.4,2.35-7.53,2.35-3.66,0-6.65-.88-8.96-2.63-2.32-1.75-3.68-4.2-4.09-7.34h4.93c.19,1.87,1,3.38,2.44,4.54,1.44,1.16,3.33,1.74,5.68,1.74,1.75,0,3.13-.45,4.12-1.34.99-.9,1.48-2.07,1.48-3.53,0-1.19-.36-2.15-1.06-2.86-.71-.71-1.59-1.25-2.63-1.62-1.05-.37-2.48-.76-4.31-1.18-2.28-.52-4.1-1.04-5.46-1.57-1.36-.52-2.52-1.35-3.47-2.49-.95-1.14-1.43-2.68-1.43-4.62,0-2.58.95-4.66,2.86-6.24,1.9-1.59,4.5-2.38,7.78-2.38,3.47,0,6.26.91,8.37,2.72Z"/><path class="cls-1" d="m374.21,575.08c1.34-1.34,2.97-2.02,4.87-2.02s3.57.67,4.9,2.02c1.32,1.34,1.99,2.99,1.99,4.93s-.66,3.52-1.99,4.84c-1.33,1.33-2.96,1.99-4.9,1.99s-3.53-.66-4.87-1.99c-1.34-1.32-2.02-2.94-2.02-4.84s.67-3.58,2.02-4.93Z"/><path class="cls-1" d="m436.43,562.34c3.14,2.37,5.3,5.61,6.5,9.72h-5.38c-1.01-2.61-2.63-4.69-4.87-6.24-2.24-1.55-4.98-2.32-8.23-2.32-2.58,0-4.88.62-6.92,1.88-2.04,1.25-3.64,3.04-4.82,5.38-1.18,2.33-1.76,5.07-1.76,8.2s.59,5.81,1.76,8.12c1.18,2.32,2.78,4.1,4.82,5.35,2.03,1.25,4.34,1.88,6.92,1.88,3.25,0,5.99-.77,8.23-2.32,2.24-1.55,3.86-3.63,4.87-6.24h5.38c-1.2,4.11-3.36,7.35-6.5,9.72-3.14,2.37-7.11,3.56-11.93,3.56-3.7,0-6.96-.85-9.8-2.55-2.84-1.7-5.05-4.07-6.64-7.11-1.59-3.04-2.38-6.5-2.38-10.39s.79-7.41,2.38-10.47c1.59-3.06,3.8-5.44,6.64-7.14,2.84-1.7,6.1-2.55,9.8-2.55,4.82,0,8.79,1.19,11.93,3.56Z"/><path class="cls-1" d="m477.14,567.91v30.74h-5.1v-7.22c-.78,2.5-2.18,4.42-4.17,5.74-2,1.33-4.32,1.99-6.97,1.99-3.55,0-6.42-1.15-8.62-3.44-2.2-2.3-3.3-5.59-3.3-9.88v-17.92h5.1v17.42c0,3.06.78,5.42,2.35,7.08,1.57,1.66,3.7,2.49,6.38,2.49s5.04-.91,6.72-2.72c1.68-1.81,2.52-4.45,2.52-7.92v-16.35h5.1Z"/><path class="cls-1" d="m503.37,570.23c2.11,1.81,3.39,4.25,3.84,7.31h-4.87c-.22-1.83-.98-3.33-2.27-4.51-1.29-1.18-3.02-1.76-5.18-1.76-1.83,0-3.26.44-4.28,1.32-1.03.88-1.54,2.06-1.54,3.56,0,1.12.34,2.03,1.04,2.72.69.69,1.55,1.21,2.58,1.57,1.03.36,2.44.74,4.23,1.15,2.28.52,4.12,1.05,5.52,1.6s2.59,1.41,3.58,2.6c.99,1.2,1.48,2.8,1.48,4.82,0,2.5-.94,4.54-2.83,6.1-1.89,1.57-4.4,2.35-7.53,2.35-3.66,0-6.65-.88-8.96-2.63-2.32-1.75-3.68-4.2-4.09-7.34h4.93c.19,1.87,1,3.38,2.44,4.54,1.44,1.16,3.33,1.74,5.68,1.74,1.75,0,3.13-.45,4.12-1.34.99-.9,1.48-2.07,1.48-3.53,0-1.19-.36-2.15-1.06-2.86-.71-.71-1.59-1.25-2.63-1.62-1.05-.37-2.48-.76-4.31-1.18-2.28-.52-4.1-1.04-5.46-1.57-1.36-.52-2.52-1.35-3.47-2.49-.95-1.14-1.43-2.68-1.43-4.62,0-2.58.95-4.66,2.86-6.24,1.9-1.59,4.5-2.38,7.78-2.38,3.47,0,6.26.91,8.37,2.72Z"/><path class="cls-1" d="m529.05,594.17v4.48h-3.81c-3.14,0-5.48-.75-7.03-2.24-1.55-1.49-2.32-3.99-2.32-7.5v-16.58h-4.59v-4.42h4.59v-7.67h5.15v7.67h7.95v4.42h-7.95v16.69c0,1.98.36,3.33,1.09,4.06.73.73,1.99,1.09,3.78,1.09h3.14Z"/><path class="cls-1" d="m557.19,569.42c2.33,1.27,4.16,3.1,5.49,5.49,1.32,2.39,1.99,5.19,1.99,8.4s-.66,6-1.99,8.37c-1.33,2.37-3.16,4.19-5.49,5.46-2.33,1.27-4.98,1.9-7.92,1.9s-5.59-.63-7.92-1.9c-2.33-1.27-4.17-3.09-5.52-5.46-1.34-2.37-2.02-5.16-2.02-8.37s.67-6.01,2.02-8.4c1.34-2.39,3.18-4.22,5.52-5.49,2.33-1.27,4.97-1.9,7.92-1.9s5.59.64,7.92,1.9Zm-12.99,3.81c-1.55.82-2.8,2.08-3.75,3.78-.95,1.7-1.43,3.8-1.43,6.3s.48,4.55,1.43,6.24c.95,1.7,2.2,2.96,3.75,3.78,1.55.82,3.24,1.23,5.07,1.23s3.52-.41,5.07-1.23c1.55-.82,2.8-2.08,3.75-3.78.95-1.7,1.43-3.78,1.43-6.24s-.48-4.6-1.43-6.3c-.95-1.7-2.2-2.96-3.75-3.78-1.55-.82-3.24-1.23-5.07-1.23s-3.52.41-5.07,1.23Z"/><path class="cls-1" d="m617.84,570.85c2.18,2.3,3.28,5.61,3.28,9.94v17.86h-5.1v-17.42c0-3.02-.74-5.34-2.21-6.94-1.48-1.6-3.5-2.41-6.08-2.41s-4.84.89-6.47,2.66c-1.62,1.77-2.44,4.38-2.44,7.81v16.3h-5.1v-17.42c0-3.02-.75-5.34-2.24-6.94-1.49-1.6-3.51-2.41-6.05-2.41-2.73,0-4.9.89-6.52,2.66-1.62,1.77-2.44,4.38-2.44,7.81v16.3h-5.1v-30.74h5.1v7c.75-2.43,2.08-4.28,4-5.57,1.92-1.29,4.13-1.93,6.64-1.93s4.88.66,6.8,1.99c1.92,1.33,3.29,3.28,4.12,5.85.86-2.5,2.3-4.43,4.31-5.8,2.02-1.36,4.29-2.04,6.83-2.04,3.58,0,6.47,1.15,8.65,3.44Z"/><path class="cls-1" d="m629.12,556.63c.63-.58,1.47-.87,2.52-.87s1.88.29,2.52.87c.63.58.95,1.33.95,2.27s-.32,1.69-.95,2.27c-.64.58-1.48.87-2.52.87s-1.89-.29-2.52-.87c-.64-.58-.95-1.33-.95-2.27s.32-1.69.95-2.27Zm5.04,11.28v30.74h-5.1v-30.74h5.1Z"/><path class="cls-1" d="m645.36,594.34h16.46v4.31h-22.06v-4.09l15.68-22.34h-15.23v-4.31h21.06v4.14l-15.9,22.29Z"/><path class="cls-1" d="m695.48,584.37h-24.58c.11,3.51,1.11,6.14,3,7.9,1.88,1.76,4.19,2.63,6.92,2.63,2.46,0,4.53-.62,6.19-1.88,1.66-1.25,2.68-2.92,3.05-5.01h5.43c-.37,2.13-1.2,4.03-2.49,5.71-1.29,1.68-2.96,2.99-5.01,3.92-2.05.93-4.37,1.4-6.94,1.4-2.95,0-5.56-.63-7.84-1.9-2.28-1.27-4.06-3.09-5.35-5.46-1.29-2.37-1.93-5.16-1.93-8.37s.64-6.01,1.93-8.4c1.29-2.39,3.07-4.22,5.35-5.49,2.28-1.27,4.89-1.9,7.84-1.9s5.59.64,7.81,1.9c2.22,1.27,3.92,2.97,5.1,5.1s1.76,4.48,1.76,7.06c0,1.08-.08,2.02-.22,2.8Zm-6.05-8.18c-.86-1.53-2.04-2.67-3.53-3.42-1.49-.75-3.12-1.12-4.87-1.12-2.8,0-5.15.87-7.06,2.6-1.9,1.74-2.93,4.28-3.08,7.64h19.66c.11-2.28-.26-4.18-1.12-5.71Z"/><path class="cls-1" d="m734.31,570.23c2.11,1.81,3.39,4.25,3.84,7.31h-4.87c-.22-1.83-.98-3.33-2.27-4.51-1.29-1.18-3.02-1.76-5.18-1.76-1.83,0-3.26.44-4.28,1.32-1.03.88-1.54,2.06-1.54,3.56,0,1.12.34,2.03,1.04,2.72.69.69,1.55,1.21,2.58,1.57,1.03.36,2.44.74,4.23,1.15,2.28.52,4.12,1.05,5.52,1.6s2.59,1.41,3.58,2.6c.99,1.2,1.48,2.8,1.48,4.82,0,2.5-.94,4.54-2.83,6.1-1.89,1.57-4.4,2.35-7.53,2.35-3.66,0-6.65-.88-8.96-2.63-2.32-1.75-3.68-4.2-4.09-7.34h4.93c.19,1.87,1,3.38,2.44,4.54,1.44,1.16,3.33,1.74,5.68,1.74,1.75,0,3.13-.45,4.12-1.34.99-.9,1.48-2.07,1.48-3.53,0-1.19-.36-2.15-1.06-2.86-.71-.71-1.59-1.25-2.63-1.62-1.05-.37-2.48-.76-4.31-1.18-2.28-.52-4.1-1.04-5.46-1.57-1.36-.52-2.52-1.35-3.47-2.49-.95-1.14-1.43-2.68-1.43-4.62,0-2.58.95-4.66,2.86-6.24,1.9-1.59,4.5-2.38,7.78-2.38,3.47,0,6.26.91,8.37,2.72Z"/><path class="cls-1" d="m759.99,594.17v4.48h-3.81c-3.14,0-5.48-.75-7.03-2.24-1.55-1.49-2.32-3.99-2.32-7.5v-16.58h-4.59v-4.42h4.59v-7.67h5.15v7.67h7.95v4.42h-7.95v16.69c0,1.98.36,3.33,1.09,4.06.73.73,1.99,1.09,3.78,1.09h3.14Z"/><path class="cls-1" d="m775.78,569.17c1.94-1.18,4.26-1.76,6.94-1.76v5.54h-1.57c-2.88,0-5.23.74-7.06,2.21-1.83,1.47-2.74,3.91-2.74,7.31v16.18h-5.1v-30.74h5.1v6.22c1.01-2.13,2.48-3.78,4.42-4.96Z"/><path class="cls-1" d="m808.01,569.76c2.07,1.49,3.52,3.49,4.34,5.99v-7.84h5.1v30.74h-5.1v-7.84c-.82,2.5-2.27,4.5-4.34,5.99-2.07,1.49-4.6,2.24-7.59,2.24-2.73,0-5.15-.63-7.28-1.9-2.13-1.27-3.8-3.09-5.01-5.46-1.21-2.37-1.82-5.16-1.82-8.37s.61-6.01,1.82-8.4c1.21-2.39,2.88-4.22,5.01-5.49,2.13-1.27,4.55-1.9,7.28-1.9,2.99,0,5.52.75,7.59,2.24Zm-13.66,5.29c-1.89,2-2.83,4.75-2.83,8.26s.94,6.26,2.83,8.26c1.88,2,4.4,3,7.53,3,2.02,0,3.82-.47,5.4-1.4,1.59-.93,2.83-2.25,3.72-3.95.9-1.7,1.34-3.67,1.34-5.91s-.45-4.22-1.34-5.94c-.9-1.72-2.14-3.03-3.72-3.95-1.59-.91-3.39-1.37-5.4-1.37-3.14,0-5.65,1-7.53,3Z"/><path class="cls-1" d="m840.29,594.17v4.48h-3.81c-3.14,0-5.48-.75-7.03-2.24-1.55-1.49-2.32-3.99-2.32-7.5v-16.58h-4.59v-4.42h4.59v-7.67h5.15v7.67h7.95v4.42h-7.95v16.69c0,1.98.36,3.33,1.09,4.06.73.73,1.99,1.09,3.78,1.09h3.14Z"/><path class="cls-1" d="m874.62,584.37h-24.58c.11,3.51,1.11,6.14,3,7.9,1.88,1.76,4.19,2.63,6.92,2.63,2.46,0,4.53-.62,6.19-1.88,1.66-1.25,2.68-2.92,3.05-5.01h5.43c-.37,2.13-1.2,4.03-2.49,5.71-1.29,1.68-2.96,2.99-5.01,3.92-2.05.93-4.37,1.4-6.94,1.4-2.95,0-5.56-.63-7.84-1.9-2.28-1.27-4.06-3.09-5.35-5.46-1.29-2.37-1.93-5.16-1.93-8.37s.64-6.01,1.93-8.4c1.29-2.39,3.07-4.22,5.35-5.49,2.28-1.27,4.89-1.9,7.84-1.9s5.59.64,7.81,1.9c2.22,1.27,3.92,2.97,5.1,5.1s1.76,4.48,1.76,7.06c0,1.08-.08,2.02-.22,2.8Zm-6.05-8.18c-.86-1.53-2.04-2.67-3.53-3.42-1.49-.75-3.12-1.12-4.87-1.12-2.8,0-5.15.87-7.06,2.6-1.9,1.74-2.93,4.28-3.08,7.64h19.66c.11-2.28-.26-4.18-1.12-5.71Z"/><path class="cls-1" d="m901.75,569.76c2.07,1.49,3.52,3.49,4.34,5.99v-7.84h5.1v31.25c0,2.84-.6,5.36-1.79,7.56-1.2,2.2-2.88,3.92-5.04,5.15-2.17,1.23-4.69,1.85-7.56,1.85-4.14,0-7.52-1-10.14-3-2.61-2-4.28-4.7-4.98-8.09h5.04c.6,2.05,1.73,3.67,3.39,4.84,1.66,1.18,3.8,1.76,6.41,1.76,2.76,0,5.05-.89,6.86-2.66,1.81-1.77,2.72-4.25,2.72-7.42v-8.34c-.82,2.5-2.27,4.5-4.34,5.99-2.07,1.49-4.6,2.24-7.59,2.24-2.73,0-5.15-.63-7.28-1.9-2.13-1.27-3.8-3.09-5.01-5.46-1.21-2.37-1.82-5.16-1.82-8.37s.61-6.01,1.82-8.4c1.21-2.39,2.88-4.22,5.01-5.49,2.13-1.27,4.55-1.9,7.28-1.9,2.99,0,5.52.75,7.59,2.24Zm-13.66,5.29c-1.89,2-2.83,4.75-2.83,8.26s.94,6.26,2.83,8.26c1.88,2,4.4,3,7.53,3,2.02,0,3.82-.47,5.4-1.4,1.59-.93,2.83-2.25,3.72-3.95.9-1.7,1.34-3.67,1.34-5.91s-.45-4.22-1.34-5.94c-.9-1.72-2.14-3.03-3.72-3.95-1.59-.91-3.39-1.37-5.4-1.37-3.14,0-5.65,1-7.53,3Z"/><path class="cls-1" d="m919.42,556.63c.63-.58,1.47-.87,2.52-.87s1.88.29,2.52.87c.63.58.95,1.33.95,2.27s-.32,1.69-.95,2.27c-.64.58-1.48.87-2.52.87s-1.89-.29-2.52-.87c-.64-.58-.95-1.33-.95-2.27s.32-1.69.95-2.27Zm5.04,11.28v30.74h-5.1v-30.74h5.1Z"/><path class="cls-1" d="m960.75,584.37h-24.58c.11,3.51,1.11,6.14,3,7.9,1.88,1.76,4.19,2.63,6.92,2.63,2.46,0,4.53-.62,6.19-1.88,1.66-1.25,2.68-2.92,3.05-5.01h5.43c-.37,2.13-1.2,4.03-2.49,5.71-1.29,1.68-2.96,2.99-5.01,3.92-2.05.93-4.37,1.4-6.94,1.4-2.95,0-5.56-.63-7.84-1.9-2.28-1.27-4.06-3.09-5.35-5.46-1.29-2.37-1.93-5.16-1.93-8.37s.64-6.01,1.93-8.4c1.29-2.39,3.07-4.22,5.35-5.49,2.28-1.27,4.89-1.9,7.84-1.9s5.59.64,7.81,1.9c2.22,1.27,3.92,2.97,5.1,5.1s1.76,4.48,1.76,7.06c0,1.08-.08,2.02-.22,2.8Zm-6.05-8.18c-.86-1.53-2.04-2.67-3.53-3.42-1.49-.75-3.12-1.12-4.87-1.12-2.8,0-5.15.87-7.06,2.6-1.9,1.74-2.93,4.28-3.08,7.64h19.66c.11-2.28-.26-4.18-1.12-5.71Z"/><path class="cls-1" d="m985.69,570.23c2.11,1.81,3.39,4.25,3.84,7.31h-4.87c-.22-1.83-.98-3.33-2.27-4.51-1.29-1.18-3.02-1.76-5.18-1.76-1.83,0-3.26.44-4.28,1.32-1.03.88-1.54,2.06-1.54,3.56,0,1.12.34,2.03,1.04,2.72.69.69,1.55,1.21,2.58,1.57,1.03.36,2.44.74,4.23,1.15,2.28.52,4.12,1.05,5.52,1.6s2.59,1.41,3.58,2.6c.99,1.2,1.48,2.8,1.48,4.82,0,2.5-.94,4.54-2.83,6.1-1.89,1.57-4.4,2.35-7.53,2.35-3.66,0-6.65-.88-8.96-2.63-2.32-1.75-3.68-4.2-4.09-7.34h4.93c.19,1.87,1,3.38,2.44,4.54,1.44,1.16,3.33,1.74,5.68,1.74,1.75,0,3.13-.45,4.12-1.34.99-.9,1.48-2.07,1.48-3.53,0-1.19-.36-2.15-1.06-2.86-.71-.71-1.59-1.25-2.63-1.62-1.05-.37-2.48-.76-4.31-1.18-2.28-.52-4.1-1.04-5.46-1.57-1.36-.52-2.52-1.35-3.47-2.49-.95-1.14-1.43-2.68-1.43-4.62,0-2.58.95-4.66,2.86-6.24,1.9-1.59,4.5-2.38,7.78-2.38,3.47,0,6.26.91,8.37,2.72Z"/><path class="cls-1" d="m1034.83,569.42c2.13,1.27,3.8,3.1,5.01,5.49,1.21,2.39,1.82,5.19,1.82,8.4s-.61,6-1.82,8.37c-1.21,2.37-2.88,4.19-5.01,5.46-2.13,1.27-4.56,1.9-7.28,1.9-2.99,0-5.52-.76-7.59-2.27-2.07-1.51-3.5-3.5-4.28-5.96v7.84h-5.1v-41.44h5.1v18.54c.78-2.46,2.21-4.45,4.28-5.96,2.07-1.51,4.6-2.27,7.59-2.27,2.72,0,5.15.64,7.28,1.9Zm-14.11,4c-1.61.92-2.86,2.23-3.75,3.95-.9,1.72-1.34,3.7-1.34,5.94s.45,4.21,1.34,5.91c.9,1.7,2.15,3.02,3.75,3.95,1.6.93,3.4,1.4,5.38,1.4,3.17,0,5.7-1,7.59-3,1.88-2,2.83-4.75,2.83-8.26s-.94-6.26-2.83-8.26c-1.89-2-4.42-3-7.59-3-1.98,0-3.77.46-5.38,1.37Z"/><path class="cls-1" d="m1068.57,569.76c2.07,1.49,3.52,3.49,4.34,5.99v-7.84h5.1v30.74h-5.1v-7.84c-.82,2.5-2.27,4.5-4.34,5.99-2.07,1.49-4.6,2.24-7.59,2.24-2.73,0-5.15-.63-7.28-1.9-2.13-1.27-3.8-3.09-5.01-5.46-1.21-2.37-1.82-5.16-1.82-8.37s.61-6.01,1.82-8.4c1.21-2.39,2.88-4.22,5.01-5.49,2.13-1.27,4.55-1.9,7.28-1.9,2.99,0,5.52.75,7.59,2.24Zm-13.66,5.29c-1.89,2-2.83,4.75-2.83,8.26s.94,6.26,2.83,8.26c1.88,2,4.4,3,7.53,3,2.02,0,3.82-.47,5.4-1.4,1.59-.93,2.83-2.25,3.72-3.95.9-1.7,1.34-3.67,1.34-5.91s-.45-4.22-1.34-5.94c-.9-1.72-2.14-3.03-3.72-3.95-1.59-.91-3.39-1.37-5.4-1.37-3.14,0-5.65,1-7.53,3Z"/><path class="cls-1" d="m1104.19,570.23c2.11,1.81,3.39,4.25,3.84,7.31h-4.87c-.22-1.83-.98-3.33-2.27-4.51-1.29-1.18-3.02-1.76-5.18-1.76-1.83,0-3.26.44-4.28,1.32-1.03.88-1.54,2.06-1.54,3.56,0,1.12.34,2.03,1.04,2.72.69.69,1.55,1.21,2.58,1.57,1.03.36,2.44.74,4.23,1.15,2.28.52,4.12,1.05,5.52,1.6s2.59,1.41,3.58,2.6c.99,1.2,1.48,2.8,1.48,4.82,0,2.5-.94,4.54-2.83,6.1-1.89,1.57-4.4,2.35-7.53,2.35-3.66,0-6.65-.88-8.96-2.63-2.32-1.75-3.68-4.2-4.09-7.34h4.93c.19,1.87,1,3.38,2.44,4.54,1.44,1.16,3.33,1.74,5.68,1.74,1.75,0,3.13-.45,4.12-1.34.99-.9,1.48-2.07,1.48-3.53,0-1.19-.36-2.15-1.06-2.86-.71-.71-1.59-1.25-2.63-1.62-1.05-.37-2.48-.76-4.31-1.18-2.28-.52-4.1-1.04-5.46-1.57-1.36-.52-2.52-1.35-3.47-2.49-.95-1.14-1.43-2.68-1.43-4.62,0-2.58.95-4.66,2.86-6.24,1.9-1.59,4.5-2.38,7.78-2.38,3.47,0,6.26.91,8.37,2.72Z"/><path class="cls-1" d="m1143.25,584.37h-24.58c.11,3.51,1.11,6.14,3,7.9,1.88,1.76,4.19,2.63,6.92,2.63,2.46,0,4.53-.62,6.19-1.88,1.66-1.25,2.68-2.92,3.05-5.01h5.43c-.37,2.13-1.2,4.03-2.49,5.71-1.29,1.68-2.96,2.99-5.01,3.92-2.05.93-4.37,1.4-6.94,1.4-2.95,0-5.56-.63-7.84-1.9-2.28-1.27-4.06-3.09-5.35-5.46-1.29-2.37-1.93-5.16-1.93-8.37s.64-6.01,1.93-8.4c1.29-2.39,3.07-4.22,5.35-5.49,2.28-1.27,4.89-1.9,7.84-1.9s5.59.64,7.81,1.9c2.22,1.27,3.92,2.97,5.1,5.1s1.76,4.48,1.76,7.06c0,1.08-.08,2.02-.22,2.8Zm-6.05-8.18c-.86-1.53-2.04-2.67-3.53-3.42-1.49-.75-3.12-1.12-4.87-1.12-2.8,0-5.15.87-7.06,2.6-1.9,1.74-2.93,4.28-3.08,7.64h19.66c.11-2.28-.26-4.18-1.12-5.71Z"/><path class="cls-1" d="m1170.38,569.76c2.07,1.49,3.52,3.49,4.34,5.99v-18.54h5.1v41.44h-5.1v-7.84c-.82,2.5-2.27,4.5-4.34,5.99-2.07,1.49-4.6,2.24-7.59,2.24-2.73,0-5.15-.63-7.28-1.9-2.13-1.27-3.8-3.09-5.01-5.46-1.21-2.37-1.82-5.16-1.82-8.37s.61-6.01,1.82-8.4c1.21-2.39,2.88-4.22,5.01-5.49,2.13-1.27,4.55-1.9,7.28-1.9,2.99,0,5.52.75,7.59,2.24Zm-13.66,5.29c-1.89,2-2.83,4.75-2.83,8.26s.94,6.26,2.83,8.26c1.88,2,4.4,3,7.53,3,2.02,0,3.82-.47,5.4-1.4,1.59-.93,2.83-2.25,3.72-3.95.9-1.7,1.34-3.67,1.34-5.91s-.45-4.22-1.34-5.94c-.9-1.72-2.14-3.03-3.72-3.95-1.59-.91-3.39-1.37-5.4-1.37-3.14,0-5.65,1-7.53,3Z"/><path class="cls-1" d="m1223.75,569.42c2.33,1.27,4.16,3.1,5.49,5.49,1.32,2.39,1.99,5.19,1.99,8.4s-.66,6-1.99,8.37c-1.33,2.37-3.16,4.19-5.49,5.46-2.33,1.27-4.98,1.9-7.92,1.9s-5.59-.63-7.92-1.9c-2.33-1.27-4.17-3.09-5.52-5.46-1.34-2.37-2.02-5.16-2.02-8.37s.67-6.01,2.02-8.4c1.34-2.39,3.18-4.22,5.52-5.49,2.33-1.27,4.97-1.9,7.92-1.9s5.59.64,7.92,1.9Zm-12.99,3.81c-1.55.82-2.8,2.08-3.75,3.78-.95,1.7-1.43,3.8-1.43,6.3s.48,4.55,1.43,6.24c.95,1.7,2.2,2.96,3.75,3.78,1.55.82,3.24,1.23,5.07,1.23s3.52-.41,5.07-1.23c1.55-.82,2.8-2.08,3.75-3.78.95-1.7,1.43-3.78,1.43-6.24s-.48-4.6-1.43-6.3c-.95-1.7-2.2-2.96-3.75-3.78-1.55-.82-3.24-1.23-5.07-1.23s-3.52.41-5.07,1.23Z"/><path class="cls-1" d="m1262.81,570.85c2.2,2.3,3.3,5.61,3.3,9.94v17.86h-5.1v-17.42c0-3.06-.78-5.41-2.35-7.06-1.57-1.64-3.7-2.46-6.38-2.46s-5.04.91-6.72,2.72c-1.68,1.81-2.52,4.45-2.52,7.92v16.3h-5.1v-30.74h5.1v7.28c.78-2.5,2.17-4.42,4.17-5.77,2-1.34,4.3-2.02,6.92-2.02,3.58,0,6.48,1.15,8.68,3.44Z"/><path class="cls-1" d="m1308.08,569.76c2.07,1.49,3.52,3.49,4.34,5.99v-7.84h5.1v30.74h-5.1v-7.84c-.82,2.5-2.27,4.5-4.34,5.99-2.07,1.49-4.6,2.24-7.59,2.24-2.73,0-5.15-.63-7.28-1.9-2.13-1.27-3.8-3.09-5.01-5.46-1.21-2.37-1.82-5.16-1.82-8.37s.61-6.01,1.82-8.4c1.21-2.39,2.88-4.22,5.01-5.49,2.13-1.27,4.55-1.9,7.28-1.9,2.99,0,5.52.75,7.59,2.24Zm-13.66,5.29c-1.89,2-2.83,4.75-2.83,8.26s.94,6.26,2.83,8.26c1.88,2,4.4,3,7.53,3,2.02,0,3.82-.47,5.4-1.4,1.59-.93,2.83-2.25,3.72-3.95.9-1.7,1.34-3.67,1.34-5.91s-.45-4.22-1.34-5.94c-.9-1.72-2.14-3.03-3.72-3.95-1.59-.91-3.39-1.37-5.4-1.37-3.14,0-5.65,1-7.53,3Z"/><path class="cls-1" d="m1350.56,570.85c2.2,2.3,3.3,5.61,3.3,9.94v17.86h-5.1v-17.42c0-3.06-.78-5.41-2.35-7.06-1.57-1.64-3.7-2.46-6.38-2.46s-5.04.91-6.72,2.72c-1.68,1.81-2.52,4.45-2.52,7.92v16.3h-5.1v-30.74h5.1v7.28c.78-2.5,2.17-4.42,4.17-5.77,2-1.34,4.3-2.02,6.92-2.02,3.58,0,6.48,1.15,8.68,3.44Z"/><path class="cls-1" d="m1363.88,567.91l9.97,24.19,9.24-24.19h5.66l-18.26,45.3h-5.77l6.38-15.06-12.94-30.24h5.71Z"/><path class="cls-1" d="m1407.4,556.63c.63-.58,1.47-.87,2.52-.87s1.88.29,2.52.87c.63.58.95,1.33.95,2.27s-.32,1.69-.95,2.27c-.64.58-1.48.87-2.52.87s-1.89-.29-2.52-.87c-.64-.58-.95-1.33-.95-2.27s.32-1.69.95-2.27Zm5.04,11.28v30.74h-5.1v-30.74h5.1Z"/><path class="cls-1" d="m1445.53,570.85c2.2,2.3,3.3,5.61,3.3,9.94v17.86h-5.1v-17.42c0-3.06-.78-5.41-2.35-7.06-1.57-1.64-3.7-2.46-6.38-2.46s-5.04.91-6.72,2.72c-1.68,1.81-2.52,4.45-2.52,7.92v16.3h-5.1v-30.74h5.1v7.28c.78-2.5,2.17-4.42,4.17-5.77,2-1.34,4.3-2.02,6.92-2.02,3.58,0,6.48,1.15,8.68,3.44Z"/><path class="cls-1" d="m1476.92,569.76c2.07,1.49,3.52,3.49,4.34,5.99v-18.54h5.1v41.44h-5.1v-7.84c-.82,2.5-2.27,4.5-4.34,5.99-2.07,1.49-4.6,2.24-7.59,2.24-2.73,0-5.15-.63-7.28-1.9-2.13-1.27-3.8-3.09-5.01-5.46-1.21-2.37-1.82-5.16-1.82-8.37s.61-6.01,1.82-8.4c1.21-2.39,2.88-4.22,5.01-5.49,2.13-1.27,4.55-1.9,7.28-1.9,2.99,0,5.52.75,7.59,2.24Zm-13.66,5.29c-1.89,2-2.83,4.75-2.83,8.26s.94,6.26,2.83,8.26c1.88,2,4.4,3,7.53,3,2.02,0,3.82-.47,5.4-1.4,1.59-.93,2.83-2.25,3.72-3.95.9-1.7,1.34-3.67,1.34-5.91s-.45-4.22-1.34-5.94c-.9-1.72-2.14-3.03-3.72-3.95-1.59-.91-3.39-1.37-5.4-1.37-3.14,0-5.65,1-7.53,3Z"/><path class="cls-1" d="m1522.59,584.37h-24.58c.11,3.51,1.11,6.14,3,7.9,1.88,1.76,4.19,2.63,6.92,2.63,2.46,0,4.53-.62,6.19-1.88,1.66-1.25,2.68-2.92,3.05-5.01h5.43c-.37,2.13-1.2,4.03-2.49,5.71-1.29,1.68-2.96,2.99-5.01,3.92-2.05.93-4.37,1.4-6.94,1.4-2.95,0-5.56-.63-7.84-1.9-2.28-1.27-4.06-3.09-5.35-5.46-1.29-2.37-1.93-5.16-1.93-8.37s.64-6.01,1.93-8.4c1.29-2.39,3.07-4.22,5.35-5.49,2.28-1.27,4.89-1.9,7.84-1.9s5.59.64,7.81,1.9c2.22,1.27,3.92,2.97,5.1,5.1s1.76,4.48,1.76,7.06c0,1.08-.08,2.02-.22,2.8Zm-6.05-8.18c-.86-1.53-2.04-2.67-3.53-3.42-1.49-.75-3.12-1.12-4.87-1.12-2.8,0-5.15.87-7.06,2.6-1.9,1.74-2.93,4.28-3.08,7.64h19.66c.11-2.28-.26-4.18-1.12-5.71Z"/><path class="cls-1" d="m1547.23,598.65l-8.01-11.76-7.22,11.76h-5.66l10.08-15.85-10.14-14.9h5.82l7.78,11.42,7.11-11.42h5.66l-10.02,15.46,10.42,15.29h-5.82Z"/><path class="cls-1" d="m1593.62,569.42c2.33,1.27,4.16,3.1,5.49,5.49,1.32,2.39,1.99,5.19,1.99,8.4s-.66,6-1.99,8.37c-1.33,2.37-3.16,4.19-5.49,5.46-2.33,1.27-4.98,1.9-7.92,1.9s-5.59-.63-7.92-1.9c-2.33-1.27-4.17-3.09-5.52-5.46-1.34-2.37-2.02-5.16-2.02-8.37s.67-6.01,2.02-8.4c1.34-2.39,3.18-4.22,5.52-5.49,2.33-1.27,4.97-1.9,7.92-1.9s5.59.64,7.92,1.9Zm-12.99,3.81c-1.55.82-2.8,2.08-3.75,3.78-.95,1.7-1.43,3.8-1.43,6.3s.48,4.55,1.43,6.24c.95,1.7,2.2,2.96,3.75,3.78,1.55.82,3.24,1.23,5.07,1.23s3.52-.41,5.07-1.23c1.55-.82,2.8-2.08,3.75-3.78.95-1.7,1.43-3.78,1.43-6.24s-.48-4.6-1.43-6.3c-.95-1.7-2.2-2.96-3.75-3.78-1.55-.82-3.24-1.23-5.07-1.23s-3.52.41-5.07,1.23Z"/><path class="cls-1" d="m1617.34,569.17c1.94-1.18,4.26-1.76,6.94-1.76v5.54h-1.57c-2.88,0-5.23.74-7.06,2.21-1.83,1.47-2.74,3.91-2.74,7.31v16.18h-5.1v-30.74h5.1v6.22c1.01-2.13,2.48-3.78,4.42-4.96Z"/><path class="cls-1" d="m1648.36,563.32v13.5h15.01v3.92h-15.01v13.78h16.69v4.14h-21.78v-39.48h21.78v4.14h-16.69Z"/><path class="cls-1" d="m1695.85,559.17v4.14h-11.14v35.34h-5.1v-35.34h-11.14v-4.14h27.38Z"/><path class="cls-1" d="m1723.29,559.17v4.14h-17.25v13.66h14.62v3.98h-14.62v17.7h-5.1v-39.48h22.34Z"/><path class="cls-1" d="m374.21,745.08c1.34-1.34,2.97-2.02,4.87-2.02s3.57.67,4.9,2.02c1.32,1.34,1.99,2.99,1.99,4.93s-.66,3.52-1.99,4.84c-1.33,1.33-2.96,1.99-4.9,1.99s-3.53-.66-4.87-1.99c-1.34-1.32-2.02-2.94-2.02-4.84s.67-3.58,2.02-4.93Z"/><path class="cls-1" d="m411.84,729.17v23.69c0,3.88.86,6.75,2.58,8.6,1.72,1.85,4.09,2.77,7.11,2.77s5.32-.93,7-2.8c1.68-1.87,2.52-4.72,2.52-8.57v-23.69h5.1v23.69c0,5.38-1.34,9.42-4,12.12-2.67,2.71-6.24,4.06-10.72,4.06s-8-1.35-10.67-4.06c-2.67-2.71-4-6.75-4-12.12v-23.69h5.1Z"/><path class="cls-1" d="m458.77,764.17v4.48h-3.81c-3.14,0-5.48-.75-7.03-2.24-1.55-1.49-2.32-3.99-2.32-7.5v-16.58h-4.59v-4.42h4.59v-7.67h5.15v7.67h7.95v4.42h-7.95v16.69c0,1.98.36,3.33,1.09,4.06.73.73,1.99,1.09,3.78,1.09h3.14Z"/><path class="cls-1" d="m465.1,726.63c.63-.58,1.47-.87,2.52-.87s1.88.29,2.52.87c.63.58.95,1.33.95,2.27s-.32,1.69-.95,2.27c-.64.58-1.48.87-2.52.87s-1.89-.29-2.52-.87c-.64-.58-.95-1.33-.95-2.27s.32-1.69.95-2.27Zm5.04,11.28v30.74h-5.1v-30.74h5.1Z"/><path class="cls-1" d="m483.47,727.21v41.44h-5.1v-41.44h5.1Z"/><path class="cls-1" d="m491.75,726.63c.63-.58,1.47-.87,2.52-.87s1.88.29,2.52.87c.63.58.95,1.33.95,2.27s-.32,1.69-.95,2.27c-.64.58-1.48.87-2.52.87s-1.89-.29-2.52-.87c-.64-.58-.95-1.33-.95-2.27s.32-1.69.95-2.27Zm5.04,11.28v30.74h-5.1v-30.74h5.1Z"/><path class="cls-1" d="m507.99,764.34h16.46v4.31h-22.06v-4.09l15.68-22.34h-15.23v-4.31h21.06v4.14l-15.9,22.29Z"/><path class="cls-1" d="m558.11,754.37h-24.58c.11,3.51,1.11,6.14,3,7.9,1.88,1.76,4.19,2.63,6.92,2.63,2.46,0,4.53-.62,6.19-1.88,1.66-1.25,2.68-2.92,3.05-5.01h5.43c-.37,2.13-1.2,4.03-2.49,5.71-1.29,1.68-2.96,2.99-5.01,3.92-2.05.93-4.37,1.4-6.94,1.4-2.95,0-5.56-.63-7.84-1.9-2.28-1.27-4.06-3.09-5.35-5.46-1.29-2.37-1.93-5.16-1.93-8.37s.64-6.01,1.93-8.4c1.29-2.39,3.07-4.22,5.35-5.49,2.28-1.27,4.89-1.9,7.84-1.9s5.59.64,7.81,1.9c2.22,1.27,3.92,2.97,5.1,5.1s1.76,4.48,1.76,7.06c0,1.08-.08,2.02-.22,2.8Zm-6.05-8.18c-.86-1.53-2.04-2.67-3.53-3.42-1.49-.75-3.12-1.12-4.87-1.12-2.8,0-5.15.87-7.06,2.6-1.9,1.74-2.93,4.28-3.08,7.64h19.66c.11-2.28-.26-4.18-1.12-5.71Z"/><path class="cls-1" d="m609.63,768.65h-5.1l-20.5-31.19v31.19h-5.1v-39.48h5.1l20.5,31.25v-31.25h5.1v39.48Z"/><path class="cls-1" d="m645.92,754.37h-24.58c.11,3.51,1.11,6.14,3,7.9,1.88,1.76,4.19,2.63,6.92,2.63,2.46,0,4.53-.62,6.19-1.88,1.66-1.25,2.68-2.92,3.05-5.01h5.43c-.37,2.13-1.2,4.03-2.49,5.71-1.29,1.68-2.96,2.99-5.01,3.92-2.05.93-4.37,1.4-6.94,1.4-2.95,0-5.56-.63-7.84-1.9-2.28-1.27-4.06-3.09-5.35-5.46-1.29-2.37-1.93-5.16-1.93-8.37s.64-6.01,1.93-8.4c1.29-2.39,3.07-4.22,5.35-5.49,2.28-1.27,4.89-1.9,7.84-1.9s5.59.64,7.81,1.9c2.22,1.27,3.92,2.97,5.1,5.1s1.76,4.48,1.76,7.06c0,1.08-.08,2.02-.22,2.8Zm-6.05-8.18c-.86-1.53-2.04-2.67-3.53-3.42-1.49-.75-3.12-1.12-4.87-1.12-2.8,0-5.15.87-7.06,2.6-1.9,1.74-2.93,4.28-3.08,7.64h19.66c.11-2.28-.26-4.18-1.12-5.71Z"/><path class="cls-1" d="m695.09,737.91l-8.85,30.74h-5.49l-8.46-25.03-8.51,25.03h-5.54l-8.74-30.74h5.15l6.55,25.87,8.51-25.87h5.32l8.57,25.82,6.61-25.82h4.87Z"/><path class="cls-1" d="m736.92,759.53h-17.36l-3.3,9.13h-5.49l14.62-38.75h5.77l14.56,38.75h-5.49l-3.3-9.13Zm-1.46-3.98l-7.22-19.94-7.22,19.94h14.45Z"/><path class="cls-1" d="m771.11,739.76c2.07,1.49,3.52,3.49,4.34,5.99v-7.84h5.1v31.25c0,2.84-.6,5.36-1.79,7.56-1.2,2.2-2.88,3.92-5.04,5.15-2.17,1.23-4.69,1.85-7.56,1.85-4.14,0-7.52-1-10.14-3-2.61-2-4.28-4.7-4.98-8.09h5.04c.6,2.05,1.73,3.67,3.39,4.84,1.66,1.18,3.8,1.76,6.41,1.76,2.76,0,5.05-.89,6.86-2.66,1.81-1.77,2.72-4.25,2.72-7.42v-8.34c-.82,2.5-2.27,4.5-4.34,5.99-2.07,1.49-4.6,2.24-7.59,2.24-2.73,0-5.15-.63-7.28-1.9-2.13-1.27-3.8-3.09-5.01-5.46-1.21-2.37-1.82-5.16-1.82-8.37s.61-6.01,1.82-8.4c1.21-2.39,2.88-4.22,5.01-5.49,2.13-1.27,4.55-1.9,7.28-1.9,2.99,0,5.52.75,7.59,2.24Zm-13.66,5.29c-1.89,2-2.83,4.75-2.83,8.26s.94,6.26,2.83,8.26c1.88,2,4.4,3,7.53,3,2.02,0,3.82-.47,5.4-1.4,1.59-.93,2.83-2.25,3.72-3.95.9-1.7,1.34-3.67,1.34-5.91s-.45-4.22-1.34-5.94c-.9-1.72-2.14-3.03-3.72-3.95-1.59-.91-3.39-1.37-5.4-1.37-3.14,0-5.65,1-7.53,3Z"/><path class="cls-1" d="m816.77,754.37h-24.58c.11,3.51,1.11,6.14,3,7.9,1.88,1.76,4.19,2.63,6.92,2.63,2.46,0,4.53-.62,6.19-1.88,1.66-1.25,2.68-2.92,3.05-5.01h5.43c-.37,2.13-1.2,4.03-2.49,5.71-1.29,1.68-2.96,2.99-5.01,3.92-2.05.93-4.37,1.4-6.94,1.4-2.95,0-5.56-.63-7.84-1.9-2.28-1.27-4.06-3.09-5.35-5.46-1.29-2.37-1.93-5.16-1.93-8.37s.64-6.01,1.93-8.4c1.29-2.39,3.07-4.22,5.35-5.49,2.28-1.27,4.89-1.9,7.84-1.9s5.59.64,7.81,1.9c2.22,1.27,3.92,2.97,5.1,5.1s1.76,4.48,1.76,7.06c0,1.08-.08,2.02-.22,2.8Zm-6.05-8.18c-.86-1.53-2.04-2.67-3.53-3.42-1.49-.75-3.12-1.12-4.87-1.12-2.8,0-5.15.87-7.06,2.6-1.9,1.74-2.93,4.28-3.08,7.64h19.66c.11-2.28-.26-4.18-1.12-5.71Z"/><path class="cls-1" d="m860.73,759.53h-17.36l-3.3,9.13h-5.49l14.62-38.75h5.77l14.56,38.75h-5.49l-3.3-9.13Zm-1.46-3.98l-7.22-19.94-7.22,19.94h14.45Z"/><path class="cls-1" d="m879.83,727.21v41.44h-5.1v-41.44h5.1Z"/><path class="cls-1" d="m912.31,739.42c2.13,1.27,3.8,3.1,5.01,5.49,1.21,2.39,1.82,5.19,1.82,8.4s-.61,6-1.82,8.37c-1.21,2.37-2.88,4.19-5.01,5.46-2.13,1.27-4.56,1.9-7.28,1.9-2.99,0-5.52-.76-7.59-2.27-2.07-1.51-3.5-3.5-4.28-5.96v22.4h-5.1v-45.3h5.1v7.84c.78-2.46,2.21-4.45,4.28-5.96,2.07-1.51,4.6-2.27,7.59-2.27,2.72,0,5.15.64,7.28,1.9Zm-14.11,4c-1.61.92-2.86,2.23-3.75,3.95-.9,1.72-1.34,3.7-1.34,5.94s.45,4.21,1.34,5.91c.9,1.7,2.15,3.02,3.75,3.95,1.6.93,3.4,1.4,5.38,1.4,3.17,0,5.7-1,7.59-3,1.88-2,2.83-4.75,2.83-8.26s-.94-6.26-2.83-8.26c-1.89-2-4.42-3-7.59-3-1.98,0-3.77.46-5.38,1.37Z"/><path class="cls-1" d="m950.72,740.85c2.2,2.3,3.3,5.61,3.3,9.94v17.86h-5.1v-17.42c0-3.06-.78-5.41-2.35-7.06-1.57-1.64-3.7-2.46-6.38-2.46s-5.04.91-6.72,2.72c-1.68,1.81-2.52,4.45-2.52,7.92v16.3h-5.1v-41.44h5.1v17.98c.78-2.5,2.17-4.42,4.17-5.77,2-1.34,4.3-2.02,6.92-2.02,3.58,0,6.48,1.15,8.68,3.44Z"/><path class="cls-1" d="m982.11,739.76c2.07,1.49,3.52,3.49,4.34,5.99v-7.84h5.1v30.74h-5.1v-7.84c-.82,2.5-2.27,4.5-4.34,5.99-2.07,1.49-4.6,2.24-7.59,2.24-2.73,0-5.15-.63-7.28-1.9-2.13-1.27-3.8-3.09-5.01-5.46-1.21-2.37-1.82-5.16-1.82-8.37s.61-6.01,1.82-8.4c1.21-2.39,2.88-4.22,5.01-5.49,2.13-1.27,4.55-1.9,7.28-1.9,2.99,0,5.52.75,7.59,2.24Zm-13.66,5.29c-1.89,2-2.83,4.75-2.83,8.26s.94,6.26,2.83,8.26c1.88,2,4.4,3,7.53,3,2.02,0,3.82-.47,5.4-1.4,1.59-.93,2.83-2.25,3.72-3.95.9-1.7,1.34-3.67,1.34-5.91s-.45-4.22-1.34-5.94c-.9-1.72-2.14-3.03-3.72-3.95-1.59-.91-3.39-1.37-5.4-1.37-3.14,0-5.65,1-7.53,3Z"/><path class="cls-1" d="m1003.53,729.68c0,2.09-.48,3.67-1.43,4.73-.95,1.06-2.36,1.6-4.23,1.6v-2.3c.97,0,1.66-.25,2.07-.76.41-.5.62-1.28.62-2.32v-1.29h-2.8v-4.82h5.15c.41,1.79.62,3.51.62,5.15Z"/><path class="cls-1" d="m1027.75,740.23c2.11,1.81,3.39,4.25,3.84,7.31h-4.87c-.22-1.83-.98-3.33-2.27-4.51-1.29-1.18-3.02-1.76-5.18-1.76-1.83,0-3.26.44-4.28,1.32-1.03.88-1.54,2.06-1.54,3.56,0,1.12.34,2.03,1.04,2.72.69.69,1.55,1.21,2.58,1.57,1.03.36,2.44.74,4.23,1.15,2.28.52,4.12,1.05,5.52,1.6s2.59,1.41,3.58,2.6c.99,1.2,1.48,2.8,1.48,4.82,0,2.5-.94,4.54-2.83,6.1-1.89,1.57-4.4,2.35-7.53,2.35-3.66,0-6.65-.88-8.96-2.63-2.32-1.75-3.68-4.2-4.09-7.34h4.93c.19,1.87,1,3.38,2.44,4.54,1.44,1.16,3.33,1.74,5.68,1.74,1.75,0,3.13-.45,4.12-1.34.99-.9,1.48-2.07,1.48-3.53,0-1.19-.36-2.15-1.06-2.86-.71-.71-1.59-1.25-2.63-1.62-1.05-.37-2.48-.76-4.31-1.18-2.28-.52-4.1-1.04-5.46-1.57-1.36-.52-2.52-1.35-3.47-2.49-.95-1.14-1.43-2.68-1.43-4.62,0-2.58.95-4.66,2.86-6.24,1.9-1.59,4.5-2.38,7.78-2.38,3.47,0,6.26.91,8.37,2.72Z"/><path class="cls-1" d="m1057.74,752.75v15.9h-5.1v-39.48h12.54c4.52,0,7.9,1.05,10.14,3.16,2.24,2.11,3.36,4.99,3.36,8.65s-1.16,6.58-3.47,8.65c-2.31,2.07-5.66,3.11-10.02,3.11h-7.45Zm13.69-6.22c1.36-1.31,2.04-3.16,2.04-5.54s-.68-4.34-2.04-5.63c-1.36-1.29-3.59-1.93-6.69-1.93h-7v15.06h7c3.1,0,5.33-.65,6.69-1.96Z"/><path class="cls-1" d="m1094.19,739.17c1.94-1.18,4.26-1.76,6.94-1.76v5.54h-1.57c-2.88,0-5.23.74-7.06,2.21-1.83,1.47-2.74,3.91-2.74,7.31v16.18h-5.1v-30.74h5.1v6.22c1.01-2.13,2.48-3.78,4.42-4.96Z"/><path class="cls-1" d="m1128.1,739.42c2.33,1.27,4.16,3.1,5.49,5.49,1.32,2.39,1.99,5.19,1.99,8.4s-.66,6-1.99,8.37c-1.33,2.37-3.16,4.19-5.49,5.46-2.33,1.27-4.98,1.9-7.92,1.9s-5.59-.63-7.92-1.9c-2.33-1.27-4.17-3.09-5.52-5.46-1.34-2.37-2.02-5.16-2.02-8.37s.67-6.01,2.02-8.4c1.34-2.39,3.18-4.22,5.52-5.49,2.33-1.27,4.97-1.9,7.92-1.9s5.59.64,7.92,1.9Zm-12.99,3.81c-1.55.82-2.8,2.08-3.75,3.78-.95,1.7-1.43,3.8-1.43,6.3s.48,4.55,1.43,6.24c.95,1.7,2.2,2.96,3.75,3.78,1.55.82,3.24,1.23,5.07,1.23s3.52-.41,5.07-1.23c1.55-.82,2.8-2.08,3.75-3.78.95-1.7,1.43-3.78,1.43-6.24s-.48-4.6-1.43-6.3c-.95-1.7-2.2-2.96-3.75-3.78-1.55-.82-3.24-1.23-5.07-1.23s-3.52.41-5.07,1.23Z"/><path class="cls-1" d="m1166.54,739.42c2.13,1.27,3.8,3.1,5.01,5.49,1.21,2.39,1.82,5.19,1.82,8.4s-.61,6-1.82,8.37c-1.21,2.37-2.88,4.19-5.01,5.46-2.13,1.27-4.56,1.9-7.28,1.9-2.99,0-5.52-.76-7.59-2.27-2.07-1.51-3.5-3.5-4.28-5.96v22.4h-5.1v-45.3h5.1v7.84c.78-2.46,2.21-4.45,4.28-5.96,2.07-1.51,4.6-2.27,7.59-2.27,2.72,0,5.15.64,7.28,1.9Zm-14.11,4c-1.61.92-2.86,2.23-3.75,3.95-.9,1.72-1.34,3.7-1.34,5.94s.45,4.21,1.34,5.91c.9,1.7,2.15,3.02,3.75,3.95,1.6.93,3.4,1.4,5.38,1.4,3.17,0,5.7-1,7.59-3,1.88-2,2.83-4.75,2.83-8.26s-.94-6.26-2.83-8.26c-1.89-2-4.42-3-7.59-3-1.98,0-3.77.46-5.38,1.37Z"/><path class="cls-1" d="m1189.62,739.17c1.94-1.18,4.26-1.76,6.94-1.76v5.54h-1.57c-2.88,0-5.23.74-7.06,2.21-1.83,1.47-2.74,3.91-2.74,7.31v16.18h-5.1v-30.74h5.1v6.22c1.01-2.13,2.48-3.78,4.42-4.96Z"/><path class="cls-1" d="m1201.71,726.63c.63-.58,1.47-.87,2.52-.87s1.88.29,2.52.87c.63.58.95,1.33.95,2.27s-.32,1.69-.95,2.27c-.64.58-1.48.87-2.52.87s-1.89-.29-2.52-.87c-.64-.58-.95-1.33-.95-2.27s.32-1.69.95-2.27Zm5.04,11.28v30.74h-5.1v-30.74h5.1Z"/><path class="cls-1" d="m1243.04,754.37h-24.58c.11,3.51,1.11,6.14,3,7.9,1.88,1.76,4.19,2.63,6.92,2.63,2.46,0,4.53-.62,6.19-1.88,1.66-1.25,2.68-2.92,3.05-5.01h5.43c-.37,2.13-1.2,4.03-2.49,5.71-1.29,1.68-2.96,2.99-5.01,3.92-2.05.93-4.37,1.4-6.94,1.4-2.95,0-5.56-.63-7.84-1.9-2.28-1.27-4.06-3.09-5.35-5.46-1.29-2.37-1.93-5.16-1.93-8.37s.64-6.01,1.93-8.4c1.29-2.39,3.07-4.22,5.35-5.49,2.28-1.27,4.89-1.9,7.84-1.9s5.59.64,7.81,1.9c2.22,1.27,3.92,2.97,5.1,5.1s1.76,4.48,1.76,7.06c0,1.08-.08,2.02-.22,2.8Zm-6.05-8.18c-.86-1.53-2.04-2.67-3.53-3.42-1.49-.75-3.12-1.12-4.87-1.12-2.8,0-5.15.87-7.06,2.6-1.9,1.74-2.93,4.28-3.08,7.64h19.66c.11-2.28-.26-4.18-1.12-5.71Z"/><path class="cls-1" d="m1264.66,764.17v4.48h-3.81c-3.14,0-5.48-.75-7.03-2.24-1.55-1.49-2.32-3.99-2.32-7.5v-16.58h-4.59v-4.42h4.59v-7.67h5.15v7.67h7.95v4.42h-7.95v16.69c0,1.98.36,3.33,1.09,4.06.73.73,1.99,1.09,3.78,1.09h3.14Z"/><path class="cls-1" d="m1291.11,739.76c2.07,1.49,3.52,3.49,4.34,5.99v-7.84h5.1v30.74h-5.1v-7.84c-.82,2.5-2.27,4.5-4.34,5.99-2.07,1.49-4.6,2.24-7.59,2.24-2.73,0-5.15-.63-7.28-1.9-2.13-1.27-3.8-3.09-5.01-5.46-1.21-2.37-1.82-5.16-1.82-8.37s.61-6.01,1.82-8.4c1.21-2.39,2.88-4.22,5.01-5.49,2.13-1.27,4.55-1.9,7.28-1.9,2.99,0,5.52.75,7.59,2.24Zm-13.66,5.29c-1.89,2-2.83,4.75-2.83,8.26s.94,6.26,2.83,8.26c1.88,2,4.4,3,7.53,3,2.02,0,3.82-.47,5.4-1.4,1.59-.93,2.83-2.25,3.72-3.95.9-1.7,1.34-3.67,1.34-5.91s-.45-4.22-1.34-5.94c-.9-1.72-2.14-3.03-3.72-3.95-1.59-.91-3.39-1.37-5.4-1.37-3.14,0-5.65,1-7.53,3Z"/><path class="cls-1" d="m1318.25,739.17c1.94-1.18,4.26-1.76,6.94-1.76v5.54h-1.57c-2.88,0-5.23.74-7.06,2.21-1.83,1.47-2.74,3.91-2.74,7.31v16.18h-5.1v-30.74h5.1v6.22c1.01-2.13,2.48-3.78,4.42-4.96Z"/><path class="cls-1" d="m1332.41,737.91l9.97,24.19,9.24-24.19h5.66l-18.26,45.3h-5.77l6.38-15.06-12.94-30.24h5.71Z"/><path class="cls-1" d="m1383.26,735.39v10.25h14v6.05h-14v10.64h15.68v6.33h-23.58v-39.54h23.58v6.27h-15.68Z"/><path class="cls-1" d="m1423.69,768.65l-7.06-9.97-5.94,9.97h-8.68l10.25-16.18-10.47-14.84h8.85l6.89,9.8,5.94-9.8h8.68l-10.42,15.74,10.81,15.29h-8.85Z"/><path class="cls-1" d="m1462.22,739.14c2.09,1.27,3.72,3.11,4.9,5.52,1.18,2.41,1.76,5.24,1.76,8.48s-.59,6.08-1.76,8.48c-1.18,2.41-2.81,4.25-4.9,5.52-2.09,1.27-4.44,1.9-7.06,1.9s-4.84-.62-6.69-1.88c-1.85-1.25-3.16-2.92-3.95-5.01v21.28h-7.9v-45.81h7.9v6.44c.78-2.09,2.1-3.75,3.95-4.98,1.85-1.23,4.08-1.85,6.69-1.85s4.96.63,7.06,1.9Zm-15.43,7.42c-1.55,1.62-2.32,3.82-2.32,6.58s.77,4.9,2.32,6.52c1.55,1.62,3.52,2.44,5.91,2.44s4.44-.79,5.94-2.38c1.49-1.59,2.24-3.78,2.24-6.58s-.75-5-2.24-6.61c-1.49-1.61-3.47-2.41-5.94-2.41s-4.36.81-5.91,2.44Z"/><path class="cls-1" d="m1503.43,754.65h-22.74c.11,2.76.86,4.8,2.24,6.1,1.38,1.31,3.1,1.96,5.15,1.96,1.83,0,3.35-.45,4.56-1.34,1.21-.9,1.99-2.11,2.32-3.64h8.34c-.41,2.17-1.29,4.11-2.63,5.82-1.34,1.72-3.07,3.06-5.18,4.03-2.11.97-4.45,1.46-7.03,1.46-3.02,0-5.71-.64-8.06-1.93-2.35-1.29-4.18-3.13-5.49-5.52-1.31-2.39-1.96-5.21-1.96-8.46s.65-6.08,1.96-8.48c1.31-2.41,3.14-4.25,5.49-5.52,2.35-1.27,5.04-1.9,8.06-1.9s5.74.63,8.04,1.9c2.3,1.27,4.07,3.02,5.32,5.24,1.25,2.22,1.88,4.75,1.88,7.59,0,.78-.09,1.68-.28,2.69Zm-9.66-9.24c-1.44-1.31-3.2-1.96-5.29-1.96s-3.92.65-5.38,1.96-2.26,3.23-2.41,5.77h15.06c.11-2.54-.55-4.46-1.99-5.77Z"/><path class="cls-1" d="m1533.31,740.49c2.67,2.17,4.34,5.12,5.01,8.85h-8.34c-.34-1.64-1.1-2.94-2.3-3.89-1.2-.95-2.71-1.43-4.54-1.43-2.09,0-3.84.78-5.24,2.32-1.4,1.55-2.1,3.82-2.1,6.8s.7,5.26,2.1,6.8c1.4,1.55,3.14,2.32,5.24,2.32,1.83,0,3.34-.48,4.54-1.43,1.19-.95,1.96-2.25,2.3-3.89h8.34c-.67,3.73-2.34,6.68-5.01,8.85-2.67,2.17-6,3.25-10,3.25-3.02,0-5.71-.64-8.06-1.93-2.35-1.29-4.18-3.13-5.49-5.52-1.31-2.39-1.96-5.21-1.96-8.46s.65-6.08,1.96-8.48c1.31-2.41,3.14-4.25,5.49-5.52,2.35-1.27,5.04-1.9,8.06-1.9,3.99,0,7.33,1.08,10,3.25Z"/><path class="cls-1" d="m1560.55,761.88v6.78h-4.14c-3.47,0-6.13-.84-7.98-2.52-1.85-1.68-2.77-4.48-2.77-8.4v-13.44h-4.31v-6.66h4.31v-7.67h7.9v7.67h6.94v6.66h-6.94v13.55c0,1.49.3,2.54.9,3.14.6.6,1.6.9,3.02.9h3.08Z"/><path class="cls-1" d="m1585.14,739.09c1.87,1.23,3.19,2.89,3.98,4.98v-6.44h7.84v31.02h-7.84v-6.5c-.78,2.09-2.11,3.76-3.98,5.01-1.87,1.25-4.11,1.88-6.72,1.88s-4.97-.63-7.06-1.9c-2.09-1.27-3.72-3.11-4.9-5.52-1.18-2.41-1.76-5.24-1.76-8.48s.59-6.08,1.76-8.48c1.18-2.41,2.81-4.25,4.9-5.52,2.09-1.27,4.44-1.9,7.06-1.9s4.85.62,6.72,1.85Zm-10.19,7.45c-1.49,1.61-2.24,3.81-2.24,6.61s.75,4.99,2.24,6.58c1.49,1.59,3.47,2.38,5.94,2.38s4.36-.81,5.91-2.44c1.55-1.62,2.32-3.8,2.32-6.52s-.78-4.96-2.32-6.58c-1.55-1.62-3.52-2.44-5.91-2.44s-4.44.8-5.94,2.41Z"/><path class="cls-1" d="m1620.75,761.88v6.78h-4.14c-3.47,0-6.13-.84-7.98-2.52-1.85-1.68-2.77-4.48-2.77-8.4v-13.44h-4.31v-6.66h4.31v-7.67h7.9v7.67h6.94v6.66h-6.94v13.55c0,1.49.3,2.54.9,3.14.6.6,1.6.9,3.02.9h3.08Z"/><path class="cls-1" d="m1626.91,725.62c.9-.8,2.07-1.2,3.53-1.2s2.63.4,3.53,1.2,1.34,1.84,1.34,3.11-.45,2.25-1.34,3.05c-.9.8-2.07,1.2-3.53,1.2s-2.63-.4-3.53-1.2c-.9-.8-1.34-1.82-1.34-3.05s.45-2.3,1.34-3.11Zm7.45,12.01v31.02h-7.9v-31.02h7.9Z"/><path class="cls-1" d="m1664.07,739.14c2.41,1.27,4.3,3.11,5.68,5.52,1.38,2.41,2.07,5.24,2.07,8.48s-.69,6.07-2.07,8.46c-1.38,2.39-3.28,4.23-5.68,5.52-2.41,1.29-5.12,1.93-8.15,1.93s-5.74-.64-8.15-1.93c-2.41-1.29-4.3-3.13-5.68-5.52-1.38-2.39-2.07-5.21-2.07-8.46s.69-6.08,2.07-8.48c1.38-2.41,3.28-4.25,5.68-5.52,2.41-1.27,5.12-1.9,8.15-1.9s5.74.63,8.15,1.9Zm-13.75,7.25c-1.53,1.55-2.3,3.8-2.3,6.75s.76,5.2,2.3,6.75c1.53,1.55,3.4,2.32,5.6,2.32s4.07-.77,5.6-2.32c1.53-1.55,2.3-3.8,2.3-6.75s-.77-5.2-2.3-6.75c-1.53-1.55-3.4-2.32-5.6-2.32s-4.07.77-5.6,2.32Z"/><path class="cls-1" d="m1704.53,740.71c2.13,2.35,3.19,5.66,3.19,9.91v18.03h-7.84v-17.14c0-2.46-.64-4.38-1.9-5.74-1.27-1.36-3.01-2.04-5.21-2.04s-4.03.73-5.38,2.18c-1.34,1.46-2.02,3.55-2.02,6.27v16.46h-7.9v-31.02h7.9v6.22c.82-2.09,2.17-3.72,4.06-4.9,1.88-1.18,4.06-1.76,6.52-1.76,3.58,0,6.44,1.18,8.57,3.53Z"/><path class="cls-1" d="m1747.59,768.65l-9.24-15.4h-3.47v15.4h-7.9v-39.54h15.06c4.59,0,8.09,1.12,10.5,3.36,2.41,2.24,3.61,5.19,3.61,8.85,0,2.99-.83,5.49-2.49,7.5-1.66,2.02-4.06,3.36-7.2,4.03l9.86,15.79h-8.74Zm-12.71-20.83h6.5c4.52,0,6.78-2,6.78-5.99,0-1.9-.55-3.39-1.65-4.45-1.1-1.06-2.81-1.6-5.12-1.6h-6.5v12.04Z"/><path class="cls-1" d="m1761.98,725.62c.9-.8,2.07-1.2,3.53-1.2s2.63.4,3.53,1.2,1.34,1.84,1.34,3.11-.45,2.25-1.34,3.05c-.9.8-2.07,1.2-3.53,1.2s-2.63-.4-3.53-1.2c-.9-.8-1.34-1.82-1.34-3.05s.45-2.3,1.34-3.11Zm7.45,12.01v31.02h-7.9v-31.02h7.9Z"/><path class="cls-1" d="m1796.42,740.09c2.28,1.9,3.7,4.44,4.26,7.62h-7.39c-.3-1.49-.97-2.69-2.02-3.58-1.05-.9-2.41-1.34-4.09-1.34-1.34,0-2.39.32-3.14.95-.75.64-1.12,1.49-1.12,2.58,0,.86.3,1.55.9,2.07.6.52,1.34.93,2.24,1.23.9.3,2.18.65,3.86,1.06,2.35.52,4.26,1.07,5.74,1.65,1.47.58,2.74,1.49,3.81,2.74s1.6,2.94,1.6,5.07c0,2.65-1.04,4.8-3.11,6.44-2.07,1.64-4.86,2.46-8.37,2.46-4.03,0-7.26-.91-9.69-2.72-2.43-1.81-3.9-4.4-4.42-7.76h7.56c.19,1.53.86,2.73,2.02,3.61,1.16.88,2.67,1.32,4.54,1.32,1.34,0,2.37-.33,3.08-.98.71-.65,1.06-1.5,1.06-2.55,0-.9-.31-1.62-.92-2.18-.62-.56-1.38-.99-2.3-1.29-.92-.3-2.21-.65-3.89-1.06-2.31-.52-4.19-1.05-5.63-1.6-1.44-.54-2.67-1.41-3.7-2.6-1.03-1.2-1.54-2.84-1.54-4.93,0-2.69,1.03-4.87,3.08-6.55,2.05-1.68,4.89-2.52,8.51-2.52s6.79.95,9.07,2.86Z"/><path class="cls-1" d="m1825.15,768.65l-10.25-13.55v13.55h-7.9v-41.44h7.9v23.3l10.19-12.88h9.35l-13.05,15.46,13.38,15.57h-9.63Z"/><path class="cls-1" d="m1875.44,729.12v6.27h-16.63v10.58h13.33v6.05h-13.33v16.63h-7.9v-39.54h24.53Z"/><path class="cls-1" d="m1899.68,739.09c1.87,1.23,3.19,2.89,3.98,4.98v-6.44h7.84v31.02h-7.84v-6.5c-.78,2.09-2.11,3.76-3.98,5.01-1.87,1.25-4.11,1.88-6.72,1.88s-4.97-.63-7.06-1.9c-2.09-1.27-3.72-3.11-4.9-5.52-1.18-2.41-1.76-5.24-1.76-8.48s.59-6.08,1.76-8.48c1.18-2.41,2.81-4.25,4.9-5.52,2.09-1.27,4.44-1.9,7.06-1.9s4.85.62,6.72,1.85Zm-10.19,7.45c-1.49,1.61-2.24,3.81-2.24,6.61s.75,4.99,2.24,6.58c1.49,1.59,3.47,2.38,5.94,2.38s4.36-.81,5.91-2.44c1.55-1.62,2.32-3.8,2.32-6.52s-.78-4.96-2.32-6.58c-1.55-1.62-3.52-2.44-5.91-2.44s-4.44.8-5.94,2.41Z"/><path class="cls-1" d="m1942.66,740.49c2.67,2.17,4.34,5.12,5.01,8.85h-8.34c-.34-1.64-1.1-2.94-2.3-3.89-1.2-.95-2.71-1.43-4.54-1.43-2.09,0-3.84.78-5.24,2.32-1.4,1.55-2.1,3.82-2.1,6.8s.7,5.26,2.1,6.8c1.4,1.55,3.14,2.32,5.24,2.32,1.83,0,3.34-.48,4.54-1.43,1.19-.95,1.96-2.25,2.3-3.89h8.34c-.67,3.73-2.34,6.68-5.01,8.85-2.67,2.17-6,3.25-10,3.25-3.02,0-5.71-.64-8.06-1.93-2.35-1.29-4.18-3.13-5.49-5.52-1.31-2.39-1.96-5.21-1.96-8.46s.65-6.08,1.96-8.48c1.31-2.41,3.14-4.25,5.49-5.52,2.35-1.27,5.04-1.9,8.06-1.9,3.99,0,7.33,1.08,10,3.25Z"/><path class="cls-1" d="m1969.91,761.88v6.78h-4.14c-3.47,0-6.13-.84-7.98-2.52-1.85-1.68-2.77-4.48-2.77-8.4v-13.44h-4.31v-6.66h4.31v-7.67h7.9v7.67h6.94v6.66h-6.94v13.55c0,1.49.3,2.54.9,3.14.6.6,1.6.9,3.02.9h3.08Z"/><path class="cls-1" d="m1998.1,739.14c2.41,1.27,4.3,3.11,5.68,5.52,1.38,2.41,2.07,5.24,2.07,8.48s-.69,6.07-2.07,8.46c-1.38,2.39-3.28,4.23-5.68,5.52-2.41,1.29-5.12,1.93-8.15,1.93s-5.74-.64-8.15-1.93c-2.41-1.29-4.3-3.13-5.68-5.52-1.38-2.39-2.07-5.21-2.07-8.46s.69-6.08,2.07-8.48c1.38-2.41,3.28-4.25,5.68-5.52,2.41-1.27,5.12-1.9,8.15-1.9s5.74.63,8.15,1.9Zm-13.75,7.25c-1.53,1.55-2.3,3.8-2.3,6.75s.76,5.2,2.3,6.75c1.53,1.55,3.4,2.32,5.6,2.32s4.07-.77,5.6-2.32c1.53-1.55,2.3-3.8,2.3-6.75s-.77-5.2-2.3-6.75c-1.53-1.55-3.4-2.32-5.6-2.32s-4.07.77-5.6,2.32Z"/><path class="cls-1" d="m2024,738.89c1.9-1.14,4.03-1.71,6.38-1.71v8.46h-2.3c-5.79,0-8.68,2.69-8.68,8.06v14.95h-7.9v-31.02h7.9v5.94c1.16-1.98,2.69-3.54,4.59-4.68Z"/><path class="cls-1" d="m2072.83,763.61c-.9,1.61-2.26,2.91-4.09,3.92-1.83,1.01-4.09,1.51-6.78,1.51s-4.94-.48-6.97-1.43c-2.04-.95-3.66-2.26-4.87-3.92-1.21-1.66-1.91-3.56-2.1-5.68h5.43c.11,1.12.49,2.21,1.15,3.28.65,1.06,1.59,1.94,2.8,2.63,1.21.69,2.68,1.04,4.4,1.04,2.24,0,3.96-.6,5.15-1.79s1.79-2.72,1.79-4.59c0-1.61-.42-2.91-1.26-3.92-.84-1.01-1.88-1.8-3.11-2.38-1.23-.58-2.91-1.2-5.04-1.88-2.5-.82-4.51-1.6-6.02-2.32-1.51-.73-2.8-1.82-3.86-3.28s-1.6-3.38-1.6-5.77c0-2.05.49-3.86,1.48-5.43.99-1.57,2.41-2.78,4.26-3.64,1.85-.86,4.02-1.29,6.52-1.29,3.88,0,6.96.94,9.24,2.83,2.28,1.89,3.6,4.28,3.98,7.2h-5.49c-.3-1.57-1.1-2.95-2.41-4.14-1.31-1.19-3.08-1.79-5.32-1.79-2.05,0-3.7.53-4.93,1.6-1.23,1.06-1.85,2.57-1.85,4.51,0,1.53.4,2.77,1.2,3.72.8.95,1.8,1.7,3,2.24,1.19.54,2.84,1.15,4.93,1.82,2.54.82,4.58,1.61,6.13,2.35,1.55.75,2.86,1.88,3.95,3.39,1.08,1.51,1.62,3.52,1.62,6.02,0,1.87-.45,3.6-1.34,5.21Z"/><path class="cls-1" d="m2104.42,740.65c2.58,2.09,4.16,4.89,4.76,8.4h-5.38c-.37-2.2-1.39-3.93-3.05-5.18-1.66-1.25-3.72-1.88-6.19-1.88-1.79,0-3.43.41-4.9,1.23-1.48.82-2.66,2.08-3.56,3.78-.9,1.7-1.34,3.8-1.34,6.3s.45,4.6,1.34,6.3c.9,1.7,2.08,2.96,3.56,3.78,1.47.82,3.11,1.23,4.9,1.23,2.46,0,4.53-.63,6.19-1.9,1.66-1.27,2.68-3,3.05-5.21h5.38c-.6,3.55-2.18,6.36-4.76,8.43-2.58,2.07-5.82,3.11-9.74,3.11-2.95,0-5.56-.63-7.84-1.9-2.28-1.27-4.06-3.09-5.35-5.46-1.29-2.37-1.93-5.16-1.93-8.37s.64-6.01,1.93-8.4c1.29-2.39,3.07-4.22,5.35-5.49,2.28-1.27,4.89-1.9,7.84-1.9,3.92,0,7.17,1.05,9.74,3.14Z"/><path class="cls-1" d="m2125.42,739.17c1.94-1.18,4.26-1.76,6.94-1.76v5.54h-1.57c-2.88,0-5.23.74-7.06,2.21-1.83,1.47-2.74,3.91-2.74,7.31v16.18h-5.1v-30.74h5.1v6.22c1.01-2.13,2.48-3.78,4.42-4.96Z"/><path class="cls-1" d="m2165.51,754.37h-24.58c.11,3.51,1.11,6.14,3,7.9,1.88,1.76,4.19,2.63,6.92,2.63,2.46,0,4.53-.62,6.19-1.88,1.66-1.25,2.68-2.92,3.05-5.01h5.43c-.37,2.13-1.2,4.03-2.49,5.71-1.29,1.68-2.96,2.99-5.01,3.92-2.05.93-4.37,1.4-6.94,1.4-2.95,0-5.56-.63-7.84-1.9-2.28-1.27-4.06-3.09-5.35-5.46-1.29-2.37-1.93-5.16-1.93-8.37s.64-6.01,1.93-8.4c1.29-2.39,3.07-4.22,5.35-5.49,2.28-1.27,4.89-1.9,7.84-1.9s5.59.64,7.81,1.9c2.22,1.27,3.92,2.97,5.1,5.1s1.76,4.48,1.76,7.06c0,1.08-.08,2.02-.22,2.8Zm-6.05-8.18c-.86-1.53-2.04-2.67-3.53-3.42-1.49-.75-3.12-1.12-4.87-1.12-2.8,0-5.15.87-7.06,2.6-1.9,1.74-2.93,4.28-3.08,7.64h19.66c.11-2.28-.26-4.18-1.12-5.71Z"/><path class="cls-1" d="m2200.51,754.37h-24.58c.11,3.51,1.11,6.14,3,7.9,1.88,1.76,4.19,2.63,6.92,2.63,2.46,0,4.53-.62,6.19-1.88,1.66-1.25,2.68-2.92,3.05-5.01h5.43c-.37,2.13-1.2,4.03-2.49,5.71-1.29,1.68-2.96,2.99-5.01,3.92-2.05.93-4.37,1.4-6.94,1.4-2.95,0-5.56-.63-7.84-1.9-2.28-1.27-4.06-3.09-5.35-5.46-1.29-2.37-1.93-5.16-1.93-8.37s.64-6.01,1.93-8.4c1.29-2.39,3.07-4.22,5.35-5.49,2.28-1.27,4.89-1.9,7.84-1.9s5.59.64,7.81,1.9c2.22,1.27,3.92,2.97,5.1,5.1s1.76,4.48,1.76,7.06c0,1.08-.08,2.02-.22,2.8Zm-6.05-8.18c-.86-1.53-2.04-2.67-3.53-3.42-1.49-.75-3.12-1.12-4.87-1.12-2.8,0-5.15.87-7.06,2.6-1.9,1.74-2.93,4.28-3.08,7.64h19.66c.11-2.28-.26-4.18-1.12-5.71Z"/><path class="cls-1" d="m2232.32,740.85c2.2,2.3,3.3,5.61,3.3,9.94v17.86h-5.1v-17.42c0-3.06-.78-5.41-2.35-7.06-1.57-1.64-3.7-2.46-6.38-2.46s-5.04.91-6.72,2.72c-1.68,1.81-2.52,4.45-2.52,7.92v16.3h-5.1v-30.74h5.1v7.28c.78-2.5,2.17-4.42,4.17-5.77,2-1.34,4.3-2.02,6.92-2.02,3.58,0,6.48,1.15,8.68,3.44Z"/><path class="cls-1" d="m2243.57,726.63c.63-.58,1.47-.87,2.52-.87s1.88.29,2.52.87c.63.58.95,1.33.95,2.27s-.32,1.69-.95,2.27c-.64.58-1.48.87-2.52.87s-1.89-.29-2.52-.87c-.64-.58-.95-1.33-.95-2.27s.32-1.69.95-2.27Zm5.04,11.28v30.74h-5.1v-30.74h5.1Z"/><path class="cls-1" d="m2281.71,740.85c2.2,2.3,3.3,5.61,3.3,9.94v17.86h-5.1v-17.42c0-3.06-.78-5.41-2.35-7.06-1.57-1.64-3.7-2.46-6.38-2.46s-5.04.91-6.72,2.72c-1.68,1.81-2.52,4.45-2.52,7.92v16.3h-5.1v-30.74h5.1v7.28c.78-2.5,2.17-4.42,4.17-5.77,2-1.34,4.3-2.02,6.92-2.02,3.58,0,6.48,1.15,8.68,3.44Z"/><path class="cls-1" d="m2313.1,739.76c2.07,1.49,3.52,3.49,4.34,5.99v-7.84h5.1v31.25c0,2.84-.6,5.36-1.79,7.56-1.2,2.2-2.88,3.92-5.04,5.15-2.17,1.23-4.69,1.85-7.56,1.85-4.14,0-7.52-1-10.14-3-2.61-2-4.28-4.7-4.98-8.09h5.04c.6,2.05,1.73,3.67,3.39,4.84,1.66,1.18,3.8,1.76,6.41,1.76,2.76,0,5.05-.89,6.86-2.66,1.81-1.77,2.72-4.25,2.72-7.42v-8.34c-.82,2.5-2.27,4.5-4.34,5.99-2.07,1.49-4.6,2.24-7.59,2.24-2.73,0-5.15-.63-7.28-1.9-2.13-1.27-3.8-3.09-5.01-5.46-1.21-2.37-1.82-5.16-1.82-8.37s.61-6.01,1.82-8.4c1.21-2.39,2.88-4.22,5.01-5.49,2.13-1.27,4.55-1.9,7.28-1.9,2.99,0,5.52.75,7.59,2.24Zm-13.66,5.29c-1.89,2-2.83,4.75-2.83,8.26s.94,6.26,2.83,8.26c1.88,2,4.4,3,7.53,3,2.02,0,3.82-.47,5.4-1.4,1.59-.93,2.83-2.25,3.72-3.95.9-1.7,1.34-3.67,1.34-5.91s-.45-4.22-1.34-5.94c-.9-1.72-2.14-3.03-3.72-3.95-1.59-.91-3.39-1.37-5.4-1.37-3.14,0-5.65,1-7.53,3Z"/></g></svg>