<?xml version="1.0" encoding="utf-8"?>
<!-- Generator: Adobe Illustrator 24.2.3, SVG Export Plug-In . SVG Version: 6.00 Build 0)  -->
<svg version="1.1" id="Capa_1" xmlns="http://www.w3.org/2000/svg" xmlns:xlink="http://www.w3.org/1999/xlink" x="0px" y="0px"
	 viewBox="0 0 25 25" style="enable-background:new 0 0 25 25;" xml:space="preserve">
<style type="text/css">
	.st0{fill:#FFFFFF;}
	.st1{fill:#00B9FF;}
</style>
<g>
	<circle class="st0" cx="12.5" cy="12.5" r="12"/>
	<g id="_x34_gNNwC.tif_1_">
		<g>
			<path class="st1" d="M12.5,17.2c-2.6,0-4.7-2.1-4.7-4.7c0-2.6,2.1-4.7,4.7-4.7c2.6,0,4.7,2.1,4.7,4.7
				C17.2,15.1,15.1,17.2,12.5,17.2z M10,12.3c-0.2,0-0.3,0.1-0.4,0.3c-0.1,0.2,0,0.3,0.1,0.5c0.5,0.5,0.9,0.9,1.4,1.4
				c0,0,0.1,0.1,0.2,0.1c0.2,0,0.3,0,0.5-0.1c1-1,2.1-2.1,3.1-3.1c0,0,0,0,0.1-0.1c0.2-0.2,0.1-0.5-0.1-0.6
				c-0.2-0.1-0.4-0.1-0.6,0.1c-0.9,0.9-1.9,1.9-2.8,2.8c0,0-0.1,0-0.1,0c-0.3-0.3-0.7-0.7-1-1C10.2,12.4,10.1,12.3,10,12.3z"/>
			<path class="st1" d="M17.8,11.6c-0.1-0.3-0.1-0.6-0.2-0.9c0,0,0-0.1,0-0.1c0.3-0.4,0.7-0.7,1.2-0.9c1.8-0.7,3.7,0.3,4.1,2.2
				c0.4,1.7-0.8,3.3-2.4,3.6c-1.1,0.2-2.1-0.2-2.9-1c0,0-0.1-0.1,0-0.1c0.1-0.3,0.2-0.5,0.2-0.8c0.3,0.6,0.8,1.1,1.5,1.3
				c0.5,0.2,1,0.1,1.5,0c0.9-0.3,1.6-1.2,1.6-2.4c-0.1-1-0.8-1.9-1.8-2.1C19.5,10,18.3,10.5,17.8,11.6z"/>
			<path class="st1" d="M7.2,11.5c-0.5-1.1-1.8-1.6-2.8-1.3c-1,0.3-1.7,1.2-1.7,2.3c0,1,0.7,1.9,1.7,2.2c1,0.3,2.3-0.2,2.8-1.3
				c0,0.1,0.1,0.3,0.1,0.4c0,0.2,0.1,0.3,0.1,0.4c0,0,0,0.1,0,0.1c-0.5,0.6-1.1,1-1.9,1.1c-1.1,0.2-2-0.1-2.7-0.9
				c-0.6-0.6-0.9-1.4-0.8-2.3c0.1-1.3,1.1-2.4,2.4-2.7c0.9-0.2,1.8,0,2.5,0.6c0.2,0.1,0.3,0.3,0.5,0.5c0,0,0,0,0,0.1
				C7.3,11,7.2,11.2,7.2,11.5z"/>
			<path class="st1" d="M21,13.9c-0.1,0-0.2,0-0.3-0.1c-0.2-0.2-0.5-0.5-0.7-0.7C20,13,20,13,19.9,13.1c-0.2,0.2-0.5,0.5-0.7,0.7
				c-0.1,0.1-0.2,0.1-0.4,0.1c-0.1,0-0.2-0.1-0.2-0.3c0-0.1,0-0.2,0.1-0.3c0.2-0.2,0.5-0.5,0.7-0.7c0,0,0-0.1,0-0.1
				c-0.2-0.2-0.5-0.5-0.7-0.7c-0.2-0.2-0.1-0.5,0.2-0.6c0.1,0,0.2,0,0.3,0.1c0.2,0.2,0.5,0.5,0.7,0.7C20,12,20,12,20,11.9
				c0.2-0.2,0.5-0.5,0.7-0.7c0.1-0.1,0.2-0.1,0.4-0.1c0.1,0,0.2,0.1,0.2,0.3c0,0.1,0,0.2-0.1,0.3c-0.2,0.2-0.5,0.5-0.7,0.7
				c0,0,0,0.1,0,0.1c0.2,0.2,0.5,0.5,0.7,0.7C21.4,13.5,21.3,13.8,21,13.9C21.1,13.9,21,13.9,21,13.9z"/>
			<path class="st1" d="M6,13.9c-0.1,0-0.2,0-0.3-0.1c-0.2-0.2-0.5-0.5-0.7-0.7C5,13,5,13,5,13c-0.2,0.2-0.5,0.5-0.7,0.7
				c-0.1,0.1-0.2,0.1-0.4,0.1c-0.1,0-0.2-0.1-0.2-0.3c0-0.1,0-0.2,0.1-0.3C4,13,4.2,12.8,4.5,12.5c0,0,0-0.1,0-0.1
				C4.2,12.2,4,12,3.8,11.7c-0.2-0.2-0.1-0.5,0.2-0.6c0.1,0,0.2,0,0.3,0.1C4.5,11.5,4.7,11.7,5,12c0,0,0.1,0,0.1,0
				c0.2-0.2,0.5-0.5,0.7-0.7c0.1-0.1,0.2-0.1,0.4-0.1c0.1,0,0.2,0.1,0.2,0.3c0,0.1,0,0.2-0.1,0.3C6,12,5.8,12.2,5.6,12.4
				c0,0,0,0.1,0,0.1c0.2,0.2,0.5,0.5,0.7,0.7C6.5,13.5,6.4,13.8,6,13.9C6.1,13.9,6.1,13.9,6,13.9z"/>
		</g>
	</g>
</g>
</svg>
