<?xml version="1.0" encoding="utf-8"?>
<!-- Generator: Adobe Illustrator 24.3.0, SVG Export Plug-In . SVG Version: 6.00 Build 0)  -->
<svg version="1.1" id="Layer_1" xmlns="http://www.w3.org/2000/svg" xmlns:xlink="http://www.w3.org/1999/xlink" x="0px" y="0px"
	 viewBox="0 0 54 54" style="enable-background:new 0 0 54 54;" xml:space="preserve">
<style type="text/css">
	.st0{fill:#2AB8F2;}
	.st1{fill:#F1F3F4;}
</style>
<g>
	
		<ellipse transform="matrix(0.9989 -4.760462e-02 4.760462e-02 0.9989 -1.2547 1.3159)" class="st0" cx="27" cy="27" rx="26.6" ry="26.6"/>
	<g id="_x34_gNNwC.tif_11_">
		<g>
			<path class="st1" d="M27,36.6c-5.3,0-9.6-4.3-9.6-9.6c0-5.3,4.3-9.6,9.6-9.6c5.3,0,9.6,4.3,9.6,9.6C36.5,32.3,32.3,36.6,27,36.6z
				 M21.9,26.6c-0.4,0-0.7,0.2-0.8,0.5c-0.1,0.3-0.1,0.7,0.2,0.9c0.9,0.9,1.9,1.9,2.8,2.8c0.1,0.1,0.2,0.2,0.3,0.2
				c0.4,0.1,0.7,0,0.9-0.3c2.1-2.1,4.2-4.2,6.4-6.4c0,0,0.1-0.1,0.1-0.1c0.3-0.4,0.2-1-0.2-1.3c-0.4-0.3-0.8-0.2-1.2,0.1
				c-1.9,1.9-3.8,3.8-5.7,5.7c-0.1,0.1-0.1,0.1-0.2,0c-0.7-0.7-1.3-1.3-2-2C22.4,26.7,22.2,26.6,21.9,26.6z"/>
			<path class="st1" d="M37.8,25.1c-0.1-0.6-0.3-1.2-0.5-1.8c0-0.1,0-0.1,0.1-0.2c0.7-0.8,1.5-1.4,2.5-1.8c3.6-1.4,7.5,0.7,8.3,4.4
				c0.7,3.4-1.5,6.7-4.9,7.3c-2.3,0.4-4.3-0.4-5.8-2.1c-0.1-0.1-0.1-0.2-0.1-0.3c0.2-0.5,0.3-1.1,0.5-1.7c0.6,1.3,1.6,2.2,3,2.6
				c1,0.3,2,0.3,3-0.1c1.9-0.7,3.3-2.5,3.2-4.8c-0.1-2-1.6-3.8-3.6-4.3C41.1,21.9,38.8,22.9,37.8,25.1z"/>
			<path class="st1" d="M16.2,25.1c-1-2.3-3.6-3.2-5.7-2.6c-2,0.6-3.4,2.5-3.4,4.6c0,2.1,1.4,3.9,3.4,4.5c2.1,0.6,4.6-0.4,5.6-2.6
				c0.1,0.3,0.1,0.5,0.2,0.8c0.1,0.3,0.2,0.6,0.3,0.9c0,0.1,0,0.2,0,0.2c-1,1.2-2.2,1.9-3.8,2.2c-2.1,0.3-4-0.3-5.5-1.9
				c-1.2-1.3-1.8-2.9-1.6-4.7c0.2-2.7,2.2-4.9,4.8-5.5c1.9-0.4,3.6,0,5.1,1.2c0.4,0.3,0.7,0.6,1,1c0,0.1,0.1,0.1,0,0.2
				C16.5,23.9,16.3,24.4,16.2,25.1z"/>
			<path class="st1" d="M44.2,29.8c-0.2,0-0.4-0.1-0.5-0.2c-0.5-0.5-0.9-0.9-1.4-1.4c-0.1-0.1-0.1-0.1-0.3,0
				c-0.5,0.5-0.9,0.9-1.4,1.4c-0.2,0.2-0.5,0.3-0.7,0.2c-0.3-0.1-0.4-0.3-0.5-0.6c0-0.2,0.1-0.4,0.2-0.6c0.5-0.5,1-1,1.5-1.5
				c0.1-0.1,0.1-0.1,0-0.2c-0.5-0.5-1-1-1.5-1.5c-0.4-0.4-0.2-1.1,0.3-1.2c0.3-0.1,0.5,0,0.7,0.2c0.5,0.5,0.9,0.9,1.4,1.4
				c0.2,0.2,0.2,0.2,0.3,0c0.5-0.5,0.9-0.9,1.4-1.4c0.2-0.2,0.5-0.3,0.7-0.2c0.3,0.1,0.4,0.3,0.5,0.6c0,0.2-0.1,0.4-0.2,0.6
				c-0.5,0.5-1,1-1.5,1.4c-0.1,0.1-0.1,0.1,0,0.2c0.5,0.5,1,1,1.5,1.5c0.4,0.4,0.2,1-0.3,1.2C44.3,29.8,44.3,29.8,44.2,29.8z"/>
			<path class="st1" d="M13.9,29.8c-0.2,0-0.4-0.1-0.5-0.2c-0.5-0.5-1-1-1.4-1.5c-0.1-0.1-0.1-0.1-0.2,0c-0.5,0.5-1,1-1.5,1.5
				c-0.2,0.2-0.5,0.3-0.7,0.2c-0.3-0.1-0.4-0.3-0.5-0.6c0-0.2,0-0.4,0.2-0.6c0.5-0.5,1-1,1.5-1.5c0.1-0.1,0.1-0.1,0-0.2
				c-0.5-0.5-1-1-1.5-1.5c-0.4-0.4-0.2-1,0.3-1.2c0.3-0.1,0.5,0,0.7,0.2c0.5,0.5,1,1,1.4,1.5c0.1,0.1,0.1,0.1,0.2,0
				c0.5-0.5,1-1,1.5-1.5c0.2-0.2,0.5-0.3,0.7-0.2c0.3,0.1,0.4,0.3,0.5,0.6c0,0.2-0.1,0.4-0.2,0.6c-0.5,0.5-1,1-1.5,1.4
				c-0.1,0.1-0.1,0.1,0,0.2c0.5,0.5,1,1,1.5,1.5c0.4,0.4,0.2,1-0.3,1.2C14,29.8,14,29.8,13.9,29.8z"/>
		</g>
	</g>
</g>
</svg>
