<svg id="Layer_1" data-name="Layer 1" xmlns="http://www.w3.org/2000/svg" viewBox="0 0 31 30.5"><defs>
<style>.cls-1{fill:#fff;stroke:#cdcdcd}.cls-2{fill:none;stroke:#cdcdcd;stroke-linecap:round;stroke-linejoin:round;stroke-width:1.14px;}</style></defs><rect class="cls-1" width="29" height="29" x="0.4" y="0.7" rx="15.16"/><path class="cls-2" d="M13.3,9.62h2.55A1.37,1.37,0,0,1,17.22,11v0a1.37,1.37,0,0,1-1.37,1.37H13.3a0,0,0,0,1,0,0V9.62A0,0,0,0,1,13.3,9.62Z"/><path class="cls-2" d="M13.3,12.42h3A1.53,1.53,0,0,1,17.82,14v0a1.53,1.53,0,0,1-1.53,1.53h-3a0,0,0,0,1,0,0V12.42a0,0,0,0,1,0,0Z"/><circle class="cls-2" cx="15.16" cy="12.59" r="6.72"/><path class="cls-2" d="M15.5,19.7a6.71,6.71,0,0,1-3.57-1v6.12l3.57-2.6,3.57,2.6V18.67A6.71,6.71,0,0,1,15.5,19.7Z" transform="translate(-0.34 -0.34)"/></svg>
