<?xml version="1.0" encoding="utf-8"?>
<!-- Generator: Adobe Illustrator 24.3.0, SVG Export Plug-In . SVG Version: 6.00 Build 0)  -->
<svg version="1.1" id="Layer_1" xmlns="http://www.w3.org/2000/svg" xmlns:xlink="http://www.w3.org/1999/xlink" x="0px" y="0px"
	 viewBox="0 0 56 56" style="enable-background:new 0 0 56 56;" xml:space="preserve">
<style type="text/css">
	.st0{fill:none;stroke:#F1F3F4;stroke-width:1.7421;stroke-miterlimit:10;}
	.st1{fill:#F1F3F4;}
</style>
<g>
	
		<ellipse transform="matrix(0.9989 -4.760452e-02 4.760452e-02 0.9989 -1.3012 1.3647)" class="st0" cx="28" cy="28" rx="26.6" ry="26.6"/>
	<path class="st1" d="M41.9,27C41.9,26.9,41.9,26.9,41.9,27c0-0.2,0-0.3-0.1-0.4c0,0,0,0,0,0l-4.1-9.4c0,0,0,0,0,0
		c0,0-0.1-0.1-0.1-0.1c0,0,0,0-0.1-0.1c-0.2-0.2-0.5-0.3-0.8-0.3l-7.5,0.9c-0.4-0.6-1-1-1.8-1c-0.9,0-1.7,0.6-2,1.4L18,19
		c-0.3,0-0.5,0.2-0.6,0.4c0,0-0.1,0.1-0.1,0.1l-4.1,9.4c0,0,0,0,0,0c0,0.1-0.1,0.2-0.1,0.3c0,0,0,0,0,0.1c0,0,0,0,0,0
		c0.1,2.7,2.2,4.9,5,4.9c2.7,0,4.9-2.2,5-4.9c0,0,0,0,0,0c0,0,0,0,0-0.1c0-0.1,0-0.2-0.1-0.3c0,0,0,0,0,0l-3.6-8.3l6.4-0.8
		c0.2,0.3,0.5,0.6,0.9,0.8l0,17.1l-8.5,0c-0.5,0-0.9,0.4-0.9,0.9c0,0.5,0.4,0.9,0.9,0.9l18.8,0c0.5,0,0.9-0.4,0.9-0.9
		c0-0.5-0.4-0.9-0.9-0.9l-8.5,0l0-17.1c0.5-0.2,0.9-0.7,1.1-1.2l6-0.8l-3.5,8c0,0,0,0,0,0c0,0.1-0.1,0.2-0.1,0.3c0,0,0,0,0,0.1
		c0,0,0,0,0,0c0.1,2.7,2.2,4.9,5,4.9S41.9,29.7,41.9,27C41.9,27,41.9,27,41.9,27z M18.1,32.5c-1.5,0-2.7-1-3.1-2.3l6.1,0
		C20.8,31.5,19.6,32.5,18.1,32.5z M15.4,28.4l2.7-6.3l2.7,6.3L15.4,28.4z M37,19.7l2.7,6.3l-5.4,0L37,19.7z M37,30.1
		c-1.5,0-2.7-1-3.1-2.3l6.1,0C39.6,29.1,38.4,30.1,37,30.1z"/>
</g>
</svg>
