<?xml version="1.0" encoding="utf-8"?>
<!-- Generator: Adobe Illustrator 24.1.1, SVG Export Plug-In . SVG Version: 6.00 Build 0)  -->
<svg version="1.1" id="Layer_1" xmlns="http://www.w3.org/2000/svg" xmlns:xlink="http://www.w3.org/1999/xlink" x="0px" y="0px"
	 viewBox="0 0 31 31" style="enable-background:new 0 0 31 31;" xml:space="preserve">
<style type="text/css">
	.st0{fill:#00b9ff;}
	.st1{fill:none;stroke:#FFFFFF;stroke-width:1.1368;stroke-linecap:round;stroke-linejoin:round;stroke-miterlimit:10;}
	.st2{fill:#FFFFFF;}
</style>
<g>
	<g>
		<g>
			<path class="st0" d="M15.5,30.7L15.5,30.7c-8.4,0-15.2-6.8-15.2-15.2v0c0-8.4,6.8-15.2,15.2-15.2h0c8.4,0,15.2,6.8,15.2,15.2v0
				C30.7,23.9,23.9,30.7,15.5,30.7z"/>
		</g>
	</g>
	<g>
		<g>
			<polygon class="st1" points="9.5,10.6 6.9,16.6 12.1,16.6 			"/>
			<path class="st1" d="M9.5,19.2c1.4,0,2.6-1.2,2.6-2.6H6.9C6.9,18,8,19.2,9.5,19.2z"/>
			<polygon class="st1" points="21.5,9.1 18.9,15.1 24.1,15.1 			"/>
			<path class="st1" d="M21.5,17.7c1.4,0,2.6-1.2,2.6-2.6h-5.2C18.9,16.5,20.1,17.7,21.5,17.7z"/>
			<line class="st1" x1="21.5" y1="9.1" x2="9.5" y2="10.6"/>
		</g>
		<line class="st1" x1="15.5" y1="9.8" x2="15.5" y2="22.5"/>
		<line class="st1" x1="9.5" y1="22.5" x2="21.5" y2="22.5"/>
		<circle class="st2" cx="15.5" cy="9.8" r="1.3"/>
	</g>
</g>
</svg>
