<?xml version="1.0" encoding="UTF-8"?>
<svg id="Layer_1" xmlns="http://www.w3.org/2000/svg" version="1.1" viewBox="0 0 249 430">
  <!-- Generator: Adobe Illustrator 29.2.1, SVG Export Plug-In . SVG Version: 2.1.0 Build 116)  -->
  <defs>
    <style>
      .st0 {
        fill: #121227;
      }

      .st1 {
        stroke: #566ea7;
      }

      .st1, .st2, .st3, .st4 {
        fill: none;
      }

      .st2 {
        stroke: #787c86;
      }

      .st2, .st3, .st4, .st5 {
        stroke-miterlimit: 10;
      }

      .st6 {
        fill: #fff;
      }

      .st3, .st5 {
        stroke: #142347;
      }

      .st4 {
        stroke: #e6e7e8;
        stroke-width: 1.5px;
      }

      .st7 {
        fill: #1c2a4b;
      }

      .st5, .st8 {
        fill: #121225;
      }

      .st9 {
        fill: #073f88;
      }

      .st10 {
        fill: #bec9e2;
      }

      .st11 {
        fill: #e6e7e8;
      }
    </style>
  </defs>
  <rect class="st0" x=".5" y=".5" width="247.2" height="428.5" rx="9.5" ry="9.5"/>
  <rect class="st1" x=".5" y=".5" width="247.2" height="428.5" rx="9.5" ry="9.5"/>
  <rect class="st9" x="48.5" y="10.5" width="178.2" height="35.5" rx="10" ry="10"/>
  <path class="st6" d="M107.3,31.1c0,1.3-1.1,2.2-2.9,2.2s-3.2-1.1-3.3-2.5h2.2c0,.5.5.8,1.1.8s.9-.3.9-.6c0-1.2-4-.3-4-3s1.1-2.2,3-2.2,2.9,1,3.1,2.5h-2.1c0-.5-.4-.8-1.1-.8s-.8.2-.8.6c0,1.2,3.9.3,4,3ZM109,30.7v-2.9h-.9v-1.8h.9v-1.8h2.2v1.8h1.5v1.8h-1.5v2.9c0,.4.2.6.7.6h.8v1.9h-1.1c-1.5,0-2.6-.6-2.6-2.5ZM121,29.6c0,2.3-1.7,3.7-3.8,3.7s-3.7-1.4-3.7-3.7,1.7-3.7,3.8-3.7,3.8,1.4,3.8,3.7ZM115.8,29.6c0,1.2.7,1.8,1.5,1.8s1.5-.6,1.5-1.8-.7-1.8-1.5-1.8-1.5.6-1.5,1.8ZM121.8,29.6c0-2.3,1.5-3.7,3.6-3.7s3.1,1,3.5,2.7h-2.4c-.2-.5-.5-.8-1.2-.8s-1.3.6-1.3,1.8.5,1.8,1.3,1.8,1-.3,1.2-.8h2.4c-.4,1.7-1.7,2.7-3.5,2.7s-3.6-1.4-3.6-3.7ZM130.1,33.2v-9.6h2.2v5.3l2.2-3h2.7l-3,3.6,3,3.6h-2.8l-2.2-3v3h-2.2ZM143.1,27c.4-.6,1.2-1.1,2.2-1.1,1.8,0,3.2,1.4,3.2,3.7s-1.4,3.7-3.2,3.7-1.8-.5-2.2-1.1v4.5h-2.2v-10.7h2.2v1ZM146.3,29.6c0-1.2-.8-1.8-1.6-1.8s-1.6.6-1.6,1.8.8,1.8,1.6,1.8,1.6-.6,1.6-1.8ZM151.9,29.9v3.4h-2.2v-7.3h2.2v1.2c.5-.8,1.3-1.3,2.3-1.3v2.4h-.6c-1.1,0-1.7.4-1.7,1.6ZM155.3,33.2v-7.3h2.2v7.3h-2.2ZM156.4,25.2c-.8,0-1.3-.5-1.3-1.2s.5-1.2,1.3-1.2,1.3.5,1.3,1.2-.5,1.2-1.3,1.2ZM158.6,29.6c0-2.3,1.5-3.7,3.6-3.7s3.1,1,3.5,2.7h-2.4c-.2-.5-.5-.8-1.2-.8s-1.3.6-1.3,1.8.5,1.8,1.3,1.8,1-.3,1.2-.8h2.4c-.4,1.7-1.7,2.7-3.5,2.7s-3.6-1.4-3.6-3.7ZM170.2,27.7c-.7,0-1.3.4-1.4,1.2h2.8c0-.8-.6-1.2-1.4-1.2ZM173.6,30.8c-.4,1.4-1.6,2.5-3.4,2.5s-3.7-1.4-3.7-3.7,1.5-3.7,3.7-3.7,3.6,1.4,3.6,3.6,0,.4,0,.6h-5c0,.9.7,1.4,1.4,1.4s1-.3,1.2-.7h2.4Z"/>
  <path class="st7" d="M29.5,17.5h0c4.4,0,8,3.6,8,8h0c0,4.4-3.6,8-8,8h0c-4.4,0-8-3.6-8-8h0c0-4.4,3.6-8,8-8Z"/>
  <path class="st10" d="M29,29v-7h.9v7h-.9Z"/>
  <rect class="st8" x="48.5" y="58" width="178.2" height="35.5" rx="10" ry="10"/>
  <rect class="st3" x="48.5" y="58" width="178.2" height="35.5" rx="10" ry="10"/>
  <path class="st6" d="M78.7,73.1h1.8l1.7,5.1,1.7-5.1h1.8l-2.5,6.6h-2l-2.4-6.6ZM86.2,76.4c0-2.1,1.3-3.4,3-3.4s1.8.5,2.2,1.1v-.9h1.7v6.6h-1.7v-1c-.4.6-1.2,1.1-2.2,1.1-1.7,0-3-1.4-3-3.5ZM91.4,76.4c0-1.3-.8-2-1.8-2s-1.8.7-1.8,1.9.9,2,1.8,2,1.8-.7,1.8-2ZM94.7,79.8v-8.9h1.7v8.9h-1.7ZM104.4,73.1v6.6h-1.7v-.8c-.4.6-1.2.9-2,.9-1.5,0-2.7-1-2.7-2.8v-3.9h1.7v3.7c0,1.1.6,1.6,1.5,1.6s1.5-.6,1.5-1.6v-3.7h1.7ZM108.9,74.4c-.8,0-1.4.5-1.6,1.4h3.2c0-.9-.7-1.4-1.6-1.4ZM112,77.7c-.4,1.2-1.5,2.2-3.1,2.2s-3.3-1.3-3.3-3.4,1.4-3.4,3.3-3.4,3.3,1.3,3.3,3.3,0,.4,0,.6h-4.9c0,1,.8,1.5,1.6,1.5s1.1-.4,1.3-.8h1.8ZM122.7,76.4c0,2.1-1.5,3.4-3.5,3.4s-3.4-1.3-3.4-3.4,1.5-3.4,3.4-3.4,3.4,1.3,3.4,3.4ZM117.6,76.4c0,1.3.8,2,1.7,2s1.7-.6,1.7-2-.8-2-1.7-2-1.7.6-1.7,2ZM124.1,79.8v-5.3h-.8v-1.4h.8v-.3c0-1.6.9-2.4,2.8-2.3v1.4c-.8,0-1.1.2-1.1,1v.3h1.2v1.4h-1.2v5.3h-1.7ZM137.4,76.4c0,2.1-1.5,3.4-3.5,3.4s-3.4-1.3-3.4-3.4,1.5-3.4,3.4-3.4,3.4,1.3,3.4,3.4ZM132.2,76.4c0,1.3.8,2,1.7,2s1.7-.6,1.7-2-.8-2-1.7-2-1.7.6-1.7,2ZM140.3,74.1c.4-.6,1.2-1.1,2.2-1.1,1.7,0,3,1.3,3,3.4s-1.3,3.5-3,3.5-1.8-.5-2.2-1.1v4.1h-1.7v-9.8h1.7v1ZM143.8,76.4c0-1.3-.9-1.9-1.8-1.9s-1.8.7-1.8,2,.9,2,1.8,2,1.8-.7,1.8-2ZM149.6,74.4c-.8,0-1.4.5-1.6,1.4h3.2c0-.9-.7-1.4-1.6-1.4ZM152.7,77.7c-.4,1.2-1.5,2.2-3.1,2.2s-3.3-1.3-3.3-3.4,1.4-3.4,3.3-3.4,3.3,1.3,3.3,3.3,0,.4,0,.6h-4.9c0,1,.8,1.5,1.6,1.5s1.1-.4,1.3-.8h1.8ZM155.8,76.5v3.3h-1.7v-6.6h1.7v1c.4-.7,1.1-1.1,2-1.1v1.8h-.4c-1,0-1.6.4-1.6,1.7ZM158.5,76.4c0-2.1,1.3-3.4,3-3.4s1.8.5,2.2,1.1v-.9h1.7v6.6h-1.7v-1c-.4.6-1.2,1.1-2.2,1.1-1.7,0-3-1.4-3-3.5ZM163.8,76.4c0-1.3-.8-2-1.8-2s-1.8.7-1.8,1.9.9,2,1.8,2,1.8-.7,1.8-2ZM167.4,77.7v-3.2h-.8v-1.4h.8v-1.6h1.7v1.6h1.5v1.4h-1.5v3.2c0,.4.2.6.7.6h.8v1.4h-1.1c-1.3,0-2.1-.5-2.1-2.1ZM171.8,79.8v-6.6h1.7v6.6h-1.7ZM172.6,72.3c-.6,0-1-.4-1-1s.4-1,1-1,1,.4,1,1-.4,1-1,1ZM181.5,76.4c0,2.1-1.5,3.4-3.5,3.4s-3.4-1.3-3.4-3.4,1.5-3.4,3.4-3.4,3.4,1.3,3.4,3.4ZM176.4,76.4c0,1.3.8,2,1.7,2s1.7-.6,1.7-2-.8-2-1.7-2-1.7.6-1.7,2ZM187.4,79.8v-3.7c0-1.1-.6-1.6-1.5-1.6s-1.5.6-1.5,1.6v3.7h-1.7v-6.6h1.7v.8c.4-.6,1.2-.9,2-.9,1.5,0,2.7,1,2.7,2.8v3.9h-1.7ZM195.8,77.9c0,1.1-1,2-2.6,2s-2.8-1-2.9-2.2h1.7c0,.5.5.9,1.2.9s1-.3,1-.7c0-1.2-3.8-.4-3.8-2.9s1-2,2.6-2,2.6.9,2.7,2.2h-1.6c0-.5-.5-.9-1.1-.9s-.9.3-.9.6c0,1.2,3.7.5,3.7,2.9Z"/>
  <path class="st7" d="M29.5,65.5h0c4.4,0,8,3.6,8,8h0c0,4.4-3.6,8-8,8h0c-4.4,0-8-3.6-8-8h0c0-4.4,3.6-8,8-8Z"/>
  <path class="st10" d="M26.1,73c0-2.1,1.5-3.6,3.5-3.6s2.7.8,3.2,2.1h-1.1c-.4-.8-1.1-1.3-2.1-1.3-1.5,0-2.6,1.1-2.6,2.8s1.1,2.8,2.6,2.8,1.8-.5,2.1-1.3h1.1c-.5,1.3-1.7,2.1-3.2,2.1s-3.5-1.5-3.5-3.5Z"/>
  <path class="st9" d="M216.7,105.5H58.5c-5.5,0-10,4.5-10,10v15.5c0,5.5,4.5,10,10,10h158.2c5.5,0,10-4.5,10-10v-15.5c0-5.5-4.5-10-10-10Z"/>
  <path class="st6" d="M93.9,124.2c0-2.1,1.4-3.4,3.3-3.4s2.8.9,3.1,2.4h-1.8c-.2-.6-.6-.9-1.3-.9s-1.6.7-1.6,2,.6,2,1.6,2,1.1-.3,1.3-.9h1.8c-.4,1.4-1.5,2.4-3.1,2.4s-3.3-1.3-3.3-3.4ZM108,124.2c0,2.1-1.5,3.4-3.5,3.4s-3.4-1.3-3.4-3.4,1.5-3.4,3.4-3.4,3.4,1.3,3.4,3.4ZM102.8,124.2c0,1.3.8,2,1.7,2s1.7-.6,1.7-2-.8-2-1.7-2-1.7.6-1.7,2ZM114.4,125.6c0,1.1-1,2-2.6,2s-2.8-1-2.9-2.2h1.7c0,.5.5.9,1.2.9s1-.3,1-.7c0-1.2-3.8-.4-3.8-2.9s1-2,2.6-2,2.6.9,2.7,2.2h-1.6c0-.5-.5-.9-1.1-.9s-.9.3-.9.6c0,1.2,3.7.5,3.7,2.9ZM116,125.5v-3.2h-.8v-1.4h.8v-1.6h1.7v1.6h1.5v1.4h-1.5v3.2c0,.4.2.6.7.6h.8v1.4h-1.1c-1.3,0-2.1-.5-2.1-2.1ZM129.7,124.2c0,2.1-1.5,3.4-3.5,3.4s-3.4-1.3-3.4-3.4,1.5-3.4,3.4-3.4,3.4,1.3,3.4,3.4ZM124.5,124.2c0,1.3.8,2,1.7,2s1.7-.6,1.7-2-.8-2-1.7-2-1.7.6-1.7,2ZM131.1,127.5v-5.3h-.8v-1.4h.8v-.3c0-1.6.9-2.4,2.8-2.3v1.4c-.8,0-1.1.2-1.1,1v.3h1.2v1.4h-1.2v5.3h-1.7ZM137.5,124.2c0-2.1,1.4-3.4,3.3-3.4s2.8.9,3.1,2.4h-1.8c-.2-.6-.6-.9-1.3-.9s-1.6.7-1.6,2,.6,2,1.6,2,1.1-.3,1.3-.9h1.8c-.4,1.4-1.5,2.4-3.1,2.4s-3.3-1.3-3.3-3.4ZM144.7,124.2c0-2.1,1.3-3.4,3-3.4s1.8.5,2.2,1.1v-.9h1.7v6.6h-1.7v-1c-.4.6-1.2,1.1-2.2,1.1-1.7,0-3-1.4-3-3.5ZM149.9,124.2c0-1.3-.8-2-1.8-2s-1.8.7-1.8,1.9.9,2,1.8,2,1.8-.7,1.8-2ZM154.9,121.8c.4-.6,1.2-1.1,2.2-1.1,1.7,0,3,1.3,3,3.4s-1.3,3.5-3,3.5-1.8-.5-2.2-1.1v4.1h-1.7v-9.8h1.7v1ZM158.4,124.2c0-1.3-.9-1.9-1.8-1.9s-1.8.7-1.8,2,.9,2,1.8,2,1.8-.7,1.8-2ZM161.4,127.5v-6.6h1.7v6.6h-1.7ZM162.2,120.1c-.6,0-1-.4-1-1s.4-1,1-1,1,.4,1,1-.4,1-1,1ZM165,125.5v-3.2h-.8v-1.4h.8v-1.6h1.7v1.6h1.5v1.4h-1.5v3.2c0,.4.2.6.7.6h.8v1.4h-1.1c-1.3,0-2.1-.5-2.1-2.1ZM168.9,124.2c0-2.1,1.3-3.4,3-3.4s1.8.5,2.2,1.1v-.9h1.7v6.6h-1.7v-1c-.4.6-1.2,1.1-2.2,1.1-1.7,0-3-1.4-3-3.5ZM174.2,124.2c0-1.3-.8-2-1.8-2s-1.8.7-1.8,1.9.9,2,1.8,2,1.8-.7,1.8-2ZM177.5,127.5v-8.9h1.7v8.9h-1.7Z"/>
  <path class="st7" d="M29.5,113.5h0c4.4,0,8,3.6,8,8h0c0,4.4-3.6,8-8,8h0c-4.4,0-8-3.6-8-8h0c0-4.4,3.6-8,8-8Z"/>
  <path class="st10" d="M29,125.5v-7h.9v7h-.9Z"/>
  <path class="st5" d="M216.7,153.1H58.5c-5.5,0-10,4.5-10,10v15.5c0,5.5,4.5,10,10,10h158.2c5.5,0,10-4.5,10-10v-15.5c0-5.5-4.5-10-10-10Z"/>
  <path class="st6" d="M80.3,165.7h1.7v7h2.8v1.3h-4.4v-8.4ZM85.4,167v-1.4h6.1v1.4h-2.2v7h-1.7v-7h-2.2ZM92.8,174.1v-8.4h1.9l2.7,6.2,2.7-6.2h1.9v8.4h-1.7v-5.4l-2.2,5.4h-1.3l-2.3-5.4v5.4h-1.7ZM106.6,174.1v-5.3h-.8v-1.4h.8v-.3c0-1.6.9-2.4,2.8-2.3v1.4c-.8,0-1.1.2-1.1,1v.3h1.2v1.4h-1.2v5.3h-1.7ZM112.2,170.8v3.3h-1.7v-6.6h1.7v1c.4-.7,1.1-1.1,2-1.1v1.8h-.4c-1,0-1.6.4-1.6,1.7ZM118.3,168.7c-.8,0-1.4.5-1.6,1.4h3.2c0-.9-.7-1.4-1.6-1.4ZM121.4,172c-.4,1.2-1.5,2.2-3.1,2.2s-3.3-1.3-3.3-3.4,1.4-3.4,3.3-3.4,3.3,1.3,3.3,3.3,0,.4,0,.6h-4.9c0,1,.8,1.5,1.6,1.5s1.1-.4,1.3-.8h1.8ZM125.7,168.7c-.8,0-1.4.5-1.6,1.4h3.2c0-.9-.7-1.4-1.6-1.4ZM128.8,172c-.4,1.2-1.5,2.2-3.1,2.2s-3.3-1.3-3.3-3.4,1.4-3.4,3.3-3.4,3.3,1.3,3.3,3.3,0,.4,0,.6h-4.9c0,1,.8,1.5,1.6,1.5s1.1-.4,1.3-.8h1.8ZM132.6,170.7c0-2.1,1.4-3.4,3.3-3.4s2.8.9,3.1,2.4h-1.8c-.2-.6-.6-.9-1.3-.9s-1.6.7-1.6,2,.6,2,1.6,2,1.1-.3,1.3-.9h1.8c-.4,1.4-1.5,2.4-3.1,2.4s-3.3-1.3-3.3-3.4ZM139.9,170.7c0-2.1,1.3-3.4,3-3.4s1.8.5,2.2,1.1v-.9h1.7v6.6h-1.7v-1c-.4.6-1.2,1.1-2.2,1.1-1.7,0-3-1.4-3-3.5ZM145.1,170.7c0-1.3-.8-2-1.8-2s-1.8.7-1.8,1.9.9,2,1.8,2,1.8-.7,1.8-2ZM153.6,172.2c0,1.1-1,2-2.6,2s-2.8-1-2.9-2.2h1.7c0,.5.5.9,1.2.9s1-.3,1-.7c0-1.2-3.8-.4-3.8-2.9s1-2,2.6-2,2.6.9,2.7,2.2h-1.6c0-.5-.5-.9-1.1-.9s-.9.3-.9.6c0,1.2,3.7.5,3.7,2.9ZM155,174.1v-8.9h1.7v3.1c.4-.6,1.2-.9,2.1-.9,1.5,0,2.6,1,2.6,2.8v3.9h-1.7v-3.7c0-1.1-.6-1.6-1.5-1.6s-1.5.6-1.5,1.6v3.7h-1.7ZM165.9,174.1v-5.3h-.8v-1.4h.8v-.3c0-1.6.9-2.4,2.8-2.3v1.4c-.8,0-1.1.2-1.1,1v.3h1.2v1.4h-1.2v5.3h-1.7ZM169.9,174.1v-8.9h1.7v8.9h-1.7ZM179.7,170.7c0,2.1-1.5,3.4-3.5,3.4s-3.4-1.3-3.4-3.4,1.5-3.4,3.4-3.4,3.4,1.3,3.4,3.4ZM174.5,170.7c0,1.3.8,2,1.7,2s1.7-.6,1.7-2-.8-2-1.7-2-1.7.6-1.7,2ZM182.1,174.1l-2-6.6h1.7l1.2,5.1,1.3-5.1h1.8l1.2,5.1,1.2-5.1h1.6l-1.9,6.6h-1.8l-1.2-4.6-1.2,4.6h-1.8Z"/>
  <path class="st7" d="M29.5,161.5h0c4.4,0,8,3.6,8,8h0c0,4.4-3.6,8-8,8h0c-4.4,0-8-3.6-8-8h0c0-4.4,3.6-8,8-8Z"/>
  <path class="st10" d="M26.1,169c0-2.1,1.5-3.6,3.5-3.6s2.7.8,3.2,2.1h-1.1c-.4-.8-1.1-1.3-2.1-1.3-1.5,0-2.6,1.1-2.6,2.8s1.1,2.8,2.6,2.8,1.8-.5,2.1-1.3h1.1c-.5,1.3-1.7,2.1-3.2,2.1s-3.5-1.5-3.5-3.6Z"/>
  <path class="st5" d="M217.2,200.6H59c-5.5,0-10,4.5-10,10v15.5c0,5.5,4.5,10,10,10h158.2c5.5,0,10-4.5,10-10v-15.5c0-5.5-4.5-10-10-10Z"/>
  <path class="st6" d="M65.5,219.3v3.3h-1.7v-6.6h1.7v1c.4-.7,1.1-1.1,2-1.1v1.8h-.4c-1,0-1.6.4-1.6,1.7ZM71.5,217.2c-.8,0-1.4.5-1.6,1.4h3.2c0-.9-.7-1.4-1.6-1.4ZM74.7,220.5c-.4,1.2-1.5,2.2-3.1,2.2s-3.3-1.3-3.3-3.4,1.4-3.4,3.3-3.4,3.3,1.3,3.3,3.3,0,.4,0,.6h-4.9c0,1,.8,1.5,1.6,1.5s1.1-.4,1.3-.8h1.8ZM75.7,219.3c0-2,1.4-3.4,3.1-3.4s1.7.4,2.1,1v-.9h1.7v9.8h-1.7v-4.1c-.4.5-1.2,1-2.2,1-1.7,0-3.1-1.4-3.1-3.4ZM80.9,219.3c0-1.3-.9-2-1.8-2s-1.8.7-1.8,1.9.9,2,1.8,2,1.8-.7,1.8-2ZM90.5,216v6.6h-1.7v-.8c-.4.6-1.2.9-2,.9-1.5,0-2.7-1-2.7-2.8v-3.9h1.7v3.7c0,1.1.6,1.6,1.5,1.6s1.5-.6,1.5-1.6v-3.7h1.7ZM92.2,222.6v-6.6h1.7v6.6h-1.7ZM93,215.2c-.6,0-1-.4-1-1s.4-1,1-1,1,.4,1,1-.4,1-1,1ZM97.2,219.3v3.3h-1.7v-6.6h1.7v1c.4-.7,1.1-1.1,2-1.1v1.8h-.4c-1,0-1.6.4-1.6,1.7ZM103.2,217.2c-.8,0-1.4.5-1.6,1.4h3.2c0-.9-.7-1.4-1.6-1.4ZM106.4,220.5c-.4,1.2-1.5,2.2-3.1,2.2s-3.3-1.3-3.3-3.4,1.4-3.4,3.3-3.4,3.3,1.3,3.3,3.3,0,.4,0,.6h-4.9c0,1,.8,1.5,1.6,1.5s1.1-.4,1.3-.8h1.8ZM107.3,219.3c0-2.1,1.3-3.4,3-3.4s1.7.4,2.2,1v-3.2h1.7v8.9h-1.7v-1c-.4.6-1.1,1.1-2.2,1.1-1.7,0-3-1.4-3-3.5ZM112.6,219.3c0-1.3-.8-2-1.8-2s-1.8.7-1.8,1.9.9,2,1.8,2,1.8-.7,1.8-2ZM118.9,222.6v-5.3h-.8v-1.4h.8v-.3c0-1.6.9-2.4,2.8-2.3v1.4c-.8,0-1.1.2-1.1,1v.3h1.2v1.4h-1.2v5.3h-1.7ZM124.6,219.3v3.3h-1.7v-6.6h1.7v1c.4-.7,1.1-1.1,2-1.1v1.8h-.4c-1,0-1.6.4-1.6,1.7ZM130.6,217.2c-.8,0-1.4.5-1.6,1.4h3.2c0-.9-.7-1.4-1.6-1.4ZM133.7,220.5c-.4,1.2-1.5,2.2-3.1,2.2s-3.3-1.3-3.3-3.4,1.4-3.4,3.3-3.4,3.3,1.3,3.3,3.3,0,.4,0,.6h-4.9c0,1,.8,1.5,1.6,1.5s1.1-.4,1.3-.8h1.8ZM138,217.2c-.8,0-1.4.5-1.6,1.4h3.2c0-.9-.7-1.4-1.6-1.4ZM141.1,220.5c-.4,1.2-1.5,2.2-3.1,2.2s-3.3-1.3-3.3-3.4,1.4-3.4,3.3-3.4,3.3,1.3,3.3,3.3,0,.4,0,.6h-4.9c0,1,.8,1.5,1.6,1.5s1.1-.4,1.3-.8h1.8ZM145,219.3c0-2.1,1.4-3.4,3.3-3.4s2.8.9,3.1,2.4h-1.8c-.2-.6-.6-.9-1.3-.9s-1.6.7-1.6,2,.6,2,1.6,2,1.1-.3,1.3-.9h1.8c-.4,1.4-1.5,2.4-3.1,2.4s-3.3-1.3-3.3-3.4ZM152.2,219.3c0-2.1,1.3-3.4,3-3.4s1.8.5,2.2,1.1v-.9h1.7v6.6h-1.7v-1c-.4.6-1.2,1.1-2.2,1.1-1.7,0-3-1.4-3-3.5ZM157.4,219.3c0-1.3-.8-2-1.8-2s-1.8.7-1.8,1.9.9,2,1.8,2,1.8-.7,1.8-2ZM165.9,220.7c0,1.1-1,2-2.6,2s-2.8-1-2.9-2.2h1.7c0,.5.5.9,1.2.9s1-.3,1-.7c0-1.2-3.8-.4-3.8-2.9s1-2,2.6-2,2.6.9,2.7,2.2h-1.6c0-.5-.5-.9-1.1-.9s-.9.3-.9.6c0,1.2,3.7.5,3.7,2.9ZM167.3,222.6v-8.9h1.7v3.1c.4-.6,1.2-.9,2.1-.9,1.5,0,2.6,1,2.6,2.8v3.9h-1.7v-3.7c0-1.1-.6-1.6-1.5-1.6s-1.5.6-1.5,1.6v3.7h-1.7ZM178.3,222.6v-5.3h-.8v-1.4h.8v-.3c0-1.6.9-2.4,2.8-2.3v1.4c-.8,0-1.1.2-1.1,1v.3h1.2v1.4h-1.2v5.3h-1.7ZM182.2,222.6v-8.9h1.7v8.9h-1.7ZM192,219.3c0,2.1-1.5,3.4-3.5,3.4s-3.4-1.3-3.4-3.4,1.5-3.4,3.4-3.4,3.4,1.3,3.4,3.4ZM186.8,219.3c0,1.3.8,2,1.7,2s1.7-.6,1.7-2-.8-2-1.7-2-1.7.6-1.7,2ZM194.4,222.6l-2-6.6h1.7l1.2,5.1,1.3-5.1h1.8l1.2,5.1,1.2-5.1h1.6l-1.9,6.6h-1.8l-1.2-4.6-1.2,4.6h-1.8Z"/>
  <path class="st7" d="M29,209.5h0c4.4,0,8,3.6,8,8h0c0,4.4-3.6,8-8,8h0c-4.4,0-8-3.6-8-8h0c0-4.4,3.6-8,8-8Z"/>
  <path class="st10" d="M25.6,217c0-2.1,1.5-3.6,3.5-3.6s2.7.8,3.2,2.1h-1.1c-.4-.8-1.1-1.3-2.1-1.3-1.5,0-2.6,1.1-2.6,2.8s1.1,2.8,2.6,2.8,1.8-.5,2.1-1.3h1.1c-.5,1.3-1.7,2.1-3.2,2.1s-3.5-1.5-3.5-3.6Z"/>
  <path class="st9" d="M128,256H57c-3.3,0-6,2.7-6,6v27c0,3.3,2.7,6,6,6h71c3.3,0,6-2.7,6-6v-27c0-3.3-2.7-6-6-6Z"/>
  <path class="st2" d="M84.6,255.8v-7.7h109.1v7.7"/>
  <path class="st2" d="M134,269h9"/>
  <path class="st7" d="M29.1,256.5h0c4.4,0,8,3.6,8,8h0c0,4.4-3.6,8-8,8h0c-4.4,0-8-3.6-8-8h0c0-4.4,3.6-8,8-8Z"/>
  <path class="st10" d="M28.7,268.5v-7h.9v7h-.9Z"/>
  <path class="st5" d="M217.2,307H59c-5.5,0-10,4.5-10,10v15.5c0,5.5,4.5,10,10,10h158.2c5.5,0,10-4.5,10-10v-15.5c0-5.5-4.5-10-10-10Z"/>
  <path class="st7" d="M29,315.5h0c4.4,0,8,3.6,8,8h0c0,4.4-3.6,8-8,8h0c-4.4,0-8-3.6-8-8h0c0-4.4,3.6-8,8-8Z"/>
  <path class="st10" d="M25.6,323c0-2.1,1.5-3.6,3.5-3.6s2.7.8,3.2,2.1h-1.1c-.4-.8-1.1-1.3-2.1-1.3-1.5,0-2.6,1.1-2.6,2.8s1.1,2.8,2.6,2.8,1.8-.5,2.1-1.3h1.1c-.5,1.3-1.7,2.1-3.2,2.1s-3.5-1.5-3.5-3.5Z"/>
  <path class="st5" d="M217.2,354.5H59c-5.5,0-10,4.5-10,10v15.5c0,5.5,4.5,10,10,10h158.2c5.5,0,10-4.5,10-10v-15.5c0-5.5-4.5-10-10-10Z"/>
  <path class="st6" d="M61.8,377.1v-6.1h1.5v6.1h-1.5ZM62.5,370.2c-.5,0-.9-.4-.9-.9s.4-.9.9-.9.9.4.9.9-.4.9-.9.9ZM69.1,377.1v-3.4c0-1-.5-1.5-1.4-1.5s-1.4.5-1.4,1.5v3.4h-1.5v-6.1h1.5v.8c.4-.5,1.1-.8,1.8-.8,1.4,0,2.4.9,2.4,2.6v3.6h-1.5ZM71.7,374c0-1.9,1.2-3.1,2.8-3.1s1.6.4,2,.9v-2.9h1.6v8.1h-1.6v-.9c-.4.6-1,1-2,1-1.6,0-2.8-1.3-2.8-3.2ZM76.5,374c0-1.2-.8-1.8-1.6-1.8s-1.6.6-1.6,1.8.8,1.8,1.6,1.8,1.6-.6,1.6-1.8ZM79.5,377.1v-6.1h1.5v6.1h-1.5ZM80.3,370.2c-.6,0-.9-.4-.9-.9s.4-.9.9-.9.9.4.9.9-.4.9-.9.9ZM82.2,374c0-1.9,1.3-3.1,3-3.1s2.5.8,2.9,2.2h-1.7c-.2-.5-.6-.8-1.2-.8s-1.4.6-1.4,1.8.6,1.8,1.4,1.8,1-.3,1.2-.8h1.7c-.3,1.3-1.4,2.2-2.9,2.2s-3-1.2-3-3.1ZM88.8,374c0-1.9,1.2-3.1,2.8-3.1s1.7.5,2,1v-.9h1.6v6.1h-1.6v-.9c-.4.5-1.1,1-2,1-1.5,0-2.8-1.3-2.8-3.2ZM93.6,374c0-1.2-.8-1.8-1.6-1.8s-1.6.6-1.6,1.8.8,1.8,1.6,1.8,1.6-.6,1.6-1.8ZM96.9,375.2v-2.9h-.7v-1.3h.7v-1.5h1.6v1.5h1.4v1.3h-1.4v2.9c0,.4.2.6.6.6h.7v1.3h-1c-1.2,0-1.9-.5-1.9-1.9ZM103.6,372.1c-.7,0-1.3.5-1.4,1.3h2.9c0-.8-.7-1.3-1.5-1.3ZM106.5,375.1c-.3,1.1-1.3,2-2.8,2s-3.1-1.2-3.1-3.1,1.3-3.1,3.1-3.1,3,1.2,3,3,0,.4,0,.6h-4.5c0,.9.7,1.4,1.5,1.4s1-.3,1.2-.7h1.7ZM107.3,374c0-1.9,1.2-3.1,2.8-3.1s1.6.4,2,.9v-2.9h1.6v8.1h-1.6v-.9c-.4.6-1,1-2,1-1.6,0-2.8-1.3-2.8-3.2ZM112.1,374c0-1.2-.8-1.8-1.6-1.8s-1.6.6-1.6,1.8.8,1.8,1.6,1.8,1.6-.6,1.6-1.8ZM117.4,374c0-1.9,1.2-3.1,2.8-3.1s1.7.4,2,1v-.9h1.6v6.1c0,1.7-1,3-3,3s-2.9-.9-3.1-2.3h1.5c.2.5.7.9,1.5.9s1.5-.5,1.5-1.6v-.9c-.4.5-1.1,1-2,1-1.6,0-2.8-1.3-2.8-3.2ZM122.2,374c0-1.2-.8-1.8-1.6-1.8s-1.6.6-1.6,1.8.8,1.8,1.6,1.8,1.6-.6,1.6-1.8ZM126.8,374v3h-1.5v-6.1h1.5v.9c.4-.6,1-1,1.9-1v1.6h-.4c-.9,0-1.5.4-1.5,1.5ZM135.6,374c0,1.9-1.4,3.1-3.2,3.1s-3.1-1.2-3.1-3.1,1.4-3.1,3.1-3.1,3.1,1.2,3.1,3.1ZM130.9,374c0,1.2.7,1.8,1.5,1.8s1.6-.6,1.6-1.8-.8-1.8-1.6-1.8-1.6.6-1.6,1.8ZM137.8,377.1l-1.8-6.1h1.6l1.1,4.6,1.2-4.6h1.6l1.1,4.6,1.1-4.6h1.5l-1.8,6.1h-1.7l-1.1-4.3-1.1,4.3h-1.7ZM146.3,375.2v-2.9h-.7v-1.3h.7v-1.5h1.6v1.5h1.4v1.3h-1.4v2.9c0,.4.2.6.6.6h.7v1.3h-1c-1.2,0-1.9-.5-1.9-1.9ZM150.3,377.1v-8.1h1.5v2.8c.4-.5,1.1-.8,1.9-.8,1.4,0,2.4.9,2.4,2.6v3.6h-1.5v-3.4c0-1-.5-1.5-1.4-1.5s-1.4.5-1.4,1.5v3.4h-1.5ZM161.7,374v3h-1.5v-6.1h1.5v.9c.4-.6,1-1,1.9-1v1.6h-.4c-.9,0-1.5.4-1.5,1.5ZM164.2,374c0-1.9,1.2-3.1,2.8-3.1s1.6.5,2,1v-.9h1.6v6.1h-1.6v-.9c-.4.5-1.1,1-2,1-1.5,0-2.8-1.3-2.8-3.2ZM169,374c0-1.2-.8-1.8-1.6-1.8s-1.6.6-1.6,1.8.8,1.8,1.6,1.8,1.6-.6,1.6-1.8ZM172.3,375.2v-2.9h-.7v-1.3h.7v-1.5h1.6v1.5h1.4v1.3h-1.4v2.9c0,.4.2.6.6.6h.7v1.3h-1c-1.2,0-1.9-.5-1.9-1.9ZM179,372.1c-.7,0-1.3.5-1.4,1.3h2.9c0-.8-.7-1.3-1.5-1.3ZM181.8,375.1c-.3,1.1-1.3,2-2.8,2s-3.1-1.2-3.1-3.1,1.3-3.1,3.1-3.1,3,1.2,3,3,0,.4,0,.6h-4.5c0,.9.7,1.4,1.5,1.4s1-.3,1.2-.7h1.7ZM190,379.2h-1.6c-1.4-1.4-2.2-3.7-2.2-6.1s.8-4.8,2.4-6.2h1.6c-1.7,1.7-2.5,4-2.5,6.2s.8,4.4,2.3,5.9v.2ZM191.1,377.1v-7.7h1.5v7.7h-1.5ZM197.7,369.3c1.7,0,3.1.9,3.6,2.4h-1.8c-.4-.6-1-1-1.8-1-1.4,0-2.3,1-2.3,2.5s1,2.5,2.4,2.5,1.9-.7,2.2-1.8h-2.6v-1.2h4.2v1.3c-.3,1.6-1.7,3-3.8,3s-3.9-1.6-3.9-3.9,1.7-3.9,3.9-3.9ZM206.7,371.8c0-.7-.4-1.1-1.2-1.1h-1.3v2.3h1.3c.9,0,1.2-.5,1.2-1.1ZM202.6,369.4h2.9c1.8,0,2.8,1.1,2.8,2.4s-.5,1.9-1.7,2.2l1.8,3.1h-1.8l-1.7-3h-.7v3h-1.5v-7.7ZM209.2,379.2v-.2c1.5-1.6,2.3-3.7,2.3-5.9s-.8-4.5-2.5-6.1h0c0-.1,1.6-.1,1.6-.1,1.6,1.4,2.4,3.8,2.4,6.2s-.8,4.7-2.2,6.1h-1.6Z"/>
  <path class="st7" d="M29,363.5h0c4.4,0,8,3.6,8,8h0c0,4.4-3.6,8-8,8h0c-4.4,0-8-3.6-8-8h0c0-4.4,3.6-8,8-8Z"/>
  <path class="st10" d="M25.6,371c0-2.1,1.5-3.6,3.5-3.6s2.7.8,3.2,2.1h-1.1c-.4-.8-1.1-1.3-2.1-1.3-1.5,0-2.6,1.1-2.6,2.8s1.1,2.8,2.6,2.8,1.8-.5,2.1-1.3h1.1c-.5,1.3-1.7,2.1-3.2,2.1s-3.5-1.5-3.5-3.5Z"/>
  <path class="st4" d="M138.6,46v8.6"/>
  <path class="st11" d="M142.2,54.2h-7.2l3.6,3.6,3.6-3.6Z"/>
  <path class="st4" d="M138.6,94v8.7"/>
  <path class="st11" d="M142.2,102.2h-7.2l3.6,3.6,3.6-3.6Z"/>
  <path class="st4" d="M138.6,141v8.6"/>
  <path class="st11" d="M142.2,149.2h-7.2l3.6,3.6,3.6-3.6Z"/>
  <path class="st4" d="M138.6,189v8.6"/>
  <path class="st11" d="M142.2,197.2h-7.2l3.6,3.6,3.6-3.6Z"/>
  <path class="st4" d="M138.6,236v8.6"/>
  <path class="st11" d="M142.2,244.2h-7.2l3.6,3.6,3.6-3.6Z"/>
  <path class="st4" d="M138.6,269.5v34"/>
  <path class="st11" d="M142.2,302.6h-7.2l3.6,3.6,3.6-3.6Z"/>
  <path class="st4" d="M138.6,343v7.8"/>
  <path class="st11" d="M142.2,350.4h-7.2l3.6,3.6,3.6-3.6Z"/>
  <rect class="st0" x="46.1" y="400.1" width="156" height="24"/>
  <path class="st7" d="M64.1,404.1h0c4.4,0,8,3.6,8,8h0c0,4.4-3.6,8-8,8h0c-4.4,0-8-3.6-8-8h0c0-4.4,3.6-8,8-8Z"/>
  <path class="st10" d="M63.6,416.1v-7h.9v7h-.9Z"/>
  <path class="st10" d="M79.7,415.1v-4.4h.6v4.4h-.6ZM80,409.9c-.2,0-.4-.2-.4-.4s.2-.4.4-.4.4.2.4.4-.2.4-.4.4ZM84.8,415.1v-2.5c0-1-.5-1.5-1.3-1.5s-1.4.5-1.4,1.6v2.4h-.6v-4.4h.6v.7c.3-.5.8-.8,1.5-.8,1,0,1.8.6,1.8,1.9v2.6h-.6ZM87.2,411.7c.3-.6.9-1,1.7-1s2.1.9,2.1,2.2-.9,2.3-2.1,2.3-1.5-.5-1.7-1v3h-.6v-6.4h.6v1ZM90.4,412.9c0-1.1-.7-1.8-1.6-1.8s-1.6.7-1.6,1.8.7,1.8,1.6,1.8,1.6-.7,1.6-1.8ZM95.8,410.7v4.4h-.6v-.8c-.3.6-.8.8-1.5.8-1,0-1.8-.6-1.8-1.9v-2.6h.6v2.5c0,1,.5,1.5,1.3,1.5s1.4-.5,1.4-1.6v-2.4h.6ZM97.2,413.9v-2.7h-.6v-.5h.6v-1.1h.6v1.1h1.2v.5h-1.2v2.7c0,.5.2.7.7.7h.5v.5h-.6c-.8,0-1.2-.3-1.2-1.2Z"/>
  <path class="st7" d="M132.1,404.1h0c4.4,0,8,3.6,8,8h0c0,4.4-3.6,8-8,8h0c-4.4,0-8-3.6-8-8h0c0-4.4,3.6-8,8-8Z"/>
  <path class="st10" d="M129.5,412.3c0-1.7,1.1-2.8,2.7-2.8s2.2.7,2.5,1.9h-1c-.2-.7-.7-1.1-1.6-1.1s-1.7.7-1.7,2.1.7,2.1,1.7,2.1,1.4-.4,1.6-1.1h1c-.3,1.1-1.2,1.9-2.5,1.9s-2.7-1.1-2.7-2.8Z"/>
  <path class="st10" d="M147.5,412.9c0-1.4.9-2.2,2.1-2.2s1.8.6,2,1.5h-.6c-.1-.6-.7-1-1.4-1s-1.6.6-1.6,1.8.7,1.8,1.6,1.8,1.3-.4,1.4-1h.6c-.2.9-.9,1.5-2,1.5s-2.1-.9-2.1-2.2ZM152.4,412.9c0-1.4.9-2.2,2.1-2.2s1.5.5,1.7,1v-1h.6v4.4h-.6v-1c-.3.6-.9,1-1.7,1s-2.1-.9-2.1-2.3ZM156.2,412.9c0-1.1-.7-1.8-1.6-1.8s-1.6.6-1.6,1.8.7,1.8,1.6,1.8,1.6-.7,1.6-1.8ZM158,415.1v-5.9h.6v5.9h-.6ZM159.6,412.9c0-1.4.9-2.2,2.1-2.2s1.8.6,2,1.5h-.6c-.1-.6-.7-1-1.4-1s-1.6.6-1.6,1.8.7,1.8,1.6,1.8,1.3-.4,1.4-1h.6c-.2.9-.9,1.5-2,1.5s-2.1-.9-2.1-2.2ZM168.6,410.7v4.4h-.6v-.8c-.3.6-.8.8-1.5.8-1,0-1.8-.6-1.8-1.9v-2.6h.6v2.5c0,1,.5,1.5,1.3,1.5s1.4-.5,1.4-1.6v-2.4h.6ZM169.8,415.1v-5.9h.6v5.9h-.6ZM171.4,412.9c0-1.4.9-2.2,2.1-2.2s1.5.5,1.7,1v-1h.6v4.4h-.6v-1c-.3.6-.9,1-1.7,1s-2.1-.9-2.1-2.3ZM175.2,412.9c0-1.1-.7-1.8-1.6-1.8s-1.6.6-1.6,1.8.7,1.8,1.6,1.8,1.6-.7,1.6-1.8ZM177.2,413.9v-2.7h-.6v-.5h.6v-1.1h.6v1.1h1.2v.5h-1.2v2.7c0,.5.2.7.7.7h.5v.5h-.6c-.8,0-1.2-.3-1.2-1.2ZM179.9,415.1v-4.4h.6v4.4h-.6ZM180.2,409.9c-.2,0-.4-.2-.4-.4s.2-.4.4-.4.4.2.4.4-.2.4-.4.4ZM185.9,412.9c0,1.4-1,2.2-2.2,2.2s-2.2-.9-2.2-2.2,1-2.2,2.2-2.2,2.2.9,2.2,2.2ZM182.1,412.9c0,1.2.8,1.8,1.6,1.8s1.6-.6,1.6-1.8-.8-1.8-1.6-1.8-1.6.6-1.6,1.8ZM190.1,415.1v-2.5c0-1-.5-1.5-1.3-1.5s-1.4.5-1.4,1.6v2.4h-.6v-4.4h.6v.7c.3-.5.8-.8,1.5-.8,1,0,1.8.6,1.8,1.9v2.6h-.6Z"/>
  <g>
    <path class="st6" d="M72.1,265.8c-.2-.2-.3-.4-.3-.6s0-.5.3-.6c.2-.2.4-.3.7-.3s.5,0,.7.3c.2.2.3.4.3.6s0,.5-.3.6c-.2.2-.4.3-.7.3s-.5,0-.7-.3ZM73.5,266.8v6.1h-1.5v-6.1h1.5Z"/>
    <path class="st6" d="M80.2,267.4c.4.5.7,1.1.7,1.9v3.6h-1.5v-3.4c0-.5-.1-.9-.4-1.1s-.6-.4-1-.4-.8.1-1,.4c-.2.3-.4.6-.4,1.1v3.4h-1.5v-6.1h1.5v.8c.2-.3.5-.5.8-.6.3-.2.7-.2,1-.2.7,0,1.3.2,1.8.7Z"/>
    <path class="st6" d="M82.3,268.1c.3-.5.6-.8,1.1-1.1.5-.3,1-.4,1.6-.4s1.4.2,1.9.6c.5.4.8.9,1,1.6h-1.7c0-.3-.2-.5-.4-.6s-.5-.2-.8-.2c-.4,0-.8.2-1,.5-.3.3-.4.8-.4,1.4s.1,1,.4,1.3c.3.3.6.5,1,.5.6,0,1-.3,1.2-.8h1.7c-.2.7-.5,1.2-1,1.6s-1.1.6-1.9.6-1.1-.1-1.6-.4c-.5-.3-.8-.6-1.1-1.1s-.4-1-.4-1.7.1-1.2.4-1.7Z"/>
    <path class="st6" d="M90.1,272.6c-.5-.3-.8-.6-1.1-1.1-.3-.5-.4-1-.4-1.6s.1-1.2.4-1.7c.3-.5.7-.8,1.1-1.1.5-.3,1-.4,1.6-.4s1.1.1,1.6.4c.5.3.9.6,1.1,1.1s.4,1,.4,1.7-.1,1.2-.4,1.6c-.3.5-.7.8-1.1,1.1-.5.3-1,.4-1.6.4s-1.1-.1-1.6-.4ZM92.4,271.4c.2-.1.4-.3.6-.6s.2-.6.2-1c0-.6-.2-1-.5-1.3-.3-.3-.7-.5-1.1-.5s-.8.2-1.1.5c-.3.3-.4.8-.4,1.3s.1,1,.4,1.3c.3.3.7.5,1.1.5s.5,0,.8-.2Z"/>
    <path class="st6" d="M105.3,267.4c.5.5.7,1.1.7,1.9v3.6h-1.5v-3.4c0-.5-.1-.8-.4-1.1-.2-.3-.6-.4-1-.4s-.8.1-1,.4c-.2.3-.4.6-.4,1.1v3.4h-1.5v-3.4c0-.5-.1-.8-.4-1.1-.2-.3-.6-.4-1-.4s-.8.1-1,.4c-.2.3-.4.6-.4,1.1v3.4h-1.5v-6.1h1.5v.7c.2-.3.5-.5.8-.6s.7-.2,1-.2.9.1,1.3.3c.4.2.7.5.9.9.2-.4.5-.6.9-.8.4-.2.8-.3,1.2-.3.7,0,1.4.2,1.8.7Z"/>
    <path class="st6" d="M113.1,270.3h-4.5c0,.4.2.8.5,1s.6.4,1,.4c.6,0,1-.2,1.2-.7h1.7c-.2.6-.5,1.1-1,1.4-.5.4-1.1.6-1.8.6s-1.1-.1-1.6-.4c-.5-.3-.8-.6-1.1-1.1-.3-.5-.4-1-.4-1.6s.1-1.2.4-1.7.6-.8,1.1-1.1,1-.4,1.6-.4,1.1.1,1.6.4c.5.2.8.6,1.1,1.1.3.5.4,1,.4,1.6s0,.4,0,.6ZM111.6,269.2c0-.4-.2-.7-.4-1-.3-.2-.6-.4-1-.4s-.7.1-1,.3c-.3.2-.4.6-.5,1h2.9Z"/>
    <path class="st6" d="M64.8,285.9c-.4-.2-.7-.4-.9-.7-.2-.3-.4-.6-.4-1h1.6c0,.2.1.4.3.6.2.2.5.2.8.2s.5,0,.7-.2.2-.3.2-.5-.1-.3-.3-.4c-.2,0-.5-.2-1-.3-.5-.1-.8-.2-1.1-.3-.3-.1-.5-.3-.7-.5-.2-.2-.3-.6-.3-1s0-.6.3-.9.5-.5.8-.7c.4-.2.8-.2,1.3-.2.7,0,1.3.2,1.7.5s.7.9.7,1.5h-1.5c0-.2-.1-.4-.3-.6-.2-.1-.4-.2-.7-.2s-.5,0-.6.2c-.2.1-.2.2-.2.4s.1.4.3.5c.2.1.5.2,1,.3.4.1.8.2,1.1.3s.5.3.7.5c.2.2.3.6.3,1,0,.4,0,.7-.3.9s-.5.5-.8.7c-.4.2-.8.2-1.3.2s-.9,0-1.3-.3Z"/>
    <path class="st6" d="M71.6,281.2v2.9c0,.2,0,.4.1.4,0,0,.3.1.5.1h.7v1.3h-1c-1.3,0-1.9-.6-1.9-1.9v-2.9h-.7v-1.3h.7v-1.5h1.6v1.5h1.4v1.3h-1.4Z"/>
    <path class="st6" d="M74.1,281.3c.2-.5.6-.8,1-1.1s.9-.4,1.4-.4.9,0,1.2.3c.3.2.6.4.8.7v-.9h1.6v6.1h-1.6v-.9c-.2.3-.5.5-.8.7-.3.2-.8.3-1.2.3s-1-.1-1.4-.4-.8-.6-1-1.1c-.2-.5-.4-1-.4-1.7s.1-1.2.4-1.6ZM78.3,282c-.1-.3-.3-.5-.6-.6-.2-.1-.5-.2-.8-.2s-.5,0-.8.2-.4.3-.6.6-.2.6-.2,1,0,.7.2,1,.3.5.6.6c.2.1.5.2.8.2s.6,0,.8-.2c.2-.1.4-.3.6-.6.1-.3.2-.6.2-1s0-.7-.2-1Z"/>
    <path class="st6" d="M83.3,281.2v2.9c0,.2,0,.4.1.4,0,0,.3.1.5.1h.7v1.3h-1c-1.3,0-1.9-.6-1.9-1.9v-2.9h-.7v-1.3h.7v-1.5h1.6v1.5h1.4v1.3h-1.4Z"/>
    <path class="st6" d="M91.4,283.5h-4.5c0,.4.2.8.5,1s.6.4,1,.4c.6,0,1-.2,1.2-.7h1.7c-.2.6-.5,1.1-1,1.4-.5.4-1.1.6-1.8.6s-1.1-.1-1.6-.4c-.5-.3-.8-.6-1.1-1.1-.3-.5-.4-1-.4-1.6s.1-1.2.4-1.7.6-.8,1.1-1.1,1-.4,1.6-.4,1.1.1,1.6.4c.5.2.8.6,1.1,1.1.3.5.4,1,.4,1.6s0,.4,0,.6ZM89.9,282.4c0-.4-.2-.7-.4-1-.3-.2-.6-.4-1-.4s-.7.1-1,.3c-.3.2-.4.6-.5,1h2.9Z"/>
    <path class="st6" d="M102,280.6c.5.5.7,1.1.7,1.9v3.6h-1.5v-3.4c0-.5-.1-.8-.4-1.1-.2-.3-.6-.4-1-.4s-.8.1-1,.4c-.2.3-.4.6-.4,1.1v3.4h-1.5v-3.4c0-.5-.1-.8-.4-1.1-.2-.3-.6-.4-1-.4s-.8.1-1,.4c-.2.3-.4.6-.4,1.1v3.4h-1.5v-6.1h1.5v.7c.2-.3.5-.5.8-.6s.7-.2,1-.2.9.1,1.3.3c.4.2.7.5.9.9.2-.4.5-.6.9-.8.4-.2.8-.3,1.2-.3.7,0,1.4.2,1.8.7Z"/>
    <path class="st6" d="M109.7,283.5h-4.5c0,.4.2.8.5,1s.6.4,1,.4c.6,0,1-.2,1.2-.7h1.7c-.2.6-.5,1.1-1,1.4-.5.4-1.1.6-1.8.6s-1.1-.1-1.6-.4c-.5-.3-.8-.6-1.1-1.1-.3-.5-.4-1-.4-1.6s.1-1.2.4-1.7.6-.8,1.1-1.1,1-.4,1.6-.4,1.1.1,1.6.4c.5.2.8.6,1.1,1.1.3.5.4,1,.4,1.6s0,.4,0,.6ZM108.2,282.4c0-.4-.2-.7-.4-1-.3-.2-.6-.4-1-.4s-.7.1-1,.3c-.3.2-.4.6-.5,1h2.9Z"/>
    <path class="st6" d="M116,280.6c.4.5.7,1.1.7,1.9v3.6h-1.5v-3.4c0-.5-.1-.9-.4-1.1s-.6-.4-1-.4-.8.1-1,.4c-.2.3-.4.6-.4,1.1v3.4h-1.5v-6.1h1.5v.8c.2-.3.5-.5.8-.6.3-.2.7-.2,1-.2.7,0,1.3.2,1.8.7Z"/>
    <path class="st6" d="M120,281.2v2.9c0,.2,0,.4.1.4,0,0,.3.1.5.1h.7v1.3h-1c-1.3,0-1.9-.6-1.9-1.9v-2.9h-.7v-1.3h.7v-1.5h1.6v1.5h1.4v1.3h-1.4Z"/>
  </g>
  <path class="st6" d="M86.8,328v-6.6h1.7v6.6h-1.7ZM87.7,320.6c-.6,0-1-.4-1-1s.4-1,1-1,1,.4,1,1-.4,1-1,1ZM99.5,328v-3.7c0-1.1-.6-1.6-1.5-1.6s-1.5.6-1.5,1.6v3.7h-1.7v-3.7c0-1.1-.6-1.6-1.5-1.6s-1.5.6-1.5,1.6v3.7h-1.7v-6.6h1.7v.8c.4-.6,1.1-.9,2-.9s1.9.4,2.3,1.3c.4-.8,1.3-1.3,2.3-1.3,1.6,0,2.7,1,2.7,2.8v3.9h-1.7ZM104.4,322.3c.4-.6,1.2-1.1,2.2-1.1,1.7,0,3,1.3,3,3.4s-1.3,3.5-3,3.5-1.8-.5-2.2-1.1v4.1h-1.7v-9.8h1.7v1ZM107.9,324.7c0-1.3-.9-1.9-1.8-1.9s-1.8.7-1.8,2,.9,2,1.8,2,1.8-.7,1.8-2ZM110.9,328v-8.9h1.7v8.9h-1.7ZM114.2,328v-6.6h1.7v6.6h-1.7ZM115.1,320.6c-.6,0-1-.4-1-1s.4-1,1-1,1,.4,1,1-.4,1-1,1ZM120.4,322.6c-.8,0-1.4.5-1.6,1.4h3.2c0-.9-.7-1.4-1.6-1.4ZM123.6,325.9c-.4,1.2-1.5,2.2-3.1,2.2s-3.3-1.3-3.3-3.4,1.4-3.4,3.3-3.4,3.3,1.3,3.3,3.3,0,.4,0,.6h-4.9c0,1,.8,1.5,1.6,1.5s1.1-.4,1.3-.8h1.8ZM124.5,324.7c0-2.1,1.3-3.4,3-3.4s1.7.4,2.2,1v-3.2h1.7v8.9h-1.7v-1c-.4.6-1.1,1.1-2.2,1.1-1.7,0-3-1.4-3-3.5ZM129.8,324.7c0-1.3-.8-2-1.8-2s-1.8.7-1.8,1.9.9,2,1.8,2,1.8-.7,1.8-2ZM137.6,324.7v3.3h-1.7v-6.6h1.7v1c.4-.7,1.1-1.1,2-1.1v1.8h-.4c-1,0-1.6.4-1.6,1.7ZM143.7,322.6c-.8,0-1.4.5-1.6,1.4h3.2c0-.9-.7-1.4-1.6-1.4ZM146.8,325.9c-.4,1.2-1.5,2.2-3.1,2.2s-3.3-1.3-3.3-3.4,1.4-3.4,3.3-3.4,3.3,1.3,3.3,3.3,0,.4,0,.6h-4.9c0,1,.8,1.5,1.6,1.5s1.1-.4,1.3-.8h1.8ZM147.5,321.4h1.8l1.7,5.1,1.7-5.1h1.8l-2.5,6.6h-2l-2.4-6.6ZM158.2,322.6c-.8,0-1.4.5-1.6,1.4h3.2c0-.9-.7-1.4-1.6-1.4ZM161.4,325.9c-.4,1.2-1.5,2.2-3.1,2.2s-3.3-1.3-3.3-3.4,1.4-3.4,3.3-3.4,3.3,1.3,3.3,3.3,0,.4,0,.6h-4.9c0,1,.8,1.5,1.6,1.5s1.1-.4,1.3-.8h1.8ZM167.5,328v-3.7c0-1.1-.6-1.6-1.5-1.6s-1.5.6-1.5,1.6v3.7h-1.7v-6.6h1.7v.8c.4-.6,1.2-.9,2-.9,1.5,0,2.7,1,2.7,2.8v3.9h-1.7ZM177,321.4v6.6h-1.7v-.8c-.4.6-1.2.9-2,.9-1.5,0-2.7-1-2.7-2.8v-3.9h1.7v3.7c0,1.1.6,1.6,1.5,1.6s1.5-.6,1.5-1.6v-3.7h1.7ZM181.5,322.6c-.8,0-1.4.5-1.6,1.4h3.2c0-.9-.7-1.4-1.6-1.4ZM184.7,325.9c-.4,1.2-1.5,2.2-3.1,2.2s-3.3-1.3-3.3-3.4,1.4-3.4,3.3-3.4,3.3,1.3,3.3,3.3,0,.4,0,.6h-4.9c0,1,.8,1.5,1.6,1.5s1.1-.4,1.3-.8h1.8Z"/>
  <path class="st9" d="M221,256h-72c-3.3,0-6,2.7-6,6v26c0,3.3,2.7,6,6,6h72c3.3,0,6-2.7,6-6v-26c0-3.3-2.7-6-6-6Z"/>
  <g>
    <path class="st6" d="M166.5,266.9c.3-.2.7-.3,1.2-.3s1,.1,1.4.4.8.6,1,1.1c.2.5.4,1,.4,1.6s-.1,1.2-.4,1.7c-.2.5-.6.9-1,1.1s-.9.4-1.4.4-.9,0-1.2-.3c-.3-.2-.6-.4-.8-.7v.9h-1.5v-8.1h1.5v2.9c.2-.3.5-.5.8-.7ZM168.7,268.8c-.2-.3-.3-.5-.6-.6-.2-.1-.5-.2-.8-.2s-.5,0-.8.2c-.2.1-.4.4-.6.6s-.2.6-.2,1,0,.7.2,1,.3.5.6.6c.2.1.5.2.8.2s.6,0,.8-.2c.2-.1.4-.4.6-.6.1-.3.2-.6.2-1s0-.7-.2-1Z"/>
    <path class="st6" d="M171.5,268.1c.2-.5.6-.8,1-1.1s.9-.4,1.4-.4.9,0,1.2.3c.3.2.6.4.8.7v-.9h1.6v6.1h-1.6v-.9c-.2.3-.5.5-.8.7-.3.2-.8.3-1.2.3s-1-.1-1.4-.4-.8-.6-1-1.1c-.2-.5-.4-1-.4-1.7s.1-1.2.4-1.6ZM175.8,268.8c-.1-.3-.3-.5-.6-.6-.2-.1-.5-.2-.8-.2s-.5,0-.8.2-.4.3-.6.6-.2.6-.2,1,0,.7.2,1,.3.5.6.6c.2.1.5.2.8.2s.6,0,.8-.2c.2-.1.4-.3.6-.6.1-.3.2-.6.2-1s0-.7-.2-1Z"/>
    <path class="st6" d="M180.6,264.7v8.1h-1.5v-8.1h1.5Z"/>
    <path class="st6" d="M182.1,268.1c.2-.5.6-.8,1-1.1s.9-.4,1.4-.4.9,0,1.2.3c.3.2.6.4.8.7v-.9h1.6v6.1h-1.6v-.9c-.2.3-.5.5-.8.7-.3.2-.8.3-1.2.3s-1-.1-1.4-.4-.8-.6-1-1.1c-.2-.5-.4-1-.4-1.7s.1-1.2.4-1.6ZM186.3,268.8c-.1-.3-.3-.5-.6-.6-.2-.1-.5-.2-.8-.2s-.5,0-.8.2-.4.3-.6.6-.2.6-.2,1,0,.7.2,1,.3.5.6.6c.2.1.5.2.8.2s.6,0,.8-.2c.2-.1.4-.3.6-.6.1-.3.2-.6.2-1s0-.7-.2-1Z"/>
    <path class="st6" d="M194.7,267.3c.4.5.7,1.1.7,1.9v3.6h-1.5v-3.4c0-.5-.1-.9-.4-1.1s-.6-.4-1-.4-.8.1-1,.4c-.2.3-.4.6-.4,1.1v3.4h-1.5v-6.1h1.5v.8c.2-.3.5-.5.8-.6.3-.2.7-.2,1-.2.7,0,1.3.2,1.8.7Z"/>
    <path class="st6" d="M196.8,268.1c.3-.5.6-.8,1.1-1.1.5-.3,1-.4,1.6-.4s1.4.2,1.9.6c.5.4.8.9,1,1.6h-1.7c0-.3-.2-.5-.4-.6s-.5-.2-.8-.2c-.4,0-.8.2-1,.5-.3.3-.4.8-.4,1.4s.1,1,.4,1.3c.3.3.6.5,1,.5.6,0,1-.3,1.2-.8h1.7c-.2.7-.5,1.2-1,1.6s-1.1.6-1.9.6-1.1-.1-1.6-.4c-.5-.3-.8-.6-1.1-1.1s-.4-1-.4-1.7.1-1.2.4-1.7Z"/>
    <path class="st6" d="M209.1,270.2h-4.5c0,.4.2.8.5,1s.6.4,1,.4c.6,0,1-.2,1.2-.7h1.7c-.2.6-.5,1.1-1,1.4-.5.4-1.1.6-1.8.6s-1.1-.1-1.6-.4c-.5-.3-.8-.6-1.1-1.1-.3-.5-.4-1-.4-1.6s.1-1.2.4-1.7.6-.8,1.1-1.1,1-.4,1.6-.4,1.1.1,1.6.4c.5.2.8.6,1.1,1.1.3.5.4,1,.4,1.6s0,.4,0,.6ZM207.5,269.2c0-.4-.2-.7-.4-1-.3-.2-.6-.4-1-.4s-.7.1-1,.3c-.3.2-.4.6-.5,1h2.9Z"/>
    <path class="st6" d="M172.6,285.8c-.4-.2-.7-.4-.9-.7-.2-.3-.4-.6-.4-1h1.6c0,.2.1.4.3.6.2.2.5.2.8.2s.5,0,.7-.2.2-.3.2-.5-.1-.3-.3-.4c-.2,0-.5-.2-1-.3-.5-.1-.8-.2-1.1-.3-.3-.1-.5-.3-.7-.5-.2-.2-.3-.6-.3-1s0-.6.3-.9.5-.5.8-.7c.4-.2.8-.2,1.3-.2.7,0,1.3.2,1.7.5s.7.9.7,1.5h-1.5c0-.2-.1-.4-.3-.6-.2-.1-.4-.2-.7-.2s-.5,0-.6.2c-.2.1-.2.2-.2.4s.1.4.3.5c.2.1.5.2,1,.3.4.1.8.2,1.1.3s.5.3.7.5c.2.2.3.6.3,1,0,.4,0,.7-.3.9s-.5.5-.8.7c-.4.2-.8.2-1.3.2s-.9,0-1.3-.3Z"/>
    <path class="st6" d="M182.3,280.1c.4.2.6.5.8.9.2.4.3.9.3,1.4v3.6h-1.5v-3.4c0-.5-.1-.9-.4-1.1s-.6-.4-1-.4-.8.1-1,.4c-.2.3-.4.6-.4,1.1v3.4h-1.5v-8.1h1.5v2.8c.2-.3.5-.5.8-.6s.7-.2,1.1-.2.9.1,1.2.3Z"/>
    <path class="st6" d="M190.5,283.4h-4.5c0,.4.2.8.5,1s.6.4,1,.4c.6,0,1-.2,1.2-.7h1.7c-.2.6-.5,1.1-1,1.4-.5.4-1.1.6-1.8.6s-1.1-.1-1.6-.4c-.5-.3-.8-.6-1.1-1.1-.3-.5-.4-1-.4-1.6s.1-1.2.4-1.7.6-.8,1.1-1.1,1-.4,1.6-.4,1.1.1,1.6.4c.5.2.8.6,1.1,1.1.3.5.4,1,.4,1.6s0,.4,0,.6ZM189,282.4c0-.4-.2-.7-.4-1-.3-.2-.6-.4-1-.4s-.7.1-1,.3c-.3.2-.4.6-.5,1h2.9Z"/>
    <path class="st6" d="M197.3,283.4h-4.5c0,.4.2.8.5,1s.6.4,1,.4c.6,0,1-.2,1.2-.7h1.7c-.2.6-.5,1.1-1,1.4-.5.4-1.1.6-1.8.6s-1.1-.1-1.6-.4c-.5-.3-.8-.6-1.1-1.1-.3-.5-.4-1-.4-1.6s.1-1.2.4-1.7.6-.8,1.1-1.1,1-.4,1.6-.4,1.1.1,1.6.4c.5.2.8.6,1.1,1.1.3.5.4,1,.4,1.6s0,.4,0,.6ZM195.7,282.4c0-.4-.2-.7-.4-1-.3-.2-.6-.4-1-.4s-.7.1-1,.3c-.3.2-.4.6-.5,1h2.9Z"/>
    <path class="st6" d="M200.2,281.2v2.9c0,.2,0,.4.1.4,0,0,.3.1.5.1h.7v1.3h-1c-1.3,0-1.9-.6-1.9-1.9v-2.9h-.7v-1.3h.7v-1.5h1.6v1.5h1.4v1.3h-1.4Z"/>
  </g>
</svg>