<?xml version="1.0" encoding="utf-8"?>
<!-- Generator: Adobe Illustrator 24.3.0, SVG Export Plug-In . SVG Version: 6.00 Build 0)  -->
<svg version="1.1" id="Layer_1" xmlns="http://www.w3.org/2000/svg" xmlns:xlink="http://www.w3.org/1999/xlink" x="0px" y="0px"
	 viewBox="0 0 42 42" style="enable-background:new 0 0 42 42;" xml:space="preserve">
<style type="text/css">
	.st0{fill:none;stroke:#4b4b4b;stroke-width:3;stroke-miterlimit:10;}
	.st1{fill:#4b4b4b;}
</style>
<g>
	<g>
		<path class="st0" d="M21,40L21,40C10.5,40,2,31.5,2,21v0C2,10.5,10.5,2,21,2h0c10.5,0,19,8.5,19,19v0C40,31.5,31.5,40,21,40z"/>
	</g>
	<g>
		<path class="st1" d="M21,28.5c-0.3,0-0.6-0.1-0.9-0.4l-8.2-8.2c-0.5-0.5-0.5-1.3,0-1.8c0.5-0.5,1.3-0.5,1.8,0l7.3,7.3l7.3-7.3
			c0.5-0.5,1.3-0.5,1.8,0c0.5,0.5,0.5,1.3,0,1.8l-8.2,8.2C21.6,28.4,21.3,28.5,21,28.5z"/>
	</g>
</g>
</svg>
