<svg width="63" height="63" viewBox="0 0 63 63" fill="none" xmlns="http://www.w3.org/2000/svg">
<path d="M32 4C17.0785 4 5 16.0754 5 31C5 45.9225 17.0754 58 32 58C46.9225 58 59 45.9246 59 31C59 16.0775 46.9246 4 32 4ZM49.5011 48.5011C39.829 58.1733 24.1726 58.1745 14.4989 48.5011C4.8488 38.8511 4.8488 23.1489 14.4989 13.4989C24.171 3.82669 39.8274 3.82504 49.5011 13.4989C59.1512 23.1489 59.1512 38.8511 49.5011 48.5011Z" fill="white"/>
<path d="M42.3413 20.6588C41.9021 20.2196 41.1898 20.2196 40.7502 20.6588L31.9997 29.4092L23.2492 20.6588C22.8101 20.2196 22.0978 20.2196 21.6581 20.6588C21.219 21.0979 21.219 21.8103 21.6581 22.2499L30.4086 31.0003L21.6581 39.7508C21.219 40.19 21.219 40.9023 21.6581 41.3419C22.0977 41.781 22.8096 41.781 23.2492 41.3419L31.9997 32.5914L40.7502 41.3419C41.1897 41.781 41.9017 41.781 42.3413 41.3419C42.7808 40.9028 42.7804 40.1904 42.3413 39.7508L33.5908 31.0003L42.3413 22.2499C42.7804 21.8107 42.7804 21.0984 42.3413 20.6588V20.6588Z" fill="white"/>
</svg>
