<svg id="Layer_1" data-name="Layer 1" xmlns="http://www.w3.org/2000/svg" viewBox="0 0 40 40">
  <defs>
    <style>.cls-1{fill:#00B9FF;}.cls-2{fill:#fff;}</style>
  </defs>
  <title>191010_NAA_Tool_button</title>
  <rect class="cls-1" width="40" height="40" rx="20"/>
  <path class="cls-2" d="M29.5,23.57a.75.75,0,0,0-.75.75v3.37l-3.9-3.9a.75.75,0,0,0-1.06,1.06l3.9,3.9H24.32a.75.75,0,0,0,0,1.5H29.5a.75.75,0,0,0,.29-.06.71.71,0,0,0,.4-.4.75.75,0,0,0,.06-.29V24.32A.75.75,0,0,0,29.5,23.57Z"/>
  <path class="cls-2" d="M16.43,10.5a.75.75,0,0,0-.75-.75H10.5a.75.75,0,0,0-.29.06.71.71,0,0,0-.4.4.75.75,0,0,0-.06.29v5.18a.75.75,0,0,0,1.5,0V12.31l3.9,3.9a.74.74,0,0,0,.53.22.73.73,0,0,0,.53-.22.75.75,0,0,0,0-1.06l-3.9-3.9h3.37A.75.75,0,0,0,16.43,10.5Z"/>
  <path class="cls-2" d="M16.21,23.79a.75.75,0,0,0-1.06,0l-3.9,3.9V24.32a.75.75,0,0,0-1.5,0V29.5a.75.75,0,0,0,.06.29.71.71,0,0,0,.4.4.75.75,0,0,0,.29.06h5.18a.75.75,0,0,0,0-1.5H12.31l3.9-3.9A.75.75,0,0,0,16.21,23.79Z"/>
  <path class="cls-2" d="M30.19,10.21a.71.71,0,0,0-.4-.4.75.75,0,0,0-.29-.06H24.32a.75.75,0,0,0,0,1.5h3.37l-3.9,3.9a.75.75,0,0,0,0,1.06.73.73,0,0,0,.53.22.74.74,0,0,0,.53-.22l3.9-3.9v3.37a.75.75,0,0,0,1.5,0V10.5A.75.75,0,0,0,30.19,10.21Z"/>
</svg>
