<?xml version="1.0" encoding="iso-8859-1"?>
<!-- Generator: Adobe Illustrator 18.0.0, SVG Export Plug-In . SVG Version: 6.00 Build 0)  -->
<!DOCTYPE svg PUBLIC "-//W3C//DTD SVG 1.1//EN" "http://www.w3.org/Graphics/SVG/1.1/DTD/svg11.dtd">
<svg xmlns="http://www.w3.org/2000/svg" xmlns:xlink="http://www.w3.org/1999/xlink" version="1.1" x="0px" y="0px" viewBox="0 0 600 600" enable-background="new 0 0 600 600" xml:space="preserve">

<g><circle r="300" cy="300" cx="300" fill="#01b9ff"/>
  <g transform="translate(130,130)scale(.33)" fill="#fff"><path d="M949.2,274.4l-154.5-0.6L968,101.6c19-19.2,19-50.2,0-69.3c-19.1-19.1-49.9-19.1-68.8,0l-175,174.1l1.2-157.6c0.5-19.8-15.2-37-34.8-36.5h-24.9c-19.7,0.5-35.9,12.3-36.4,32l-1,273.4c0,0.4,1.3,0.6,1.3,1l-1.9,17.9c-0.2,9.9,2.2,18.7,8.5,25.1c6.3,6.4,15.1,10.3,24.9,10l17.8-0.4c0.4,0,0.7-0.2,1-0.2l273.7,1.5c19.7-0.5,35.9-16.8,36.4-36.6V311C987,287.6,968.8,274,949.2,274.4z M988.2,691.2l-0.1-25.1c-0.5-19.8-16.6-36.2-36.2-36.6L679.6,631c-0.4,0-0.7-0.2-1-0.2l-17.7-0.4c-9.8-0.3-18.5,3.6-24.8,10c-6.3,6.4-8.6,15.3-8.4,25.2l1.9,17.9c0,0.4-1.3,0.6-1.3,1l1,271.3c0.4,19.8,16.6,31.5,36.2,32l26.4,0.1c19.6,0.5,35.1-16.8,34.6-36.6l-1.1-154.4l174.3,173c18.8,19.1,49.6,19.1,68.5,0c18.9-19.1,18.9-50.1,0-69.3L794,726.7l153.5-0.6C967,726.6,985.2,714.5,988.2,691.2z M362,640.4c-6.3-6.4-15.1-10.3-24.9-10l-17.8,0.4c-0.3,0-0.6,0.2-1,0.2l-270.1-1.5c-19.6,0.5-35.9,16.8-36.4,36.6l-0.1,25.1c3,23.3,21.2,35.4,40.8,35l152.3,0.6L30.2,900.6c-19,19.2-19,50.2,0,69.3c19,19.1,49.8,19.1,68.8,0l175-174l-1.2,153.5c-0.5,19.8,15.2,37,34.8,36.5h25c19.7-0.5,36-12.2,36.4-32l1-269.3c0-0.4-1.3-0.6-1.3-1l2-17.9C370.7,655.7,368.4,646.8,362,640.4z M369.9,317.7l-1-273.4c-0.4-19.8-16.6-31.6-36.2-32.1h-26.4c-19.6-0.4-35.1,16.8-34.6,36.5l1.2,156.5L98.6,32.3c-19-19.1-49.6-19.1-68.5,0c-18.9,19.1-18.9,50.1,0,69.3l172.6,172.3l-152,0.6C31.1,274,13,287.6,10,311l0.1,25.1c0.5,19.8,16.6,36.2,36.2,36.6l272.3-1.5c0.4,0.1,0.6,0.2,1,0.2l17.7,0.4c9.8,0.3,18.6-3.6,24.8-10c6.3-6.4,8.6-15.3,8.4-25.2l-2-17.9C368.5,318.3,369.9,318.1,369.9,317.7z"/></g></g>
</svg>
