<svg id="Layer_1" data-name="Layer 1" xmlns="http://www.w3.org/2000/svg" viewBox="0 0 40 40">
  <defs>
    <style>.cls-1{fill:#00B9FF;}.cls-2{fill:#fff;}</style>
  </defs>
  <title>191010_NAA_Tool_button</title>
  <rect class="cls-1" width="40" height="40" rx="20"/>
  <path class="cls-2" d="M18.4,22.35a4.33,4.33,0,0,1,2.24-3.86c1.08-.72,2.13-1.18,2.13-2.43s-1-2.25-2.71-2.25a3.26,3.26,0,0,0-3.41,3c0,.08-1.68,0-1.68-1.27a3.57,3.57,0,0,1,1.25-2.45,5.63,5.63,0,0,1,3.89-1.34c3.12,0,5,1.7,5,4.08,0,2-1.16,2.81-2.33,3.6s-2.36,1.46-2.4,3.17c0,.36-.44.53-1,.53S18.38,22.9,18.4,22.35ZM18,26.48v-.29a1.18,1.18,0,0,1,1.29-1.32h.34A1.19,1.19,0,0,1,21,26.19v.29a1.17,1.17,0,0,1-1.32,1.29h-.34A1.16,1.16,0,0,1,18,26.48Z"/>
</svg>
