<?xml version="1.0" encoding="utf-8"?>
<!-- Generator: Adobe Illustrator 24.0.2, SVG Export Plug-In . SVG Version: 6.00 Build 0)  -->
<svg version="1.1" id="Capa_1" xmlns="http://www.w3.org/2000/svg" xmlns:xlink="http://www.w3.org/1999/xlink" x="0px" y="0px"
	 viewBox="0 0 25 25" style="enable-background:new 0 0 25 25;" xml:space="preserve">
<style type="text/css">
	.st0{fill:#00B9FF;}
	.st1{fill:#FFFFFF;stroke:#FFFFFF;stroke-width:0.35;stroke-miterlimit:10;}
</style>
<g>
	<circle class="st0" cx="12.5" cy="12.5" r="12"/>
	<g>
		<path class="st1" d="M7,19.5c-0.1,0-0.2-0.1-0.2-0.2v-7.5c0-0.3,0.5-0.3,0.5,0V19h3.5v-4.6c0-0.1,0.1-0.2,0.2-0.2h3
			c0.1,0,0.2,0.1,0.2,0.2V19h3.5v-7.2c0-0.3,0.5-0.3,0.5,0v7.5c0,0.1-0.1,0.2-0.2,0.2c-1.3,0-2.6,0-4,0c-0.1,0-0.2-0.1-0.2-0.2v-4.6
			h-2.5v4.6c0,0.1-0.1,0.2-0.2,0.2H7z"/>
		<path class="st1" d="M5.1,11.6c-0.2,0.2-0.5-0.2-0.3-0.4l7.4-5.6c0.1-0.1,0.2-0.1,0.3,0c2.5,1.9,5,3.8,7.6,5.8
			c0.2,0.2,0,0.5-0.3,0.4c-2.5-1.9-5-3.8-7.4-5.6L5.1,11.6z"/>
	</g>
</g>
</svg>
