<svg width="63" height="63" viewBox="0 0 63 63" fill="none" xmlns="http://www.w3.org/2000/svg">
<path d="M32 59C39.4261 59 46.548 56.05 51.799 50.799C57.05 45.548 60 38.4261 60 31C60 23.5739 57.05 16.452 51.799 11.201C46.548 5.94999 39.4261 3 32 3C24.5739 3 17.452 5.94999 12.201 11.201C6.94999 16.452 4 23.5739 4 31C4 38.4261 6.94999 45.548 12.201 50.799C17.452 56.05 24.5739 59 32 59V59ZM35.255 26.058L31.755 42.5255C31.51 43.7155 31.8565 44.391 32.819 44.391C33.498 44.391 34.5235 44.146 35.22 43.53L34.912 44.986C33.9075 46.197 31.692 47.079 29.7845 47.079C27.324 47.079 26.2775 45.602 26.9565 42.4625L29.5395 30.3245C29.7635 29.299 29.5605 28.928 28.535 28.6795L26.9565 28.396L27.2435 27.0625L35.2585 26.058H35.255ZM32 22.25C31.0717 22.25 30.1815 21.8813 29.5251 21.2249C28.8687 20.5685 28.5 19.6783 28.5 18.75C28.5 17.8217 28.8687 16.9315 29.5251 16.2751C30.1815 15.6187 31.0717 15.25 32 15.25C32.9283 15.25 33.8185 15.6187 34.4749 16.2751C35.1313 16.9315 35.5 17.8217 35.5 18.75C35.5 19.6783 35.1313 20.5685 34.4749 21.2249C33.8185 21.8813 32.9283 22.25 32 22.25V22.25Z" fill="white"/>
</svg>
