<?xml version="1.0" encoding="utf-8"?>
<!-- Generator: Adobe Illustrator 24.1.1, SVG Export Plug-In . SVG Version: 6.00 Build 0)  -->
<svg version="1.1" id="Layer_1" xmlns="http://www.w3.org/2000/svg" xmlns:xlink="http://www.w3.org/1999/xlink" x="0px" y="0px"
	 viewBox="0 0 31 31" style="enable-background:new 0 0 31 31;" xml:space="preserve">
<style type="text/css">
	.st0{fill:#00B5EB;}
	.st1{fill:#FFFFFF;}
</style>
<g>
	<g>
		<path class="st0" d="M15.5,30.7L15.5,30.7c-8.4,0-15.2-6.8-15.2-15.2l0,0c0-8.4,6.8-15.2,15.2-15.2l0,0c8.4,0,15.2,6.8,15.2,15.2
			l0,0C30.7,23.9,23.9,30.7,15.5,30.7z"/>
	</g>
</g>
<g>
	<path class="st1" d="M18.4,22.2c-0.6,0.2-1.1,0.4-1.5,0.6c-0.4,0.1-0.8,0.2-1.3,0.2c-0.8,0-1.3-0.2-1.8-0.6
		c-0.4-0.4-0.6-0.8-0.6-1.4c0-0.2,0-0.4,0-0.7c0-0.2,0.1-0.5,0.2-0.8l0.8-2.8c0.1-0.3,0.1-0.5,0.2-0.8c0-0.2,0.1-0.5,0.1-0.7
		c0-0.4-0.1-0.6-0.2-0.7c-0.1-0.1-0.4-0.2-0.8-0.2c-0.2,0-0.4,0-0.6,0.1c-0.2,0.1-0.4,0.1-0.5,0.2l0.2-0.9c0.5-0.2,1-0.4,1.5-0.5
		c0.5-0.2,0.9-0.2,1.3-0.2c0.8,0,1.3,0.2,1.7,0.5c0.4,0.4,0.6,0.8,0.6,1.4c0,0.1,0,0.3,0,0.6c0,0.3-0.1,0.6-0.2,0.8l-0.8,2.8
		c-0.1,0.2-0.1,0.5-0.2,0.8c-0.1,0.3-0.1,0.5-0.1,0.6c0,0.4,0.1,0.6,0.2,0.7c0.2,0.1,0.4,0.2,0.9,0.2c0.2,0,0.4,0,0.6-0.1
		c0.2-0.1,0.4-0.1,0.5-0.2L18.4,22.2z"/>
	<path class="st1" d="M18.3,11c-0.4,0.3-0.8,0.5-1.3,0.5c-0.5,0-1-0.2-1.3-0.5c-0.4-0.3-0.5-0.7-0.5-1.2c0-0.5,0.2-0.9,0.5-1.2
		C16,8.2,16.4,8,16.9,8c0.5,0,1,0.2,1.3,0.5c0.4,0.3,0.5,0.8,0.5,1.2C18.8,10.3,18.6,10.7,18.3,11z"/>
</g>
</svg>
