<?xml version="1.0" encoding="utf-8"?>
<!-- Generator: Adobe Illustrator 23.1.0, SVG Export Plug-In . SVG Version: 6.00 Build 0)  -->
<svg version="1.1" id="Capa_1" xmlns="http://www.w3.org/2000/svg" xmlns:xlink="http://www.w3.org/1999/xlink" x="0px" y="0px"
	 viewBox="0 0 25 25" style="enable-background:new 0 0 25 25;" xml:space="preserve">
<style type="text/css">
	.st0{fill:#00B9FF;}
	.st1{fill:#FFFFFF;stroke:#FFFFFF;stroke-width:0.5;stroke-miterlimit:10;}
	.st2{fill:#FFFFFF;}
	.st3{fill:#FFFFFF;stroke:#FFFFFF;stroke-width:0.35;stroke-miterlimit:10;}
</style>
<circle class="st0" cx="12.5" cy="12.5" r="12"/>
<path class="st1" d="M35.7,23.5c-0.1,0-0.3,0-0.3,0.2c0,0.1,0,0.3,0.2,0.3c2.5,0.7,4.3,3.1,4.3,5.8c0,3.3-2.7,6-6,6
	c-3.3,0-6-2.7-6-6c0-2.7,1.8-5,4.3-5.8c0.2-0.1,0.2-0.2,0.2-0.4c0-0.1-0.2-0.2-0.3-0.2c-2.8,0.9-4.7,3.4-4.7,6.3
	c0,3.6,2.9,6.5,6.5,6.5c3.6,0,6.5-2.9,6.5-6.5C40.4,26.8,38.5,24.3,35.7,23.5z"/>
<path class="st1" d="M31.5,32.4c0.1,0,0.3-0.1,0.3-0.3v-6.2c0-0.1-0.1-0.3-0.3-0.3s-0.3,0.1-0.3,0.3v6.2
	C31.3,32.2,31.4,32.4,31.5,32.4z"/>
<circle class="st2" cx="28.7" cy="-8.9" r="2.8"/>
<g>
	<g>
		<path class="st3" d="M9.5,7.5c0.2-0.1,0.4,0,0.5,0.1S10,8,9.8,8.1C7.3,9.4,6.1,12.2,7,14.9c1,3,4.3,4.6,7.3,3.6
			c0.9-0.3,1.8-0.8,2.4-1.5c1.4-1.5,1.9-3.6,1.3-5.6c-0.5-1.5-1.6-2.7-3-3.4c-0.2-0.1-0.2-0.3-0.2-0.5c0.1-0.2,0.3-0.2,0.5-0.2
			c1.6,0.7,2.8,2.1,3.4,3.8c0.7,2.2,0.2,4.6-1.4,6.3c-0.7,0.8-1.7,1.4-2.7,1.7c-3.4,1.1-7.1-0.7-8.2-4.1C5.3,12.1,6.7,8.9,9.5,7.5z
			 M12.4,5.5c0.3,0,0.5,0.2,0.5,0.5v5.2c0,0.3-0.2,0.5-0.5,0.5c-0.3,0-0.5-0.2-0.5-0.5V6C11.9,5.7,12.1,5.5,12.4,5.5z"/>
	</g>
</g>
</svg>
