<?xml version="1.0" encoding="utf-8"?>
<!-- Generator: Adobe Illustrator 24.0.0, SVG Export Plug-In . SVG Version: 6.00 Build 0)  -->
<svg version="1.1" xmlns="http://www.w3.org/2000/svg" xmlns:xlink="http://www.w3.org/1999/xlink" x="0px" y="0px"
	 viewBox="0 0 25 25" style="enable-background:new 0 0 25 25;" xml:space="preserve">
<style type="text/css">
	.st0{fill:#00B9FF;}
	.st1{fill:#FFFFFF;stroke:#FFFFFF;stroke-width:0.5;stroke-miterlimit:10;}
	.st2{fill:#FFFFFF;}
	.st3{fill:#FFFFFF;stroke:#FFFFFF;stroke-width:0.35;stroke-miterlimit:10;}
	.st4{fill:#F1F2F2;}
</style>
<g id="Capa_1">
	<circle class="st0" cx="-49.7" cy="12.1" r="12"/>
	<path class="st1" d="M35.7,23.5c-0.1,0-0.3,0-0.3,0.2c0,0.1,0,0.3,0.2,0.3c2.5,0.7,4.3,3.1,4.3,5.8c0,3.3-2.7,6-6,6s-6-2.7-6-6
		c0-2.7,1.8-5,4.3-5.8c0.2-0.1,0.2-0.2,0.2-0.4c0-0.1-0.2-0.2-0.3-0.2c-2.8,0.9-4.7,3.4-4.7,6.3c0,3.6,2.9,6.5,6.5,6.5
		s6.5-2.9,6.5-6.5C40.4,26.8,38.5,24.3,35.7,23.5z"/>
	<path class="st1" d="M31.5,32.4c0.1,0,0.3-0.1,0.3-0.3v-6.2c0-0.1-0.1-0.3-0.3-0.3s-0.3,0.1-0.3,0.3v6.2
		C31.3,32.2,31.4,32.4,31.5,32.4z"/>
	<circle class="st2" cx="28.7" cy="-8.9" r="2.8"/>
	<g>
		<g>
			<path class="st3" d="M-52.7,7.1c0.2-0.1,0.4,0,0.5,0.1c0.1,0.1,0,0.4-0.2,0.5c-2.5,1.3-3.7,4.1-2.8,6.8c1,3,4.3,4.6,7.3,3.6
				c0.9-0.3,1.8-0.8,2.4-1.5c1.4-1.5,1.9-3.6,1.3-5.6c-0.5-1.5-1.6-2.7-3-3.4c-0.2-0.1-0.2-0.3-0.2-0.5c0.1-0.2,0.3-0.2,0.5-0.2
				c1.6,0.7,2.8,2.1,3.4,3.8c0.7,2.2,0.2,4.6-1.4,6.3c-0.7,0.8-1.7,1.4-2.7,1.7c-3.4,1.1-7.1-0.7-8.2-4.1
				C-56.9,11.7-55.5,8.5-52.7,7.1z M-49.8,5.1c0.3,0,0.5,0.2,0.5,0.5v5.2c0,0.3-0.2,0.5-0.5,0.5s-0.5-0.2-0.5-0.5V5.6
				C-50.3,5.3-50.1,5.1-49.8,5.1z"/>
		</g>
	</g>
	<g>
		<circle class="st0" cx="12.5" cy="12.5" r="12"/>
		<g>
			<path class="st4" d="M12.5,11.7c0.5,0,0.8-0.4,0.8-0.8V3.4c0-0.5-0.4-0.8-0.8-0.8s-0.8,0.4-0.8,0.8v7.4
				C11.7,11.3,12,11.7,12.5,11.7L12.5,11.7z M12.5,11.7"/>
			<path class="st4" d="M16.2,5.6c-0.2-0.1-0.5-0.1-0.7,0C15.2,5.6,15,5.8,15,6.1v0c-0.1,0.4,0.1,0.7,0.4,0.9c2.5,1.3,3.8,4.2,3.1,7
				c-0.7,2.8-3.2,4.7-6,4.7c-2.9,0-5.3-1.9-6-4.7c-0.7-2.8,0.6-5.6,3.1-7c0.3-0.2,0.5-0.5,0.4-0.9v0C10,5.8,9.8,5.6,9.6,5.5
				C9.3,5.4,9,5.4,8.8,5.6C5.6,7.2,4,10.9,4.9,14.4c0.9,3.5,4,6,7.6,6c3.6,0,6.8-2.5,7.6-6C21,10.9,19.4,7.2,16.2,5.6L16.2,5.6z
				 M16.2,5.6"/>
		</g>
	</g>
</g>
<g id="Layer_2">
</g>
</svg>
