<svg xmlns="http://www.w3.org/2000/svg" width="361" height="40" viewBox="0 0 361 40" fill="none" style="&#10;    /* background: brown; */&#10;">
  <path d="M209.83 8.45455C209.778 8.02273 209.571 7.6875 209.207 7.44886C208.844 7.21023 208.398 7.09091 207.869 7.09091C207.483 7.09091 207.145 7.15341 206.855 7.27841C206.568 7.40341 206.344 7.57528 206.182 7.79403C206.023 8.01278 205.943 8.26136 205.943 8.53977C205.943 8.77273 205.999 8.97301 206.109 9.14062C206.223 9.3054 206.368 9.44318 206.544 9.55398C206.72 9.66193 206.905 9.75142 207.098 9.82244C207.291 9.89062 207.469 9.94602 207.631 9.98864L208.517 10.2273C208.744 10.2869 208.997 10.3693 209.276 10.4744C209.557 10.5795 209.825 10.723 210.081 10.9048C210.339 11.0838 210.553 11.3139 210.72 11.5952C210.888 11.8764 210.972 12.2216 210.972 12.6307C210.972 13.1023 210.848 13.5284 210.601 13.9091C210.357 14.2898 209.999 14.5923 209.527 14.8168C209.058 15.0412 208.489 15.1534 207.818 15.1534C207.193 15.1534 206.652 15.0526 206.195 14.8509C205.74 14.6491 205.382 14.3679 205.121 14.0071C204.862 13.6463 204.716 13.2273 204.682 12.75H205.773C205.801 13.0795 205.912 13.3523 206.105 13.5682C206.301 13.7812 206.548 13.9403 206.847 14.0455C207.148 14.1477 207.472 14.1989 207.818 14.1989C208.222 14.1989 208.584 14.1335 208.905 14.0028C209.226 13.8693 209.48 13.6847 209.668 13.4489C209.855 13.2102 209.949 12.9318 209.949 12.6136C209.949 12.3239 209.868 12.0881 209.706 11.9062C209.544 11.7244 209.331 11.5767 209.067 11.4631C208.803 11.3494 208.517 11.25 208.21 11.1648L207.136 10.858C206.455 10.6619 205.915 10.3821 205.517 10.0185C205.119 9.65483 204.92 9.17898 204.92 8.59091C204.92 8.10227 205.053 7.67614 205.317 7.3125C205.584 6.94602 205.942 6.66193 206.391 6.46023C206.842 6.25568 207.347 6.15341 207.903 6.15341C208.466 6.15341 208.966 6.25426 209.403 6.45597C209.841 6.65483 210.188 6.92756 210.443 7.27415C210.702 7.62074 210.838 8.0142 210.852 8.45455H209.83ZM213.221 17.4545C213.05 17.4545 212.898 17.4403 212.765 17.4119C212.631 17.3864 212.539 17.3608 212.488 17.3352L212.743 16.4489C212.988 16.5114 213.203 16.5341 213.391 16.517C213.578 16.5 213.745 16.4162 213.89 16.2656C214.037 16.1179 214.172 15.8778 214.294 15.5455L214.482 15.0341L212.061 8.45455H213.152L214.959 13.6705H215.027L216.834 8.45455H217.925L215.147 15.9545C215.022 16.2926 214.867 16.5724 214.682 16.794C214.498 17.0185 214.283 17.1847 214.039 17.2926C213.797 17.4006 213.525 17.4545 213.221 17.4545ZM223.889 9.92045L222.985 10.1761C222.929 10.0256 222.845 9.87926 222.734 9.73722C222.626 9.59233 222.478 9.47301 222.291 9.37926C222.103 9.28551 221.863 9.23864 221.571 9.23864C221.17 9.23864 220.836 9.33097 220.569 9.51562C220.305 9.69744 220.173 9.92898 220.173 10.2102C220.173 10.4602 220.264 10.6577 220.446 10.8026C220.627 10.9474 220.912 11.0682 221.298 11.1648L222.27 11.4034C222.855 11.5455 223.291 11.7628 223.578 12.0554C223.865 12.3452 224.008 12.7187 224.008 13.1761C224.008 13.5511 223.9 13.8864 223.684 14.1818C223.471 14.4773 223.173 14.7102 222.789 14.8807C222.406 15.0511 221.96 15.1364 221.451 15.1364C220.784 15.1364 220.231 14.9915 219.794 14.7017C219.356 14.4119 219.079 13.9886 218.963 13.4318L219.917 13.1932C220.008 13.5455 220.18 13.8097 220.433 13.9858C220.689 14.1619 221.022 14.25 221.434 14.25C221.903 14.25 222.275 14.1506 222.551 13.9517C222.829 13.75 222.968 13.5085 222.968 13.2273C222.968 13 222.889 12.8097 222.73 12.6562C222.571 12.5 222.326 12.3835 221.997 12.3068L220.906 12.0511C220.306 11.9091 219.866 11.6889 219.585 11.3906C219.306 11.0895 219.167 10.7131 219.167 10.2614C219.167 9.89205 219.271 9.56534 219.478 9.28125C219.689 8.99716 219.974 8.77415 220.335 8.61222C220.699 8.45028 221.11 8.36932 221.571 8.36932C222.218 8.36932 222.727 8.51136 223.096 8.79545C223.468 9.07955 223.733 9.45455 223.889 9.92045ZM228.369 8.45455V9.30682H224.977V8.45455H228.369ZM225.965 6.88636H226.971V13.125C226.971 13.4091 227.012 13.6222 227.094 13.7642C227.18 13.9034 227.288 13.9972 227.418 14.0455C227.552 14.0909 227.692 14.1136 227.84 14.1136C227.951 14.1136 228.042 14.108 228.113 14.0966C228.184 14.0824 228.241 14.071 228.283 14.0625L228.488 14.9659C228.42 14.9915 228.325 15.017 228.202 15.0426C228.08 15.071 227.925 15.0852 227.738 15.0852C227.454 15.0852 227.175 15.0241 226.903 14.902C226.633 14.7798 226.408 14.5938 226.229 14.3438C226.053 14.0938 225.965 13.7784 225.965 13.3977V6.88636ZM232.555 15.1364C231.925 15.1364 231.381 14.9972 230.923 14.7188C230.469 14.4375 230.118 14.0455 229.871 13.5426C229.626 13.0369 229.504 12.4489 229.504 11.7784C229.504 11.108 229.626 10.517 229.871 10.0057C230.118 9.49148 230.462 9.09091 230.902 8.80398C231.345 8.5142 231.862 8.36932 232.453 8.36932C232.794 8.36932 233.131 8.42614 233.463 8.53977C233.795 8.65341 234.098 8.83807 234.371 9.09375C234.643 9.34659 234.861 9.68182 235.023 10.0994C235.185 10.517 235.266 11.0312 235.266 11.642V12.0682H230.22V11.1989H234.243C234.243 10.8295 234.169 10.5 234.021 10.2102C233.876 9.92045 233.669 9.69176 233.399 9.52415C233.132 9.35653 232.817 9.27273 232.453 9.27273C232.053 9.27273 231.706 9.37216 231.413 9.57102C231.124 9.76705 230.901 10.0227 230.744 10.3381C230.588 10.6534 230.51 10.9915 230.51 11.3523V11.9318C230.51 12.4261 230.595 12.8452 230.766 13.1889C230.939 13.5298 231.179 13.7898 231.486 13.9688C231.793 14.1449 232.149 14.233 232.555 14.233C232.82 14.233 233.058 14.196 233.271 14.1222C233.487 14.0455 233.673 13.9318 233.83 13.7812C233.986 13.6278 234.107 13.4375 234.192 13.2102L235.163 13.483C235.061 13.8125 234.889 14.1023 234.648 14.3523C234.406 14.5994 234.108 14.7926 233.753 14.9318C233.398 15.0682 232.999 15.1364 232.555 15.1364ZM236.795 15V8.45455H237.767V9.47727H237.852C237.989 9.12784 238.209 8.85653 238.513 8.66335C238.817 8.46733 239.182 8.36932 239.608 8.36932C240.04 8.36932 240.399 8.46733 240.686 8.66335C240.976 8.85653 241.202 9.12784 241.364 9.47727H241.432C241.599 9.1392 241.851 8.87074 242.186 8.67188C242.521 8.47017 242.923 8.36932 243.392 8.36932C243.977 8.36932 244.456 8.55256 244.828 8.91903C245.2 9.28267 245.386 9.84943 245.386 10.6193V15H244.381V10.6193C244.381 10.1364 244.249 9.79119 243.984 9.58381C243.72 9.37642 243.409 9.27273 243.051 9.27273C242.591 9.27273 242.234 9.41193 241.982 9.69034C241.729 9.96591 241.602 10.3153 241.602 10.7386V15H240.58V10.517C240.58 10.1449 240.459 9.84517 240.217 9.6179C239.976 9.38778 239.665 9.27273 239.284 9.27273C239.023 9.27273 238.778 9.34233 238.551 9.48153C238.327 9.62074 238.145 9.81392 238.006 10.0611C237.869 10.3054 237.801 10.5881 237.801 10.9091V15H236.795ZM249.151 15.1534C248.737 15.1534 248.36 15.0753 248.022 14.919C247.684 14.7599 247.415 14.5312 247.217 14.233C247.018 13.9318 246.918 13.5682 246.918 13.142C246.918 12.767 246.992 12.4631 247.14 12.2301C247.288 11.9943 247.485 11.8097 247.732 11.6761C247.979 11.5426 248.252 11.4432 248.55 11.3778C248.852 11.3097 249.154 11.2557 249.458 11.2159C249.856 11.1648 250.178 11.1264 250.425 11.1009C250.675 11.0724 250.857 11.0256 250.971 10.9602C251.087 10.8949 251.146 10.7812 251.146 10.6193V10.5852C251.146 10.1648 251.031 9.83807 250.8 9.60511C250.573 9.37216 250.228 9.25568 249.765 9.25568C249.285 9.25568 248.908 9.3608 248.636 9.57102C248.363 9.78125 248.171 10.0057 248.06 10.2443L247.106 9.90341C247.276 9.50568 247.504 9.19602 247.788 8.97443C248.075 8.75 248.387 8.59375 248.725 8.50568C249.066 8.41477 249.401 8.36932 249.731 8.36932C249.941 8.36932 250.183 8.39489 250.455 8.44602C250.731 8.49432 250.996 8.59517 251.252 8.74858C251.511 8.90199 251.725 9.13352 251.896 9.44318C252.066 9.75284 252.151 10.1676 252.151 10.6875V15H251.146V14.1136H251.094C251.026 14.2557 250.913 14.4077 250.754 14.5696C250.594 14.7315 250.383 14.8693 250.119 14.983C249.854 15.0966 249.532 15.1534 249.151 15.1534ZM249.305 14.25C249.702 14.25 250.038 14.1719 250.31 14.0156C250.586 13.8594 250.793 13.6577 250.933 13.4105C251.075 13.1634 251.146 12.9034 251.146 12.6307V11.7102C251.103 11.7614 251.009 11.8082 250.864 11.8509C250.722 11.8906 250.558 11.9261 250.37 11.9574C250.185 11.9858 250.005 12.0114 249.829 12.0341C249.656 12.054 249.515 12.071 249.407 12.0852C249.146 12.1193 248.901 12.1747 248.674 12.2514C248.45 12.3253 248.268 12.4375 248.129 12.5881C247.992 12.7358 247.924 12.9375 247.924 13.1932C247.924 13.5426 248.053 13.8068 248.312 13.9858C248.573 14.1619 248.904 14.25 249.305 14.25ZM256.833 8.45455V9.30682H253.441V8.45455H256.833ZM254.43 6.88636H255.436V13.125C255.436 13.4091 255.477 13.6222 255.559 13.7642C255.645 13.9034 255.752 13.9972 255.883 14.0455C256.017 14.0909 256.157 14.1136 256.305 14.1136C256.416 14.1136 256.507 14.108 256.578 14.0966C256.649 14.0824 256.706 14.071 256.748 14.0625L256.953 14.9659C256.885 14.9915 256.789 15.017 256.667 15.0426C256.545 15.071 256.39 15.0852 256.203 15.0852C255.919 15.0852 255.64 15.0241 255.368 14.902C255.098 14.7798 254.873 14.5938 254.694 14.3438C254.518 14.0938 254.43 13.7784 254.43 13.3977V6.88636ZM258.346 15V8.45455H259.352V15H258.346ZM258.858 7.36364C258.662 7.36364 258.493 7.29688 258.35 7.16335C258.211 7.02983 258.142 6.86932 258.142 6.68182C258.142 6.49432 258.211 6.33381 258.35 6.20028C258.493 6.06676 258.662 6 258.858 6C259.054 6 259.221 6.06676 259.36 6.20028C259.502 6.33381 259.574 6.49432 259.574 6.68182C259.574 6.86932 259.502 7.02983 259.36 7.16335C259.221 7.29688 259.054 7.36364 258.858 7.36364ZM263.853 15.1364C263.239 15.1364 262.711 14.9915 262.268 14.7017C261.825 14.4119 261.484 14.0128 261.245 13.5043C261.006 12.9957 260.887 12.4148 260.887 11.7614C260.887 11.0966 261.009 10.5099 261.254 10.0014C261.501 9.49006 261.844 9.09091 262.285 8.80398C262.728 8.5142 263.245 8.36932 263.836 8.36932C264.296 8.36932 264.711 8.45455 265.08 8.625C265.45 8.79545 265.752 9.03409 265.988 9.34091C266.224 9.64773 266.37 10.0057 266.427 10.4148H265.421C265.344 10.1165 265.174 9.85227 264.91 9.62216C264.648 9.3892 264.296 9.27273 263.853 9.27273C263.461 9.27273 263.117 9.375 262.822 9.57955C262.529 9.78125 262.3 10.0668 262.136 10.4361C261.974 10.8026 261.893 11.233 261.893 11.7273C261.893 12.233 261.972 12.6733 262.131 13.0483C262.293 13.4233 262.521 13.7145 262.813 13.9219C263.109 14.1293 263.455 14.233 263.853 14.233C264.114 14.233 264.352 14.1875 264.565 14.0966C264.778 14.0057 264.958 13.875 265.106 13.7045C265.254 13.5341 265.359 13.3295 265.421 13.0909H266.427C266.37 13.4773 266.229 13.8253 266.005 14.1349C265.783 14.4418 265.489 14.6861 265.123 14.8679C264.759 15.0469 264.336 15.1364 263.853 15.1364ZM271.408 15V6.27273H274.357C275.042 6.27273 275.602 6.39631 276.036 6.64347C276.474 6.88778 276.798 7.21875 277.008 7.63636C277.218 8.05398 277.323 8.51989 277.323 9.03409C277.323 9.5483 277.218 10.0156 277.008 10.4361C276.8 10.8565 276.479 11.1918 276.045 11.4418C275.61 11.6889 275.053 11.8125 274.374 11.8125H272.261V10.875H274.34C274.809 10.875 275.185 10.794 275.469 10.6321C275.754 10.4702 275.96 10.2514 276.087 9.97585C276.218 9.69744 276.283 9.38352 276.283 9.03409C276.283 8.68466 276.218 8.37216 276.087 8.09659C275.96 7.82102 275.752 7.60511 275.465 7.44886C275.178 7.28977 274.798 7.21023 274.323 7.21023H272.465V15H271.408ZM281.563 15.1364C280.933 15.1364 280.388 14.9972 279.931 14.7188C279.477 14.4375 279.126 14.0455 278.879 13.5426C278.634 13.0369 278.512 12.4489 278.512 11.7784C278.512 11.108 278.634 10.517 278.879 10.0057C279.126 9.49148 279.469 9.09091 279.91 8.80398C280.353 8.5142 280.87 8.36932 281.461 8.36932C281.802 8.36932 282.138 8.42614 282.471 8.53977C282.803 8.65341 283.106 8.83807 283.379 9.09375C283.651 9.34659 283.869 9.68182 284.031 10.0994C284.192 10.517 284.273 11.0312 284.273 11.642V12.0682H279.228V11.1989H283.251C283.251 10.8295 283.177 10.5 283.029 10.2102C282.884 9.92045 282.677 9.69176 282.407 9.52415C282.14 9.35653 281.825 9.27273 281.461 9.27273C281.06 9.27273 280.714 9.37216 280.421 9.57102C280.131 9.76705 279.908 10.0227 279.752 10.3381C279.596 10.6534 279.518 10.9915 279.518 11.3523V11.9318C279.518 12.4261 279.603 12.8452 279.773 13.1889C279.947 13.5298 280.187 13.7898 280.494 13.9688C280.8 14.1449 281.157 14.233 281.563 14.233C281.827 14.233 282.066 14.196 282.279 14.1222C282.495 14.0455 282.681 13.9318 282.837 13.7812C282.994 13.6278 283.114 13.4375 283.2 13.2102L284.171 13.483C284.069 13.8125 283.897 14.1023 283.656 14.3523C283.414 14.5994 283.116 14.7926 282.761 14.9318C282.406 15.0682 282.006 15.1364 281.563 15.1364ZM285.803 15V8.45455H286.775V9.44318H286.843C286.962 9.11932 287.178 8.85653 287.491 8.65483C287.803 8.45312 288.156 8.35227 288.548 8.35227C288.621 8.35227 288.714 8.35369 288.825 8.35653C288.935 8.35937 289.019 8.36364 289.076 8.36932V9.39205C289.042 9.38352 288.964 9.37074 288.842 9.35369C288.722 9.33381 288.596 9.32386 288.462 9.32386C288.144 9.32386 287.86 9.39062 287.61 9.52415C287.363 9.65483 287.167 9.83665 287.022 10.0696C286.88 10.2997 286.809 10.5625 286.809 10.858V15H285.803ZM294.904 9.92045L294.001 10.1761C293.944 10.0256 293.86 9.87926 293.75 9.73722C293.642 9.59233 293.494 9.47301 293.306 9.37926C293.119 9.28551 292.879 9.23864 292.586 9.23864C292.186 9.23864 291.852 9.33097 291.585 9.51562C291.321 9.69744 291.189 9.92898 291.189 10.2102C291.189 10.4602 291.279 10.6577 291.461 10.8026C291.643 10.9474 291.927 11.0682 292.314 11.1648L293.285 11.4034C293.87 11.5455 294.306 11.7628 294.593 12.0554C294.88 12.3452 295.024 12.7187 295.024 13.1761C295.024 13.5511 294.916 13.8864 294.7 14.1818C294.487 14.4773 294.189 14.7102 293.805 14.8807C293.422 15.0511 292.975 15.1364 292.467 15.1364C291.799 15.1364 291.247 14.9915 290.809 14.7017C290.372 14.4119 290.095 13.9886 289.978 13.4318L290.933 13.1932C291.024 13.5455 291.196 13.8097 291.449 13.9858C291.704 14.1619 292.038 14.25 292.45 14.25C292.919 14.25 293.291 14.1506 293.566 13.9517C293.845 13.75 293.984 13.5085 293.984 13.2273C293.984 13 293.904 12.8097 293.745 12.6562C293.586 12.5 293.342 12.3835 293.012 12.3068L291.922 12.0511C291.322 11.9091 290.882 11.6889 290.6 11.3906C290.322 11.0895 290.183 10.7131 290.183 10.2614C290.183 9.89205 290.287 9.56534 290.494 9.28125C290.704 8.99716 290.99 8.77415 291.35 8.61222C291.714 8.45028 292.126 8.36932 292.586 8.36932C293.234 8.36932 293.743 8.51136 294.112 8.79545C294.484 9.07955 294.748 9.45455 294.904 9.92045ZM299.197 15.1364C298.606 15.1364 298.087 14.9957 297.641 14.7145C297.198 14.4332 296.852 14.0398 296.602 13.5341C296.354 13.0284 296.231 12.4375 296.231 11.7614C296.231 11.0795 296.354 10.4844 296.602 9.97585C296.852 9.46733 297.198 9.07244 297.641 8.79119C298.087 8.50994 298.606 8.36932 299.197 8.36932C299.788 8.36932 300.305 8.50994 300.748 8.79119C301.194 9.07244 301.54 9.46733 301.788 9.97585C302.038 10.4844 302.163 11.0795 302.163 11.7614C302.163 12.4375 302.038 13.0284 301.788 13.5341C301.54 14.0398 301.194 14.4332 300.748 14.7145C300.305 14.9957 299.788 15.1364 299.197 15.1364ZM299.197 14.233C299.646 14.233 300.015 14.1179 300.305 13.8878C300.594 13.6577 300.809 13.3551 300.948 12.9801C301.087 12.6051 301.157 12.1989 301.157 11.7614C301.157 11.3239 301.087 10.9162 300.948 10.5384C300.809 10.1605 300.594 9.85511 300.305 9.62216C300.015 9.3892 299.646 9.27273 299.197 9.27273C298.748 9.27273 298.379 9.3892 298.089 9.62216C297.799 9.85511 297.585 10.1605 297.445 10.5384C297.306 10.9162 297.237 11.3239 297.237 11.7614C297.237 12.1989 297.306 12.6051 297.445 12.9801C297.585 13.3551 297.799 13.6577 298.089 13.8878C298.379 14.1179 298.748 14.233 299.197 14.233ZM304.703 11.0625V15H303.698V8.45455H304.669V9.47727H304.755C304.908 9.14489 305.141 8.87784 305.453 8.67614C305.766 8.47159 306.169 8.36932 306.664 8.36932C307.107 8.36932 307.495 8.46023 307.827 8.64205C308.159 8.82102 308.418 9.09375 308.603 9.46023C308.787 9.82386 308.88 10.2841 308.88 10.8409V15H307.874V10.9091C307.874 10.3949 307.74 9.99432 307.473 9.70739C307.206 9.41761 306.84 9.27273 306.374 9.27273C306.053 9.27273 305.766 9.34233 305.513 9.48153C305.263 9.62074 305.066 9.82386 304.921 10.0909C304.776 10.358 304.703 10.6818 304.703 11.0625ZM312.643 15.1534C312.229 15.1534 311.852 15.0753 311.514 14.919C311.176 14.7599 310.908 14.5312 310.709 14.233C310.51 13.9318 310.411 13.5682 310.411 13.142C310.411 12.767 310.484 12.4631 310.632 12.2301C310.78 11.9943 310.977 11.8097 311.224 11.6761C311.472 11.5426 311.744 11.4432 312.043 11.3778C312.344 11.3097 312.646 11.2557 312.95 11.2159C313.348 11.1648 313.67 11.1264 313.918 11.1009C314.168 11.0724 314.349 11.0256 314.463 10.9602C314.58 10.8949 314.638 10.7812 314.638 10.6193V10.5852C314.638 10.1648 314.523 9.83807 314.293 9.60511C314.065 9.37216 313.72 9.25568 313.257 9.25568C312.777 9.25568 312.401 9.3608 312.128 9.57102C311.855 9.78125 311.663 10.0057 311.553 10.2443L310.598 9.90341C310.768 9.50568 310.996 9.19602 311.28 8.97443C311.567 8.75 311.879 8.59375 312.217 8.50568C312.558 8.41477 312.893 8.36932 313.223 8.36932C313.433 8.36932 313.675 8.39489 313.947 8.44602C314.223 8.49432 314.489 8.59517 314.744 8.74858C315.003 8.90199 315.217 9.13352 315.388 9.44318C315.558 9.75284 315.643 10.1676 315.643 10.6875V15H314.638V14.1136H314.587C314.518 14.2557 314.405 14.4077 314.246 14.5696C314.087 14.7315 313.875 14.8693 313.611 14.983C313.347 15.0966 313.024 15.1534 312.643 15.1534ZM312.797 14.25C313.195 14.25 313.53 14.1719 313.803 14.0156C314.078 13.8594 314.286 13.6577 314.425 13.4105C314.567 13.1634 314.638 12.9034 314.638 12.6307V11.7102C314.595 11.7614 314.501 11.8082 314.357 11.8509C314.214 11.8906 314.05 11.9261 313.862 11.9574C313.678 11.9858 313.497 12.0114 313.321 12.0341C313.148 12.054 313.007 12.071 312.899 12.0852C312.638 12.1193 312.393 12.1747 312.166 12.2514C311.942 12.3253 311.76 12.4375 311.621 12.5881C311.484 12.7358 311.416 12.9375 311.416 13.1932C311.416 13.5426 311.545 13.8068 311.804 13.9858C312.065 14.1619 312.396 14.25 312.797 14.25ZM318.485 6.27273V15H317.479V6.27273H318.485ZM324.196 15H323.088L326.293 6.27273H327.384L330.588 15H329.48L326.872 7.65341H326.804L324.196 15ZM324.605 11.5909H329.071V12.5284H324.605V11.5909ZM336.447 9.92045L335.544 10.1761C335.487 10.0256 335.403 9.87926 335.293 9.73722C335.185 9.59233 335.037 9.47301 334.849 9.37926C334.662 9.28551 334.422 9.23864 334.129 9.23864C333.729 9.23864 333.395 9.33097 333.128 9.51562C332.864 9.69744 332.732 9.92898 332.732 10.2102C332.732 10.4602 332.822 10.6577 333.004 10.8026C333.186 10.9474 333.47 11.0682 333.857 11.1648L334.828 11.4034C335.413 11.5455 335.849 11.7628 336.136 12.0554C336.423 12.3452 336.567 12.7187 336.567 13.1761C336.567 13.5511 336.459 13.8864 336.243 14.1818C336.03 14.4773 335.732 14.7102 335.348 14.8807C334.964 15.0511 334.518 15.1364 334.01 15.1364C333.342 15.1364 332.79 14.9915 332.352 14.7017C331.915 14.4119 331.638 13.9886 331.521 13.4318L332.476 13.1932C332.567 13.5455 332.739 13.8097 332.991 13.9858C333.247 14.1619 333.581 14.25 333.993 14.25C334.462 14.25 334.834 14.1506 335.109 13.9517C335.388 13.75 335.527 13.5085 335.527 13.2273C335.527 13 335.447 12.8097 335.288 12.6562C335.129 12.5 334.885 12.3835 334.555 12.3068L333.464 12.0511C332.865 11.9091 332.425 11.6889 332.143 11.3906C331.865 11.0895 331.726 10.7131 331.726 10.2614C331.726 9.89205 331.83 9.56534 332.037 9.28125C332.247 8.99716 332.533 8.77415 332.893 8.61222C333.257 8.45028 333.669 8.36932 334.129 8.36932C334.777 8.36932 335.286 8.51136 335.655 8.79545C336.027 9.07955 336.291 9.45455 336.447 9.92045ZM342.717 9.92045L341.814 10.1761C341.757 10.0256 341.673 9.87926 341.562 9.73722C341.454 9.59233 341.306 9.47301 341.119 9.37926C340.931 9.28551 340.691 9.23864 340.399 9.23864C339.998 9.23864 339.664 9.33097 339.397 9.51562C339.133 9.69744 339.001 9.92898 339.001 10.2102C339.001 10.4602 339.092 10.6577 339.274 10.8026C339.456 10.9474 339.74 11.0682 340.126 11.1648L341.098 11.4034C341.683 11.5455 342.119 11.7628 342.406 12.0554C342.693 12.3452 342.836 12.7187 342.836 13.1761C342.836 13.5511 342.728 13.8864 342.512 14.1818C342.299 14.4773 342.001 14.7102 341.618 14.8807C341.234 15.0511 340.788 15.1364 340.279 15.1364C339.612 15.1364 339.059 14.9915 338.622 14.7017C338.184 14.4119 337.907 13.9886 337.791 13.4318L338.745 13.1932C338.836 13.5455 339.008 13.8097 339.261 13.9858C339.517 14.1619 339.85 14.25 340.262 14.25C340.731 14.25 341.103 14.1506 341.379 13.9517C341.657 13.75 341.797 13.5085 341.797 13.2273C341.797 13 341.717 12.8097 341.558 12.6562C341.399 12.5 341.154 12.3835 340.825 12.3068L339.734 12.0511C339.135 11.9091 338.694 11.6889 338.413 11.3906C338.135 11.0895 337.995 10.7131 337.995 10.2614C337.995 9.89205 338.099 9.56534 338.306 9.28125C338.517 8.99716 338.802 8.77415 339.163 8.61222C339.527 8.45028 339.939 8.36932 340.399 8.36932C341.047 8.36932 341.555 8.51136 341.924 8.79545C342.297 9.07955 342.561 9.45455 342.717 9.92045ZM347.094 15.1364C346.464 15.1364 345.92 14.9972 345.462 14.7188C345.008 14.4375 344.657 14.0455 344.41 13.5426C344.165 13.0369 344.043 12.4489 344.043 11.7784C344.043 11.108 344.165 10.517 344.41 10.0057C344.657 9.49148 345.001 9.09091 345.441 8.80398C345.884 8.5142 346.401 8.36932 346.992 8.36932C347.333 8.36932 347.67 8.42614 348.002 8.53977C348.335 8.65341 348.637 8.83807 348.91 9.09375C349.183 9.34659 349.4 9.68182 349.562 10.0994C349.724 10.517 349.805 11.0312 349.805 11.642V12.0682H344.759V11.1989H348.782C348.782 10.8295 348.708 10.5 348.56 10.2102C348.415 9.92045 348.208 9.69176 347.938 9.52415C347.671 9.35653 347.356 9.27273 346.992 9.27273C346.592 9.27273 346.245 9.37216 345.952 9.57102C345.663 9.76705 345.44 10.0227 345.283 10.3381C345.127 10.6534 345.049 10.9915 345.049 11.3523V11.9318C345.049 12.4261 345.134 12.8452 345.305 13.1889C345.478 13.5298 345.718 13.7898 346.025 13.9688C346.332 14.1449 346.688 14.233 347.094 14.233C347.359 14.233 347.597 14.196 347.81 14.1222C348.026 14.0455 348.212 13.9318 348.369 13.7812C348.525 13.6278 348.646 13.4375 348.731 13.2102L349.702 13.483C349.6 13.8125 349.428 14.1023 349.187 14.3523C348.945 14.5994 348.647 14.7926 348.292 14.9318C347.937 15.0682 347.538 15.1364 347.094 15.1364ZM354.181 8.45455V9.30682H350.789V8.45455H354.181ZM351.778 6.88636H352.783V13.125C352.783 13.4091 352.825 13.6222 352.907 13.7642C352.992 13.9034 353.1 13.9972 353.231 14.0455C353.364 14.0909 353.505 14.1136 353.653 14.1136C353.763 14.1136 353.854 14.108 353.925 14.0966C353.996 14.0824 354.053 14.071 354.096 14.0625L354.3 14.9659C354.232 14.9915 354.137 15.017 354.015 15.0426C353.893 15.071 353.738 15.0852 353.55 15.0852C353.266 15.0852 352.988 15.0241 352.715 14.902C352.445 14.7798 352.221 14.5938 352.042 14.3438C351.866 14.0938 351.778 13.7784 351.778 13.3977V6.88636ZM212.08 27H211.023C210.96 26.696 210.851 26.429 210.695 26.1989C210.541 25.9688 210.354 25.7756 210.132 25.6193C209.913 25.4602 209.67 25.3409 209.403 25.2614C209.136 25.1818 208.858 25.142 208.568 25.142C208.04 25.142 207.561 25.2756 207.132 25.5426C206.706 25.8097 206.366 26.2031 206.114 26.723C205.864 27.2429 205.739 27.8807 205.739 28.6364C205.739 29.392 205.864 30.0298 206.114 30.5497C206.366 31.0696 206.706 31.4631 207.132 31.7301C207.561 31.9972 208.04 32.1307 208.568 32.1307C208.858 32.1307 209.136 32.0909 209.403 32.0114C209.67 31.9318 209.913 31.8139 210.132 31.6577C210.354 31.4986 210.541 31.304 210.695 31.0739C210.851 30.8409 210.96 30.5739 211.023 30.2727H212.08C212 30.7187 211.855 31.1179 211.645 31.4702C211.435 31.8224 211.173 32.1222 210.861 32.3693C210.548 32.6136 210.197 32.7997 209.808 32.9276C209.422 33.0554 209.009 33.1193 208.568 33.1193C207.824 33.1193 207.162 32.9375 206.582 32.5739C206.003 32.2102 205.547 31.6932 205.214 31.0227C204.882 30.3523 204.716 29.5568 204.716 28.6364C204.716 27.7159 204.882 26.9205 205.214 26.25C205.547 25.5795 206.003 25.0625 206.582 24.6989C207.162 24.3352 207.824 24.1534 208.568 24.1534C209.009 24.1534 209.422 24.2173 209.808 24.3452C210.197 24.473 210.548 24.6605 210.861 24.9077C211.173 25.152 211.435 25.4503 211.645 25.8026C211.855 26.152 212 26.5511 212.08 27ZM217.776 30.3239V26.4545H218.782V33H217.776V31.892H217.708C217.554 32.2244 217.316 32.5071 216.992 32.7401C216.668 32.9702 216.259 33.0852 215.765 33.0852C215.355 33.0852 214.992 32.9957 214.674 32.8168C214.355 32.6349 214.105 32.3622 213.924 31.9986C213.742 31.6321 213.651 31.1705 213.651 30.6136V26.4545H214.657V30.5455C214.657 31.0227 214.79 31.4034 215.057 31.6875C215.327 31.9716 215.671 32.1136 216.088 32.1136C216.338 32.1136 216.593 32.0497 216.851 31.9219C217.113 31.794 217.331 31.598 217.507 31.3338C217.686 31.0696 217.776 30.733 217.776 30.3239ZM225.26 27.9205L224.357 28.1761C224.3 28.0256 224.216 27.8793 224.105 27.7372C223.997 27.5923 223.849 27.473 223.662 27.3793C223.474 27.2855 223.234 27.2386 222.942 27.2386C222.541 27.2386 222.207 27.331 221.94 27.5156C221.676 27.6974 221.544 27.929 221.544 28.2102C221.544 28.4602 221.635 28.6577 221.817 28.8026C221.999 28.9474 222.283 29.0682 222.669 29.1648L223.641 29.4034C224.226 29.5455 224.662 29.7628 224.949 30.0554C225.236 30.3452 225.379 30.7187 225.379 31.1761C225.379 31.5511 225.271 31.8864 225.055 32.1818C224.842 32.4773 224.544 32.7102 224.161 32.8807C223.777 33.0511 223.331 33.1364 222.822 33.1364C222.155 33.1364 221.602 32.9915 221.165 32.7017C220.727 32.4119 220.45 31.9886 220.334 31.4318L221.288 31.1932C221.379 31.5455 221.551 31.8097 221.804 31.9858C222.06 32.1619 222.393 32.25 222.805 32.25C223.274 32.25 223.646 32.1506 223.922 31.9517C224.2 31.75 224.339 31.5085 224.339 31.2273C224.339 31 224.26 30.8097 224.101 30.6562C223.942 30.5 223.697 30.3835 223.368 30.3068L222.277 30.0511C221.678 29.9091 221.237 29.6889 220.956 29.3906C220.678 29.0895 220.538 28.7131 220.538 28.2614C220.538 27.892 220.642 27.5653 220.849 27.2812C221.06 26.9972 221.345 26.7741 221.706 26.6122C222.07 26.4503 222.482 26.3693 222.942 26.3693C223.589 26.3693 224.098 26.5114 224.467 26.7955C224.839 27.0795 225.104 27.4545 225.26 27.9205ZM229.74 26.4545V27.3068H226.348V26.4545H229.74ZM227.336 24.8864H228.342V31.125C228.342 31.4091 228.383 31.6222 228.466 31.7642C228.551 31.9034 228.659 31.9972 228.789 32.0455C228.923 32.0909 229.064 32.1136 229.211 32.1136C229.322 32.1136 229.413 32.108 229.484 32.0966C229.555 32.0824 229.612 32.071 229.654 32.0625L229.859 32.9659C229.791 32.9915 229.696 33.017 229.574 33.0426C229.451 33.071 229.297 33.0852 229.109 33.0852C228.825 33.0852 228.547 33.0241 228.274 32.902C228.004 32.7798 227.779 32.5938 227.6 32.3438C227.424 32.0938 227.336 31.7784 227.336 31.3977V24.8864ZM233.841 33.1364C233.25 33.1364 232.732 32.9957 232.286 32.7145C231.843 32.4332 231.496 32.0398 231.246 31.5341C230.999 31.0284 230.875 30.4375 230.875 29.7614C230.875 29.0795 230.999 28.4844 231.246 27.9759C231.496 27.4673 231.843 27.0724 232.286 26.7912C232.732 26.5099 233.25 26.3693 233.841 26.3693C234.432 26.3693 234.949 26.5099 235.392 26.7912C235.838 27.0724 236.185 27.4673 236.432 27.9759C236.682 28.4844 236.807 29.0795 236.807 29.7614C236.807 30.4375 236.682 31.0284 236.432 31.5341C236.185 32.0398 235.838 32.4332 235.392 32.7145C234.949 32.9957 234.432 33.1364 233.841 33.1364ZM233.841 32.233C234.29 32.233 234.659 32.1179 234.949 31.8878C235.239 31.6577 235.453 31.3551 235.593 30.9801C235.732 30.6051 235.801 30.1989 235.801 29.7614C235.801 29.3239 235.732 28.9162 235.593 28.5384C235.453 28.1605 235.239 27.8551 234.949 27.6222C234.659 27.3892 234.29 27.2727 233.841 27.2727C233.392 27.2727 233.023 27.3892 232.733 27.6222C232.444 27.8551 232.229 28.1605 232.09 28.5384C231.951 28.9162 231.881 29.3239 231.881 29.7614C231.881 30.1989 231.951 30.6051 232.09 30.9801C232.229 31.3551 232.444 31.6577 232.733 31.8878C233.023 32.1179 233.392 32.233 233.841 32.233ZM238.342 33V26.4545H239.314V27.4773H239.399C239.536 27.1278 239.756 26.8565 240.06 26.6634C240.364 26.4673 240.729 26.3693 241.155 26.3693C241.587 26.3693 241.946 26.4673 242.233 26.6634C242.523 26.8565 242.749 27.1278 242.911 27.4773H242.979C243.146 27.1392 243.398 26.8707 243.733 26.6719C244.068 26.4702 244.47 26.3693 244.939 26.3693C245.524 26.3693 246.003 26.5526 246.375 26.919C246.747 27.2827 246.933 27.8494 246.933 28.6193V33H245.928V28.6193C245.928 28.1364 245.795 27.7912 245.531 27.5838C245.267 27.3764 244.956 27.2727 244.598 27.2727C244.138 27.2727 243.781 27.4119 243.528 27.6903C243.276 27.9659 243.149 28.3153 243.149 28.7386V33H242.126V28.517C242.126 28.1449 242.006 27.8452 241.764 27.6179C241.523 27.3878 241.212 27.2727 240.831 27.2727C240.57 27.2727 240.325 27.3423 240.098 27.4815C239.874 27.6207 239.692 27.8139 239.553 28.0611C239.416 28.3054 239.348 28.5881 239.348 28.9091V33H238.342ZM248.772 33V26.4545H249.778V33H248.772ZM249.283 25.3636C249.087 25.3636 248.918 25.2969 248.776 25.1634C248.637 25.0298 248.567 24.8693 248.567 24.6818C248.567 24.4943 248.637 24.3338 248.776 24.2003C248.918 24.0668 249.087 24 249.283 24C249.479 24 249.647 24.0668 249.786 24.2003C249.928 24.3338 249.999 24.4943 249.999 24.6818C249.999 24.8693 249.928 25.0298 249.786 25.1634C249.647 25.2969 249.479 25.3636 249.283 25.3636ZM251.432 33V32.233L255.148 27.4602V27.392H251.551V26.4545H256.444V27.2557L252.83 31.9943V32.0625H256.563V33H251.432ZM260.038 33.1534C259.623 33.1534 259.247 33.0753 258.909 32.919C258.571 32.7599 258.302 32.5312 258.103 32.233C257.904 31.9318 257.805 31.5682 257.805 31.142C257.805 30.767 257.879 30.4631 258.027 30.2301C258.174 29.9943 258.372 29.8097 258.619 29.6761C258.866 29.5426 259.139 29.4432 259.437 29.3778C259.738 29.3097 260.041 29.2557 260.345 29.2159C260.743 29.1648 261.065 29.1264 261.312 29.1009C261.562 29.0724 261.744 29.0256 261.858 28.9602C261.974 28.8949 262.032 28.7812 262.032 28.6193V28.5852C262.032 28.1648 261.917 27.8381 261.687 27.6051C261.46 27.3722 261.115 27.2557 260.652 27.2557C260.172 27.2557 259.795 27.3608 259.522 27.571C259.25 27.7812 259.058 28.0057 258.947 28.2443L257.993 27.9034C258.163 27.5057 258.39 27.196 258.674 26.9744C258.961 26.75 259.274 26.5937 259.612 26.5057C259.953 26.4148 260.288 26.3693 260.618 26.3693C260.828 26.3693 261.069 26.3949 261.342 26.446C261.618 26.4943 261.883 26.5952 262.139 26.7486C262.397 26.902 262.612 27.1335 262.782 27.4432C262.953 27.7528 263.038 28.1676 263.038 28.6875V33H262.032V32.1136H261.981C261.913 32.2557 261.799 32.4077 261.64 32.5696C261.481 32.7315 261.27 32.8693 261.005 32.983C260.741 33.0966 260.419 33.1534 260.038 33.1534ZM260.191 32.25C260.589 32.25 260.924 32.1719 261.197 32.0156C261.473 31.8594 261.68 31.6577 261.819 31.4105C261.961 31.1634 262.032 30.9034 262.032 30.6307V29.7102C261.99 29.7614 261.896 29.8082 261.751 29.8509C261.609 29.8906 261.444 29.9261 261.257 29.9574C261.072 29.9858 260.892 30.0114 260.716 30.0341C260.542 30.054 260.402 30.071 260.294 30.0852C260.032 30.1193 259.788 30.1747 259.561 30.2514C259.336 30.3253 259.154 30.4375 259.015 30.5881C258.879 30.7358 258.811 30.9375 258.811 31.1932C258.811 31.5426 258.94 31.8068 259.199 31.9858C259.46 32.1619 259.791 32.25 260.191 32.25ZM267.72 26.4545V27.3068H264.328V26.4545H267.72ZM265.317 24.8864H266.322V31.125C266.322 31.4091 266.364 31.6222 266.446 31.7642C266.531 31.9034 266.639 31.9972 266.77 32.0455C266.903 32.0909 267.044 32.1136 267.192 32.1136C267.303 32.1136 267.393 32.108 267.464 32.0966C267.536 32.0824 267.592 32.071 267.635 32.0625L267.839 32.9659C267.771 32.9915 267.676 33.017 267.554 33.0426C267.432 33.071 267.277 33.0852 267.089 33.0852C266.805 33.0852 266.527 33.0241 266.254 32.902C265.984 32.7798 265.76 32.5938 265.581 32.3438C265.405 32.0938 265.317 31.7784 265.317 31.3977V24.8864ZM269.233 33V26.4545H270.239V33H269.233ZM269.744 25.3636C269.548 25.3636 269.379 25.2969 269.237 25.1634C269.098 25.0298 269.028 24.8693 269.028 24.6818C269.028 24.4943 269.098 24.3338 269.237 24.2003C269.379 24.0668 269.548 24 269.744 24C269.94 24 270.108 24.0668 270.247 24.2003C270.389 24.3338 270.46 24.4943 270.46 24.6818C270.46 24.8693 270.389 25.0298 270.247 25.1634C270.108 25.2969 269.94 25.3636 269.744 25.3636ZM274.74 33.1364C274.149 33.1364 273.63 32.9957 273.184 32.7145C272.741 32.4332 272.395 32.0398 272.145 31.5341C271.897 31.0284 271.774 30.4375 271.774 29.7614C271.774 29.0795 271.897 28.4844 272.145 27.9759C272.395 27.4673 272.741 27.0724 273.184 26.7912C273.63 26.5099 274.149 26.3693 274.74 26.3693C275.331 26.3693 275.848 26.5099 276.291 26.7912C276.737 27.0724 277.083 27.4673 277.331 27.9759C277.581 28.4844 277.706 29.0795 277.706 29.7614C277.706 30.4375 277.581 31.0284 277.331 31.5341C277.083 32.0398 276.737 32.4332 276.291 32.7145C275.848 32.9957 275.331 33.1364 274.74 33.1364ZM274.74 32.233C275.189 32.233 275.558 32.1179 275.848 31.8878C276.137 31.6577 276.352 31.3551 276.491 30.9801C276.63 30.6051 276.7 30.1989 276.7 29.7614C276.7 29.3239 276.63 28.9162 276.491 28.5384C276.352 28.1605 276.137 27.8551 275.848 27.6222C275.558 27.3892 275.189 27.2727 274.74 27.2727C274.291 27.2727 273.922 27.3892 273.632 27.6222C273.342 27.8551 273.127 28.1605 272.988 28.5384C272.849 28.9162 272.779 29.3239 272.779 29.7614C272.779 30.1989 272.849 30.6051 272.988 30.9801C273.127 31.3551 273.342 31.6577 273.632 31.8878C273.922 32.1179 274.291 32.233 274.74 32.233ZM280.246 29.0625V33H279.241V26.4545H280.212V27.4773H280.298C280.451 27.1449 280.684 26.8778 280.996 26.6761C281.309 26.4716 281.712 26.3693 282.207 26.3693C282.65 26.3693 283.038 26.4602 283.37 26.642C283.702 26.821 283.961 27.0938 284.146 27.4602C284.33 27.8239 284.423 28.2841 284.423 28.8409V33H283.417V28.9091C283.417 28.3949 283.283 27.9943 283.016 27.7074C282.749 27.4176 282.383 27.2727 281.917 27.2727C281.596 27.2727 281.309 27.3423 281.056 27.4815C280.806 27.6207 280.609 27.8239 280.464 28.0909C280.319 28.358 280.246 28.6818 280.246 29.0625ZM289.772 33V24.2727H295.039V25.2102H290.828V28.1591H294.766V29.0966H290.828V32.0625H295.107V33H289.772ZM297.813 29.0625V33H296.807V26.4545H297.779V27.4773H297.864C298.017 27.1449 298.25 26.8778 298.563 26.6761C298.875 26.4716 299.279 26.3693 299.773 26.3693C300.216 26.3693 300.604 26.4602 300.936 26.642C301.269 26.821 301.527 27.0938 301.712 27.4602C301.897 27.8239 301.989 28.2841 301.989 28.8409V33H300.983V28.9091C300.983 28.3949 300.85 27.9943 300.583 27.7074C300.316 27.4176 299.949 27.2727 299.483 27.2727C299.162 27.2727 298.875 27.3423 298.623 27.4815C298.373 27.6207 298.175 27.8239 298.03 28.0909C297.885 28.358 297.813 28.6818 297.813 29.0625ZM306.469 35.5909C305.983 35.5909 305.565 35.5284 305.216 35.4034C304.866 35.2812 304.575 35.1193 304.342 34.9176C304.112 34.7188 303.929 34.5057 303.793 34.2784L304.594 33.7159C304.685 33.8352 304.8 33.9716 304.939 34.125C305.078 34.2812 305.268 34.4162 305.51 34.5298C305.754 34.6463 306.074 34.7045 306.469 34.7045C306.997 34.7045 307.433 34.5767 307.777 34.321C308.121 34.0653 308.293 33.6648 308.293 33.1193V31.7898H308.207C308.134 31.9091 308.028 32.0568 307.892 32.233C307.759 32.4062 307.565 32.5611 307.312 32.6974C307.062 32.831 306.724 32.8977 306.298 32.8977C305.77 32.8977 305.295 32.7727 304.875 32.5227C304.457 32.2727 304.126 31.9091 303.882 31.4318C303.641 30.9545 303.52 30.375 303.52 29.6932C303.52 29.0227 303.638 28.4389 303.874 27.9418C304.109 27.4418 304.438 27.0554 304.858 26.7827C305.278 26.5071 305.764 26.3693 306.315 26.3693C306.741 26.3693 307.08 26.4403 307.33 26.5824C307.582 26.7216 307.776 26.8807 307.909 27.0597C308.045 27.2358 308.151 27.3807 308.224 27.4943H308.327V26.4545H309.298V33.1875C309.298 33.75 309.17 34.2074 308.915 34.5597C308.662 34.9148 308.321 35.1747 307.892 35.3395C307.466 35.5071 306.991 35.5909 306.469 35.5909ZM306.435 31.9943C306.838 31.9943 307.179 31.902 307.457 31.7173C307.736 31.5327 307.947 31.267 308.092 30.9205C308.237 30.5739 308.31 30.1591 308.31 29.6761C308.31 29.2045 308.239 28.7884 308.097 28.4276C307.955 28.0668 307.744 27.7841 307.466 27.5795C307.188 27.375 306.844 27.2727 306.435 27.2727C306.009 27.2727 305.653 27.3807 305.369 27.5966C305.088 27.8125 304.876 28.1023 304.734 28.4659C304.595 28.8295 304.526 29.233 304.526 29.6761C304.526 30.1307 304.597 30.5327 304.739 30.8821C304.884 31.2287 305.097 31.5014 305.378 31.7003C305.662 31.8963 306.014 31.9943 306.435 31.9943ZM311.139 33V26.4545H312.145V33H311.139ZM311.651 25.3636C311.455 25.3636 311.286 25.2969 311.143 25.1634C311.004 25.0298 310.935 24.8693 310.935 24.6818C310.935 24.4943 311.004 24.3338 311.143 24.2003C311.286 24.0668 311.455 24 311.651 24C311.847 24 312.014 24.0668 312.153 24.2003C312.295 24.3338 312.366 24.4943 312.366 24.6818C312.366 24.8693 312.295 25.0298 312.153 25.1634C312.014 25.2969 311.847 25.3636 311.651 25.3636ZM314.993 29.0625V33H313.987V26.4545H314.958V27.4773H315.044C315.197 27.1449 315.43 26.8778 315.743 26.6761C316.055 26.4716 316.458 26.3693 316.953 26.3693C317.396 26.3693 317.784 26.4602 318.116 26.642C318.449 26.821 318.707 27.0938 318.892 27.4602C319.076 27.8239 319.169 28.2841 319.169 28.8409V33H318.163V28.9091C318.163 28.3949 318.029 27.9943 317.762 27.7074C317.495 27.4176 317.129 27.2727 316.663 27.2727C316.342 27.2727 316.055 27.3423 315.802 27.4815C315.552 27.6207 315.355 27.8239 315.21 28.0909C315.065 28.358 314.993 28.6818 314.993 29.0625ZM323.751 33.1364C323.12 33.1364 322.576 32.9972 322.119 32.7188C321.664 32.4375 321.313 32.0455 321.066 31.5426C320.822 31.0369 320.7 30.4489 320.7 29.7784C320.7 29.108 320.822 28.517 321.066 28.0057C321.313 27.4915 321.657 27.0909 322.097 26.804C322.54 26.5142 323.058 26.3693 323.648 26.3693C323.989 26.3693 324.326 26.4261 324.658 26.5398C324.991 26.6534 325.293 26.8381 325.566 27.0938C325.839 27.3466 326.056 27.6818 326.218 28.0994C326.38 28.517 326.461 29.0312 326.461 29.642V30.0682H321.415V29.1989H325.438C325.438 28.8295 325.364 28.5 325.217 28.2102C325.072 27.9205 324.864 27.6918 324.594 27.5241C324.327 27.3565 324.012 27.2727 323.648 27.2727C323.248 27.2727 322.901 27.3722 322.609 27.571C322.319 27.767 322.096 28.0227 321.94 28.3381C321.783 28.6534 321.705 28.9915 321.705 29.3523V29.9318C321.705 30.4261 321.79 30.8452 321.961 31.1889C322.134 31.5298 322.374 31.7898 322.681 31.9688C322.988 32.1449 323.344 32.233 323.751 32.233C324.015 32.233 324.254 32.196 324.467 32.1222C324.683 32.0455 324.869 31.9318 325.025 31.7812C325.181 31.6278 325.302 31.4375 325.387 31.2102L326.359 31.483C326.256 31.8125 326.085 32.1023 325.843 32.3523C325.602 32.5994 325.303 32.7926 324.948 32.9318C324.593 33.0682 324.194 33.1364 323.751 33.1364Z" fill="white"/>
  <path d="M191.722 2.4519V37.6619" stroke="white" stroke-width="0.5" stroke-linecap="round" stroke-linejoin="round"/>
  <path d="M175.154 5.09791C175.154 5.20991 175.154 5.33591 175.154 5.44791C175.154 5.47591 175.154 5.48991 175.112 5.48991C174.886 5.48991 174.661 5.48991 174.421 5.48991C174.379 5.48991 174.379 5.48991 174.379 5.53191V7.56191C174.379 7.56191 174.379 7.63191 174.309 7.63191C174.168 7.63191 174.041 7.63191 173.9 7.63191C173.858 7.63191 173.858 7.63191 173.858 7.58991C173.858 7.25391 173.858 6.90391 173.858 6.56791C173.858 6.23191 173.858 5.89591 173.858 5.54591C173.858 5.50391 173.858 5.48991 173.801 5.48991C173.576 5.48991 173.351 5.48991 173.125 5.48991C173.097 5.48991 173.083 5.48991 173.083 5.44791C173.083 5.33591 173.083 5.20991 173.083 5.09791C173.083 5.06991 173.083 5.05591 173.125 5.05591C173.787 5.05591 174.45 5.05591 175.098 5.05591C175.126 5.05591 175.14 5.05591 175.14 5.09791H175.154Z" fill="white"/>
  <path d="M177.986 5.09803C177.986 5.92403 177.986 6.75003 177.986 7.57603C177.986 7.61803 177.986 7.61803 177.944 7.61803C177.817 7.61803 177.69 7.61803 177.563 7.61803C177.521 7.61803 177.507 7.61803 177.521 7.57603C177.521 6.94603 177.521 6.30203 177.521 5.65803V5.63003C177.493 5.72803 177.465 5.82603 177.436 5.92403C177.352 6.26003 177.267 6.59603 177.183 6.94603C177.127 7.15603 177.07 7.38003 177.028 7.59003C177.028 7.61803 177.014 7.63203 176.986 7.63203C176.845 7.63203 176.69 7.63203 176.549 7.63203C176.521 7.63203 176.507 7.63203 176.507 7.60403C176.352 6.97403 176.183 6.33003 176.028 5.70003C176.028 5.68603 176.028 5.67203 176.014 5.64403C176 5.65803 176.014 5.67203 176.014 5.68603C176.014 6.31603 176.014 6.94603 176.014 7.57603C176.014 7.61803 176.014 7.63203 175.957 7.63203C175.83 7.63203 175.704 7.63203 175.563 7.63203C175.535 7.63203 175.521 7.63203 175.521 7.59003C175.521 6.76403 175.521 5.92403 175.521 5.09803C175.521 5.07003 175.521 5.05603 175.549 5.05603C175.788 5.05603 176.028 5.05603 176.267 5.05603C176.295 5.05603 176.309 5.05603 176.309 5.08403C176.464 5.64403 176.605 6.19003 176.76 6.75003C176.76 6.76403 176.76 6.77803 176.76 6.79203C176.788 6.79203 176.774 6.75003 176.788 6.73603C176.929 6.19003 177.084 5.64403 177.225 5.09803C177.225 5.05603 177.253 5.04203 177.281 5.05603C177.507 5.05603 177.746 5.05603 177.972 5.05603C178 5.05603 178.014 5.05603 178.014 5.09803H177.986Z" fill="white"/>


  <path d="M177.986 7.57603C177.986 7.57603 177.986 7.61803 177.944 7.61803C177.817 7.61803 177.69 7.61803 177.563 7.61803C177.521 7.61803 177.507 7.61803 177.521 7.57603C177.521 6.94603 177.521 6.30203 177.521 5.65803V5.63003C177.493 5.72803 177.465 5.82603 177.436 5.92403C177.352 6.26003 177.267 6.59603 177.183 6.94603C177.127 7.15603 177.07 7.38003 177.028 7.59003C177.028 7.61803 177.014 7.63203 176.986 7.63203C176.845 7.63203 176.69 7.63203 176.549 7.63203C176.521 7.63203 176.507 7.63203 176.507 7.60403C176.352 6.97403 176.183 6.33003 176.028 5.70003C176.028 5.68603 176.028 5.67203 176.014 5.64403C176 5.65803 176.014 5.67203 176.014 5.68603C176.014 6.31603 176.014 6.94603 176.014 7.57603C176.014 7.61803 176.014 7.63203 175.957 7.63203C175.83 7.63203 175.704 7.63203 175.563 7.63203C175.535 7.63203 175.521 7.63203 175.521 7.59003C175.521 6.76403 175.521 5.92403 175.521 5.09803C175.521 5.07003 175.521 5.05603 175.549 5.05603C175.788 5.05603 176.028 5.05603 176.267 5.05603C176.295 5.05603 176.309 5.05603 176.309 5.08403C176.464 5.64403 176.605 6.19003 176.76 6.75003C176.76 6.76403 176.76 6.77803 176.76 6.79203C176.788 6.79203 176.774 6.75003 176.788 6.73603C176.929 6.19003 177.084 5.64403 177.225 5.09803C177.225 5.05603 177.253 5.04203 177.281 5.05603C177.507 5.05603 177.746 5.05603 177.972 5.05603C178 5.05603 178.014 5.05603 178.014 5.09803C178.014 5.92403 178.014 6.75003 178.014 7.57603H177.986Z" fill="white"/>
  <path d="M177.986 7.57603C177.986 7.57603 177.986 7.61803 177.944 7.61803C177.817 7.61803 177.69 7.61803 177.563 7.61803C177.521 7.61803 177.507 7.61803 177.521 7.57603C177.521 6.94603 177.521 6.30203 177.521 5.65803V5.63003C177.493 5.72803 177.465 5.82603 177.436 5.92403C177.352 6.26003 177.267 6.59603 177.183 6.94603C177.127 7.15603 177.07 7.38003 177.028 7.59003C177.028 7.61803 177.014 7.63203 176.986 7.63203C176.845 7.63203 176.69 7.63203 176.549 7.63203C176.521 7.63203 176.507 7.63203 176.507 7.60403C176.352 6.97403 176.183 6.33003 176.028 5.70003C176.028 5.68603 176.028 5.67203 176.014 5.64403C176 5.65803 176.014 5.67203 176.014 5.68603C176.014 6.31603 176.014 6.94603 176.014 7.57603C176.014 7.61803 176.014 7.63203 175.957 7.63203C175.83 7.63203 175.704 7.63203 175.563 7.63203C175.535 7.63203 175.521 7.63203 175.521 7.59003C175.521 6.76403 175.521 5.92403 175.521 5.09803C175.521 5.07003 175.521 5.05603 175.549 5.05603C175.788 5.05603 176.028 5.05603 176.267 5.05603C176.295 5.05603 176.309 5.05603 176.309 5.08403C176.464 5.64403 176.605 6.19003 176.76 6.75003C176.76 6.76403 176.76 6.77803 176.76 6.79203C176.788 6.79203 176.774 6.75003 176.788 6.73603C176.929 6.19003 177.084 5.64403 177.225 5.09803C177.225 5.05603 177.253 5.04203 177.281 5.05603C177.507 5.05603 177.746 5.05603 177.972 5.05603C178 5.05603 178.014 5.05603 178.014 5.09803C178.014 5.92403 178.014 6.75003 178.014 7.57603H177.986Z" fill="white"/>
  <path d="M175.154 5.44791C175.154 5.44791 175.154 5.48991 175.112 5.48991C174.886 5.48991 174.661 5.48991 174.421 5.48991C174.379 5.48991 174.379 5.48991 174.379 5.53191V7.56191C174.379 7.56191 174.379 7.63191 174.309 7.63191C174.168 7.63191 174.041 7.63191 173.9 7.63191C173.858 7.63191 173.858 7.63191 173.858 7.58991C173.858 7.25391 173.858 6.90391 173.858 6.56791C173.858 6.23191 173.858 5.89591 173.858 5.54591C173.858 5.50391 173.858 5.48991 173.801 5.48991C173.576 5.48991 173.351 5.48991 173.125 5.48991C173.097 5.48991 173.083 5.48991 173.083 5.44791C173.083 5.33591 173.083 5.20991 173.083 5.09791C173.083 5.06991 173.083 5.05591 173.125 5.05591C173.787 5.05591 174.45 5.05591 175.098 5.05591C175.126 5.05591 175.14 5.05591 175.14 5.09791C175.14 5.20991 175.14 5.33591 175.14 5.44791H175.154Z" fill="white"/>
  <path d="M0.210938 36.2059V29.8639H18.2856C19.1591 29.8639 19.9198 29.5559 20.5397 28.9399C21.1596 28.3239 21.4695 27.5679 21.4695 26.6999C21.4695 25.8319 21.1596 25.0759 20.5397 24.4599C19.9198 23.8439 19.1591 23.5359 18.2856 23.5359H9.77658C7.14215 23.5359 4.8881 22.6119 3.01442 20.7499C1.14073 18.8879 0.210938 16.6479 0.210938 14.0299C0.210938 11.4119 1.14073 9.17193 3.01442 7.30993C4.8881 5.44793 7.14215 4.52393 9.77658 4.52393H27.8513L25.724 10.8659H9.77658C8.90313 10.8659 8.14239 11.1739 7.52253 11.7899C6.90266 12.4059 6.59273 13.1619 6.59273 14.0299C6.59273 14.8979 6.90266 15.6539 7.52253 16.2699C8.14239 16.8859 8.90313 17.1939 9.77658 17.1939H18.2856C20.9201 17.1939 23.1741 18.1179 25.0478 19.9799C26.9215 21.8419 27.8513 24.0819 27.8513 26.6999C27.8513 29.3179 26.9215 31.5579 25.0478 33.4199C23.1741 35.2819 20.9201 36.2059 18.2856 36.2059H0.210938Z" fill="white"/>
  <path d="M36.5999 10.852L34.4727 4.51001H52.5474C55.1818 4.51001 57.4358 5.43401 59.3095 7.29601C61.1832 9.15801 62.113 11.398 62.113 14.016C62.113 16.634 61.1832 18.874 59.3095 20.736C57.4358 22.598 55.1818 23.522 52.5474 23.522H40.8544V36.192H34.4727V17.18H52.5474C53.4208 17.18 54.1815 16.872 54.8014 16.256C55.4213 15.64 55.7312 14.884 55.7312 14.016C55.7312 13.148 55.4213 12.392 54.8014 11.776C54.1815 11.16 53.4208 10.852 52.5474 10.852H36.5999Z" fill="white"/>
  <path d="M78.7935 36.206L76.6662 29.864H86.6122L80.9208 16.536L72.5244 36.206H65.5791L80.9208 0.281982L96.2765 36.192H78.8076L78.7935 36.206Z" fill="white"/>
  <path d="M165.377 10.852H139.864V4.51001H167.505L165.377 10.852ZM146.246 29.864H167.505V36.206H139.864V17.18H167.505V23.522H146.246V29.864Z" fill="white"/>
  <mask id="mask0_673_1285" style="mask-type:alpha" maskUnits="userSpaceOnUse" x="101" y="3" width="33" height="33">
    <path d="M127.308 21.8307C126.344 26.2226 122.409 29.5176 117.706 29.5176C112.287 29.5176 107.876 25.1344 107.876 19.7497C107.876 14.3649 112.287 9.97737 117.706 9.97737C121.772 9.97737 125.262 12.44 126.758 15.9431H133.516C131.793 8.8588 125.358 3.57812 117.706 3.57812C108.731 3.57812 101.433 10.8315 101.433 19.7497C101.433 28.6679 108.731 35.9212 117.706 35.9212C125.969 35.9212 132.814 29.7691 133.835 21.8351H127.304L127.308 21.8307Z" fill="#D9D9D9"/>
  </mask>
  <g mask="url(#mask0_673_1285)">
    <path d="M117.925 3.27393H101.347V36.1806H117.925V3.27393Z" fill="url(#paint0_linear_673_1285)"/>
    <path d="M134.37 3.27368H117.923V36.1804H134.37V3.27368Z" fill="url(#paint1_linear_673_1285)"/>
  </g>
  <defs>
    <linearGradient id="paint0_linear_673_1285" x1="109.651" y1="3.16294" x2="109.651" y2="36.0874" gradientUnits="userSpaceOnUse">
      <stop stop-color="#F04C27"/>
      <stop offset="0.2" stop-color="#F15C2F"/>
      <stop offset="0.4" stop-color="#F36C35"/>
      <stop offset="0.5642" stop-color="#EE8522"/>
      <stop offset="0.5841" stop-color="#EF9422"/>
      <stop offset="0.6229" stop-color="#EFAE20"/>
      <stop offset="0.6633" stop-color="#F0C31E"/>
      <stop offset="0.7053" stop-color="#F0D31A"/>
      <stop offset="0.7495" stop-color="#F1DE17"/>
      <stop offset="0.7973" stop-color="#F1E615"/>
      <stop offset="0.8554" stop-color="#F1E913"/>
    </linearGradient>
    <linearGradient id="paint1_linear_673_1285" x1="126.146" y1="36.0872" x2="126.146" y2="3.16269" gradientUnits="userSpaceOnUse">
      <stop stop-color="#F1E913"/>
      <stop offset="0.4" stop-color="#C0D734"/>
      <stop offset="0.6" stop-color="#72C05B"/>
      <stop offset="0.8" stop-color="#59B953"/>
      <stop offset="1" stop-color="#43B45C"/>
    </linearGradient>
  </defs>
</svg>