<svg width="302" height="55" viewBox="0 0 302 55" fill="none" xmlns="http://www.w3.org/2000/svg">
<g clip-path="url(#clip0_32_2)">
<path d="M298.13 5.01H0V49.31H267.36C267.36 49.31 270.02 49.34 272.21 48.16C274.4 46.98 275.57 45.33 275.57 45.33L300.88 10.4C302.51 8.15 300.9 5 298.12 5L298.13 5.01Z" fill="var(--theme-def-bg)"/>
<path d="M27.56 33.01H29.95V28.36H35.07L35.1 33.01H37.49V22.13H35.1V26.21H29.95V22.13H27.56V33.01Z" fill="white"/>
<path d="M44.33 26.62H39.6V28.58H44.33V26.62Z" fill="white"/>
<path d="M46.43 33.01H48.81V28.31H52.9V26.21L48.81 26.2V24.29H54.74V22.13H46.43V33.01Z" fill="white"/>
<path d="M58.48 28.98L60.01 26.11L61.55 28.98H58.47H58.48ZM53.72 33.01H56.33L57.43 30.96H62.62L63.72 33.01H66.28L60.04 21.66L53.72 33.01Z" fill="white"/>
<path d="M72.3 33.22C74.21 33.22 75.86 32.4 76.92 31.09L75.06 29.69C74.43 30.5 73.43 31 72.3 31C70.39 31 68.84 29.58 68.84 27.58C68.84 25.58 70.39 24.16 72.3 24.16C73.41 24.16 74.4 24.64 75.03 25.43L76.86 24C75.8 22.73 74.18 21.93 72.3 21.93C68.99 21.93 66.46 24.42 66.46 27.59C66.46 30.76 69 33.23 72.3 33.23V33.22Z" fill="white"/>
<path d="M81.4 33.01H83.76V24.3H87.21V22.13H77.93L77.95 24.3H81.4V33.01Z" fill="white"/>
<path d="M93.73 30.99C91.82 30.99 90.27 29.57 90.27 27.57C90.27 25.57 91.82 24.15 93.73 24.15C95.64 24.15 97.19 25.57 97.19 27.57C97.19 29.57 95.64 30.99 93.73 30.99ZM93.73 33.22C97.04 33.22 99.57 30.73 99.57 27.56C99.57 24.39 97.03 21.92 93.73 21.92C90.43 21.92 87.89 24.39 87.89 27.56C87.89 30.73 90.43 33.22 93.73 33.22Z" fill="white"/>
<path d="M104.29 24.26H107.27C108.17 24.26 108.75 24.72 108.75 25.59C108.75 26.46 108.17 26.93 107.27 26.93H104.29V24.26ZM111.64 33.01L107.55 28.91C109.91 28.83 111.19 27.72 111.19 25.59C111.19 23.46 109.6 22.13 107.08 22.13H101.9V33.01H104.29V28.46L108.46 33.01H111.64V33.01Z" fill="white"/>
<path d="M121.88 33.16C124.58 33.16 126.39 31.79 126.38 29.9C126.38 28.17 125.41 27.18 123.08 26.67L121.59 26.35C120.51 26.11 120.05 25.82 120.04 25.2C120.04 24.51 120.83 24.12 121.95 24.13C123 24.13 123.95 24.48 124.83 25L126.03 23.15C124.91 22.47 123.34 21.98 121.72 21.98C119.33 21.98 117.48 23.32 117.48 25.13C117.48 26.78 118.46 27.88 120.89 28.42L122.24 28.72C123.53 29 123.94 29.24 123.9 29.9C123.86 30.59 123.13 31 121.98 31C120.74 31 119.42 30.65 118.33 30.01L117.05 31.86C118.3 32.64 120.14 33.15 121.88 33.15V33.16Z" fill="white"/>
<path d="M131.39 32.99H133.77V28.58L138.35 22.13H135.52L132.58 26.36L129.64 22.13H126.81L131.39 28.58V32.99Z" fill="white"/>
<path d="M143.52 33.16C146.22 33.16 148.03 31.79 148.02 29.9C148.02 28.17 147.05 27.18 144.72 26.67L143.23 26.35C142.15 26.11 141.69 25.82 141.68 25.2C141.68 24.51 142.47 24.12 143.59 24.13C144.64 24.13 145.59 24.48 146.47 25L147.67 23.15C146.55 22.47 144.98 21.98 143.36 21.98C140.97 21.98 139.12 23.32 139.12 25.13C139.12 26.78 140.1 27.88 142.53 28.42L143.88 28.72C145.17 29 145.58 29.24 145.54 29.9C145.5 30.59 144.77 31 143.62 31C142.38 31 141.06 30.65 139.97 30.01L138.69 31.86C139.94 32.64 141.78 33.15 143.52 33.15V33.16Z" fill="white"/>
<path d="M152.43 33.01H154.78V24.3H158.24V22.13H148.96L148.97 24.3H152.43V33.01Z" fill="white"/>
<path d="M160.06 33.01H168.66V30.83H162.44V28.31H166.8V26.21L162.44 26.2V24.29H168.64V22.13H160.06V33.01Z" fill="white"/>
<path d="M177.21 33.34L181 26.46V33.01H183.38V22.13H181.06L177.18 29.09L173.37 22.13H170.99V33.01H173.37V26.44L177.21 33.34Z" fill="white"/>
</g>
<defs>
<clipPath id="clip0_32_2">
<rect width="301.53" height="55" fill="white"/>
</clipPath>
</defs>
</svg>
