<svg id="Layer_1" data-name="Layer 1" xmlns="http://www.w3.org/2000/svg" viewBox="0 0 168.71 10"><defs><style>.cls-1{fill:#ffffff;}</style></defs><g id="tmjHHr"><path class="cls-1" d="M123.82,5.92V2c0-.59.21-.86.78-.85,2.78,0,5.56-.13,8.33.08a4.6,4.6,0,0,1,1.56.4A2.27,2.27,0,0,1,136,3.72c0,.46,0,.92,0,1.39a2.27,2.27,0,0,1-1.53,2.12,8,8,0,0,1-3.09.49c-1.53,0-3.06,0-4.6,0-.56,0-.56,0-.57.58s0,1.11,0,1.66a.86.86,0,0,1-.88.93,2.81,2.81,0,0,1-.58,0,.85.85,0,0,1-.9-1ZM129.4,3V3c-.93,0-1.86,0-2.79,0-.34,0-.44.11-.43.44,0,.69,0,1.37,0,2.06,0,.31.08.41.4.4q2.21,0,4.41,0a11.21,11.21,0,0,0,1.53-.08c.8-.12,1.06-.41,1.06-1.2,0-.18,0-.36,0-.54a.8.8,0,0,0-.6-.88,2.18,2.18,0,0,0-.79-.16Z" transform="translate(-0.15 -1)"/><path class="cls-1" d="M137.88,6V2.09c0-.76.36-1.07,1.23-1.06s1.14.3,1.14,1,0,1.76,0,2.64c0,.3.08.39.38.39h6.62c.3,0,.39-.1.38-.39,0-.89,0-1.79,0-2.69,0-.69.36-1,1.15-1s1.2.29,1.2,1c0,2.65,0,5.29,0,7.94a.85.85,0,0,1-.89,1,2.91,2.91,0,0,1-.59,0,.85.85,0,0,1-.87-.93q0-1.31,0-2.61c0-.3-.07-.41-.39-.41-2.19,0-4.39,0-6.58,0-.31,0-.42.08-.41.4,0,.85,0,1.7,0,2.56a.88.88,0,0,1-.94,1h-.5a.87.87,0,0,1-.93-1Z" transform="translate(-0.15 -1)"/><path class="cls-1" d="M108.44,10.92a1.19,1.19,0,0,1-1.08-.62c-.34-.49-.68-1-1-1.49a.55.55,0,0,0-.51-.28H100a.55.55,0,0,0-.54.31c-.3.48-.62.95-.94,1.42a1.47,1.47,0,0,1-1.74.61.88.88,0,0,1-.59-1.27,2.64,2.64,0,0,1,.27-.46l5.09-7.33a1.54,1.54,0,0,1,2.71,0q2.5,3.62,5,7.21l.15.23a1.08,1.08,0,0,1,.18,1.21C109.35,10.88,108.92,10.91,108.44,10.92ZM100.8,6.76H105l-2.11-3.15Z" transform="translate(-0.15 -1)"/><path class="cls-1" d="M152.89,10.92c-.49,0-.91-.06-1.14-.49a1.05,1.05,0,0,1,.17-1.17c1.76-2.53,3.51-5.07,5.28-7.59a1.51,1.51,0,0,1,2.54.05q2.63,3.74,5.21,7.47c.45.65.44,1.19,0,1.52a1.47,1.47,0,0,1-1.87-.26c-.39-.51-.74-1-1.08-1.59a.64.64,0,0,0-.62-.33H155.6a.65.65,0,0,0-.62.33c-.28.47-.6.93-.91,1.39A1.26,1.26,0,0,1,152.89,10.92Zm7.7-4.15-2.11-3.16-2.09,3.16Z" transform="translate(-0.15 -1)"/><path class="cls-1" d="M111,5.2V2.06c0-.73.35-1,1.16-1s1.2.3,1.2,1c0,1.9,0,3.8,0,5.7a1,1,0,0,0,.9,1.12,5.26,5.26,0,0,0,1.25.13h5.68c.75,0,1.09.39,1,1.1a.73.73,0,0,1-.49.64,1.34,1.34,0,0,1-.48.11c-2.36,0-4.72.09-7.07-.07a4.6,4.6,0,0,1-1.78-.46A2.26,2.26,0,0,1,111,8.2Z" transform="translate(-0.15 -1)"/></g><path class="cls-1" d="M2.67,1.58,9.88,7.73V2c0-.64.41-.95,1.21-.95s1.19.31,1.19,1v8c0,.65-.41,1-1.25,1a1.72,1.72,0,0,1-1.29-.55L2.54,4.28V10c0,.65-.39,1-1.2,1S.15,10.67.15,10V2q0-1,1.23-1a1.72,1.72,0,0,1,1.29.53" transform="translate(-0.15 -1)"/><path class="cls-1" d="M36.65,1.89,39.3,7.75,41.76,1.8A1.15,1.15,0,0,1,43,1.05c.78,0,1.2.33,1.2,1A1.59,1.59,0,0,1,44,2.7L40.7,10c-.33.71-.54,1-1.33,1a1.37,1.37,0,0,1-1.45-1L35.34,4.41,32.78,10c-.32.67-.61,1-1.43,1s-1-.3-1.35-1L26.7,2.7A1.56,1.56,0,0,1,26.51,2c0-.65.43-1,1.22-1A1.15,1.15,0,0,1,29,1.8l2.45,6,2.67-5.88a1.2,1.2,0,0,1,1.29-.84,1.22,1.22,0,0,1,1.29.84" transform="translate(-0.15 -1)"/><path class="cls-1" d="M59.06,8.59H52.47l-1.14,1.73a1.36,1.36,0,0,1-1.17.68c-.82,0-1.27-.33-1.27-.95a1.33,1.33,0,0,1,.34-.82l5.26-7.56a1.45,1.45,0,0,1,1.26-.62A1.42,1.42,0,0,1,57,1.67l5.27,7.56a1.33,1.33,0,0,1,.34.82c0,.62-.42.95-1.26.95a1.33,1.33,0,0,1-1.12-.68ZM53.63,6.85H57.9L55.76,3.64Z" transform="translate(-0.15 -1)"/><path class="cls-1" d="M68.55,10.93c-2.89,0-4.33-.92-4.33-2.78V3.76c0-1.76,1.41-2.64,4.26-2.64h1.7c.72,0,1.08.31,1.08.92s-.36,1-1.08,1H68.52c-1.27,0-1.91.29-1.91.84V8.07c0,.65.7,1,2.08,1h3c1.39,0,2.1-.34,2.1-1V5.81c0-.65.39-1,1.19-1s1.2.33,1.2,1V8.15c0,1.86-1.46,2.78-4.33,2.78Z" transform="translate(-0.15 -1)"/><path class="cls-1" d="M83.19,10.93q-4.34,0-4.34-2.77V3.77q0-2.65,4.27-2.65H84.9c.71,0,1.08.31,1.08.92s-.37,1-1.08,1H83.16c-1.28,0-1.91.29-1.91.85V5.12h6.31c.67,0,1,.28,1,.86s-.33.88-1,.88H81.25V8.08c0,.65.69,1,2.08,1H90.1c.71,0,1.08.3,1.08.92s-.37.95-1.08.95Z" transform="translate(-0.15 -1)"/><path class="cls-1" d="M19.3,10.93Q15,10.93,15,8.16V3.77C15,2,16.38,1.12,19.23,1.12H21c.71,0,1.07.31,1.07.92S21.73,3,21,3H19.27c-1.27,0-1.91.29-1.91.85V5.12h6.32c.67,0,1,.28,1,.86s-.32.88-1,.88H17.36V8.08c0,.65.7,1,2.09,1h6.77c.71,0,1.07.3,1.07.92s-.36.95-1.07.95Z" transform="translate(-0.15 -1)"/><path class="cls-1" d="M164.74,3.13A2,2,0,0,1,166.8,1a2,2,0,0,1,2,2.1,2,2,0,0,1-2.06,2.11A2,2,0,0,1,164.74,3.13Zm3.86,0a1.79,1.79,0,0,0-1.81-1.88A1.77,1.77,0,0,0,165,3.13a1.81,1.81,0,1,0,3.61,0Zm-1.3,1-.69-.77h-.27v.74a.12.12,0,0,1-.12.13h-.05c-.08,0-.12,0-.12-.14V2.19a.15.15,0,0,1,.16-.17h.64c.53,0,.82.22.82.65a.59.59,0,0,1-.55.62l-.21,0,.74.77s-.05.12-.16.12A.24.24,0,0,1,167.3,4.1Zm-.45-1c.35,0,.54-.16.54-.43s-.19-.41-.55-.41h-.51V3.1Z" transform="translate(-0.15 -1)"/></svg>
