<svg xmlns="http://www.w3.org/2000/svg" width="181.595" height="51.159" viewBox="0 0 181.595 51.159"><defs><style>.a{fill:#00a1ed;}.b{fill:#193e6e;}</style></defs><path class="a" d="M4.624.914,17.2,11.637V1.656C17.2.544,17.917,0,19.3,0s2.076.544,2.076,1.656V15.64c0,1.137-.716,1.7-2.174,1.7a2.993,2.993,0,0,1-2.248-.963L4.4,5.633V15.64c0,1.137-.692,1.7-2.1,1.7q-2.077,0-2.076-1.7V1.73C.227.569.943,0,2.376,0A3.036,3.036,0,0,1,4.624.914Z" transform="translate(0.059 0)"/><path class="a" d="M54.345,1.458l4.619,10.229,4.3-10.377A1.987,1.987,0,0,1,65.389,0c1.359,0,2.1.569,2.1,1.7a2.658,2.658,0,0,1-.322,1.161L61.411,15.591c-.567,1.236-.939,1.754-2.322,1.754a2.388,2.388,0,0,1-2.521-1.754l-4.5-9.734L47.6,15.591a2.4,2.4,0,0,1-2.5,1.754c-1.409,0-1.754-.518-2.347-1.754L37,2.866A2.581,2.581,0,0,1,36.679,1.7c0-1.136.74-1.7,2.125-1.7a2.006,2.006,0,0,1,2.125,1.309l4.274,10.4L49.848,1.458A2.1,2.1,0,0,1,52.1,0,2.117,2.117,0,0,1,54.345,1.458Z" transform="translate(9.576 0)"/><path class="a" d="M85.353,13.144H73.864l-2,3.015a2.331,2.331,0,0,1-2.025,1.185c-1.434,0-2.225-.567-2.225-1.656a2.4,2.4,0,0,1,.593-1.433L77.372,1.087A2.546,2.546,0,0,1,79.572,0a2.49,2.49,0,0,1,2.15,1.087l9.191,13.169a2.4,2.4,0,0,1,.593,1.433c0,1.088-.742,1.656-2.2,1.656a2.306,2.306,0,0,1-1.952-1.185Zm-9.462-3.039h7.437L79.6,4.521Z" transform="translate(17.652 0)"/><path class="a" d="M96.367,17.2c-5.041,0-7.561-1.605-7.561-4.843V4.693c0-3.063,2.472-4.6,7.438-4.6h2.965c1.26,0,1.878.544,1.878,1.607,0,1.111-.618,1.655-1.878,1.655H96.317c-2.223,0-3.336.494-3.336,1.458V12.2c0,1.137,1.211,1.73,3.633,1.73h5.312c2.421,0,3.657-.593,3.657-1.73V8.276q0-1.7,2.074-1.7c1.409,0,2.1.569,2.1,1.7v4.077c0,3.237-2.545,4.843-7.561,4.843Z" transform="translate(23.185 0.026)"/><path class="a" d="M116.6,17.2q-7.559,0-7.56-4.819V4.719C109.04,1.63,111.512.1,116.478.1h3.112c1.235,0,1.878.544,1.878,1.607,0,1.111-.643,1.655-1.878,1.655h-3.039q-3.335,0-3.336,1.483V7.065h11.016c1.163,0,1.73.494,1.73,1.507s-.567,1.532-1.73,1.532H113.215V12.23q0,1.7,3.633,1.7h11.8c1.236,0,1.878.518,1.878,1.605,0,1.112-.642,1.656-1.878,1.656Z" transform="translate(28.468 0.026)"/><path class="b" d="M32.693,46.1a2.475,2.475,0,0,1-2.14-1.211l-3.79-5.868H8.265L4.512,44.887A2.505,2.505,0,0,1,2.334,46.1C.917,46.1,0,45.389,0,44.287a2.1,2.1,0,0,1,.46-1.318L15.207,20.513a2.776,2.776,0,0,1,2.275-1.135h0a2.573,2.573,0,0,1,2.225,1.134L34.5,42.937a2.1,2.1,0,0,1,.531,1.349C35.028,45.389,34.112,46.1,32.693,46.1ZM24.57,35.583,17.5,24.627l-7,10.956Z" transform="translate(0 5.059)"/><path class="b" d="M42.125,45.914c-7.433,0-11.2-2.552-11.2-7.587v-17.1c0-.691.294-1.851,2.261-1.851,2.03,0,2.334,1.16,2.334,1.851V38.215c0,2.74,2.221,4.072,6.791,4.072H57.733c1.869,0,2.148,1.136,2.148,1.813s-.279,1.813-2.148,1.813Z" transform="translate(8.074 5.059)"/><path class="b" d="M60.121,46.062c-1.966,0-2.26-1.159-2.26-1.851v-23.1c0-.593.26-1.589,2-1.589H77.369c7.877,0,11.869,2.515,11.869,7.476v3.091c0,4.961-3.993,7.476-11.869,7.476H62.456V44.21C62.456,44.9,62.152,46.062,60.121,46.062ZM77.48,33.941c4.821,0,7.164-1.3,7.164-3.96V27.113c0-2.665-2.332-3.96-7.126-3.96H62.468a.19.19,0,0,0-.053.005l.039,10.783Z" transform="translate(15.106 5.098)"/><path class="b" d="M116.24,46.1c-1.966,0-2.26-1.159-2.26-1.851V34.7H91.9v9.548c0,.845-.406,1.851-2.336,1.851-1.965,0-2.26-1.159-2.26-1.851V21.229c0-.845.412-1.851,2.372-1.851,1.837,0,2.223,1.006,2.223,1.851v9.845H113.98V21.191c0-.677.294-1.813,2.26-1.813,2.032,0,2.336,1.136,2.336,1.813V44.249C118.575,44.941,118.271,46.1,116.24,46.1Z" transform="translate(22.794 5.059)"/><path class="b" d="M148.916,46.1a2.472,2.472,0,0,1-2.139-1.211l-3.791-5.868h-18.5l-3.752,5.865a2.505,2.505,0,0,1-2.178,1.213c-1.419,0-2.336-.711-2.336-1.813a2.1,2.1,0,0,1,.462-1.318l14.747-22.456a2.772,2.772,0,0,1,2.274-1.135h0a2.571,2.571,0,0,1,2.223,1.134l14.79,22.426a2.1,2.1,0,0,1,.531,1.349C151.252,45.389,150.335,46.1,148.916,46.1Zm-8.124-10.517L133.72,24.627l-7,10.956Z" transform="translate(30.343 5.059)"/><path class="a" d="M28.276,17.2q-7.559,0-7.56-4.819V4.719C20.716,1.63,23.186.1,28.153.1h3.114C32.5.1,33.144.642,33.144,1.7c0,1.111-.643,1.655-1.878,1.655H28.227q-3.337,0-3.336,1.483V7.065H35.907c1.161,0,1.73.494,1.73,1.507s-.569,1.532-1.73,1.532H24.891V12.23q0,1.7,3.632,1.7H40.33c1.236,0,1.878.518,1.878,1.605,0,1.112-.642,1.656-1.878,1.656Z" transform="translate(5.408 0.026)"/></svg>
