<?xml version="1.0" encoding="utf-8"?>
<!-- Generator: Adobe Illustrator 24.2.3, SVG Export Plug-In . SVG Version: 6.00 Build 0)  -->
<svg version="1.1" id="Layer_1" xmlns="http://www.w3.org/2000/svg" xmlns:xlink="http://www.w3.org/1999/xlink" x="0px" y="0px"
	 viewBox="0 0 107 30" style="enable-background:new 0 0 107 30;" xml:space="preserve">
<style type="text/css">
	.st0{fill:#FFFFFF;}
</style>
<g>
	<path class="st0" d="M3.2,0.8L10.5,7V1.2c0-0.6,0.4-1,1.2-1c0.8,0,1.2,0.3,1.2,1v8.1c0,0.7-0.4,1-1.3,1c-0.6,0-0.9-0.2-1.3-0.6
		L3.1,3.5v5.8c0,0.7-0.4,1-1.2,1c-0.8,0-1.2-0.3-1.2-1v-8c0-0.7,0.4-1,1.2-1C2.5,0.3,2.8,0.4,3.2,0.8z"/>
	<path class="st0" d="M37.4,1.1L40,7l2.5-6c0.2-0.5,0.5-0.8,1.2-0.8c0.8,0,1.2,0.3,1.2,1c0,0.2,0,0.4-0.2,0.7l-3.3,7.3
		c-0.3,0.7-0.5,1-1.3,1c-0.8,0-1.2-0.3-1.5-1l-2.6-5.6l-2.6,5.6c-0.3,0.7-0.6,1-1.4,1c-0.8,0-1-0.3-1.4-1l-3.3-7.3
		c-0.1-0.3-0.2-0.5-0.2-0.7c0-0.7,0.4-1,1.2-1c0.7,0,1,0.3,1.2,0.8l2.5,6l2.7-5.9c0.2-0.5,0.5-0.8,1.3-0.8
		C36.9,0.3,37.1,0.6,37.4,1.1z"/>
	<path class="st0" d="M59.9,7.8h-6.6l-1.2,1.7c-0.3,0.5-0.7,0.7-1.2,0.7c-0.8,0-1.3-0.3-1.3-1c0-0.3,0.1-0.5,0.3-0.8l5.3-7.6
		c0.3-0.4,0.7-0.6,1.3-0.6c0.5,0,1,0.2,1.2,0.6l5.3,7.6c0.3,0.4,0.3,0.6,0.3,0.8c0,0.6-0.4,1-1.3,1c-0.4,0-0.8-0.2-1.1-0.7L59.9,7.8
		z M54.4,6.1h4.3l-2.2-3.2L54.4,6.1z"/>
	<path class="st0" d="M69.4,10.2c-2.9,0-4.4-0.9-4.4-2.8V3c0-1.8,1.4-2.6,4.3-2.6h1.7c0.7,0,1.1,0.3,1.1,0.9c0,0.6-0.4,1-1.1,1h-1.7
		c-1.3,0-1.9,0.3-1.9,0.8v4.3c0,0.7,0.7,1,2.1,1h3.1c1.4,0,2.1-0.3,2.1-1V5c0-0.7,0.4-1,1.2-1c0.8,0,1.2,0.3,1.2,1v2.4
		c0,1.9-1.5,2.8-4.4,2.8H69.4z"/>
	<path class="st0" d="M84.2,10.2c-2.9,0-4.4-0.9-4.4-2.8V3c0-1.8,1.4-2.7,4.3-2.7h1.8c0.7,0,1.1,0.3,1.1,0.9c0,0.6-0.4,1-1.1,1h-1.8
		c-1.3,0-1.9,0.3-1.9,0.9v1.3h6.3c0.7,0,1,0.3,1,0.9s-0.3,0.9-1,0.9h-6.3v1.2c0,0.7,0.7,1,2.1,1h6.8c0.7,0,1.1,0.3,1.1,0.9
		c0,0.6-0.4,1-1.1,1L84.2,10.2L84.2,10.2z"/>
	<path class="st0" d="M19.4,29.7c-0.5,0-0.9-0.2-1.2-0.7L16,25.7H5.3L3.1,29c-0.3,0.5-0.7,0.7-1.3,0.7c-0.8,0-1.3-0.4-1.3-1
		c0-0.2,0-0.4,0.3-0.8L9.3,15c0.3-0.4,0.7-0.6,1.3-0.7c0,0,0,0,0,0c0.5,0,1,0.2,1.3,0.7l8.5,12.9c0.2,0.3,0.3,0.5,0.3,0.8
		C20.7,29.3,20.2,29.7,19.4,29.7z M14.7,23.7l-4.1-6.3l-4,6.3H14.7z"/>
	<path class="st0" d="M29.5,29.6c-4.3,0-6.5-1.5-6.5-4.4v-9.9c0-0.4,0.2-1.1,1.3-1.1c1.2,0,1.3,0.7,1.3,1.1v9.8
		c0,1.6,1.3,2.3,3.9,2.3h8.9c1.1,0,1.2,0.7,1.2,1c0,0.4-0.2,1-1.2,1L29.5,29.6L29.5,29.6z"/>
	<path class="st0" d="M43.9,29.7c-1.1,0-1.3-0.7-1.3-1.1V15.4c0-0.3,0.2-0.9,1.2-0.9h10.1c4.5,0,6.8,1.4,6.8,4.3v1.8
		c0,2.9-2.3,4.3-6.8,4.3h-8.6v3.8C45.2,29.1,45.1,29.7,43.9,29.7z M53.9,22.8c2.8,0,4.1-0.7,4.1-2.3v-1.7c0-1.5-1.3-2.3-4.1-2.3
		h-8.7c0,0,0,0,0,0l0,6.2L53.9,22.8L53.9,22.8z"/>
	<path class="st0" d="M80.7,29.7c-1.1,0-1.3-0.7-1.3-1.1v-5.5H66.6v5.5c0,0.5-0.2,1.1-1.3,1.1c-1.1,0-1.3-0.7-1.3-1.1V15.4
		c0-0.5,0.2-1.1,1.4-1.1c1.1,0,1.3,0.6,1.3,1.1v5.7h12.7v-5.7c0-0.4,0.2-1,1.3-1c1.2,0,1.3,0.7,1.3,1v13.3
		C82,29.1,81.8,29.7,80.7,29.7z"/>
	<path class="st0" d="M103.9,29.7c-0.5,0-0.9-0.2-1.2-0.7l-2.2-3.4H89.8L87.6,29c-0.3,0.5-0.7,0.7-1.3,0.7c-0.8,0-1.3-0.4-1.3-1
		c0-0.2,0-0.4,0.3-0.8L93.8,15c0.3-0.4,0.7-0.6,1.3-0.7c0,0,0,0,0,0c0.5,0,1,0.2,1.3,0.7l8.5,12.9c0.2,0.3,0.3,0.5,0.3,0.8
		C105.2,29.3,104.7,29.7,103.9,29.7z M99.2,23.7l-4.1-6.3l-4,6.3H99.2z"/>
	<path class="st0" d="M19.9,10.2c-2.9,0-4.4-0.9-4.4-2.8V3c0-1.8,1.4-2.7,4.3-2.7h1.8c0.7,0,1.1,0.3,1.1,0.9c0,0.6-0.4,1-1.1,1h-1.8
		c-1.3,0-1.9,0.3-1.9,0.9v1.3h6.3c0.7,0,1,0.3,1,0.9s-0.3,0.9-1,0.9H18v1.2c0,0.7,0.7,1,2.1,1h6.8c0.7,0,1.1,0.3,1.1,0.9
		c0,0.6-0.4,1-1.1,1L19.9,10.2L19.9,10.2z"/>
</g>
<g>
	<path class="st0" d="M102.6,16.7c-2.3,0-4.1-1.8-4.1-4.1s1.8-4.1,4.1-4.1c2.3,0,4.1,1.8,4.1,4.1S104.9,16.7,102.6,16.7z M102.6,9.1
		c-2,0-3.5,1.6-3.5,3.6s1.6,3.6,3.5,3.6c2,0,3.6-1.6,3.6-3.6S104.6,9.1,102.6,9.1z"/>
	<path id="text3175_1_" class="st0" d="M102.2,12.4c0.2,0,0.4,0,0.5-0.1c0.1-0.1,0.2-0.2,0.2-0.4c0-0.2-0.1-0.3-0.2-0.4
		c-0.1-0.1-0.3-0.1-0.5-0.1h-0.5v1.1H102.2 M101.8,13.2v1.7h-1.1v-4.4h1.7c0.6,0,1,0.1,1.3,0.3c0.3,0.2,0.4,0.5,0.4,0.9
		c0,0.3-0.1,0.5-0.2,0.7c-0.1,0.2-0.3,0.3-0.6,0.4c0.2,0,0.3,0.1,0.4,0.2c0.1,0.1,0.2,0.3,0.4,0.6l0.6,1.2h-1.2l-0.5-1.1
		c-0.1-0.2-0.2-0.4-0.3-0.4c-0.1-0.1-0.3-0.1-0.4-0.1H101.8"/>
</g>
</svg>
