<?xml version="1.0" encoding="utf-8"?>
<!-- Generator: Adobe Illustrator 23.1.1, SVG Export Plug-In . SVG Version: 6.00 Build 0)  -->
<svg version="1.1" id="Layer_1" xmlns="http://www.w3.org/2000/svg" xmlns:xlink="http://www.w3.org/1999/xlink" x="0px" y="0px"
	 viewBox="0 0 1800 507.1" style="enable-background:new 0 0 1800 507.1;" xml:space="preserve">
<style type="text/css">
	.st0{fill:#ffffff;}
	.st1{fill:#FFFFFF;}
</style>
<g>
	<path class="st0" d="M46.43,9.06l124.66,106.29V16.41C171.09,5.39,178.19,0,191.9,0s20.57,5.39,20.57,16.41v138.62
		c0,11.27-7.1,16.9-21.55,16.9c-10.04,0-14.94-3.18-22.28-9.55L44.23,55.84v99.19c0,11.27-6.86,16.9-20.82,16.9
		c-13.72,0-20.58-5.63-20.58-16.9V17.15C2.83,5.63,9.94,0,24.14,0C33.94,0,39.32,2.94,46.43,9.06z"/>
	<path class="st0" d="M633.6,14.45l45.79,101.39L722,12.98C725.44,4.66,731.07,0,743.07,0c13.47,0,20.82,5.63,20.82,16.9
		c0,3.18-0.74,6.12-3.18,11.51l-57.07,126.13c-5.63,12.25-9.3,17.39-23.02,17.39c-14.21,0-20.08-5.88-24.98-17.39l-44.58-96.49
		l-44.33,96.49c-5.39,11.51-10.53,17.39-24.74,17.39c-13.96,0-17.39-5.14-23.27-17.39L461.67,28.41c-2.45-5.14-3.18-8.32-3.18-11.51
		c0-11.27,7.34-16.9,21.06-16.9c11.75,0,17.63,4.66,21.06,12.98l42.37,103.11l46.04-101.64C592.94,5.88,597.35,0,611.31,0
		C625.02,0,629.67,5.88,633.6,14.45z"/>
	<path class="st0" d="M1021,130.29H907.13l-19.84,29.88c-5.15,7.84-11.76,11.76-20.08,11.76c-14.21,0-22.04-5.63-22.04-16.41
		c0-4.41,1.47-7.84,5.88-14.21L941.9,10.78C946.8,3.68,954.39,0,963.7,0c9.06,0,16.41,3.68,21.31,10.78l91.1,130.54
		c4.41,6.37,5.88,9.8,5.88,14.21c0,10.78-7.35,16.41-21.79,16.41c-7.59,0-14.21-3.92-19.35-11.76L1021,130.29z M927.21,100.17h73.71
		l-36.98-55.35L927.21,100.17z"/>
	<path class="st0" d="M1185.02,170.7c-49.96,0-74.94-15.92-74.94-48V46.78c0-30.37,24.5-45.55,73.72-45.55h29.39
		c12.49,0,18.62,5.39,18.62,15.92c0,11.02-6.13,16.41-18.62,16.41h-28.65c-22.04,0-33.06,4.9-33.06,14.45v73.23
		c0,11.27,12,17.14,36,17.14h52.65c24,0,36.25-5.87,36.25-17.14V82.29c0-11.27,6.86-16.9,20.57-16.9c13.96,0,20.82,5.63,20.82,16.9
		v40.41c0,32.08-25.23,48-74.94,48H1185.02z"/>
	<path class="st0" d="M1437.94,170.7c-49.96,0-74.94-15.92-74.94-47.76V47.02c0-30.61,24.5-45.8,73.72-45.8h30.86
		c12.24,0,18.61,5.39,18.61,15.92c0,11.02-6.37,16.41-18.61,16.41h-30.13c-22.04,0-33.06,4.9-33.06,14.7v22.04h109.19
		c11.52,0,17.15,4.9,17.15,14.94s-5.63,15.18-17.15,15.18h-109.19v21.06c0,11.27,12,16.9,36,16.9h117.02
		c12.25,0,18.61,5.14,18.61,15.92c0,11.02-6.36,16.41-18.61,16.41H1437.94z"/>
	<path class="st1" d="M324.06,507.1c-8.77,0-16.11-4.15-21.21-12l-37.56-58.16H81.92l-37.2,58.14
		c-5.11,7.87-12.57,12.02-21.59,12.02C9.08,507.1,0,500.04,0,489.12c0-3.99,0.76-7.57,4.56-13.06l146.18-222.59
		c4.54-6.8,12.54-10.79,22.55-11.25c0,0,0,0,0.01,0c9.44,0,17.22,3.99,22.05,11.23l146.59,222.29c3.71,4.8,5.27,8.73,5.27,13.38
		C347.21,500.04,338.12,507.1,324.06,507.1z M243.54,402.85l-70.11-108.6l-69.42,108.6H243.54z"/>
	<path class="st1" d="M497.57,505.25c-73.67,0-111.02-25.3-111.02-75.2V260.57c0-6.85,2.91-18.34,22.4-18.34
		c20.13,0,23.14,11.49,23.14,18.34v168.37c0,27.16,22.02,40.36,67.32,40.36h152.87c18.52,0,21.29,11.26,21.29,17.97
		c0,6.71-2.77,17.97-21.29,17.97H497.57z"/>
	<path class="st1" d="M745.66,507.1c-19.49,0-22.4-11.49-22.4-18.34V259.83c0-5.89,2.58-15.76,19.82-15.76h173.54
		c78.07,0,117.66,24.93,117.66,74.1v30.65c0,49.16-39.59,74.1-117.66,74.1H768.81v65.84C768.81,495.61,765.8,507.1,745.66,507.1z
		 M917.73,386.97c47.78,0,71.01-12.84,71.01-39.26v-28.43c0-26.41-23.11-39.26-70.64-39.26H768.92c-0.38,0-0.52,0.05-0.52,0.05
		l0.39,106.89H917.73z"/>
	<path class="st1" d="M1378.13,507.1c-19.49,0-22.41-11.49-22.41-18.34v-94.64H1136.9v94.64c0,8.37-4.02,18.34-23.15,18.34
		c-19.49,0-22.4-11.49-22.4-18.34V260.57c0-8.37,4.08-18.34,23.51-18.34c18.21,0,22.04,9.97,22.04,18.34v97.6h218.82V260.2
		c0-6.71,2.91-17.97,22.41-17.97c20.13,0,23.14,11.26,23.14,17.97v228.55C1401.27,495.61,1398.26,507.1,1378.13,507.1z"/>
	<path class="st1" d="M1776.85,507.1c-8.77,0-16.1-4.15-21.2-12l-37.57-58.16h-183.36l-37.19,58.14
		c-5.12,7.87-12.58,12.02-21.59,12.02c-14.06,0-23.15-7.05-23.15-17.97c0-3.99,0.77-7.57,4.57-13.06l146.18-222.59
		c4.53-6.8,12.53-10.79,22.55-11.25c0.01,0,0.01,0,0.02,0c9.44,0,17.22,3.99,22.05,11.23l146.59,222.29
		c3.71,4.81,5.27,8.73,5.27,13.38C1800,500.04,1790.91,507.1,1776.85,507.1z M1696.33,402.85l-70.1-108.6l-69.42,108.6H1696.33z"/>
	<path class="st0" d="M333.89,170.7c-49.96,0-74.94-15.92-74.94-47.76V47.02c0-30.61,24.5-45.8,73.72-45.8h30.86
		c12.24,0,18.61,5.39,18.61,15.92c0,11.02-6.37,16.41-18.61,16.41H333.4c-22.04,0-33.06,4.9-33.06,14.7v22.04h109.19
		c11.52,0,17.15,4.9,17.15,14.94s-5.63,15.18-17.15,15.18H300.34v21.06c0,11.27,12,16.9,36,16.9h117.02
		c12.25,0,18.61,5.14,18.61,15.92c0,11.02-6.36,16.41-18.61,16.41H333.89z"/>
</g>
</svg>
