<?xml version="1.0" encoding="utf-8"?>
<!-- Generator: Adobe Illustrator 24.3.0, SVG Export Plug-In . SVG Version: 6.00 Build 0)  -->
<svg version="1.1" id="Layer_1" xmlns="http://www.w3.org/2000/svg" xmlns:xlink="http://www.w3.org/1999/xlink" x="0px" y="0px"
	 viewBox="0 0 54 54" style="enable-background:new 0 0 54 54;" xml:space="preserve">
<style type="text/css">
	.st0{fill:#2AB8F2;}
	.st1{fill:#F1F3F4;}
</style>
<g>
	
		<ellipse transform="matrix(0.9989 -4.760465e-02 4.760465e-02 0.9989 -1.2547 1.3159)" class="st0" cx="27" cy="27" rx="26.6" ry="26.6"/>
	<path class="st1" d="M36.7,33.9h-1.5l0-8.3c0-4.1-2.9-7.6-6.8-8.4c0-0.9-0.8-1.7-1.8-1.7c-1,0-1.7,0.8-1.8,1.7
		C20.9,18,18,21.4,18,25.6l0,8.3l-1.5,0c-0.5,0-0.8,0.4-0.8,0.8c0,0.5,0.4,0.8,0.8,0.8h2.4l5.4,0c0,0.1,0,0.2,0,0.3
		c0,1.3,1.1,2.4,2.4,2.4c1.3,0,2.4-1.1,2.4-2.4c0-0.1,0-0.2,0-0.3h5.4l2.4,0c0.5,0,0.8-0.4,0.8-0.8C37.5,34.3,37.1,33.9,36.7,33.9z
		 M19.6,33.9l0-8.3c0-3.8,3.1-6.9,6.9-6.9c3.8,0,6.9,3.1,6.9,6.9l0,8.3L19.6,33.9z"/>
</g>
</svg>
