<?xml version="1.0" encoding="utf-8"?>
<!-- Generator: Adobe Illustrator 24.3.0, SVG Export Plug-In . SVG Version: 6.00 Build 0)  -->
<svg version="1.1" id="Layer_1" xmlns="http://www.w3.org/2000/svg" xmlns:xlink="http://www.w3.org/1999/xlink" x="0px" y="0px"
	 viewBox="0 0 56 56" style="enable-background:new 0 0 56 56;" xml:space="preserve">
<style type="text/css">
	.st0{fill:none;stroke:#F1F3F4;stroke-width:1.7421;stroke-miterlimit:10;}
	.st1{fill:#F1F3F4;}
</style>
<g>
	
		<ellipse transform="matrix(0.9989 -4.760450e-02 4.760450e-02 0.9989 -1.3012 1.3647)" class="st0" cx="28" cy="28" rx="26.6" ry="26.6"/>
	<g>
		<g>
			<path class="st1" d="M43,39.8l-30,0c-0.5,0-0.9-0.4-0.9-0.9l0-20c0-0.5,0.4-0.9,0.9-0.9l30,0c0.5,0,0.9,0.4,0.9,0.9l0,20
				C43.9,39.4,43.5,39.8,43,39.8z M13.9,38l28.3,0l0-18.2l-28.3,0L13.9,38z"/>
		</g>
		<g>
			<path class="st1" d="M17.5,39.8c-0.5,0-0.9-0.4-0.9-0.9l0-20c0-0.5,0.4-0.9,0.9-0.9c0.5,0,0.9,0.4,0.9,0.9l0,20
				C18.4,39.4,18,39.8,17.5,39.8z"/>
		</g>
		<g>
			<path class="st1" d="M38.6,39.8c-0.5,0-0.9-0.4-0.9-0.9l0-20c0-0.5,0.4-0.9,0.9-0.9c0.5,0,0.9,0.4,0.9,0.9l0,20
				C39.5,39.4,39.1,39.8,38.6,39.8z"/>
		</g>
		<g>
			<path class="st1" d="M32.9,19.8l-9.9,0c-0.5,0-0.9-0.4-0.9-0.9l0-5.4c0-0.5,0.4-0.9,0.9-0.9l9.9,0c0.5,0,0.9,0.4,0.9,0.9l0,5.4
				C33.8,19.4,33.4,19.8,32.9,19.8z M24,18l8.1,0l0-3.6l-8.1,0L24,18z"/>
		</g>
	</g>
</g>
</svg>
