<?xml version="1.0" encoding="utf-8"?>
<!-- Generator: Adobe Illustrator 24.0.0, SVG Export Plug-In . SVG Version: 6.00 Build 0)  -->
<svg version="1.1" xmlns="http://www.w3.org/2000/svg" xmlns:xlink="http://www.w3.org/1999/xlink" x="0px" y="0px"
	 viewBox="0 0 30 30" style="enable-background:new 0 0 30 30;" xml:space="preserve">
<style type="text/css">
	.st0{fill:#00B9FF;}
	.st1{fill:#FFFFFF;stroke:#FFFFFF;stroke-width:0.5;stroke-miterlimit:10;}
	.st2{fill:#FFFFFF;}
	.st3{fill:#FFFFFF;stroke:#FFFFFF;stroke-width:0.35;stroke-miterlimit:10;}
	.st4{fill:#F1F2F2;}
	.st5{fill:#FFFFFF;stroke:#FFFFFF;stroke-width:0.75;stroke-linecap:round;stroke-linejoin:round;stroke-miterlimit:10;}
	.st6{fill:url(#SVGID_1_);}
</style>
<g id="Capa_1">
	<circle class="st0" cx="-47.2" cy="14.6" r="12"/>
	<path class="st1" d="M-21.7,23.5c-0.1,0-0.3,0-0.3,0.2c0,0.1,0,0.3,0.2,0.3c2.5,0.7,4.3,3.1,4.3,5.8c0,3.3-2.7,6-6,6s-6-2.7-6-6
		c0-2.7,1.8-5,4.3-5.8c0.2-0.1,0.2-0.2,0.2-0.4c0-0.1-0.2-0.2-0.3-0.2c-2.8,0.9-4.7,3.4-4.7,6.3c0,3.6,2.9,6.5,6.5,6.5
		s6.5-2.9,6.5-6.5C-17,26.8-18.9,24.3-21.7,23.5z"/>
	<path class="st1" d="M-21.9,28.7c0.1,0,0.3-0.1,0.3-0.3v-6.2c0-0.1-0.1-0.3-0.3-0.3s-0.3,0.1-0.3,0.3v6.2
		C-22.1,28.5-22,28.7-21.9,28.7z"/>
	<circle class="st2" cx="31.2" cy="-6.4" r="2.8"/>
	<g>
		<g>
			<path class="st3" d="M-50.2,9.6c0.2-0.1,0.4,0,0.5,0.1c0.1,0.1,0,0.4-0.2,0.5c-2.5,1.3-3.7,4.1-2.8,6.8c1,3,4.3,4.6,7.3,3.6
				c0.9-0.3,1.8-0.8,2.4-1.5c1.4-1.5,1.9-3.6,1.3-5.6c-0.5-1.5-1.6-2.7-3-3.4c-0.2-0.1-0.2-0.3-0.2-0.5c0.1-0.2,0.3-0.2,0.5-0.2
				c1.6,0.7,2.8,2.1,3.4,3.8c0.7,2.2,0.2,4.6-1.4,6.3c-0.7,0.8-1.7,1.4-2.7,1.7c-3.4,1.1-7.1-0.7-8.2-4.1C-54.4,14.2-53,11-50.2,9.6
				z M-47.3,7.6c0.3,0,0.5,0.2,0.5,0.5v5.2c0,0.3-0.2,0.5-0.5,0.5s-0.5-0.2-0.5-0.5V8.1C-47.8,7.8-47.6,7.6-47.3,7.6z"/>
		</g>
	</g>
	<path class="st4" d="M-17.8,14.9c0.5,0,0.8-0.4,0.8-0.8V6.6c0-0.5-0.4-0.8-0.8-0.8c-0.5,0-0.8,0.4-0.8,0.8v7.4
		C-18.6,14.5-18.2,14.9-17.8,14.9L-17.8,14.9z M-17.8,14.9"/>
	<path class="st4" d="M-14.1,11.2c-0.2-0.1-0.5-0.1-0.7,0c-0.2,0.1-0.4,0.3-0.5,0.6v0c-0.1,0.4,0.1,0.7,0.4,0.9
		c2.5,1.3,3.8,4.2,3.1,7c-0.7,2.8-3.2,4.7-6,4.7c-2.9,0-5.3-1.9-6-4.7c-0.7-2.8,0.6-5.6,3.1-7c0.3-0.2,0.5-0.5,0.4-0.9v0
		c-0.1-0.3-0.2-0.5-0.5-0.6c-0.2-0.1-0.5-0.1-0.7,0c-3.2,1.7-4.8,5.3-3.9,8.8c0.9,3.5,4,6,7.6,6c3.6,0,6.8-2.5,7.6-6
		C-9.3,16.6-10.9,12.9-14.1,11.2L-14.1,11.2z M-14.1,11.2"/>
	<g>
		<path class="st5" d="M4.1-6.5L1.5-7.6c-0.1,0-0.1-0.1-0.2-0.2l1.7,0c0,0,0.7,0.1,1.3-0.2c0.2-0.1,0.4-0.3,0.4-0.5
			c0.1-0.2,0-0.5-0.1-0.7C4.2-9.8,3-11.6,3-13.5c0,0-0.1-3.2-3.2-3.2c-0.5,0-0.9,0.1-1.3,0.2c-0.1-0.2-0.2-0.4-0.4-0.6
			C-2.4-17.7-3.3-18-4.5-18c-1.2,0-2.1,0.3-2.6,0.9c-0.6,0.7-0.6,1.6-0.5,1.7v1.4c-0.2,0.2-0.3,0.4-0.3,0.7v1c0,0.3,0.1,0.6,0.4,0.8
			c0.2,1,0.7,1.7,0.9,1.9v0.9c0,0.3-0.1,0.5-0.4,0.6l-2.3,1.3c-0.8,0.4-1.2,1.2-1.2,2.1v1.1H5.2v-1C5.2-5.4,4.8-6.1,4.1-6.5L4.1-6.5
			z M1.1-4.1h-11v-0.6c0-0.7,0.4-1.3,1-1.6l2.3-1.3C-6.3-7.8-6-8.2-6-8.7v-1.1l-0.1-0.1c0,0-0.6-0.8-0.9-1.9l0-0.1l-0.1-0.1
			c-0.2-0.1-0.2-0.3-0.2-0.4v-1c0-0.1,0.1-0.3,0.2-0.4l0.1-0.1v-1.6l0,0c0,0-0.1-0.7,0.4-1.3c0.4-0.5,1.2-0.7,2.2-0.7
			c1,0,1.8,0.2,2.2,0.7c0.2,0.2,0.3,0.5,0.4,0.8c0,0,0,0,0,0.1c0,0,0,0,0,0.1c0,0,0,0,0,0.1c0,0,0,0,0,0c0,0,0,0.1,0,0.1
			c0,0,0,0,0,0c0,0,0,0.1,0,0.1c0,0,0,0,0,0c0,0,0,0,0,0.1v0c0,0.1,0,0.1,0,0.1l0,1.7l0.1,0.1c0.1,0.1,0.2,0.2,0.2,0.4v1
			c0,0.2-0.1,0.4-0.4,0.5l-0.1,0l0,0.1c-0.2,0.5-0.4,1-0.7,1.5C-2.9-10-3-9.9-3.1-9.8l-0.1,0.1v1.1c0,0.1,0,0.1,0,0.2c0,0,0,0,0,0
			c0,0.1,0,0.1,0,0.2c0,0,0,0,0,0C-3-8.2-3-8.1-3-8.1c0,0,0,0,0,0c0,0.1,0.1,0.1,0.1,0.2l0.1,0.1h0c0.1,0.1,0.2,0.2,0.3,0.2L0-6.3
			c0.6,0.3,1,0.9,1,1.6V-4.1z M4.7-4.1H1.6v-0.5c0-0.9-0.5-1.7-1.3-2.1l-1.8-0.9c0-0.1,0.1-0.2,0-0.3c-0.1-0.2-0.2-0.3-0.4-0.3h-0.6
			c0,0,0,0,0-0.1c0,0,0-0.1,0-0.1c0-0.1,0-0.1,0-0.2v-0.9c0.1-0.1,0.1-0.2,0.2-0.2c0.3-0.5,0.6-1,0.8-1.5c0.4-0.2,0.6-0.5,0.6-0.9
			v-1c0-0.3-0.1-0.5-0.3-0.7v-1.4c0-0.1,0-0.3,0-0.6c0.3-0.1,0.7-0.2,1.1-0.2c2.6,0,2.7,2.6,2.7,2.7c0,2,1.2,3.9,1.8,4.6
			c0,0.1,0.1,0.1,0,0.2c0,0,0,0.1-0.1,0.2c-0.4,0.2-1,0.1-1.1,0.1H1.3c-0.2,0-0.3,0.1-0.4,0.2c-0.1,0.1-0.1,0.3,0,0.5
			C0.9-7.4,1-7.2,1.3-7.1L3.8-6c0.5,0.3,0.9,0.8,0.9,1.4V-4.1z M4.7-4.1"/>
	</g>
	<circle class="st0" cx="73.9" cy="27.5" r="12"/>
	<path class="st2" d="M80.2,30.5c-1-1-2.1-1.7-3.4-2.1c1.4-0.9,2.2-2.5,2.2-4.3c0-2.8-2.3-5.2-5.2-5.2s-5.2,2.3-5.2,5.2
		c0,1.8,0.9,3.3,2.2,4.3c-1.3,0.4-2.4,1.2-3.4,2.1c-1.4,1.4-2.3,3.2-2.5,5.1c-0.1,0.4-0.1,0.8-0.1,1.3h1.4c0-4.2,3.4-7.5,7.5-7.5
		s7.5,3.4,7.5,7.5l0.7-0.6c0-0.1,0.7-0.2,0.6-0.6C82.4,33.7,81.6,31.9,80.2,30.5z M73.9,27.9c-2.1,0-3.8-1.7-3.8-3.8
		s1.7-3.8,3.8-3.8s3.8,1.7,3.8,3.8S75.9,27.9,73.9,27.9z"/>
	<g>
		<path class="st0" d="M29.5,15c0,8-6.5,14.5-14.5,14.5S0.5,23,0.5,15S7,0.5,15,0.5S29.5,7,29.5,15z"/>
		<path class="st2" d="M18.3,14.5c1.3-1,2.2-2.6,2.2-4.4c0-3-2.5-5.5-5.5-5.5c-3,0-5.5,2.5-5.5,5.5c0,1.8,0.9,3.4,2.2,4.4
			c-3.6,1.3-6.1,4.8-6.1,8.8h1.7c0-4.3,3.5-7.7,7.7-7.7c4.3,0,7.7,3.5,7.7,7.7h1.7C24.4,19.3,21.9,15.9,18.3,14.5z M11.2,10.2
			c0-2.1,1.7-3.8,3.8-3.8s3.8,1.7,3.8,3.8s-1.7,3.8-3.8,3.8S11.2,12.2,11.2,10.2z"/>
	</g>
	
		<linearGradient id="SVGID_1_" gradientUnits="userSpaceOnUse" x1="41.9302" y1="20512.9531" x2="65.9302" y2="20512.9531" gradientTransform="matrix(1 0 0 1 0 -20454)">
		<stop  offset="0" style="stop-color:#00F38D"/>
		<stop  offset="1" style="stop-color:#009EFF"/>
	</linearGradient>
	<path class="st6" d="M65.9,59c0,6.6-5.4,12-12,12s-12-5.4-12-12s5.4-12,12-12S65.9,52.3,65.9,59z"/>
	<path class="st2" d="M56.7,58.6c1.1-0.8,1.8-2.1,1.8-3.6c0-2.5-2-4.5-4.5-4.5c-2.5,0-4.5,2-4.5,4.5c0,1.5,0.7,2.8,1.8,3.6
		c-3,1.1-5.1,4-5.1,7.3h1.4c0-3.5,2.9-6.4,6.4-6.4c3.5,0,6.4,2.9,6.4,6.4h1.4C61.7,62.5,59.6,59.7,56.7,58.6z M50.8,54.9
		c0-1.7,1.4-3.1,3.1-3.1s3.1,1.4,3.1,3.1s-1.4,3.1-3.1,3.1S50.8,56.7,50.8,54.9z"/>
</g>
<g id="Layer_2">
</g>
</svg>
