<?xml version="1.0" encoding="utf-8"?>
<!-- Generator: Adobe Illustrator 24.3.0, SVG Export Plug-In . SVG Version: 6.00 Build 0)  -->
<svg version="1.1" id="Layer_1" xmlns="http://www.w3.org/2000/svg" xmlns:xlink="http://www.w3.org/1999/xlink" x="0px" y="0px"
	 viewBox="0 0 56 56" style="enable-background:new 0 0 56 56;" xml:space="preserve">
<style type="text/css">
	.st0{fill:none;stroke:#F1F3F4;stroke-width:1.7421;stroke-miterlimit:10;}
	.st1{fill:#F1F3F4;}
</style>
<g>
	
		<ellipse transform="matrix(0.9989 -4.760451e-02 4.760451e-02 0.9989 -1.3012 1.3647)" class="st0" cx="28" cy="28" rx="26.6" ry="26.6"/>
	<g>
		<g>
			<path class="st1" d="M18.9,33c0-0.5,0.4-0.9,0.9-0.9l16.4,0c0.5,0,0.9,0.4,0.9,0.9c0,0.5-0.4,0.9-0.9,0.9l-16.4,0
				C19.3,33.9,18.9,33.5,18.9,33z"/>
		</g>
		<g>
			<path class="st1" d="M18.9,37.3c0-0.5,0.4-0.9,0.9-0.9l16.4,0c0.5,0,0.9,0.4,0.9,0.9c0,0.5-0.4,0.9-0.9,0.9l-16.4,0
				C19.3,38.1,18.9,37.7,18.9,37.3z"/>
		</g>
		<g>
			<path class="st1" d="M18.9,28.8c0-0.5,0.4-0.9,0.9-0.9l16.4,0c0.5,0,0.9,0.4,0.9,0.9s-0.4,0.9-0.9,0.9l-16.4,0
				C19.3,29.7,18.9,29.3,18.9,28.8z"/>
		</g>
		<path class="st1" d="M39.8,18.5c-0.5,0-0.9,0.4-0.9,0.9l0,14.7c0,0,0,0,0,0v6.3l-21.8,0l0-6.3l0-14.7c0-0.5-0.4-0.9-0.9-0.9
			s-0.9,0.4-0.9,0.9h0l0,21.9c0,0.5,0.4,0.9,0.9,0.9l23.5,0c0.5,0,0.9-0.4,0.9-0.9l0-21.9C40.7,18.9,40.3,18.5,39.8,18.5z"/>
		<path class="st1" d="M28,12.1L28,12.1c-3.9,0-7.1,3.2-7.1,7.1c0,3.9,3.2,7.1,7.1,7.1h0c3.9,0,7.1-3.2,7.1-7.1
			C35.1,15.3,31.9,12.1,28,12.1z M32.9,18.6L28.5,23c-0.1,0.1-0.3,0.2-0.5,0.2c-0.2,0-0.3-0.1-0.5-0.2l-4.4-4.4
			c-0.3-0.3-0.3-0.7,0-1c0.3-0.3,0.7-0.3,1,0l3.3,3.3l0-5.4c0-0.3,0.3-0.6,0.6-0.6c0.3,0,0.6,0.3,0.6,0.6l0,5.4l3.3-3.3
			c0.3-0.3,0.7-0.3,1,0C33.1,17.9,33.1,18.4,32.9,18.6z"/>
	</g>
</g>
</svg>
