<svg width="18" height="18" viewBox="0 0 18 18" fill="none" xmlns="http://www.w3.org/2000/svg">
<path d="M11.8125 15.75H3.9375C3.78832 15.75 3.64524 15.6907 3.53975 15.5852C3.43426 15.4798 3.375 15.3367 3.375 15.1875V5.0625C3.375 4.91332 3.43426 4.77024 3.53975 4.66475C3.64524 4.55926 3.78832 4.5 3.9375 4.5H9.5625L12.375 7.3125V15.1875C12.375 15.3367 12.3157 15.4798 12.2102 15.5852C12.1048 15.6907 11.9617 15.75 11.8125 15.75Z" stroke="white" stroke-width="1.2" stroke-linecap="round" stroke-linejoin="round"/>
<path d="M5.625 4.5V2.8125C5.625 2.66332 5.68426 2.52024 5.78975 2.41475C5.89524 2.30926 6.03832 2.25 6.1875 2.25H11.8125L14.625 5.0625V12.9375C14.625 13.0867 14.5657 13.2298 14.4602 13.3352C14.3548 13.4407 14.2117 13.5 14.0625 13.5H12.375" stroke="white" stroke-width="1.2" stroke-linecap="round" stroke-linejoin="round"/>
<path d="M6.1875 10.6875H9.5625" stroke="white" stroke-width="1.2" stroke-linecap="round" stroke-linejoin="round"/>
<path d="M6.1875 12.9375H9.5625" stroke="white" stroke-width="1.2" stroke-linecap="round" stroke-linejoin="round"/>
</svg>
