<?xml version="1.0" encoding="utf-8"?>
<!-- Generator: Adobe Illustrator 24.3.0, SVG Export Plug-In . SVG Version: 6.00 Build 0)  -->
<svg version="1.1" id="Layer_1" xmlns="http://www.w3.org/2000/svg" xmlns:xlink="http://www.w3.org/1999/xlink" x="0px" y="0px"
	 viewBox="0 0 25 25" style="enable-background:new 0 0 25 25;" xml:space="preserve">
<style type="text/css">
	.st0{fill:none;stroke:#ccc;stroke-miterlimit:10;}
	.st1{fill:none;stroke:#000000;stroke-miterlimit:10;}
	.st2{fill:none;stroke:#ccc;stroke-width:1.1368;stroke-linecap:round;stroke-linejoin:round;stroke-miterlimit:10;}
</style>
<path class="st0" d="M12.6,24.4L12.6,24.4c-6.6,0-12-5.4-12-11.9l0,0C0.6,5.9,6,0.6,12.5,0.6l0,0c6.6,0,11.9,5.4,11.9,11.9l0,0
	C24.6,19,19.2,24.4,12.6,24.4z"/>
<g>
	<path class="st1" d="M-141.4,176.7c0.2,0,0.4,0,0.6,0.1c1.3,0.7,2.7,1.3,4.2,1.7c0.5,0.1,0.8,0.5,0.8,1l0.7,5.2
		c0.1,0.6,0.6,1,1.2,1h5.3c0.6,0,1.1-0.5,1.2-1l0.7-5.2c0.1-0.5,0.4-0.9,0.8-1c1.5-0.4,2.9-1,4.2-1.7c0.4-0.2,0.9-0.2,1.3,0.1
		l4.1,3.2c0.5,0.4,1.1,0.3,1.5-0.1l3.7-3.7c0.4-0.4,0.5-1.1,0.1-1.6l-3.2-4.1c-0.3-0.4-0.3-0.9-0.1-1.3c0.7-1.3,1.3-2.7,1.7-4.2
		c0.1-0.5,0.5-0.8,1-0.8l5.2-0.7c0.6-0.1,1-0.6,1-1.2v-5.3c0-0.6-0.5-1.1-1-1.2l-5.2-0.7c-0.5-0.1-0.9-0.4-1-0.8
		c-0.4-1.5-1-2.9-1.7-4.2c-0.2-0.4-0.2-0.9,0.1-1.3l3.2-4.1c0.4-0.5,0.3-1.1-0.1-1.5l-3.7-3.7c-0.4-0.4-1.1-0.5-1.6-0.1l-4.1,3.2
		c-0.4,0.3-0.9,0.3-1.3,0.1c-1.3-0.7-2.7-1.3-4.2-1.7c-0.5-0.1-0.8-0.5-0.8-1l-0.7-5.2c-0.1-0.6-0.6-1-1.2-1h-5.3
		c-0.6,0-1.1,0.5-1.2,1l-0.7,5.2c-0.1,0.5-0.4,0.9-0.8,1c-1.5,0.4-2.9,1-4.2,1.7c-0.4,0.2-0.9,0.2-1.3-0.1l-4.1-3.2
		c-0.5-0.4-1.1-0.3-1.5,0.1l-3.7,3.7c-0.4,0.4-0.5,1.1-0.1,1.6l3.2,4.1c0.3,0.4,0.3,0.9,0.1,1.3c-0.7,1.3-1.3,2.7-1.7,4.2
		c-0.1,0.5-0.5,0.8-1,0.8l-5.2,0.7c-0.6,0.1-1,0.6-1,1.2v5.3c0,0.6,0.5,1.1,1,1.2l5.2,0.7c0.5,0.1,0.9,0.4,1,0.8
		c0.4,1.5,1,2.9,1.7,4.2c0.2,0.4,0.2,0.9-0.1,1.3l-3.2,4.1c-0.4,0.5-0.3,1.1,0.1,1.5l3.7,3.7c0.4,0.4,1.1,0.5,1.6,0.1l4.1-3.2
		C-141.9,176.8-141.7,176.7-141.4,176.7L-141.4,176.7z M-141.4,176.7"/>
	<path class="st1" d="M-131.4,150.5c-5.2,0-9.4,4.2-9.4,9.4c0,5.2,4.2,9.4,9.4,9.4s9.4-4.2,9.4-9.4
		C-121.9,154.7-126.2,150.5-131.4,150.5L-131.4,150.5z M-131.4,150.5"/>
</g>
<g>
	<path class="st2" d="M9.4,17.6c0.1,0,0.1,0,0.2,0c0.4,0.2,0.8,0.4,1.3,0.5c0.1,0,0.2,0.2,0.3,0.3l0.2,1.6c0,0.2,0.2,0.3,0.4,0.3
		h1.6c0.2,0,0.3-0.1,0.4-0.3l0.2-1.6c0-0.1,0.1-0.3,0.3-0.3c0.5-0.1,0.9-0.3,1.3-0.5c0.1-0.1,0.3-0.1,0.4,0l1.3,1
		c0.1,0.1,0.3,0.1,0.5,0l1.1-1.1c0.1-0.1,0.1-0.3,0-0.5l-1-1.3c-0.1-0.1-0.1-0.3,0-0.4c0.2-0.4,0.4-0.8,0.5-1.3
		c0-0.1,0.2-0.2,0.3-0.3l1.6-0.2c0.2,0,0.3-0.2,0.3-0.4v-1.6c0-0.2-0.1-0.3-0.3-0.4l-1.6-0.2c-0.1,0-0.3-0.1-0.3-0.3
		c-0.1-0.5-0.3-0.9-0.5-1.3c-0.1-0.1-0.1-0.3,0-0.4l1-1.3c0.1-0.1,0.1-0.3,0-0.5l-1.1-1.1c-0.1-0.1-0.3-0.1-0.5,0l-1.3,1
		c-0.1,0.1-0.3,0.1-0.4,0c-0.4-0.2-0.8-0.4-1.3-0.5c-0.1,0-0.2-0.2-0.3-0.3l-0.2-1.6c0-0.2-0.2-0.3-0.4-0.3h-1.6
		c-0.2,0-0.3,0.1-0.4,0.3l-0.2,1.6c0,0.1-0.1,0.3-0.3,0.3C10.4,6.9,10,7.1,9.6,7.3c-0.1,0.1-0.3,0.1-0.4,0l-1.3-1
		c-0.1-0.1-0.3-0.1-0.5,0L6.3,7.5c-0.1,0.1-0.1,0.3,0,0.5l1,1.3c0.1,0.1,0.1,0.3,0,0.4c-0.2,0.4-0.4,0.8-0.5,1.3
		c0,0.1-0.2,0.2-0.3,0.3l-1.6,0.2c-0.2,0-0.3,0.2-0.3,0.4v1.6c0,0.2,0.1,0.3,0.3,0.4l1.6,0.2c0.1,0,0.3,0.1,0.3,0.3
		c0.1,0.5,0.3,0.9,0.5,1.3c0.1,0.1,0.1,0.3,0,0.4l-1,1.3c-0.1,0.1-0.1,0.3,0,0.5l1.1,1.1c0.1,0.1,0.3,0.1,0.5,0l1.3-1
		C9.3,17.7,9.3,17.6,9.4,17.6L9.4,17.6z M9.4,17.6"/>
	<path class="st2" d="M12.5,9.6c-1.6,0-2.9,1.3-2.9,2.9c0,1.6,1.3,2.9,2.9,2.9c1.6,0,2.9-1.3,2.9-2.9C15.4,10.9,14.1,9.6,12.5,9.6
		L12.5,9.6z M12.5,9.6"/>
</g>
</svg>
