<svg width="39" height="38" viewBox="0 0 39 38" fill="none" xmlns="http://www.w3.org/2000/svg">
<rect x="1" y="0.5" width="37" height="37" rx="4.5" fill="#191930" stroke="#191930"/>
<path d="M16.8516 27.8291H22.8516" stroke="white" stroke-width="1.2" stroke-linecap="round" stroke-linejoin="round"/>
<path d="M13.1203 16.5791C13.1191 15.69 13.2937 14.8094 13.6343 13.988C13.9748 13.1667 14.4745 12.4208 15.1045 11.7934C15.7345 11.166 16.4825 10.6694 17.3052 10.3323C18.128 9.99518 19.0093 9.82417 19.8984 9.82911C23.6109 9.85724 26.5828 12.9416 26.5828 16.6635V17.3291C26.5828 20.6854 27.2859 22.6354 27.9047 23.7041C27.9704 23.8179 28.0051 23.947 28.0052 24.0785C28.0053 24.2099 27.9709 24.339 27.9053 24.453C27.8398 24.5669 27.7455 24.6616 27.6319 24.7276C27.5182 24.7937 27.3892 24.8287 27.2578 24.8291H12.4453C12.3139 24.8287 12.1849 24.7937 12.0712 24.7276C11.9576 24.6616 11.8633 24.5669 11.7978 24.453C11.7323 24.339 11.6978 24.2099 11.698 24.0785C11.6981 23.947 11.7327 23.8179 11.7984 23.7041C12.4172 22.6354 13.1203 20.6854 13.1203 17.3291V16.5791Z" stroke="white" stroke-width="1.2" stroke-linecap="round" stroke-linejoin="round"/>
</svg>
