<svg width="40" height="39" viewBox="0 0 40 39" fill="none" xmlns="http://www.w3.org/2000/svg">
<path d="M33.9062 1.3291H5.90625C3.42097 1.3291 1.40625 3.34382 1.40625 5.8291V33.8291C1.40625 36.3144 3.42097 38.3291 5.90625 38.3291H33.9062C36.3915 38.3291 38.4062 36.3144 38.4062 33.8291V5.8291C38.4062 3.34382 36.3915 1.3291 33.9062 1.3291Z" fill="#191930" stroke="#191930"/>
<path d="M17.2826 9C17.2354 9.00019 17.1888 9.00969 17.1453 9.02795C17.1018 9.04621 17.0623 9.07287 17.0292 9.1064L12.1028 14.0348C12.0707 14.0679 12.0453 14.1069 12.028 14.1496C12.0275 14.1508 12.027 14.152 12.0266 14.1532C12.0098 14.195 12.001 14.2396 12.0007 14.2848C12.0005 14.2862 12.0002 14.2876 12 14.289V27.8927C12 28.9364 12.8506 29.7868 13.8941 29.7868H27.1031C28.1466 29.7868 29 28.9367 29 27.8927V21.964V10.8948C29 9.85087 28.1466 9.00072 27.1031 9.00072H17.2896C17.2873 9.00046 17.2849 9.00021 17.2826 9ZM17.6431 9.71746H27.1031C27.762 9.71746 28.2832 10.2358 28.2832 10.8948V21.964V27.8927C28.2832 28.5517 27.762 29.07 27.1031 29.07H13.8941C13.2351 29.07 12.7167 28.552 12.7167 27.8927V14.6466H15.749C16.7925 14.6466 17.6431 13.7955 17.6431 12.7518V9.71746ZM16.9256 10.2235V12.7518C16.9256 13.4111 16.4079 13.9291 15.749 13.9291H13.2242L16.9256 10.2235ZM15.9603 16.4238C15.913 16.4236 15.8662 16.4328 15.8224 16.4508C15.7787 16.4688 15.739 16.4953 15.7055 16.5288C15.6721 16.5622 15.6456 16.602 15.6276 16.6457C15.6096 16.6894 15.6004 16.7363 15.6006 16.7836C15.6007 16.8307 15.61 16.8774 15.6282 16.9208C15.6463 16.9643 15.6729 17.0038 15.7063 17.037C15.7397 17.0703 15.7793 17.0966 15.8229 17.1145C15.8665 17.1323 15.9132 17.1415 15.9603 17.1413H25.0396C25.1342 17.1409 25.2249 17.1031 25.2918 17.0361C25.3587 16.969 25.3964 16.8783 25.3965 16.7836C25.3967 16.7365 25.3876 16.6899 25.3698 16.6463C25.352 16.6028 25.3257 16.5632 25.2926 16.5298C25.2594 16.4964 25.22 16.4698 25.1766 16.4516C25.1332 16.4334 25.0866 16.424 25.0396 16.4238H15.9603ZM15.9603 19.9159C15.9132 19.9157 15.8665 19.9248 15.8229 19.9427C15.7793 19.9606 15.7397 19.9869 15.7063 20.0201C15.6729 20.0534 15.6463 20.0929 15.6282 20.1363C15.61 20.1798 15.6007 20.2265 15.6006 20.2736C15.6004 20.3209 15.6096 20.3678 15.6276 20.4115C15.6456 20.4552 15.6721 20.495 15.7055 20.5284C15.739 20.5619 15.7787 20.5884 15.8224 20.6064C15.8662 20.6244 15.913 20.6336 15.9603 20.6334H25.0396C25.0866 20.6332 25.1332 20.6237 25.1766 20.6056C25.22 20.5874 25.2594 20.5608 25.2926 20.5274C25.3257 20.494 25.352 20.4544 25.3698 20.4109C25.3876 20.3673 25.3967 20.3207 25.3965 20.2736C25.3964 20.1789 25.3587 20.0882 25.2918 20.0211C25.2249 19.9541 25.1342 19.9163 25.0396 19.9159H15.9603ZM23.7299 21.7232C23.1068 21.7232 22.4841 21.9609 22.0108 22.4344C21.0642 23.3813 21.0642 24.9271 22.0108 25.874C22.8712 26.7347 24.2269 26.8132 25.1775 26.1092L26.5928 27.5224C26.6261 27.5558 26.6656 27.5823 26.7092 27.6003C26.7527 27.6184 26.7994 27.6277 26.8465 27.6277C26.8937 27.6277 26.9403 27.6184 26.9839 27.6003C27.0274 27.5823 27.067 27.5558 27.1003 27.5224C27.167 27.4553 27.2045 27.3644 27.2045 27.2697C27.2045 27.175 27.167 27.0842 27.1003 27.017L25.6849 25.601C26.3886 24.6503 26.3101 23.2951 25.4497 22.4344C24.9764 21.9609 24.353 21.7232 23.7299 21.7232ZM23.7299 22.4344C24.168 22.4344 24.6052 22.6033 24.9416 22.9398C25.6143 23.6127 25.6143 24.6928 24.9416 25.3658C24.2688 26.0388 23.191 26.0388 22.5183 25.3658C21.8456 24.6929 21.8456 23.6128 22.5183 22.9398C22.8547 22.6033 23.2918 22.4344 23.7299 22.4344ZM15.9603 23.6068C15.913 23.6066 15.8662 23.6158 15.8224 23.6338C15.7787 23.6518 15.739 23.6783 15.7055 23.7118C15.6721 23.7452 15.6456 23.785 15.6276 23.8287C15.6096 23.8724 15.6004 23.9193 15.6006 23.9666C15.6007 24.0137 15.6102 24.0602 15.6284 24.1036C15.6466 24.1471 15.6731 24.1865 15.7065 24.2196C15.7399 24.2528 15.7795 24.279 15.8231 24.2968C15.8666 24.3147 15.9133 24.3238 15.9603 24.3236H19.976C20.0231 24.3238 20.0697 24.3147 20.1133 24.2968C20.1568 24.279 20.1964 24.2528 20.2299 24.2196C20.2633 24.1865 20.2898 24.1471 20.308 24.1036C20.3262 24.0602 20.3356 24.0137 20.3358 23.9666C20.336 23.9193 20.3268 23.8724 20.3088 23.8287C20.2908 23.785 20.2643 23.7452 20.2308 23.7118C20.1974 23.6783 20.1577 23.6518 20.1139 23.6338C20.0702 23.6158 20.0233 23.6066 19.976 23.6068H15.9603Z" fill="#D1D1D4"/>
</svg>
