<svg width="40" height="39" viewBox="0 0 40 39" fill="none" xmlns="http://www.w3.org/2000/svg">
<rect x="1.40625" y="1.3291" width="37" height="37" rx="4.5" fill="#191930" stroke="#191930"/>
<path d="M19.9062 14.9541V19.8291" stroke="#D1D1D4" stroke-width="1.5" stroke-linecap="round" stroke-linejoin="round"/>
<path d="M24.1313 22.2666L19.9062 19.8291" stroke="#D1D1D4" stroke-width="1.5" stroke-linecap="round" stroke-linejoin="round"/>
<path d="M14.1984 16.9549H10.1359V12.8924" stroke="#D1D1D4" stroke-width="1.5" stroke-linecap="round" stroke-linejoin="round"/>
<path d="M13.5891 26.1463C14.8387 27.397 16.4312 28.2489 18.1651 28.5943C19.899 28.9398 21.6964 28.7632 23.33 28.087C24.9635 27.4107 26.3598 26.2652 27.3422 24.7953C28.3245 23.3254 28.8489 21.5971 28.8489 19.8291C28.8489 18.0611 28.3245 16.3329 27.3422 14.8629C26.3598 13.393 24.9635 12.2475 23.33 11.5712C21.6964 10.895 19.899 10.7184 18.1651 11.0639C16.4312 11.4093 14.8387 12.2613 13.5891 13.5119L10.1359 16.9549" stroke="#D1D1D4" stroke-width="1.5" stroke-linecap="round" stroke-linejoin="round"/>
</svg>
