<svg width="40" height="39" viewBox="0 0 40 39" fill="none" xmlns="http://www.w3.org/2000/svg">
<rect x="1.40625" y="1.3291" width="37" height="37" rx="4.5" fill="#191930" stroke="#191930"/>
<path fill-rule="evenodd" clip-rule="evenodd" d="M7.90625 7.8291H22.3306L15.7413 20.7489L7.90625 20.7483V7.8291ZM9.0509 8.86844V19.6184H14.9453L20.4071 8.86844H9.0509ZM20.9256 16.9394L29.9062 17.0024V29.8291H29.5233V29.4465C29.5233 29.8291 29.5233 29.8291 29.5233 29.8291H15.5509L15.7213 29.3243L16.0842 29.4465C15.7213 29.3243 15.7213 29.3243 15.7213 29.3243L20.9256 16.9394ZM17.1054 28.7663H28.6712V18.0307H21.6601L17.1054 28.7663Z" fill="#D1D1D4"/>
<path d="M15.972 10.8043L15.9239 10.9381L13.9604 16.4003L13.9366 16.4665H13.8662H13.2267H13.1564L13.1326 16.4003L11.1691 10.9381L11.121 10.8043H11.2632H11.9289H11.9995L12.0231 10.8708L13.302 14.4681C13.3021 14.4682 13.3021 14.4683 13.3021 14.4684C13.3549 14.6139 13.4015 14.7535 13.4419 14.8871C13.48 15.006 13.5142 15.1211 13.5445 15.2323C13.5749 15.1187 13.6092 15.0022 13.6475 14.8828M15.972 10.8043L13.7428 14.9131M15.972 10.8043H15.8298H15.1566H15.0859L15.0623 10.8709L13.7907 14.4574M15.972 10.8043L13.7907 14.4574M13.6475 14.8828C13.6476 14.8827 13.6476 14.8826 13.6476 14.8825L13.7428 14.9131M13.6475 14.8828C13.6475 14.8829 13.6475 14.883 13.6475 14.8831L13.7428 14.9131M13.6475 14.8828C13.6903 14.7471 13.738 14.6054 13.7907 14.4575M13.7428 14.9131C13.7852 14.7786 13.8326 14.6379 13.8849 14.4909M13.7907 14.4575L13.8849 14.4909M13.7907 14.4575C13.7907 14.4575 13.7907 14.4574 13.7907 14.4574M13.7907 14.4575L13.7907 14.4574M13.8849 14.4909L13.7907 14.4574M13.8849 14.4909L13.7907 14.4574M13.5446 15.6529C13.5603 15.5808 13.5775 15.5072 13.5961 15.4322L13.5446 15.6529ZM15.8298 10.9043L15.7938 11.0043H15.8298V10.9043Z" fill="#D1D1D4" stroke="#D1D1D4" stroke-width="0.2"/>
<path d="M22.7164 26.1144V26.0507V25.4418V25.2923L22.8546 25.3493C23.0356 25.4241 23.2587 25.4949 23.5246 25.5613C23.7857 25.6241 24.0594 25.6556 24.3461 25.6556C24.6119 25.6556 24.8308 25.6205 25.0056 25.554C25.1806 25.4849 25.3066 25.3898 25.3903 25.2718L25.3905 25.2715C25.4765 25.1512 25.5214 25.0053 25.5214 24.829C25.5214 24.6569 25.4836 24.5217 25.4146 24.4171L25.4141 24.4164L25.4141 24.4164C25.3442 24.3085 25.2228 24.204 25.0396 24.1066L25.0383 24.1059L25.0383 24.1058C24.8555 24.005 24.6019 23.8962 24.2753 23.78C24.0394 23.6964 23.8298 23.6047 23.6472 23.5045L23.6463 23.5039L23.6463 23.5039C23.4622 23.4003 23.3057 23.2825 23.1781 23.1498C23.049 23.0154 22.9508 22.8594 22.8837 22.6826L22.8833 22.6814L22.8833 22.6814C22.8187 22.504 22.7875 22.304 22.7875 22.083C22.7875 21.774 22.8658 21.5039 23.0267 21.2778L23.0268 21.2776C23.1882 21.0518 23.4094 20.8814 23.6864 20.7654C23.9651 20.6473 24.2817 20.5895 24.6341 20.5895C24.932 20.5895 25.2086 20.6174 25.4636 20.674L25.4419 20.7716M22.7164 26.1144L24.0877 22.8174C23.9209 22.7234 23.8057 22.6204 23.7347 22.5112C23.6676 22.4041 23.6308 22.2646 23.6308 22.0867C23.6308 21.932 23.6686 21.8041 23.7406 21.6984C23.813 21.5921 23.9187 21.5075 24.0633 21.4466L24.0633 21.4466L24.064 21.4463C24.2102 21.3834 24.3941 21.3499 24.6191 21.3499C24.8456 21.3499 25.0644 21.3763 25.2756 21.4291L25.2758 21.4291C25.4931 21.4828 25.6977 21.5497 25.8896 21.6298L25.9863 21.6702L26.0221 21.5717L26.2203 21.0262L26.2522 20.9386L26.167 20.9007C25.9532 20.8055 25.7185 20.73 25.4634 20.674L25.4419 20.7716M22.7164 26.1144L22.774 26.1413C22.8985 26.1995 23.0409 26.2476 23.2006 26.2862C23.36 26.3247 23.5339 26.354 23.722 26.3743C23.9104 26.3947 24.1098 26.4048 24.3199 26.4048C24.7213 26.4048 25.0752 26.3435 25.3791 26.2179C25.6835 26.092 25.924 25.9079 26.0958 25.6638M22.7164 26.1144L26.0958 25.6638M25.4419 20.7716C25.6912 20.8264 25.9194 20.8999 26.1263 20.9921L23.7252 20.8576C23.9895 20.7455 24.2925 20.6895 24.6341 20.6895C24.9258 20.6895 25.1951 20.7169 25.4419 20.7716ZM26.0958 25.6638C26.2716 25.4153 26.3572 25.1179 26.3572 24.7767C26.3572 24.4748 26.296 24.2172 26.1663 24.0102C26.0392 23.805 25.8555 23.6348 25.6194 23.4985C25.3885 23.3627 25.1097 23.2358 24.7842 23.1173L26.0958 25.6639C26.0958 25.6639 26.0958 25.6638 26.0958 25.6638Z" fill="#D1D1D4" stroke="#D1D1D4" stroke-width="0.2"/>
</svg>
