<svg width="40" height="39" viewBox="0 0 40 39" fill="none" xmlns="http://www.w3.org/2000/svg">
<rect x="1.40625" y="1.3291" width="37" height="37" rx="4.5" fill="#191930" stroke="#191930"/>
<path d="M24.8766 28.5791L18.7016 24.5166L12.5266 28.5791V10.7041C12.5266 10.4886 12.6079 10.282 12.7526 10.1296C12.8974 9.9772 13.0937 9.8916 13.2984 9.8916H24.1047C24.3094 9.8916 24.5057 9.9772 24.6505 10.1296C24.7952 10.282 24.8766 10.4886 24.8766 10.7041V28.5791Z" stroke="#D1D1D4" stroke-width="1.5" stroke-linecap="round" stroke-linejoin="round"/>
<path d="M21.2798 17.1755V17.0255H21.1298H19.4164V15.1475V14.9975H19.2664H18.6468H18.4968V15.1475V17.0255H16.7834H16.6334V17.1755V17.823V17.973H16.7834H18.4968V19.8416V19.9916H18.6468H19.2664H19.4164V19.8416V17.973H21.1298H21.2798V17.823V17.1755Z" fill="#D1D1D4" stroke="#D1D1D4" stroke-width="0.3"/>
</svg>
