<?xml version="1.0" encoding="utf-8"?>
<!-- Generator: Adobe Illustrator 25.0.0, SVG Export Plug-In . SVG Version: 6.00 Build 0)  -->
<svg version="1.1" id="Layer_1" xmlns="http://www.w3.org/2000/svg" xmlns:xlink="http://www.w3.org/1999/xlink" x="0px" y="0px"
	 viewBox="0 0 34 34" style="enable-background:new 0 0 34 34;" xml:space="preserve">
<style type="text/css">
	.st0{fill:#7f85f5;stroke:#7f85f5;stroke-linecap:round;stroke-linejoin:round;stroke-miterlimit:10;}
	.st1{fill:#fff;stroke:#fff}
</style>
<g>
	<g>
		
			<ellipse transform="matrix(0.9989 -4.760456e-02 4.760456e-02 0.9989 -0.79 0.8286)" class="st0" cx="17" cy="17" rx="16.1" ry="16.1"/>
		<g>
			<path class="st1" d="M7.4,23.6c0-0.3,0.2-0.5,0.5-0.5l18.1,0c0.3,0,0.5,0.2,0.5,0.5c0,0.3-0.2,0.5-0.5,0.5l-18.1,0
				C7.6,24.1,7.4,23.9,7.4,23.6z"/>
			<g>
				<path class="st1" d="M7.9,24.1c-0.3,0-0.5-0.2-0.5-0.5l0-12.1c0-0.3,0.2-0.5,0.5-0.5c0.3,0,0.5,0.2,0.5,0.5l0,12.1
					C8.5,23.9,8.2,24.1,7.9,24.1z"/>
			</g>
			<g>
				<path class="st1" d="M10.1,21.8c-0.1,0-0.2,0-0.3-0.1c-0.2-0.2-0.2-0.5,0-0.7l3.4-3.7c0.1-0.1,0.3-0.2,0.4-0.2
					c0.2,0,0.3,0.1,0.4,0.2l0.6,0.9L16,16c0.1-0.1,0.2-0.2,0.4-0.2c0.2,0,0.3,0,0.4,0.2l1.4,1.5l3.9-3.6c0.2-0.2,0.5-0.2,0.7,0
					c0.2,0.2,0.2,0.5,0,0.7l-4.2,4c-0.1,0.1-0.2,0.1-0.4,0.1c-0.1,0-0.3-0.1-0.3-0.2l-1.3-1.4l-1.6,2.3c-0.1,0.1-0.2,0.2-0.4,0.2
					c0,0,0,0,0,0c-0.2,0-0.3-0.1-0.4-0.2l-0.7-1l-2.9,3.2C10.3,21.8,10.2,21.8,10.1,21.8z"/>
			</g>
		</g>
	</g>
</g>
</svg>
