<?xml version="1.0" encoding="utf-8"?>
<!-- Generator: Adobe Illustrator 24.3.0, SVG Export Plug-In . SVG Version: 6.00 Build 0)  -->
<svg version="1.1" id="Layer_1" xmlns="http://www.w3.org/2000/svg" xmlns:xlink="http://www.w3.org/1999/xlink" x="0px" y="0px"
	 viewBox="0 0 25 25" style="enable-background:new 0 0 25 25;" xml:space="preserve">
<style type="text/css">
	.st0{fill:none;stroke:#00B5EB;stroke-width:1.1368;stroke-linecap:round;stroke-linejoin:round;stroke-miterlimit:10;}
	.st1{fill:#00B5EB;}
	.st2{fill:none;stroke:#00B5EB;stroke-miterlimit:10;}
	.st3{fill:none;stroke:#FFFFFF;stroke-width:0.6;stroke-linecap:round;stroke-linejoin:round;stroke-miterlimit:10;}
</style>
<polyline class="st0" points="13.1,18.6 5.4,18.6 5.4,5.9 14.6,5.9 19.6,10.9 19.6,14.1 "/>
<polyline class="st0" points="19.6,10.9 14.6,11 14.6,5.9 "/>
<line class="st0" x1="7.3" y1="9.9" x2="12.6" y2="9.9"/>
<line class="st0" x1="7.3" y1="7.9" x2="12.6" y2="7.9"/>
<path class="st1" d="M17.1,14.4L17.1,14.4c-1.6,0-2.8,1.2-2.8,2.8c0,1.6,1.2,2.8,2.8,2.8l0,0c1.6,0,2.8-1.2,2.8-2.8
	C20,15.8,18.6,14.4,17.1,14.4z"/>
<g>
	<g>
		<circle class="st0" cx="10.9" cy="13.3" r="1.8"/>
	</g>
	<line class="st0" x1="7.4" y1="16.8" x2="9.6" y2="14.6"/>
</g>
<path class="st2" d="M12.6,24.4L12.6,24.4c-6.6,0-12-5.4-12-11.9l0,0C0.6,5.9,6,0.6,12.5,0.6l0,0c6.6,0,11.9,5.4,11.9,11.9l0,0
	C24.6,19,19.2,24.4,12.6,24.4z"/>
<polyline class="st3" points="15.2,16.8 17.1,18.9 17.1,15.6 "/>
<line class="st3" x1="17.1" y1="18.9" x2="19.1" y2="16.8"/>
</svg>
