<?xml version="1.0" encoding="UTF-8"?><svg id="Layer_1" xmlns="http://www.w3.org/2000/svg" viewBox="0 0 34 34"><defs><style>.cls-1{fill:#fff;stroke-miterlimit:10;stroke-width:1.5px;}.cls-1,.cls-2{stroke:#319de0;}.cls-2{fill:#319de0;}</style></defs><circle class="cls-1" cx="17" cy="17" r="16"/><g><path class="cls-2" d="M7.4,23.6c0-.3,.2-.5,.5-.5H26c.3,0,.5,.2,.5,.5s-.2,.5-.5,.5H7.9c-.3,0-.5-.2-.5-.5Z"/><path class="cls-2" d="M7.9,24.1c-.3,0-.5-.2-.5-.5V11.5c0-.3,.2-.5,.5-.5s.5,.2,.5,.5v12.1c.1,.3-.2,.5-.5,.5Z"/><path class="cls-2" d="M10.1,21.8c-.1,0-.2,0-.3-.1-.2-.2-.2-.5,0-.7l3.4-3.7c.1-.1,.3-.2,.4-.2,.2,0,.3,.1,.4,.2l.6,.9,1.4-2.2c.1-.1,.2-.2,.4-.2s.3,0,.4,.2l1.4,1.5,3.9-3.6c.2-.2,.5-.2,.7,0s.2,.5,0,.7l-4.2,4c-.1,.1-.2,.1-.4,.1-.1,0-.3-.1-.3-.2l-1.3-1.4-1.6,2.3c-.1,.1-.2,.2-.4,.2h0c-.2,0-.3-.1-.4-.2l-.7-1-2.9,3.2c-.3,.2-.4,.2-.5,.2Z"/></g></svg>