<?xml version="1.0" encoding="UTF-8"?><svg id="Layer_1" xmlns="http://www.w3.org/2000/svg" viewBox="0 0 34 34"><defs><style>.cls-1{fill:#4472c4;}.cls-2{fill:#a5a5a5;}.cls-3{fill:#fff;stroke:#319de0;stroke-miterlimit:10;stroke-width:1.5px;}.cls-4{fill:#264478;}.cls-5{fill:#5b9bd5;}.cls-6{fill:#9e480e;}.cls-7{fill:#ffc000;}.cls-8{fill:#636363;}.cls-9{fill:#ed7d31;}.cls-10{fill:#70ad47;}</style></defs><circle class="cls-3" cx="17" cy="17" r="15.95"/><g><polygon class="cls-1" points="17.93 22.56 17.62 22.56 17.32 21.7 17.01 22.76 16.71 22.2 16.41 22.98 16.1 23.84 15.79 24.12 16.1 24.12 16.41 24.12 16.71 24.12 17.01 24.12 17.32 24.12 17.62 24.12 17.93 24.12 18.23 24.12 18.54 24.12 18.23 24.05 17.93 22.56"/><polygon class="cls-1" points="22.8 24.05 22.5 23.98 22.2 23.98 21.89 23.98 21.59 24.12 21.89 24.12 22.2 24.12 22.5 24.12 22.8 24.12 23.11 24.12 23.42 24.12 23.11 24.05 22.8 24.05"/><polygon class="cls-1" points="15.18 23.91 14.88 22.84 14.58 22.84 14.27 22.84 13.96 22.84 13.65 22.84 13.35 22.91 13.05 22.91 12.74 22.91 12.44 22.98 12.14 22.91 11.83 22.27 11.52 23.91 11.22 22.27 10.91 22.27 10.61 22.27 10.3 20.49 10 20.49 9.7 19.78 9.39 21.2 9.08 20.42 8.78 21.2 8.47 20.35 8.17 23.19 7.87 23.19 7.56 23.19 7.26 24.12 7.56 24.12 7.87 24.12 8.17 24.12 8.47 24.12 8.78 24.12 9.08 24.12 9.39 24.12 9.7 24.12 10 24.12 10.3 24.12 10.61 24.12 10.91 24.12 11.22 24.12 11.52 24.12 11.83 24.12 12.14 24.12 12.44 24.12 12.74 24.12 13.05 24.12 13.35 24.12 13.65 24.12 13.96 24.12 14.27 24.12 14.58 24.12 14.88 24.12 15.18 24.12 15.49 24.12 15.79 24.12 15.49 24.05 15.18 23.91"/><polygon class="cls-1" points="6.34 21.2 6.03 21.48 5.73 20.71 5.46 21.39 5.46 24.12 5.73 24.12 6.03 24.12 6.34 24.12 6.64 24.12 6.95 24.12 6.64 21.2 6.34 21.2"/><polygon class="cls-1" points="24.03 23.98 23.72 23.48 23.42 24.12 23.72 24.12 24.03 24.12 24.33 24.12 24.64 24.12 24.33 22.49 24.03 23.98"/><polygon class="cls-9" points="10 20.42 9.7 19.78 10 20.49 10.3 20.49 10.61 22.27 10.3 20.42 10 20.42"/><polygon class="cls-9" points="6.64 21.2 6.95 24.12 7.26 24.12 6.95 23.12 6.64 21.2"/><polygon class="cls-9" points="5.73 20.13 5.46 20.57 5.46 21.39 5.73 20.71 6.03 21.48 6.34 21.2 6.03 21.2 5.73 20.13"/><polygon class="cls-9" points="9.08 19.49 8.78 20.49 8.47 17.85 8.17 23.19 8.47 20.35 8.78 21.2 9.08 20.42 9.39 21.2 9.7 19.78 9.39 20.49 9.08 19.49"/><polygon class="cls-9" points="15.79 21.99 15.49 22.69 15.18 23.91 15.49 24.05 15.79 24.12 16.1 23.84 16.41 22.98 16.1 21.63 15.79 21.99"/><polygon class="cls-9" points="13.05 22.69 12.74 22.69 12.44 22.91 12.14 22.69 11.83 22.27 12.14 22.91 12.44 22.98 12.74 22.91 13.05 22.91 13.35 22.91 13.65 22.84 13.35 22.69 13.05 22.69"/><polygon class="cls-9" points="11.22 22.27 11.52 23.91 11.83 22.27 11.52 23.84 11.22 22.27"/><polygon class="cls-2" points="23.42 10.31 23.72 11.59 24.03 11.95 23.72 11.44 23.42 10.31"/><polygon class="cls-2" points="22.8 11.52 22.5 11.95 22.8 11.66 23.11 11.66 23.42 10.31 23.11 11.52 22.8 11.52"/><polygon class="cls-2" points="18.23 19.28 17.93 18.85 17.62 18.85 17.32 21.63 17.62 19.28 17.93 19.28 18.23 19.42 18.54 18.28 18.85 17.85 18.54 18.14 18.23 19.28"/><polygon class="cls-2" points="8.47 17.78 8.17 23.05 7.87 23.05 7.56 23.05 7.26 21.41 6.95 22.69 6.64 19.56 6.34 19.56 6.03 20.13 5.73 20.06 5.46 20.56 5.46 20.57 5.73 20.13 6.03 21.2 6.34 21.2 6.64 21.2 6.95 23.12 7.26 24.12 7.56 23.19 7.87 23.19 8.17 23.19 8.47 17.85 8.78 20.49 9.08 19.49 8.78 20.42 8.47 17.78"/><polygon class="cls-2" points="11.22 22.27 11.52 23.84 11.83 22.27 11.52 23.77 11.22 22.27"/><polygon class="cls-2" points="9.08 19.49 9.39 20.49 9.7 19.78 9.39 20.42 9.08 19.49"/><polygon class="cls-2" points="21.29 12.66 20.98 12.66 20.67 16.86 20.98 12.72 21.29 12.72 21.59 12.72 21.89 11.95 21.59 12.66 21.29 12.66"/><polygon class="cls-7" points="17.01 22.2 16.71 20.78 16.41 22.98 16.71 21.2 17.01 22.34 17.32 21.63 17.62 18.85 17.32 21.48 17.01 22.2"/><polygon class="cls-7" points="15.79 21.99 16.1 21.63 16.41 22.98 16.1 21.06 15.79 21.99"/><polygon class="cls-7" points="14.58 22.76 14.27 22.76 13.96 22.76 13.65 22.76 13.35 22.69 13.65 22.84 13.96 22.84 14.27 22.84 14.58 22.84 14.88 22.84 15.18 23.91 14.88 22.76 14.58 22.76"/><polygon class="cls-7" points="6.34 18.71 6.03 18.85 5.73 18.57 5.46 19.94 5.46 20.56 5.73 20.06 6.03 20.13 6.34 19.56 6.64 19.56 6.95 22.69 6.64 18.71 6.34 18.71"/><polygon class="cls-7" points="11.52 23.34 11.22 21.56 10.91 21.56 10.61 21.56 10.3 17.92 10 17.92 9.7 18.42 9.39 19.99 9.08 18.64 8.78 19.99 8.47 17.43 8.17 23.05 8.47 17.78 8.78 20.42 9.08 19.49 9.39 20.42 9.7 19.78 10 20.42 10.3 20.42 10.61 22.27 10.91 22.27 11.22 22.27 11.52 23.77 11.83 22.27 12.14 22.69 11.83 21.56 11.52 23.34"/><polygon class="cls-7" points="18.23 17.99 17.93 18.85 18.23 19.28 18.54 18.14 18.85 17.85 18.54 16.64 18.23 17.99"/><polygon class="cls-7" points="22.8 10.24 22.5 11.16 22.2 11.16 21.89 11.16 21.59 11.23 21.29 11.23 20.98 11.23 20.67 16.5 20.36 16.5 20.06 16.5 19.76 16.5 19.45 14.15 19.15 14.15 18.85 17.85 19.15 16.21 19.45 16.21 19.76 16.86 20.06 16.86 20.36 16.86 20.67 16.86 20.98 12.66 21.29 12.66 21.59 12.66 21.89 11.95 22.2 11.95 22.5 11.95 22.8 11.52 23.11 11.52 23.42 10.31 23.11 10.24 22.8 10.24"/><polygon class="cls-7" points="24.03 11.16 23.72 10.95 23.42 10.31 23.72 11.44 24.03 11.95 24.33 11.44 24.64 9.88 24.33 10.45 24.03 11.16"/><polygon class="cls-5" points="16.71 20.49 16.41 22.98 16.71 20.78 17.01 22.2 17.32 21.48 17.01 22.13 16.71 20.49"/><polygon class="cls-5" points="17.62 18.64 17.32 21.48 17.62 18.85 17.93 18.85 18.23 17.99 17.93 18.64 17.62 18.64"/><polygon class="cls-5" points="6.34 14.3 6.03 15.43 5.73 15.94 5.46 15.81 5.46 19.94 5.73 18.57 6.03 18.85 6.34 18.71 6.64 18.71 6.95 22.69 6.64 14.3 6.34 14.3"/><polygon class="cls-5" points="15.49 22.69 15.79 21.99 16.1 21.06 15.79 21.7 15.49 22.69"/><polygon class="cls-5" points="9.08 17 8.78 19.78 8.47 17.07 8.17 23.05 8.47 17.43 8.78 19.99 9.08 18.64 9.39 19.99 9.7 18.42 9.39 19.78 9.08 17"/><polygon class="cls-5" points="11.22 21.56 11.52 23.34 11.83 21.56 11.52 19.28 11.22 21.56"/><polygon class="cls-5" points="18.54 16.64 18.85 17.85 19.15 14.15 18.85 17.71 18.54 16.64"/><polygon class="cls-5" points="14.88 22.63 14.58 22.63 14.27 22.63 13.96 22.63 13.65 22.63 13.35 22.69 13.65 22.76 13.96 22.76 14.27 22.76 14.58 22.76 14.88 22.76 15.18 23.91 15.49 22.69 15.18 23.77 14.88 22.63"/><polygon class="cls-5" points="20.36 16.43 20.06 16.43 19.76 16.43 19.45 14.15 19.76 16.5 20.06 16.5 20.36 16.5 20.67 16.5 20.98 11.23 20.67 16.43 20.36 16.43"/><polygon class="cls-5" points="22.2 11.02 21.89 11.02 21.59 11.23 21.89 11.16 22.2 11.16 22.5 11.16 22.8 10.24 22.5 11.02 22.2 11.02"/><polygon class="cls-5" points="23.72 10.95 24.03 11.16 24.33 10.45 24.03 11.02 23.72 10.95"/><polygon class="cls-10" points="22.8 9.95 22.5 10.67 22.2 10.67 21.89 10.67 21.59 9.88 21.29 9.88 20.98 9.88 20.67 13.37 20.36 13.37 20.06 13.37 19.76 13.37 19.45 11.66 19.15 11.66 18.85 13.08 18.54 13.87 18.23 14.5 17.93 14.93 17.62 14.93 17.32 20.13 17.01 19.49 16.71 13.8 16.41 14.43 16.1 12.3 15.79 12.8 15.49 11.87 15.18 13.65 14.88 14.08 14.58 14.08 14.27 14.08 13.96 14.08 13.65 14.08 13.35 14.72 13.05 14.72 12.74 14.72 12.44 15.22 12.14 14.72 11.83 13.51 11.52 10.16 11.22 13.51 10.91 13.51 10.61 13.51 10.3 10.59 10 10.59 9.7 14.43 9.39 13.22 9.08 12.59 8.78 13.22 8.47 13.94 8.17 20.28 7.87 20.28 7.56 20.28 7.26 20.35 6.95 20.78 6.64 10.67 6.34 10.67 6.03 10.09 5.73 10.67 5.46 11.6 5.46 15.81 5.73 15.94 6.03 15.43 6.34 14.3 6.64 14.3 6.95 22.69 7.26 21.41 7.56 23.05 7.87 23.05 8.17 23.05 8.47 17.07 8.78 19.78 9.08 17 9.39 19.78 9.7 18.42 10 17.92 10.3 17.92 10.61 21.56 10.91 21.56 11.22 21.56 11.52 19.28 11.83 21.56 12.14 22.69 12.44 22.91 12.74 22.69 13.05 22.69 13.35 22.69 13.65 22.63 13.96 22.63 14.27 22.63 14.58 22.63 14.88 22.63 15.18 23.77 15.49 22.69 15.79 21.7 16.1 21.06 16.41 22.98 16.71 20.49 17.01 22.13 17.32 21.48 17.62 18.64 17.93 18.64 18.23 17.99 18.54 16.64 18.85 17.71 19.15 14.15 19.45 14.15 19.76 16.43 20.06 16.43 20.36 16.43 20.67 16.43 20.98 11.23 21.29 11.23 21.59 11.23 21.89 11.02 22.2 11.02 22.5 11.02 22.8 10.24 23.11 10.24 23.42 10.31 23.11 9.95 22.8 9.95"/><polygon class="cls-10" points="24.03 10.67 23.72 9.95 23.42 10.31 23.72 10.95 24.03 11.02 24.33 10.45 24.64 9.88 24.33 9.88 24.03 10.67"/><polygon class="cls-4" points="17.93 14.93 18.23 14.5 18.54 13.87 18.23 14.43 17.93 14.93"/><polygon class="cls-4" points="16.71 13.73 16.41 14.3 16.1 12.16 15.79 12.37 15.49 10.16 15.18 10.02 14.88 10.81 14.58 10.81 14.27 10.81 13.96 10.81 13.65 10.81 13.35 10.88 13.05 10.88 12.74 10.88 12.44 11.52 12.14 10.88 11.83 12.94 11.52 10.16 11.83 13.51 12.14 14.72 12.44 15.22 12.74 14.72 13.05 14.72 13.35 14.72 13.65 14.08 13.96 14.08 14.27 14.08 14.58 14.08 14.88 14.08 15.18 13.65 15.49 11.87 15.79 12.8 16.1 12.3 16.41 14.43 16.71 13.8 17.01 19.49 17.32 20.13 17.01 19.21 16.71 13.73"/><polygon class="cls-4" points="18.54 13.87 18.85 13.08 19.15 11.66 18.85 13.01 18.54 13.87"/><polygon class="cls-4" points="10.91 12.94 10.61 12.94 10.3 10.59 10.61 13.51 10.91 13.51 11.22 13.51 11.52 10.16 11.22 12.94 10.91 12.94"/><polygon class="cls-4" points="6.95 20.63 6.64 10.67 6.95 20.77 7.26 20.35 7.56 20.28 7.26 20.28 6.95 20.63"/><polygon class="cls-4" points="5.73 10.59 5.46 11.59 5.46 11.6 5.73 10.67 6.03 10.09 6.34 10.67 6.03 9.88 5.73 10.59"/><polygon class="cls-4" points="9.39 13.22 9.7 14.43 10 10.59 9.7 13.51 9.39 13.22"/><polygon class="cls-4" points="8.78 13.22 9.08 12.59 9.39 13.22 9.08 12.52 8.78 13.22"/><polygon class="cls-4" points="23.42 10.31 23.72 9.95 24.03 10.67 23.72 9.88 23.42 10.31"/><polygon class="cls-6" points="20.36 10.45 20.06 10.45 19.76 10.45 19.45 11.59 19.15 11.59 18.85 9.88 18.54 10.31 18.23 10.45 17.93 10.38 17.62 10.38 17.32 16.29 17.01 16.01 16.71 11.23 16.41 11.16 16.1 10.31 15.79 10.02 15.49 10.16 15.79 12.37 16.1 12.16 16.41 14.3 16.71 13.73 17.01 19.21 17.32 20.13 17.62 14.93 17.93 14.93 18.23 14.43 18.54 13.87 18.85 13.01 19.15 11.66 19.45 11.66 19.76 13.37 20.06 13.37 20.36 13.37 20.67 13.37 20.98 9.88 20.67 10.45 20.36 10.45"/><polygon class="cls-6" points="23.11 9.88 22.8 9.88 22.5 9.88 22.2 9.88 21.89 9.88 21.59 9.88 21.89 10.67 22.2 10.67 22.5 10.67 22.8 9.95 23.11 9.95 23.42 10.31 23.72 9.88 23.42 9.88 23.11 9.88"/><polygon class="cls-6" points="9.39 10.16 9.08 10.24 8.78 10.16 8.47 10.09 8.17 15.58 7.87 15.58 7.56 15.58 7.26 15.65 6.95 17.14 6.64 10.24 6.34 10.24 6.03 9.88 6.34 10.67 6.64 10.67 6.95 20.63 7.26 20.28 7.56 20.28 7.87 20.28 8.17 20.28 8.47 13.94 8.78 13.22 9.08 12.52 9.39 13.22 9.7 13.51 10 10.59 9.7 11.23 9.39 10.16"/><polygon class="cls-6" points="5.46 11.38 5.46 11.59 5.73 10.59 6.03 9.88 5.73 10.38 5.46 11.38"/><polygon class="cls-6" points="13.05 10.59 12.74 10.59 12.44 9.88 12.14 10.59 11.83 9.88 11.52 9.88 11.22 9.88 10.91 9.88 10.61 9.88 10.3 10.59 10.61 12.94 10.91 12.94 11.22 12.94 11.52 10.16 11.83 12.94 12.14 10.88 12.44 11.52 12.74 10.88 13.05 10.88 13.35 10.88 13.65 10.81 13.35 10.59 13.05 10.59"/><polygon class="cls-6" points="23.72 9.88 24.03 10.67 24.33 9.88 24.03 9.88 23.72 9.88"/><polygon class="cls-8" points="20.36 9.88 20.06 9.88 19.76 9.88 19.45 9.88 19.15 9.88 18.85 9.88 19.15 11.59 19.45 11.59 19.76 10.45 20.06 10.45 20.36 10.45 20.67 10.45 20.98 9.88 20.67 9.88 20.36 9.88"/><polygon class="cls-8" points="11.83 9.88 12.14 10.59 12.44 9.88 12.14 9.88 11.83 9.88"/><polygon class="cls-8" points="18.23 9.88 17.93 9.88 17.62 9.88 17.32 9.88 17.01 9.88 16.71 9.88 16.41 9.88 16.1 9.88 15.79 9.88 15.49 9.88 15.18 9.88 14.88 9.88 14.58 9.88 14.27 9.88 13.96 9.88 13.65 9.88 13.35 9.88 13.05 9.88 12.74 9.88 12.44 9.88 12.74 10.59 13.05 10.59 13.35 10.59 13.65 10.81 13.96 10.81 14.27 10.81 14.58 10.81 14.88 10.81 15.18 10.02 15.49 10.16 15.79 10.02 16.1 10.31 16.41 11.16 16.71 11.23 17.01 16.01 17.32 16.29 17.62 10.38 17.93 10.38 18.23 10.45 18.54 10.31 18.85 9.88 18.54 9.88 18.23 9.88"/><polygon class="cls-8" points="5.46 9.88 5.46 11.38 5.73 10.38 6.03 9.88 5.73 9.88 5.46 9.88"/><polygon class="cls-8" points="10 9.88 9.7 9.88 9.39 9.88 9.08 9.88 8.78 9.88 8.47 9.88 8.17 9.88 7.87 9.88 7.56 9.88 7.26 9.88 6.95 9.88 6.64 9.88 6.34 9.88 6.03 9.88 6.34 10.24 6.64 10.24 6.95 17.14 7.26 15.65 7.56 15.58 7.87 15.58 8.17 15.58 8.47 10.09 8.78 10.16 9.08 10.24 9.39 10.16 9.7 11.23 10 10.59 10.3 10.59 10.61 9.88 10.3 9.88 10 9.88"/><polygon class="cls-1" points="28.54 20.78 28.3 20.78 28 20.78 27.69 20.78 27.38 20.78 27.07 20.78 26.77 20.78 26.47 20.78 26.16 20.78 25.86 22.76 25.55 20.78 25.24 20.78 24.94 21.99 24.64 24.12 24.94 24.12 25.24 24.12 25.55 24.12 25.86 24.12 26.16 24.12 26.47 24.12 26.77 24.12 27.07 24.12 27.38 24.12 27.69 24.12 28 24.12 28.3 24.12 28.54 24.12 28.54 20.78"/><polygon class="cls-9" points="28.54 13.22 28.3 13.22 28 13.22 27.69 13.22 27.38 13.22 27.07 13.22 26.77 13.22 26.47 13.22 26.16 13.22 25.86 15.65 25.55 13.22 25.24 13.22 24.94 10.45 24.64 9.88 24.33 11.44 24.03 11.95 23.72 11.59 23.42 10.31 23.11 11.66 22.8 11.66 22.5 11.95 22.2 11.95 21.89 11.95 21.59 12.72 21.29 12.72 20.98 12.72 20.67 16.86 20.36 16.86 20.06 16.86 19.76 16.86 19.45 16.21 19.15 16.21 18.85 17.85 18.54 18.28 18.23 19.42 17.93 19.28 17.62 19.28 17.32 21.63 17.01 22.34 16.71 21.2 16.41 22.98 16.71 22.2 17.01 22.76 17.32 21.7 17.62 22.56 17.93 22.56 18.23 24.05 18.54 24.12 18.85 24.12 19.15 24.12 19.45 24.12 19.76 24.12 20.06 24.12 20.36 24.12 20.67 24.12 20.98 24.12 21.29 24.12 21.59 24.12 21.89 23.98 22.2 23.98 22.5 23.98 22.8 24.05 23.11 24.05 23.42 24.12 23.72 23.48 24.03 23.98 24.33 22.49 24.64 24.12 24.94 21.99 25.24 20.78 25.55 20.78 25.86 22.76 26.16 20.78 26.47 20.78 26.77 20.78 27.07 20.78 27.38 20.78 27.69 20.78 28 20.78 28.3 20.78 28.54 20.78 28.54 13.22"/><polygon class="cls-7" points="28.54 11.8 28.3 11.8 28 11.8 27.69 11.8 27.38 11.8 27.07 11.8 26.77 11.8 26.47 11.8 26.16 11.8 25.86 14.5 25.55 11.8 25.24 11.8 24.94 9.88 24.64 9.88 24.94 10.45 25.24 13.22 25.55 13.22 25.86 15.65 26.16 13.22 26.47 13.22 26.77 13.22 27.07 13.22 27.38 13.22 27.69 13.22 28 13.22 28.3 13.22 28.54 13.22 28.54 11.8"/><polygon class="cls-10" points="28.54 10.38 28.3 10.38 28 10.38 27.69 10.38 27.38 10.38 27.07 10.38 26.77 10.38 26.47 10.38 26.16 10.38 25.86 10.95 25.55 10.38 25.24 10.38 24.94 9.88 25.24 11.8 25.55 11.8 25.86 14.5 26.16 11.8 26.47 11.8 26.77 11.8 27.07 11.8 27.38 11.8 27.69 11.8 28 11.8 28.3 11.8 28.54 11.8 28.54 10.38"/><polygon class="cls-6" points="28.54 9.88 28.3 9.88 28 9.88 27.69 9.88 27.38 9.88 27.07 9.88 26.77 9.88 26.47 9.88 26.16 9.88 25.86 9.88 25.55 9.88 25.24 9.88 24.94 9.88 25.24 10.38 25.55 10.38 25.86 10.95 26.16 10.38 26.47 10.38 26.77 10.38 27.07 10.38 27.38 10.38 27.69 10.38 28 10.38 28.3 10.38 28.54 10.38 28.54 9.88"/></g></svg>