<?xml version="1.0" encoding="utf-8"?>
<!-- Generator: Adobe Illustrator 24.1.0, SVG Export Plug-In . SVG Version: 6.00 Build 0)  -->
<svg version="1.1" id="Layer_1" xmlns="http://www.w3.org/2000/svg" xmlns:xlink="http://www.w3.org/1999/xlink" x="0px" y="0px"
	 viewBox="0 0 1144 2031.8" style="enable-background:new 0 0 1144 2031.8;" xml:space="preserve">
<style type="text/css">
	.st0{opacity:0.4;fill:url(#SVGID_1_);}
	.st1{opacity:0.4;fill:url(#SVGID_2_);}
	.st2{opacity:0.4;fill:url(#SVGID_3_);}
	.st3{fill:#1C3675;}
	.st4{opacity:0.4;fill:url(#SVGID_4_);}
	.st5{opacity:0.4;fill:url(#SVGID_5_);}
	.st6{opacity:0.4;fill:url(#SVGID_6_);}
	.st7{opacity:0.4;fill:url(#SVGID_7_);}
	.st8{fill:none;}
</style>
<g>
	<g>
		
			<linearGradient id="SVGID_1_" gradientUnits="userSpaceOnUse" x1="-5364.8774" y1="50.6742" x2="-5364.8774" y2="1000.1029" gradientTransform="matrix(-1 0 0 1 -4792.8525 0)">
			<stop  offset="0" style="stop-color:var(--prim-button-color)"/>
			<stop  offset="0.1486" style="stop-color:#1F438D"/>
			<stop  offset="0.3379" style="stop-color:#1D3C80"/>
			<stop  offset="0.5742" style="stop-color:#1C3877"/>
			<stop  offset="1" style="stop-color:#1C3675"/>
		</linearGradient>
		<path class="st0" d="M0.2,50.7C27.5,55,57.8,57.5,92,57.5c270.1,0,278.5,179.7,570.6,180.2v-0.4c239.4,0,273.2,141.2,481.2,173.6
			v589.3H0.2L0.2,50.7z"/>
	</g>
	<g>
		
			<linearGradient id="SVGID_2_" gradientUnits="userSpaceOnUse" x1="3402.8547" y1="585.2666" x2="3402.8547" y2="1534.6953" gradientTransform="matrix(1 0 0 1 -2830.8301 0)">
			<stop  offset="0" style="stop-color:var(--prim-button-color)"/>
			<stop  offset="0.1486" style="stop-color:#1F438D"/>
			<stop  offset="0.3379" style="stop-color:#1D3C80"/>
			<stop  offset="0.5742" style="stop-color:#1C3877"/>
			<stop  offset="1" style="stop-color:#1C3675"/>
		</linearGradient>
		<path class="st1" d="M1143.8,585.3c-27.3,4.3-57.6,6.8-91.8,6.8c-270.1,0-278.5,179.7-570.6,180.2v-0.4
			C242,771.8,208.2,913,0.2,945.4v589.3h1143.6V585.3z"/>
	</g>
	
		<linearGradient id="SVGID_3_" gradientUnits="userSpaceOnUse" x1="-5364.8774" y1="1120.343" x2="-5364.8774" y2="2031.7717" gradientTransform="matrix(-1 0 0 1 -4792.8525 0)">
		<stop  offset="0" style="stop-color:var(--prim-button-color)"/>
		<stop  offset="0.1486" style="stop-color:#1F438D"/>
		<stop  offset="0.3379" style="stop-color:#1D3C80"/>
		<stop  offset="0.5742" style="stop-color:#1C3877"/>
		<stop  offset="1" style="stop-color:#1C3675"/>
	</linearGradient>
	<path class="st2" d="M0.2,1120.3c27.3,4.3,57.6,6.8,91.8,6.8c270.1,0,278.5,179.7,570.6,180.2v-0.4
		c239.4,0,273.2,141.2,481.2,173.6v551.3H0.2L0.2,1120.3z"/>
</g>
<rect x="-974.2" y="4042.5" class="st3" width="1919.2" height="1819.3"/>
<linearGradient id="SVGID_4_" gradientUnits="userSpaceOnUse" x1="-14.6142" y1="4042.4565" x2="-14.6142" y2="4861.73">
	<stop  offset="0" style="stop-color:var(--prim-button-color)"/>
	<stop  offset="0.1486" style="stop-color:#1F438D"/>
	<stop  offset="0.3379" style="stop-color:#1D3C80"/>
	<stop  offset="0.5742" style="stop-color:#1C3877"/>
	<stop  offset="1" style="stop-color:#1C3675"/>
</linearGradient>
<rect x="-974.6" y="4042.5" class="st4" width="1920" height="819.3"/>
<g>
	
		<linearGradient id="SVGID_5_" gradientUnits="userSpaceOnUse" x1="-4779.373" y1="4087.8325" x2="-4779.373" y2="4937.9917" gradientTransform="matrix(-1 0 0 1 -4792.8525 0)">
		<stop  offset="0" style="stop-color:var(--prim-button-color)"/>
		<stop  offset="0.1486" style="stop-color:#1F438D"/>
		<stop  offset="0.3379" style="stop-color:#1D3C80"/>
		<stop  offset="0.5742" style="stop-color:#1C3877"/>
		<stop  offset="1" style="stop-color:#1C3675"/>
	</linearGradient>
	<path class="st5" d="M-525.5,4087.8c24.4,3.9,51.6,6.1,82.2,6.1c241.9,0,249.4,161,510.9,161.3v-0.4
		c214.4,0,244.7,126.4,430.9,155.4V4938h-1024V4087.8z"/>
</g>
<g>
	
		<linearGradient id="SVGID_6_" gradientUnits="userSpaceOnUse" x1="2817.3506" y1="4566.5293" x2="2817.3506" y2="5416.6885" gradientTransform="matrix(1 0 0 1 -2830.8301 0)">
		<stop  offset="0" style="stop-color:var(--prim-button-color)"/>
		<stop  offset="0.1486" style="stop-color:#1F438D"/>
		<stop  offset="0.3379" style="stop-color:#1D3C80"/>
		<stop  offset="0.5742" style="stop-color:#1C3877"/>
		<stop  offset="1" style="stop-color:#1C3675"/>
	</linearGradient>
	<path class="st6" d="M498.5,4566.5c-24.4,3.9-51.6,6.1-82.2,6.1c-241.9,0-249.4,161-510.9,161.3v-0.4
		c-214.4,0-244.7,126.4-430.9,155.4v527.7h1024V4566.5z"/>
</g>
<g>
	
		<linearGradient id="SVGID_7_" gradientUnits="userSpaceOnUse" x1="-4779.373" y1="5045.2266" x2="-4779.373" y2="5895.3857" gradientTransform="matrix(-1 0 0 1 -4792.8525 0)">
		<stop  offset="0" style="stop-color:var(--prim-button-color)"/>
		<stop  offset="0.1486" style="stop-color:#1F438D"/>
		<stop  offset="0.3379" style="stop-color:#1D3C80"/>
		<stop  offset="0.5742" style="stop-color:#1C3877"/>
		<stop  offset="1" style="stop-color:#1C3675"/>
	</linearGradient>
	<path class="st7" d="M-525.5,5045.2c24.4,3.9,51.6,6.1,82.2,6.1c241.9,0,249.4,161,510.9,161.3v-0.4
		c214.4,0,244.7,126.4,430.9,155.4v527.7h-1024V5045.2z"/>
</g>
<rect x="-526.2" y="4002.2" class="st8" width="1024" height="578.1"/>
</svg>
