<svg xmlns="http://www.w3.org/2000/svg" xmlns:xlink="http://www.w3.org/1999/xlink" width="75" height="75" viewBox="0 0 75 75">
  <defs>
    <clipPath id="clip-path">
      <rect id="Rectangle_663" data-name="Rectangle 663" width="43.204" height="40" fill="#ccdbf6"/>
    </clipPath>
  </defs>
  <g id="Group_3170" data-name="Group 3170" transform="translate(-1746 -749)">
    <rect id="Rectangle_660" data-name="Rectangle 660" width="75" height="75" rx="14" transform="translate(1746 749)" fill="var(--theme-def-bg)" opacity="0.6"/>
    <g id="Group_3160" data-name="Group 3160" transform="translate(1761.897 766.5)">
      <g id="Group_3159" data-name="Group 3159" clip-path="url(#clip-path)">
        <path id="Path_8986" data-name="Path 8986" d="M43.2,3.8A1.7,1.7,0,0,1,41.369,4.96a1.06,1.06,0,0,0-1.217.922c-.281.942-.554,1.886-.835,2.828-.144.483-.43.679-.823.578-.375-.1-.531-.445-.394-.919q.414-1.437.841-2.87a2.333,2.333,0,0,1,2.385-1.812c.611-.013.611-.013.611-.606,0-.464-.009-.929,0-1.392.007-.28-.086-.415-.385-.414-1.6.007-3.206-.01-4.809.009a1.774,1.774,0,0,0-1.724,1.56c-.435,2.076-.817,4.164-1.322,6.223-.793,3.231-1.655,6.445-2.516,9.658q-1.221,4.557-2.5,9.1a11.85,11.85,0,0,1-4.467,6.614,9.554,9.554,0,0,1-12.1-.584,15.062,15.062,0,0,1-4.109-5.69c-.188-.437-.084-.774.264-.936s.7-.008.9.443a13.97,13.97,0,0,0,3.6,5.081,8.462,8.462,0,0,0,12.645-1.2,12.994,12.994,0,0,0,2.343-5.176c.474-1.98,1-3.948,1.484-5.925a1.6,1.6,0,0,0,.034-.734C28.7,17.36,28.118,15,27.5,12.653a10.691,10.691,0,0,0-3.655-5.78,8.332,8.332,0,0,0-11.008.312,14.661,14.661,0,0,0-4.464,7.4,20.212,20.212,0,0,0-.244,9.889c.012.055.033.108.044.163.12.553-.034.884-.45.968-.394.08-.665-.152-.79-.678a21.4,21.4,0,0,1-.5-6.535A19.368,19.368,0,0,1,8.7,10.427a13.03,13.03,0,0,1,5.725-5.774,9.526,9.526,0,0,1,11,1.926,13,13,0,0,1,3.515,6.555c.316,1.353.674,2.7,1.015,4.045.023.092.061.181.122.362.377-1.29.729-2.493,1.081-3.7.249-.849.508-1.695.74-2.548a.917.917,0,0,0-.016-.559A14.5,14.5,0,0,0,20.592,1.554C14.306.451,9.242,2.811,5.366,7.731A19.387,19.387,0,0,0,1.333,21.487,19.152,19.152,0,0,0,6.406,33.519a15.42,15.42,0,0,0,9.8,5.1A14.955,14.955,0,0,0,32.231,28.25c1.653-5.543,3.277-11.095,4.914-16.643.02-.067.042-.134.065-.2a.642.642,0,0,1,.8-.487.63.63,0,0,1,.4.845c-.352,1.228-.713,2.454-1.072,3.68-.414,1.415-.834,2.828-1.235,4.247a1.161,1.161,0,0,0,0,.608q2.014,6.915,4.05,13.824a1.059,1.059,0,0,0,1.218.921A1.694,1.694,0,0,1,43.2,36.206v2.616a1.572,1.572,0,0,1-1.526,1.168c-1.645.008-3.29.018-4.935,0a3,3,0,0,1-2.907-2.369c-.13-.561-.241-1.126-.358-1.69-.1-.477.075-.808.459-.89.36-.077.658.151.761.6.132.575.238,1.156.382,1.727a1.7,1.7,0,0,0,1.63,1.35c1.617.025,3.234.005,4.851.012.3,0,.388-.14.382-.417-.012-.506-.024-1.014,0-1.518.02-.381-.138-.478-.493-.482a2.359,2.359,0,0,1-2.557-1.971Q37.2,28.562,35.5,22.784c-.04-.135-.1-.265-.179-.489-.677,2.275-1.324,4.44-1.959,6.608a.992.992,0,0,0,.02.453c.216,1.059.443,2.117.663,3.175a.652.652,0,0,1-.465.853c-.364.085-.662-.139-.766-.591-.12-.524-.231-1.05-.363-1.654-.127.218-.213.36-.293.5A16.31,16.31,0,0,1,9.093,37.393,19.64,19.64,0,0,1,.339,23.851c-.154-.825-.228-1.665-.339-2.5v-2.7c.082-.639.151-1.28.247-1.917A20.065,20.065,0,0,1,6.371,4.728,16.105,16.105,0,0,1,20.3.207,15.934,15.934,0,0,1,32.206,8.436l.255.438c.447-2.121.877-4.14,1.3-6.161a3.078,3.078,0,0,1,3.281-2.7c1.434,0,2.869.027,4.3-.01A1.708,1.708,0,0,1,43.2,1.182Z" transform="translate(0 0)" fill="#ccdbf6"/>
      </g>
    </g>
  </g>
</svg>
