<svg xmlns="http://www.w3.org/2000/svg" xmlns:xlink="http://www.w3.org/1999/xlink" width="75" height="75" viewBox="0 0 75 75">
  <defs>
    <clipPath id="clip-path">
      <rect id="Rectangle_662" data-name="Rectangle 662" width="25.181" height="40" fill="#5a8eff"/>
    </clipPath>
  </defs>
  <g id="Group_3171" data-name="Group 3171" transform="translate(-1746 -918)">
    <rect id="Rectangle_661" data-name="Rectangle 661" width="75" height="75" rx="14" transform="translate(1746 918)" fill="#dae7ff" opacity="0.6"/>
    <g id="Group_3158" data-name="Group 3158" transform="translate(1771 936)">
      <g id="Group_3157" data-name="Group 3157" clip-path="url(#clip-path)">
        <path id="Path_8983" data-name="Path 8983" d="M.956,40a1.368,1.368,0,0,1-.951-1.516c.034-.505,0-1.014.008-1.522a1.2,1.2,0,0,1,.851-1.219c.3-.116.612-.216.916-.329a.968.968,0,0,0,.684-.944c0-.156,0-.312,0-.468,0-8.053-.021-16.107.009-24.16a9.46,9.46,0,0,1,5.339-8.82A8.624,8.624,0,0,1,11.01.068,1.764,1.764,0,0,0,11.27,0H15.1c.615.158,1.246.269,1.841.482a6.68,6.68,0,0,1,3.02,2.2c.289.366.286.7,0,.928s-.617.169-.907-.187a5.856,5.856,0,0,0-4.806-2.249,22.015,22.015,0,0,0-3.5.131,8.393,8.393,0,0,0-7.1,8.511Q3.631,22,3.644,34.19a2.481,2.481,0,0,1-.509,1.676,2.627,2.627,0,0,1-1.435.816.59.59,0,0,0-.525.728c.043.451.01.908.01,1.424.728-.2,1.415-.414,2.115-.576,1.882-.434,2.368-1.332,2.351-3.1-.043-4.673-.015-9.348-.015-14.021,0-.605.18-.885.572-.89s.6.289.6.911q0,7.245,0,14.49a3.432,3.432,0,0,1-2.692,3.589Q2.809,39.614,1.5,40Z" transform="translate(0)" fill="#5a8eff"/>
        <path id="Path_8984" data-name="Path 8984" d="M54.072,40.78c0-1.354-.019-2.708,0-4.062a6.533,6.533,0,0,1,5.369-6.268A5.306,5.306,0,0,1,64.9,32.436a5.363,5.363,0,0,1,.592,5.814,4.469,4.469,0,0,1-2.784,2.767,5.543,5.543,0,0,1-1.343.2c-.832.031-1.666.022-2.5,0-.333-.008-.481.086-.459.438a9.59,9.59,0,0,1,0,1.093c-.017.331.093.464.444.455.833-.022,1.666-.01,2.5-.006a6.569,6.569,0,0,1,6.662,5.669,7.069,7.069,0,0,1-2.237,6.3,4.757,4.757,0,0,1-3.424,1.291c-1.38.01-2.76.013-4.14,0-.365,0-.489.118-.464.474a7.145,7.145,0,0,1,0,1.054c-.029.373.127.484.478.458a9.682,9.682,0,0,1,.976,0c.429.011.674.236.67.6s-.245.567-.686.572c-.4,0-.807.006-1.211,0a1.363,1.363,0,0,1-1.39-1.383c-.013-.507-.011-1.016,0-1.523a1.357,1.357,0,0,1,1.405-1.406c1.406-.011,2.812-.005,4.218,0a3.971,3.971,0,0,0,3.6-1.949,5.707,5.707,0,0,0,.391-6.2,5.228,5.228,0,0,0-4.6-2.761c-.962-.041-1.927-.005-2.89-.011a1.363,1.363,0,0,1-1.464-1.425c-.013-.494-.014-.99,0-1.484a1.348,1.348,0,0,1,1.44-1.4c.885-.006,1.771,0,2.656,0a2.894,2.894,0,0,0,2.57-1.361,4.587,4.587,0,0,0,.523-4.829,4.392,4.392,0,0,0-5.826-1.959,5.151,5.151,0,0,0-3.351,4.883c-.067,2.706-.017,5.415-.018,8.123,0,.117.007.235,0,.351a.586.586,0,0,1-.6.587.573.573,0,0,1-.562-.619c-.01-.521,0-1.041,0-1.562q0-1.445,0-2.89h0" transform="translate(-48.433 -27.179)" fill="#5a8eff"/>
        <path id="Path_8985" data-name="Path 8985" d="M126.938,75.288c-.52,0-.911,0-1.3,0a.589.589,0,0,1-.661-.563.6.6,0,0,1,.669-.6c.534-.01,1.067,0,1.6,0a8.606,8.606,0,0,0,4.782-15.835c-.12-.077-.244-.149-.364-.227A1.358,1.358,0,0,1,131.269,56a7.514,7.514,0,0,0,1.141-7.024,3.534,3.534,0,0,1-.124-.409.555.555,0,0,1,.374-.684.538.538,0,0,1,.722.353,14.914,14.914,0,0,1,.535,2.19,8.222,8.222,0,0,1-1.624,6.137c-.252.339-.081.454.182.621a9.567,9.567,0,0,1,4.566,6.981,9.849,9.849,0,0,1-10.1,11.124" transform="translate(-111.957 -42.86)" fill="#5a8eff"/>
      </g>
    </g>
  </g>
</svg>
