<svg xmlns="http://www.w3.org/2000/svg" xmlns:xlink="http://www.w3.org/1999/xlink" width="75" height="75" viewBox="0 0 75 75">
  <defs>
    <clipPath id="clip-path">
      <rect id="Rectangle_664" data-name="Rectangle 664" width="40" height="40" fill="#2b971e"/>
    </clipPath>
  </defs>
  <g id="Group_3169" data-name="Group 3169" transform="translate(-1746 -580)">
    <rect id="Rectangle_658" data-name="Rectangle 658" width="75" height="75" rx="14" transform="translate(1746 580)" fill="#7ccc72" opacity="0.6"/>
    <g id="Group_3162" data-name="Group 3162" transform="translate(1764 598)">
      <g id="Group_3161" data-name="Group 3161" clip-path="url(#clip-path)">
        <path id="Path_8987" data-name="Path 8987" d="M0,82.04c.359-1.012.792-1.392,1.62-1.4.534-.008,1.068,0,1.6,0h.506c0-.67,0-1.3,0-1.939a1.309,1.309,0,0,1,1.508-1.5h.995c0-.723-.026-1.419,0-2.113a9.735,9.735,0,0,1,2.784-6.364c.764-.817,1.544-1.622,2.272-2.471a6.506,6.506,0,0,0,.853-1.344A1.619,1.619,0,0,0,12.1,63.41a3.8,3.8,0,0,1-3.119.47c-.468-.057-.938-.09-1.482-.141.115.356.2.6.271.843a.633.633,0,0,1-.36.872q-1.411.711-2.832,1.4a.609.609,0,0,1-.914-.3Q2.563,64.529,1.48,62.5c-.2-.383-.142-.6.231-.957q3.6-3.413,7.2-6.825c.141-.133.271-.278.434-.447q-.712-.888-1.429-1.783c-.479-.6-.379-.989.337-1.283a3.7,3.7,0,0,1,3.268.272c.447.235.852.548,1.283.813a.859.859,0,0,0,.419.161,9.552,9.552,0,0,1,8.017,4.1,19.214,19.214,0,0,1,3.522,8.164,17.33,17.33,0,0,1,.313,5.435c-.064.553-.2,1.1-.3,1.646a.715.715,0,0,1-.7.617,2.722,2.722,0,0,0-1.907,1.168,2.275,2.275,0,0,0,.229,3.028,1.419,1.419,0,0,0,1.347.592,5.742,5.742,0,0,1,.9-.007A1.284,1.284,0,0,1,26,78.537c.014.686,0,1.372,0,2.1.676,0,1.311,0,1.945,0a1.576,1.576,0,0,1,1.739,1.741c0,.43-.027.861.006,1.289a1.762,1.762,0,0,1-1.174,1.97H1.172A1.875,1.875,0,0,1,0,84.227ZM4.492,65.463a.473.473,0,0,0,.113-.013c.5-.246,1-.511,1.508-.733.282-.122.313-.26.214-.534a1.118,1.118,0,0,1,.863-1.58,4.394,4.394,0,0,1,1.2-.052c.609.036,1.215.153,1.824.176a1.4,1.4,0,0,0,1.4-.8.616.616,0,0,1,1.156,0c.2.352.365.718.546,1.078a2.689,2.689,0,0,1-.161,2.816,4.672,4.672,0,0,1-.412.615c-.923,1.042-1.845,2.084-2.79,3.106A9.219,9.219,0,0,0,7.928,72.8,8.2,8.2,0,0,0,7.6,77.161H21.076a9.875,9.875,0,0,1-.592-1.825,3.686,3.686,0,0,1,2.471-3.876,1.158,1.158,0,0,0,.865-1.2c0-.039,0-.078.009-.117a17.908,17.908,0,0,0-.643-6.683,16.32,16.32,0,0,0-3.569-6.9,8.036,8.036,0,0,0-6.65-2.844,1.235,1.235,0,0,1-.638-.222c-.545-.327-1.049-.73-1.615-1.01A6.665,6.665,0,0,0,9.4,52.129l-.059.137q.615.773,1.23,1.546c.358.452.344.716-.07,1.112-.677.648-1.36,1.29-2.041,1.935q-2.722,2.579-5.439,5.163c-.1.091-.215.292-.177.366.535,1.037,1.1,2.06,1.643,3.075M14.84,84.386H27.919c.465,0,.513-.049.515-.517s0-.911,0-1.366c0-.6-.022-.618-.615-.618h-26c-.475,0-.535.061-.538.542,0,.455,0,.911,0,1.366,0,.562.033.593.6.593H14.84M5,80.61H24.72V78.475H5Z" transform="translate(0 -45.633)" fill="#2b971e"/>
        <path id="Path_8988" data-name="Path 8988" d="M261.924,0c.121.041.242.083.364.122A2.4,2.4,0,1,1,260.926.09c.1-.027.2-.06.295-.09Zm.793,2.44a1.162,1.162,0,0,0-1.149-1.184A1.182,1.182,0,0,0,260.4,2.425a1.183,1.183,0,0,0,1.137,1.164,1.163,1.163,0,0,0,1.183-1.149" transform="translate(-232.158)" fill="#2b971e"/>
        <path id="Path_8989" data-name="Path 8989" d="M345.59,78.65c-.534.439-.73.425-1.244-.088q-.442-.44-.884-.88a1.115,1.115,0,0,0-.139-.083c-.35.363-.708.75-1.083,1.118a.623.623,0,1,1-.907-.848c.372-.38.761-.744,1.188-1.159-.388-.379-.751-.727-1.107-1.084s-.379-.716-.1-.988.629-.246.987.113.685.709,1.075,1.115c.374-.389.708-.747,1.054-1.094.441-.444.764-.426,1.165.049v.547l-1.289,1.3,1.289,1.353Z" transform="translate(-305.59 -66.697)" fill="#2b971e"/>
        <path id="Path_8990" data-name="Path 8990" d="M261.723,81.185H256.4c-.718,0-.911-.189-.912-.895q0-1.249,0-2.5V73.121l-.082-.036-.963,1.191c-.09.111-.176.227-.276.329a.637.637,0,0,1-.849.077.6.6,0,0,1-.114-.839q1.209-1.532,2.453-3.035a.574.574,0,0,1,.922,0q1.248,1.5,2.455,3.034a.6.6,0,0,1-.111.839.617.617,0,0,1-.873-.093c-.42-.493-.82-1-1.279-1.569v6.923h.407q2.5,0,5,0c.593,0,.8.2.8.795q0,3.591,0,7.183c0,.51-.211.778-.608.785-.415.007-.64-.268-.641-.8q0-3.123,0-6.246v-.473" transform="translate(-226.718 -63.222)" fill="#2b971e"/>
        <path id="Path_8991" data-name="Path 8991" d="M323.69,271.021a2.416,2.416,0,1,1-2.4-2.424,2.418,2.418,0,0,1,2.4,2.424m-2.4-1.174a1.166,1.166,0,0,0-.047,2.331,1.166,1.166,0,1,0,.047-2.331" transform="translate(-285.644 -240.618)" fill="#2b971e"/>
        <path id="Path_8992" data-name="Path 8992" d="M178.006,21.046c.418-.434.755-.795,1.1-1.143s.713-.372.988-.079.228.623-.107.96-.708.689-1.124,1.092c.408.394.789.758,1.166,1.127a.618.618,0,0,1,.148.811.61.61,0,0,1-1,.1c-.384-.368-.744-.76-1.161-1.19-.384.394-.731.76-1.088,1.116s-.71.376-.987.088-.235-.622.1-.961.7-.694,1.1-1.083c-.373-.374-.738-.718-1.074-1.088a.866.866,0,0,1-.277-.525.876.876,0,0,1,.326-.564.545.545,0,0,1,.74.126c.371.38.731.772,1.147,1.214" transform="translate(-157.459 -17.566)" fill="#2b971e"/>
        <path id="Path_8993" data-name="Path 8993" d="M145.627,103.176c0,.273,0,.546,0,.82-.007.5-.23.77-.632.764s-.6-.259-.606-.746a20.24,20.24,0,0,0-.521-4.643,12.589,12.589,0,0,0-3.616-6.561,13.272,13.272,0,0,0-1.951-1.34c-.4-.248-.566-.531-.407-.882a.635.635,0,0,1,.927-.256,10.267,10.267,0,0,1,4.268,3.946,16.639,16.639,0,0,1,2.419,7.339c.027.259.057.518.068.777s0,.52,0,.78h.048" transform="translate(-123.476 -80.838)" fill="#2b971e"/>
      </g>
    </g>
  </g>
</svg>
