<svg id="Layer_1" data-name="Layer 1" xmlns="http://www.w3.org/2000/svg" xmlns:xlink="http://www.w3.org/1999/xlink" viewBox="0 0 200 700"><defs><style>.cls-1,.cls-3{fill:none;}.cls-2{clip-path:url(#clip-path);}.cls-3{stroke:#777575;stroke-miterlimit:10;stroke-width:1.75px;}.cls-4{fill:#f2f3f6;}.cls-5{clip-path:url(#clip-path-2);}.cls-6{fill:url(#linear-gradient);}.cls-7{fill:#fff;}</style><clipPath id="clip-path"><path id="Path_10296" data-name="Path 10296" class="cls-1" d="M-.09-.09H200.06V702.29H-.09Z"/></clipPath><clipPath id="clip-path-2"><path class="cls-1" d="M-292.43-24.89c221.56,0,401.18,179.62,401.18,401.17S-70.87,777.46-292.43,777.46-693.57,597.85-693.57,376.28-514-24.89-292.43-24.89Zm0,758.87c197.56,0,357.7-160.14,357.7-357.7S-94.87,18.58-292.43,18.58s-357.7,160.16-357.7,357.7S-490,734-292.43,734Z"/></clipPath><linearGradient id="linear-gradient" x1="3.03" y1="699.93" x2="3.03" y2="700.66" gradientTransform="matrix(-554.1, 0, 0, 1108.2, 1585.58, -775691.85)" gradientUnits="userSpaceOnUse"><stop offset="0" stop-color="#f04a28"/><stop offset="0.2" stop-color="#f15b2d"/><stop offset="0.4" stop-color="#f36b33"/><stop offset="0.6" stop-color="#ef8522"/><stop offset="1" stop-color="#f2ea14"/></linearGradient></defs><g class="cls-2"><g id="tool"><g id="Group_2260" data-name="Group 2260"><line id="Line_831" data-name="Line 831" class="cls-3" x1="5.29" y1="16.7" x2="-591.69" y2="753.9"/><line id="Line_832" data-name="Line 832" class="cls-3" x1="3.74" y1="27.97" x2="-585.28" y2="736.18"/><line id="Line_833" data-name="Line 833" class="cls-3" x1="9.45" y1="30.34" x2="-567.89" y2="706.32"/><line id="Line_834" data-name="Line 834" class="cls-3" x1="6.98" y1="42.13" x2="-580.25" y2="711.72"/><line id="Line_835" data-name="Line 835" class="cls-3" x1="42.03" y1="11.81" x2="-599.34" y2="724.12"/><line id="Line_836" data-name="Line 836" class="cls-3" x1="19.77" y1="45.3" x2="-581.94" y2="696.23"/><line id="Line_837" data-name="Line 837" class="cls-3" x1="25.87" y1="47.37" x2="-591.16" y2="697.59"/><line id="Line_838" data-name="Line 838" class="cls-3" x1="43.1" y1="38.14" x2="-600.5" y2="698.8"/><line id="Line_839" data-name="Line 839" class="cls-3" x1="36" y1="53.89" x2="-621.83" y2="711.72"/><line id="Line_840" data-name="Line 840" class="cls-3" x1="30.27" y1="67.75" x2="-608.66" y2="690.17"/><line id="Line_841" data-name="Line 841" class="cls-3" x1="36.55" y1="69.7" x2="-633.75" y2="705.79"/><line id="Line_842" data-name="Line 842" class="cls-3" x1="43.29" y1="71.34" x2="-610.82" y2="675.98"/><line id="Line_843" data-name="Line 843" class="cls-3" x1="45.01" y1="77.63" x2="-648.3" y2="701.9"/><line id="Line_844" data-name="Line 844" class="cls-3" x1="43.06" y1="87.05" x2="-625.53" y2="673.4"/><line id="Line_845" data-name="Line 845" class="cls-3" x1="50.27" y1="88.39" x2="-623.19" y2="663.57"/><line id="Line_846" data-name="Line 846" class="cls-3" x1="56.82" y1="90.42" x2="-637.47" y2="667.86"/><line id="Line_847" data-name="Line 847" class="cls-3" x1="66.19" y1="90.29" x2="-630.07" y2="654.1"/><line id="Line_848" data-name="Line 848" class="cls-3" x1="99.66" y1="71.42" x2="-639.43" y2="654.07"/><line id="Line_849" data-name="Line 849" class="cls-3" x1="69.17" y1="102.85" x2="-669.21" y2="669.45"/><line id="Line_850" data-name="Line 850" class="cls-3" x1="88.06" y1="96.02" x2="-644.99" y2="643.42"/><line id="Line_851" data-name="Line 851" class="cls-3" x1="99.66" y1="95.11" x2="-642.66" y2="634.43"/><line id="Line_852" data-name="Line 852" class="cls-3" x1="85.67" y1="112.6" x2="-672.11" y2="648.14"/><line id="Line_853" data-name="Line 853" class="cls-3" x1="99.66" y1="110.18" x2="-643.91" y2="621.21"/><line id="Line_854" data-name="Line 854" class="cls-3" x1="87.62" y1="125.54" x2="-652.31" y2="619.95"/><line id="Line_855" data-name="Line 855" class="cls-3" x1="99.66" y1="124.69" x2="-657.86" y2="616.62"/><line id="Line_856" data-name="Line 856" class="cls-3" x1="89.01" y1="138.5" x2="-667.33" y2="615.71"/><line id="Line_857" data-name="Line 857" class="cls-3" x1="95.41" y1="141.33" x2="-676.22" y2="614.18"/><line id="Line_858" data-name="Line 858" class="cls-3" x1="96.41" y1="147.52" x2="-674.72" y2="606.29"/><line id="Line_859" data-name="Line 859" class="cls-3" x1="112.43" y1="144.95" x2="-661.2" y2="591.61"/><line id="Line_860" data-name="Line 860" class="cls-3" x1="99.66" y1="158.97" x2="-667.33" y2="588.5"/><line id="Line_861" data-name="Line 861" class="cls-3" x1="124.39" y1="152.09" x2="-691.83" y2="595.26"/><line id="Line_862" data-name="Line 862" class="cls-3" x1="126.39" y1="157.91" x2="-675.67" y2="579.88"/><line id="Line_863" data-name="Line 863" class="cls-3" x1="120.61" y1="167.67" x2="-706.1" y2="588.89"/><line id="Line_864" data-name="Line 864" class="cls-3" x1="114.97" y1="177.07" x2="-698.01" y2="577.98"/><line id="Line_865" data-name="Line 865" class="cls-3" x1="109.86" y1="185.95" x2="-722.04" y2="582.75"/><line id="Line_866" data-name="Line 866" class="cls-3" x1="135.09" y1="180.61" x2="-689.52" y2="560.75"/><line id="Line_867" data-name="Line 867" class="cls-3" x1="125.21" y1="191.62" x2="-684.95" y2="552.32"/><line id="Line_868" data-name="Line 868" class="cls-3" x1="140.13" y1="191.58" x2="-698.7" y2="551.97"/><line id="Line_869" data-name="Line 869" class="cls-3" x1="129.25" y1="202.62" x2="-692.78" y2="543.13"/><line id="Line_870" data-name="Line 870" class="cls-3" x1="141.93" y1="203.87" x2="-704.82" y2="541.69"/><line id="Line_871" data-name="Line 871" class="cls-3" x1="137.28" y1="212.09" x2="-690.57" y2="529.86"/><line id="Line_872" data-name="Line 872" class="cls-3" x1="135.27" y1="219.12" x2="-715.9" y2="533.14"/><line id="Line_873" data-name="Line 873" class="cls-3" x1="139.67" y1="223.75" x2="-697.7" y2="520.29"/><line id="Line_874" data-name="Line 874" class="cls-3" x1="148.44" y1="227" x2="-707.2" y2="517.44"/><line id="Line_875" data-name="Line 875" class="cls-3" x1="136.85" y1="237.04" x2="-748.1" y2="524.59"/><line id="Line_876" data-name="Line 876" class="cls-3" x1="158.05" y1="236.53" x2="-726.48" y2="511.19"/><line id="Line_877" data-name="Line 877" class="cls-3" x1="138.85" y1="248.54" x2="-746.97" y2="510.92"/><line id="Line_878" data-name="Line 878" class="cls-3" x1="146.17" y1="252.47" x2="-712.91" y2="494.76"/><line id="Line_879" data-name="Line 879" class="cls-3" x1="141.41" y1="259.79" x2="-747.33" y2="497.92"/><line id="Line_880" data-name="Line 880" class="cls-3" x1="155.31" y1="262.2" x2="-753.72" y2="493.07"/><line id="Line_881" data-name="Line 881" class="cls-3" x1="162.11" y1="266.67" x2="-747.77" y2="485.11"/><line id="Line_882" data-name="Line 882" class="cls-3" x1="155.64" y1="274.3" x2="-715.11" y2="471.32"/><line id="Line_883" data-name="Line 883" class="cls-3" x1="144.6" y1="282.67" x2="-726.48" y2="467.83"/><line id="Line_884" data-name="Line 884" class="cls-3" x1="153.07" y1="286.83" x2="-716.78" y2="459.85"/><line id="Line_885" data-name="Line 885" class="cls-3" x1="162.11" y1="291.09" x2="-748.08" y2="459.79"/><line id="Line_886" data-name="Line 886" class="cls-3" x1="150.93" y1="299.03" x2="-747.95" y2="453.48"/><line id="Line_887" data-name="Line 887" class="cls-3" x1="158.05" y1="303.75" x2="-743.66" y2="446.57"/><line id="Line_888" data-name="Line 888" class="cls-3" x1="167.04" y1="308.36" x2="-714.31" y2="436.15"/><line id="Line_889" data-name="Line 889" class="cls-3" x1="148.44" y1="316.82" x2="-789.87" y2="440.26"/><line id="Line_890" data-name="Line 890" class="cls-3" x1="167.04" y1="320.38" x2="-738.53" y2="427.55"/><line id="Line_891" data-name="Line 891" class="cls-3" x1="150.93" y1="328.04" x2="-732.52" y2="420.9"/><line id="Line_892" data-name="Line 892" class="cls-3" x1="173.97" y1="331.66" x2="-728.51" y2="414.59"/><line id="Line_893" data-name="Line 893" class="cls-3" x1="164.96" y1="338.41" x2="-724.41" y2="408.4"/><line id="Line_894" data-name="Line 894" class="cls-3" x1="158.05" y1="344.77" x2="-717.98" y2="402.19"/><line id="Line_895" data-name="Line 895" class="cls-3" x1="172.28" y1="349.83" x2="-738.06" y2="397.54"/><line id="Line_896" data-name="Line 896" class="cls-3" x1="158.07" y1="356.38" x2="-731.46" y2="391.32"/><line id="Line_897" data-name="Line 897" class="cls-3" x1="185.03" y1="361.46" x2="-721.15" y2="385.19"/><line id="Line_898" data-name="Line 898" class="cls-3" x1="173.97" y1="367.75" x2="-736.03" y2="379.66"/><line id="Line_899" data-name="Line 899" class="cls-3" x1="167.04" y1="373.74" x2="-726.48" y2="373.74"/><line id="Line_900" data-name="Line 900" class="cls-3" x1="155.63" y1="379.49" x2="-746.1" y2="367.68"/><line id="Line_901" data-name="Line 901" class="cls-3" x1="177.03" y1="385.8" x2="-735.55" y2="361.9"/><line id="Line_902" data-name="Line 902" class="cls-3" x1="153.23" y1="390.91" x2="-766.74" y2="354.76"/><line id="Line_903" data-name="Line 903" class="cls-3" x1="160.23" y1="397" x2="-723.05" y2="350.71"/><line id="Line_904" data-name="Line 904" class="cls-3" x1="192.92" y1="404.98" x2="-737.61" y2="344"/><line id="Line_905" data-name="Line 905" class="cls-3" x1="170.83" y1="409.52" x2="-750.7" y2="336.99"/><line id="Line_906" data-name="Line 906" class="cls-3" x1="162.11" y1="414.71" x2="-721.55" y2="333.51"/><line id="Line_907" data-name="Line 907" class="cls-3" x1="158.05" y1="420.18" x2="-739.11" y2="325.88"/><line id="Line_908" data-name="Line 908" class="cls-3" x1="167.04" y1="427.11" x2="-729.52" y2="320.98"/><line id="Line_909" data-name="Line 909" class="cls-3" x1="177.03" y1="434.41" x2="-739.48" y2="313.74"/><line id="Line_910" data-name="Line 910" class="cls-3" x1="162.11" y1="438.39" x2="-736.03" y2="308.18"/><line id="Line_911" data-name="Line 911" class="cls-3" x1="153.27" y1="442.96" x2="-726.71" y2="303.59"/><line id="Line_912" data-name="Line 912" class="cls-3" x1="173.89" y1="452.38" x2="-765.77" y2="290.93"/><line id="Line_913" data-name="Line 913" class="cls-3" x1="165" y1="456.92" x2="-757.16" y2="286.01"/><line id="Line_914" data-name="Line 914" class="cls-3" x1="144.41" y1="458.92" x2="-716.44" y2="287.68"/><line id="Line_915" data-name="Line 915" class="cls-3" x1="163.6" y1="468.84" x2="-729.97" y2="278.9"/><line id="Line_916" data-name="Line 916" class="cls-3" x1="153.27" y1="472.64" x2="-706.48" y2="278.1"/><line id="Line_917" data-name="Line 917" class="cls-3" x1="148.44" y1="477.51" x2="-731.69" y2="266.21"/><line id="Line_918" data-name="Line 918" class="cls-3" x1="168.47" y1="488.6" x2="-721.6" y2="262.56"/><line id="Line_919" data-name="Line 919" class="cls-3" x1="148.44" y1="489.56" x2="-711.46" y2="259.15"/><line id="Line_920" data-name="Line 920" class="cls-3" x1="139.67" y1="493.17" x2="-769.78" y2="236.69"/><line id="Line_921" data-name="Line 921" class="cls-3" x1="144.32" y1="500.57" x2="-715.9" y2="245.75"/><line id="Line_922" data-name="Line 922" class="cls-3" x1="150.93" y1="508.73" x2="-710.06" y2="241.39"/><line id="Line_923" data-name="Line 923" class="cls-3" x1="150.93" y1="515" x2="-713.52" y2="234.12"/><line id="Line_924" data-name="Line 924" class="cls-3" x1="153.07" y1="522.05" x2="-698.55" y2="232.96"/><line id="Line_925" data-name="Line 925" class="cls-3" x1="139.67" y1="523.7" x2="-701.22" y2="225.93"/><line id="Line_926" data-name="Line 926" class="cls-3" x1="124.16" y1="524.26" x2="-712.06" y2="215.76"/><line id="Line_927" data-name="Line 927" class="cls-3" x1="136.02" y1="534.9" x2="-713.63" y2="208.75"/><line id="Line_928" data-name="Line 928" class="cls-3" x1="124.16" y1="536.51" x2="-690.06" y2="211.66"/><line id="Line_929" data-name="Line 929" class="cls-3" x1="136.02" y1="547.65" x2="-700.97" y2="200.95"/><line id="Line_930" data-name="Line 930" class="cls-3" x1="124.16" y1="549.02" x2="-686.15" y2="200.89"/><line id="Line_931" data-name="Line 931" class="cls-3" x1="136.02" y1="560.67" x2="-698.39" y2="189.17"/><line id="Line_932" data-name="Line 932" class="cls-3" x1="121.23" y1="560.47" x2="-735.09" y2="165.7"/><line id="Line_933" data-name="Line 933" class="cls-3" x1="124.16" y1="568.34" x2="-696.73" y2="176.79"/><line id="Line_934" data-name="Line 934" class="cls-3" x1="110.24" y1="568.07" x2="-690.83" y2="173.02"/><line id="Line_935" data-name="Line 935" class="cls-3" x1="120.43" y1="579.72" x2="-714.83" y2="154.14"/><line id="Line_936" data-name="Line 936" class="cls-3" x1="105.13" y1="578.38" x2="-674.16" y2="168.37"/><line id="Line_937" data-name="Line 937" class="cls-3" x1="111.89" y1="588.6" x2="-685.41" y2="155.69"/><line id="Line_938" data-name="Line 938" class="cls-3" x1="107.01" y1="592.63" x2="-692.98" y2="144.61"/><line id="Line_939" data-name="Line 939" class="cls-3" x1="95.97" y1="593.02" x2="-677.73" y2="146.33"/><line id="Line_940" data-name="Line 940" class="cls-3" x1="105.13" y1="605.14" x2="-698.11" y2="127.28"/><line id="Line_941" data-name="Line 941" class="cls-3" x1="98.02" y1="607.75" x2="-662.19" y2="141.87"/><line id="Line_942" data-name="Line 942" class="cls-3" x1="87.36" y1="607.94" x2="-662.4" y2="134.88"/><line id="Line_943" data-name="Line 943" class="cls-3" x1="107.96" y1="628.17" x2="-665.58" y2="125.83"/><line id="Line_944" data-name="Line 944" class="cls-3" x1="98.02" y1="628.89" x2="-675.04" y2="112.34"/><line id="Line_945" data-name="Line 945" class="cls-3" x1="84.57" y1="626.94" x2="-693.34" y2="92.29"/><line id="Line_946" data-name="Line 946" class="cls-3" x1="74.09" y1="626.7" x2="-659.99" y2="107.9"/><line id="Line_947" data-name="Line 947" class="cls-3" x1="84.57" y1="641.41" x2="-652.7" y2="105.74"/><line id="Line_948" data-name="Line 948" class="cls-3" x1="77.64" y1="643.67" x2="-681.99" y2="76.43"/><line id="Line_949" data-name="Line 949" class="cls-3" x1="77.64" y1="651.1" x2="-671.08" y2="76.58"/><line id="Line_950" data-name="Line 950" class="cls-3" x1="62.75" y1="646.96" x2="-660.86" y2="76.52"/><line id="Line_951" data-name="Line 951" class="cls-3" x1="63.46" y1="654.97" x2="-649.97" y2="77.25"/><line id="Line_952" data-name="Line 952" class="cls-3" x1="72.71" y1="670.27" x2="-638.34" y2="78.91"/><line id="Line_953" data-name="Line 953" class="cls-3" x1="54.15" y1="662.41" x2="-641.68" y2="68.1"/><line id="Line_954" data-name="Line 954" class="cls-3" x1="55.66" y1="671.46" x2="-614.86" y2="83.43"/><line id="Line_955" data-name="Line 955" class="cls-3" x1="45.21" y1="670.01" x2="-626.17" y2="65.51"/><line id="Line_956" data-name="Line 956" class="cls-3" x1="44.46" y1="677.21" x2="-617.93" y2="64.9"/><line id="Line_957" data-name="Line 957" class="cls-3" x1="36.2" y1="677.44" x2="-635.39" y2="40.12"/><line id="Line_958" data-name="Line 958" class="cls-3" x1="39.23" y1="688.45" x2="-613.62" y2="52.49"/><line id="Line_959" data-name="Line 959" class="cls-3" x1="27.55" y1="685.12" x2="-606.59" y2="50.98"/><line id="Line_960" data-name="Line 960" class="cls-3" x1="45.42" y1="711.72" x2="-597.89" y2="51.36"/><line id="Line_961" data-name="Line 961" class="cls-3" x1="25" y1="699.18" x2="-587.87" y2="53.35"/><line id="Line_962" data-name="Line 962" class="cls-3" x1="25" y1="707.83" x2="-589.07" y2="43.54"/><line id="Line_963" data-name="Line 963" class="cls-3" x1="15.59" y1="706.29" x2="-629.13" y2="-9.76"/><line id="Line_964" data-name="Line 964" class="cls-3" x1="6.19" y1="704.45" x2="-601.45" y2="11.55"/><line id="Line_965" data-name="Line 965" class="cls-3" x1="4.83" y1="711.72" x2="-600.89" y2="2.51"/><line id="Line_971" data-name="Line 971" class="cls-3" x1="0.33" y1="764.86" x2="-553.16" y2="3.04"/></g><path id="Subtraction_2" data-name="Subtraction 2" class="cls-4" d="M-292.48,795.1a426.73,426.73,0,0,0,42.9-2.17,418.45,418.45,0,0,0,41.66-6.36c13.52-2.76,27-6.24,40.21-10.33,13-4,26-8.8,38.54-14.11s24.79-11.21,36.68-17.67S-69,731-57.9,723.45s22-15.63,32.3-24.16,20.33-17.62,29.79-27.08,18.57-19.47,27.08-29.79,16.66-21.2,24.15-32.3,14.61-22.79,21-34.59,12.4-24.23,17.67-36.68,10-25.53,14.1-38.54c4.1-13.17,7.58-26.7,10.34-40.21a418.45,418.45,0,0,0,6.36-41.66,425.53,425.53,0,0,0,0-85.79A418,418,0,0,0,118.55,291a414.4,414.4,0,0,0-10.34-40.21c-4-13-8.79-26-14.1-38.55S82.9,187.45,76.44,175.56,63,152.12,55.42,141s-15.62-22-24.15-32.3S13.65,88.33,4.19,78.88-15.29,60.31-25.6,51.8-46.81,35.14-57.9,27.64-80.69,13-92.49,6.63-116.72-5.77-129.17-11-154.7-21.1-167.71-25.15c-13.17-4.09-26.7-7.57-40.21-10.34a421.36,421.36,0,0,0-41.66-6.35,425.53,425.53,0,0,0-85.79,0A420.9,420.9,0,0,0-377-35.49c-13.52,2.77-27,6.25-40.21,10.34-13,4-26,8.8-38.55,14.11S-480.57.17-492.46,6.63s-23.44,13.48-34.59,21-22,15.63-32.3,24.16-20.34,17.62-29.79,27.08-18.57,19.47-27.08,29.79-16.66,21.2-24.16,32.3-14.6,22.78-21,34.59-12.4,24.23-17.67,36.67-10.06,25.53-14.11,38.55-7.57,26.69-10.33,40.21a418,418,0,0,0-6.36,41.66,425.53,425.53,0,0,0,0,85.79,418.45,418.45,0,0,0,6.36,41.66c2.76,13.52,6.24,27,10.33,40.2s8.8,26,14.11,38.55,11.21,24.79,17.67,36.68,13.48,23.44,21,34.59,15.63,22,24.16,32.3,17.62,20.33,27.07,29.79,19.48,18.57,29.8,27.08,21.2,16.66,32.3,24.15,22.78,14.61,34.59,21,24.23,12.4,36.67,17.67,25.53,10.06,38.55,14.11,26.69,7.57,40.21,10.33a418.25,418.25,0,0,0,41.65,6.36A427,427,0,0,0-292.48,795.1Zm0-776.51A364.72,364.72,0,0,1-256,20.43q17.85,1.82,35.44,5.41c11.5,2.36,23,5.32,34.21,8.8s22.11,7.48,32.8,12,21.08,9.54,31.2,15,20,11.47,29.43,17.88,18.69,13.29,27.48,20.55,17.3,15,25.35,23,15.8,16.58,23,25.35,14.17,18,20.55,27.48S15.94,195.36,21.4,205.4,32,226,36.43,236.6s8.56,21.72,12,32.8a353.06,353.06,0,0,1,8.8,34.21q3.59,17.56,5.41,35.44a363.34,363.34,0,0,1,0,73q-1.81,17.85-5.41,35.45c-2.36,11.49-5.32,23-8.8,34.2s-7.48,22.11-12,32.8-9.54,21.09-15,31.2S9.92,565.64,3.52,575.12-9.77,593.81-17,602.6s-15,17.3-23,25.35-16.57,15.8-25.35,23-18,14.17-27.48,20.55-19.39,12.42-29.43,17.88-20.61,10.55-31.2,15-21.73,8.56-32.8,12a353.06,353.06,0,0,1-34.21,8.8q-17.57,3.59-35.44,5.41a363.34,363.34,0,0,1-73,0q-17.85-1.81-35.45-5.41a352.86,352.86,0,0,1-34.2-8.8c-11.08-3.44-22.11-7.48-32.8-12s-21.09-9.54-31.2-15S-482.57,678-492,671.54s-18.69-13.29-27.48-20.55-17.3-15-25.35-23-15.8-16.57-23-25.35-14.17-18-20.55-27.48-12.42-19.38-17.88-29.43-10.55-20.61-15-31.2-8.56-21.72-12-32.8-6.45-22.71-8.8-34.2q-3.59-17.58-5.41-35.45a361.87,361.87,0,0,1,0-73q1.82-17.85,5.41-35.44a353.06,353.06,0,0,1,8.8-34.21c3.44-11.08,7.48-22.11,12-32.8s9.53-21.08,15-31.2,11.47-20,17.88-29.43,13.29-18.69,20.55-27.48,15-17.3,23-25.35,16.57-15.8,25.35-23,18-14.17,27.48-20.55,19.38-12.42,29.43-17.88,20.61-10.55,31.2-15,21.72-8.56,32.8-12,22.71-6.45,34.2-8.8q17.58-3.59,35.45-5.41A364.37,364.37,0,0,1-292.48,18.59Z"/><g class="cls-5"><g id="Group_2261" data-name="Group 2261"><rect id="Rectangle_348" data-name="Rectangle 348" class="cls-6" x="-293.98" y="-26.43" width="402.73" height="805.46"/></g></g><g id="Group_2262" data-name="Group 2262"><ellipse id="Ellipse_153" data-name="Ellipse 153" class="cls-7" cx="-292.48" cy="375.54" rx="357.93" ry="357.42"/><path id="Path_8762" data-name="Path 8762" class="cls-4" d="M-294.13,18.13c-1.07-.16-1.11,713.55,0,714.83,198.59,0,359.58-160,359.58-357.41S-95.54,18.13-294.13,18.13Z"/></g></g></g></svg>