<svg width="275" height="267" viewBox="0 0 275 267" fill="none" xmlns="http://www.w3.org/2000/svg">
<path d="M60.9813 51.6359C60.1911 51.3336 59.7408 50.4757 59.9649 49.6408C60.4538 47.8134 61.0292 45.9808 61.6755 44.1921C61.9903 43.3216 62.9494 42.8713 63.8198 43.1861C63.8302 43.1903 63.8406 43.1945 63.85 43.1976C64.6996 43.5228 65.1363 44.4704 64.8247 45.3304C64.2107 47.0295 63.6634 48.7703 63.1995 50.506C62.9608 51.3993 62.0425 51.9299 61.1491 51.6901C61.0918 51.6756 61.0355 51.6568 60.9813 51.6359ZM66.3018 38.0522C66.2403 38.0293 66.1798 38.0012 66.1204 37.9699C65.3021 37.5404 64.9862 36.5272 65.4168 35.7089C66.3007 34.0275 67.265 32.3669 68.2824 30.7741C68.7806 29.9944 69.8116 29.7671 70.5955 30.2644C71.3752 30.7626 71.6024 31.7978 71.1052 32.5764C70.1378 34.0911 69.2216 35.6682 68.3824 37.2663C67.9832 38.0251 67.0846 38.3514 66.3028 38.0512L66.3018 38.0522ZM74.4805 25.9779C74.3065 25.9112 74.1407 25.8143 73.9906 25.6861C73.288 25.0846 73.2067 24.0276 73.8082 23.325C75.0414 21.8854 76.3517 20.4803 77.7047 19.1512C78.3646 18.5028 79.4247 18.5132 80.0731 19.172C80.7215 19.8319 80.7121 20.892 80.0522 21.5404C78.768 22.8027 77.5233 24.136 76.3517 25.5036C75.8784 26.0561 75.1227 26.225 74.4805 25.979V25.9779ZM85.1559 16.0344C84.8682 15.9239 84.6076 15.7331 84.4106 15.4673C83.8602 14.724 84.0176 13.6754 84.7598 13.125C86.2848 11.9971 87.8766 10.9203 89.4913 9.92685C90.2783 9.44317 91.3093 9.68814 91.795 10.4752C92.2798 11.2622 92.0338 12.2942 91.2467 12.7789C89.7133 13.7223 88.2008 14.7438 86.7518 15.8175C86.2744 16.1709 85.6719 16.2324 85.1549 16.0344H85.1559ZM97.7806 8.72077C97.3772 8.5665 97.0332 8.2569 96.8466 7.82951C96.4744 6.98203 96.8601 5.99486 97.7076 5.62376C99.4401 4.86384 101.231 4.16646 103.027 3.55352C103.902 3.25435 104.854 3.72135 105.153 4.59698C105.451 5.47261 104.984 6.42329 104.108 6.72247C102.4 7.30518 100.698 7.96711 99.0513 8.6895C98.6312 8.87401 98.1767 8.87192 97.7795 8.71973L97.7806 8.72077ZM111.707 4.38225C111.185 4.1821 110.774 3.72448 110.661 3.13551C110.486 2.22757 111.08 1.34986 111.988 1.17369C113.848 0.815103 115.749 0.531565 117.634 0.332464C118.555 0.235519 119.378 0.901623 119.475 1.82208C119.573 2.74148 118.906 3.56603 117.987 3.66298C116.195 3.8527 114.39 4.12164 112.621 4.46251C112.304 4.52402 111.989 4.49066 111.707 4.38225ZM170.432 22.6141C170.215 22.5307 170.013 22.4014 169.84 22.2263C168.576 20.9452 167.241 19.7016 165.868 18.532C165.164 17.9315 165.081 16.8745 165.68 16.172C166.281 15.4683 167.337 15.3839 168.041 15.9843C169.486 17.2165 170.893 18.5257 172.225 19.8746C172.874 20.5334 172.867 21.5936 172.208 22.243C171.725 22.7194 171.026 22.8424 170.432 22.6151V22.6141ZM126.241 3.23872C125.592 2.99062 125.142 2.35058 125.167 1.61776C125.198 0.693141 125.973 -0.0302956 126.897 0.000976843C128.791 0.0645641 130.706 0.212588 132.588 0.438792C133.505 0.553458 134.161 1.38322 134.05 2.30158C133.94 3.21995 133.106 3.87459 132.188 3.76409C130.401 3.54831 128.583 3.40863 126.784 3.34817C126.593 3.34192 126.409 3.30335 126.241 3.23872ZM159.084 13.4481C158.981 13.4085 158.88 13.3585 158.783 13.297C157.264 12.3307 155.683 11.4175 154.085 10.5815C153.265 10.1531 152.948 9.14086 153.377 8.32153C153.805 7.50219 154.818 7.18113 155.637 7.61373C157.318 8.49353 158.982 9.45464 160.58 10.471C161.361 10.9672 161.59 12.0023 161.094 12.7831C160.659 13.4658 159.812 13.7275 159.083 13.4492L159.084 13.4481ZM140.664 5.37045C139.875 5.06815 139.425 4.21233 139.647 3.3784C139.885 2.48401 140.801 1.95238 141.695 2.18901C143.526 2.67477 145.36 3.24706 147.145 3.88919C147.157 3.89231 147.168 3.89752 147.179 3.90169C148.027 4.22693 148.463 5.1724 148.154 6.03135C147.842 6.90176 146.882 7.35417 146.012 7.0404C144.315 6.43059 142.573 5.88854 140.834 5.42675C140.776 5.41111 140.719 5.39234 140.663 5.3715L140.664 5.37045Z" fill="#252935"/>
<path d="M177.896 31.6987C177.589 31.5809 177.312 31.3714 177.113 31.0774C176.627 30.3634 176.118 29.6483 175.601 28.9499C175.051 28.2077 175.206 27.158 175.949 26.6076C176.692 26.0561 177.742 26.2114 178.291 26.9557C178.836 27.6896 179.37 28.4422 179.881 29.1938C180.401 29.9579 180.203 31.0003 179.438 31.5205C178.967 31.8415 178.391 31.8884 177.895 31.6987H177.896Z" fill="#252935"/>
<path d="M187.842 81.7732C187.087 81.4844 186.633 80.6818 186.804 79.8656C186.981 79.0212 187.145 78.1581 187.287 77.3012C187.441 76.3891 188.304 75.773 189.215 75.9263C190.131 76.0795 190.743 76.9426 190.59 77.8547C190.439 78.7564 190.268 79.6654 190.081 80.5546C189.891 81.4594 189.003 82.039 188.098 81.8493C188.01 81.8305 187.924 81.8045 187.842 81.7732Z" fill="#252935"/>
<path d="M100.734 129.339C100.014 129.063 99.2963 128.774 98.5812 128.472C97.7295 128.113 97.3303 127.13 97.6899 126.278C98.0495 125.426 99.0377 125.026 99.8842 125.387C101.535 126.084 103.211 126.713 104.884 127.261C105.762 127.551 106.241 128.495 105.953 129.374C105.664 130.254 104.719 130.732 103.84 130.444C102.805 130.105 101.761 129.733 100.734 129.34V129.339ZM90.6911 124.484C90.6036 124.451 90.5181 124.409 90.4347 124.36C88.8273 123.407 87.2428 122.375 85.7251 121.294C84.9724 120.757 84.7963 119.712 85.3331 118.959C85.87 118.206 86.9186 118.029 87.6692 118.567C89.1108 119.594 90.6161 120.574 92.1432 121.48C92.9386 121.951 93.2013 122.979 92.7301 123.773C92.3079 124.485 91.4406 124.771 90.6922 124.484H90.6911ZM112.384 132.601C111.647 132.319 111.191 131.544 111.337 130.74C111.503 129.83 112.374 129.226 113.284 129.392C115.025 129.709 116.803 129.955 118.569 130.122C119.49 130.212 120.165 131.028 120.078 131.949C119.989 132.869 119.172 133.545 118.252 133.457C116.392 133.28 114.519 133.02 112.686 132.687C112.582 132.668 112.481 132.639 112.385 132.602L112.384 132.601ZM79.2214 115.846C79.0234 115.769 78.8357 115.654 78.6721 115.499C77.3149 114.218 75.9962 112.863 74.7526 111.473C74.1365 110.784 74.1949 109.726 74.885 109.108C75.5751 108.491 76.6321 108.55 77.2492 109.241C78.4302 110.562 79.6822 111.848 80.9717 113.064C81.644 113.699 81.6743 114.759 81.0394 115.432C80.5599 115.94 79.8365 116.082 79.2214 115.847V115.846ZM126.696 133.588C126.092 133.357 125.651 132.783 125.621 132.095C125.583 131.171 126.3 130.39 127.225 130.351C128.992 130.277 130.779 130.126 132.54 129.902C133.457 129.786 134.295 130.435 134.412 131.354C134.528 132.271 133.879 133.109 132.962 133.225C131.109 133.46 129.226 133.619 127.365 133.697C127.13 133.707 126.904 133.668 126.696 133.588ZM140.879 131.411C140.396 131.225 140.005 130.82 139.86 130.281C139.62 129.388 140.15 128.469 141.043 128.229C142.756 127.769 144.469 127.232 146.135 126.631C147.004 126.317 147.965 126.768 148.278 127.638C148.592 128.509 148.141 129.468 147.27 129.782C145.517 130.413 143.714 130.979 141.911 131.463C141.557 131.558 141.198 131.532 140.879 131.41V131.411ZM154.25 126.194C153.882 126.053 153.563 125.783 153.366 125.406C152.938 124.586 153.255 123.574 154.074 123.146C155.647 122.323 157.202 121.426 158.697 120.477C159.478 119.982 160.512 120.212 161.008 120.994C161.503 121.775 161.272 122.809 160.491 123.305C158.918 124.303 157.281 125.248 155.626 126.113C155.183 126.345 154.684 126.358 154.25 126.193V126.194ZM166.164 118.185C165.91 118.087 165.675 117.926 165.486 117.703C164.889 116.997 164.977 115.941 165.683 115.344C167.038 114.199 168.358 112.982 169.609 111.728C170.262 111.073 171.324 111.072 171.978 111.724C172.632 112.376 172.634 113.438 171.981 114.092C170.664 115.413 169.274 116.694 167.848 117.901C167.364 118.31 166.717 118.397 166.165 118.186L166.164 118.185ZM176.033 107.751C175.89 107.696 175.751 107.62 175.623 107.523C174.885 106.966 174.738 105.915 175.295 105.179C176.36 103.766 177.379 102.289 178.325 100.788C178.818 100.005 179.854 99.7726 180.634 100.264C181.417 100.757 181.651 101.791 181.158 102.574C180.164 104.154 179.09 105.709 177.968 107.196C177.509 107.805 176.712 108.012 176.033 107.752V107.751ZM183.364 95.4132C183.332 95.4007 183.3 95.3871 183.268 95.3725C182.427 94.9899 182.055 93.9965 182.437 93.1553C182.977 91.9669 183.488 90.7484 183.954 89.5319C184.123 89.092 184.286 88.65 184.444 88.208C184.757 87.3376 185.715 86.8841 186.585 87.1969C187.472 87.496 187.908 88.4676 187.596 89.338C187.429 89.8029 187.257 90.2668 187.08 90.7306C186.59 92.0107 186.053 93.2929 185.484 94.5428C185.116 95.3527 184.182 95.728 183.363 95.4142L183.364 95.4132Z" fill="#252935"/>
<path d="M69.9148 104.858C69.6041 104.74 69.3258 104.527 69.1257 104.23C68.6191 103.477 68.1197 102.701 67.6402 101.92C67.1555 101.132 67.4026 100.101 68.1896 99.6162C68.9776 99.1325 70.0086 99.3775 70.4933 100.166C70.9488 100.907 71.4242 101.645 71.9037 102.359C72.4197 103.125 72.2164 104.166 71.4492 104.682C70.9791 104.999 70.4057 105.045 69.9137 104.856L69.9148 104.858Z" fill="#252935"/>
<path d="M79.1944 86.6023L79.4483 87.3742C79.4855 87.4873 79.5919 87.5663 79.7135 87.5684C79.7137 87.5684 79.7138 87.5684 79.714 87.5684L89.2375 87.6976L89.5134 87.7014L89.6573 87.9369C91.949 91.6869 94.8552 95.0987 98.3235 98.0017L98.5352 98.1788L98.4981 98.4523L97.219 107.885L96.7236 107.818L97.219 107.885C97.2029 108.004 97.2643 108.121 97.3716 108.175L97.3718 108.175L107.575 113.317C107.682 113.371 107.813 113.352 107.9 113.268L79.1944 86.6023ZM79.1944 86.6023L79.1918 86.6049M79.1944 86.6023L79.1918 86.6049M79.1918 86.6049L75.8675 76.5254L75.8673 76.5248C75.8293 76.41 75.8682 76.2848 75.9643 76.2116L75.9644 76.2116L83.5438 70.4428L83.7634 70.2757L83.739 70.0008C83.3507 65.6225 83.6577 61.1519 84.7184 56.7558L84.7831 56.4875L84.5906 56.2898L77.9522 49.4689C77.952 49.4687 77.9519 49.4686 77.9517 49.4684C77.8677 49.3814 77.848 49.251 77.9021 49.1434L79.1918 86.6049ZM171.7 83.3237L171.7 83.3228L165.06 76.5012L164.868 76.3035L164.933 76.0352C165.993 71.639 166.3 67.1685 165.912 62.7902L165.888 62.5153L166.107 62.3481L173.687 56.5784L173.687 56.5783C173.782 56.5057 173.821 56.3804 173.783 56.2652L170.205 45.415L170.205 45.4147C170.168 45.3015 170.061 45.2225 169.939 45.2205C169.939 45.2205 169.939 45.2205 169.939 45.2205L160.416 45.0923L160.14 45.0886L159.996 44.8531C157.704 41.103 154.798 37.6912 151.33 34.7882L151.118 34.6111L151.155 34.3376L152.434 24.9048L152.925 24.9714L152.434 24.9048C152.45 24.7856 152.389 24.6689 152.281 24.6149L152.281 24.6148L142.078 19.4727L171.7 83.3237ZM171.7 83.3237C171.784 83.4089 171.804 83.5385 171.75 83.6465L171.7 83.3237ZM114.721 106.629L107.9 113.267L171.75 83.6467L166.608 93.8497L166.608 93.8499C166.554 93.9572 166.437 94.0186 166.318 94.0025L166.251 94.4979L166.318 94.0025L156.885 92.7234L156.611 92.6863L156.434 92.8979C153.531 96.3653 150.119 99.2726 146.369 101.564L146.134 101.708L146.13 101.984L146.001 111.508C146.001 111.508 146.001 111.508 146.001 111.508C145.999 111.63 145.92 111.736 145.807 111.773L145.806 111.773L134.956 115.352L134.955 115.352C134.842 115.39 134.717 115.352 134.643 115.255L134.643 115.255L128.874 107.676L128.707 107.456L128.432 107.48C124.054 107.869 119.584 107.562 115.187 106.501L114.919 106.436L114.721 106.629ZM77.9022 49.1432L83.0443 38.9402L83.0444 38.9401C83.0984 38.8327 83.2151 38.7713 83.3343 38.7874L83.3343 38.7874L92.7671 40.0665L93.0406 40.1036L93.2177 39.892C96.1207 36.4247 99.5326 33.5174 103.283 31.2258L103.518 31.0818L103.522 30.8059L103.651 21.2824C103.651 21.2822 103.651 21.2821 103.651 21.2819C103.653 21.1603 103.732 21.0539 103.845 21.0167L103.846 21.0166L114.696 17.438L114.697 17.4378C114.811 17.3998 114.937 17.4387 115.01 17.5348L115.01 17.5349L120.779 25.1143L120.946 25.3339L121.221 25.3095C125.599 24.9212 130.07 25.2282 134.466 26.2889L134.734 26.3536L134.932 26.1611L141.753 19.5227L77.9022 49.1432ZM141.753 19.522C141.84 19.4382 141.971 19.4185 142.078 19.4726L141.753 19.522Z" stroke="#4075EF" stroke-opacity="0.4"/>
<path d="M120.711 77.1167C115.483 75.1132 112.363 69.5154 113.618 63.8927C114.998 57.7111 121.148 53.8062 127.329 55.1854C130.324 55.8525 132.878 57.6475 134.523 60.2369C136.167 62.8263 136.705 65.9014 136.036 68.8952C134.656 75.0767 128.506 78.9816 122.325 77.6025C121.768 77.4784 121.229 77.3148 120.711 77.1157V77.1167ZM127.996 58.1771C127.593 58.0228 127.176 57.8967 126.745 57.7997C122.006 56.7417 117.29 59.7376 116.233 64.4754C115.175 69.2142 118.169 73.9311 122.909 74.9881C127.648 76.0462 132.364 73.0503 133.421 68.3125C133.934 66.0161 133.521 63.6591 132.259 61.6733C131.235 60.0597 129.748 58.8484 127.995 58.1771H127.996Z" fill="#4075EF" fill-opacity="0.4"/>
<path d="M114.995 92.6904C114.098 92.3464 113.211 91.9555 112.341 91.5166C112.067 91.379 111.795 91.2362 111.526 91.0893C110.198 90.3648 108.929 89.5371 107.739 88.6166C107.722 88.6041 107.706 88.5916 107.69 88.5791C107.644 88.5437 107.598 88.5072 107.552 88.4707C107.463 88.4009 107.375 88.33 107.286 88.2591C107.055 88.0725 106.98 87.7629 107.081 87.4992C107.106 87.4356 107.14 87.3741 107.186 87.3178C107.419 87.0301 107.84 86.9863 108.128 87.2177C109.609 88.4134 111.229 89.4579 112.942 90.321C121.454 94.6126 131.188 93.9382 138.83 89.3932C143.081 86.8664 146.684 83.1408 149.071 78.4072C149.49 77.5775 149.863 76.7321 150.19 75.8752C152.398 70.1117 152.555 63.8166 150.596 57.8758C148.345 51.0522 143.573 45.5128 137.157 42.2792C123.906 35.6015 107.704 40.9481 101.029 54.193C100.617 55.0092 100.248 55.8442 99.9238 56.6927C98.5155 60.3693 97.9276 64.3127 98.2163 68.2437C98.2236 68.3448 98.208 68.4428 98.1736 68.5324C98.0839 68.767 97.865 68.9411 97.5971 68.9609C97.2281 68.9869 96.907 68.7117 96.8799 68.3417C96.5776 64.2158 97.1947 60.0743 98.6729 56.2153C99.0138 55.325 99.4005 54.4484 99.8331 53.5915C106.842 39.6857 123.86 34.0775 137.761 41.0836C144.497 44.4787 149.507 50.2933 151.869 57.4578C153.926 63.6946 153.761 70.3035 151.444 76.3537C151.1 77.2533 150.707 78.1404 150.268 79.0108C146.873 85.7469 141.057 90.7578 133.894 93.1199C127.656 95.1766 121.045 95.0108 114.994 92.6925L114.995 92.6904Z" fill="#4075EF" fill-opacity="0.4"/>
<path d="M269.996 91.6855C270.3 91.9889 270.383 92.4673 270.167 92.8635C269.764 93.6046 269.333 94.3437 268.887 95.0598C268.596 95.5247 267.984 95.6665 267.518 95.3767C267.051 95.088 266.911 94.4729 267.201 94.008C267.627 93.3252 268.037 92.6216 268.422 91.9148C268.683 91.4333 269.287 91.255 269.77 91.5166C269.855 91.5636 269.93 91.6209 269.996 91.6866V91.6855Z" fill="#252935"/>
<path d="M265.744 98.0359C266.1 98.3914 266.137 98.9657 265.814 99.365C264.898 100.493 263.914 101.585 262.891 102.614C262.675 102.831 262.456 103.046 262.235 103.258C261.839 103.639 261.204 103.591 260.83 103.232C260.449 102.837 260.462 102.208 260.856 101.827C261.068 101.623 261.277 101.419 261.483 101.211C262.46 100.23 263.398 99.1878 264.272 98.113C264.618 97.6867 265.243 97.622 265.67 97.9671C265.696 97.989 265.722 98.0119 265.746 98.0359H265.744ZM258.31 105.188C258.344 105.221 258.376 105.257 258.404 105.295C258.734 105.734 258.645 106.357 258.206 106.687C256.799 107.745 255.313 108.724 253.791 109.598C253.315 109.871 252.707 109.705 252.435 109.231C252.162 108.755 252.326 108.148 252.802 107.875C254.254 107.041 255.671 106.107 257.013 105.098C257.413 104.798 257.965 104.845 258.309 105.188H258.31ZM249.364 110.324C249.454 110.412 249.527 110.521 249.579 110.644C249.792 111.149 249.552 111.732 249.046 111.944C247.425 112.622 245.743 113.208 244.049 113.681C243.52 113.83 242.973 113.522 242.825 112.992C242.677 112.464 242.986 111.916 243.514 111.769C245.131 111.316 246.733 110.76 248.28 110.111C248.663 109.952 249.089 110.049 249.365 110.324H249.364ZM239.429 113.103C239.575 113.248 239.676 113.44 239.71 113.659C239.791 114.201 239.417 114.707 238.875 114.789C237.133 115.05 235.361 115.205 233.605 115.25C233.057 115.264 232.601 114.829 232.587 114.283C232.572 113.735 233.006 113.279 233.554 113.265C235.227 113.222 236.918 113.074 238.578 112.824C238.903 112.775 239.212 112.888 239.428 113.103H239.429ZM229.118 113.372C229.321 113.574 229.435 113.864 229.405 114.172C229.352 114.719 228.866 115.118 228.32 115.065C226.57 114.895 224.813 114.615 223.1 114.233C222.563 114.114 222.226 113.584 222.346 113.048C222.466 112.512 222.996 112.174 223.531 112.294C225.167 112.658 226.842 112.925 228.513 113.086C228.751 113.109 228.961 113.214 229.118 113.371V113.372ZM219.054 111.13C219.318 111.392 219.422 111.794 219.289 112.168C219.105 112.684 218.536 112.954 218.02 112.77C216.364 112.18 214.728 111.481 213.16 110.691C212.669 110.442 212.473 109.846 212.719 109.357C212.965 108.867 213.564 108.67 214.054 108.916C215.548 109.668 217.107 110.335 218.686 110.898C218.829 110.949 218.953 111.03 219.054 111.13ZM209.846 106.496C210.176 106.824 210.238 107.351 209.97 107.752C209.665 108.208 209.048 108.33 208.591 108.024C207.135 107.049 205.722 105.969 204.388 104.815C203.979 104.448 203.929 103.826 204.288 103.413C204.647 102.998 205.274 102.953 205.689 103.312C206.96 104.413 208.309 105.443 209.697 106.373C209.752 106.41 209.802 106.451 209.846 106.495V106.496ZM198.83 95.6988C198.871 95.7394 198.908 95.7843 198.943 95.8333C199.775 97.0195 200.686 98.1808 201.651 99.2847C201.796 99.4525 201.941 99.6162 202.088 99.7767C202.456 100.184 202.424 100.812 202.017 101.18C201.609 101.549 200.967 101.526 200.614 101.11C200.458 100.937 200.304 100.765 200.152 100.588C199.144 99.4338 198.188 98.2162 197.317 96.9726C197.002 96.5233 197.11 95.9041 197.559 95.5893C197.96 95.3089 198.496 95.3642 198.83 95.6977V95.6988Z" fill="#252935"/>
<path d="M262.333 41.5516C262.718 41.9342 262.723 42.5565 262.344 42.9474C261.963 43.3404 261.333 43.3508 260.94 42.9683C259.755 41.8174 258.49 40.7292 257.179 39.7347C256.748 39.4011 256.656 38.7798 256.989 38.342C257.321 37.9053 257.943 37.8198 258.381 38.1513C259.755 39.1958 261.082 40.3362 262.325 41.5422C262.328 41.5454 262.331 41.5485 262.334 41.5516H262.333ZM265.76 45.3043C265.785 45.3293 265.809 45.3564 265.832 45.3846C266.921 46.7293 267.938 48.1532 268.856 49.6178C269.147 50.0827 269.008 50.6957 268.543 50.9865C268.078 51.2794 267.464 51.1345 267.173 50.6738C266.296 49.2759 265.326 47.9176 264.288 46.6344C263.943 46.2081 264.008 45.5826 264.435 45.2376C264.834 44.9144 265.405 44.9509 265.759 45.3043H265.76ZM254.253 35.418C254.565 35.7287 254.642 36.2218 254.411 36.621C254.135 37.0943 253.528 37.2558 253.053 36.9806C251.624 36.1509 250.133 35.4003 248.62 34.7519C248.116 34.533 247.882 33.9514 248.1 33.4468C248.316 32.9434 248.9 32.7088 249.405 32.9256C250.991 33.6063 252.554 34.3923 254.052 35.2627C254.128 35.3065 254.196 35.3597 254.254 35.418H254.253ZM271.148 53.9063C271.228 53.9855 271.296 54.0804 271.347 54.1888C272.081 55.7566 272.724 57.3848 273.26 59.0298C273.43 59.551 273.145 60.1118 272.623 60.2828C272.103 60.4516 271.542 60.1671 271.371 59.6458C270.86 58.0781 270.246 56.5259 269.547 55.0311C269.314 54.5338 269.529 53.9428 270.026 53.7103C270.415 53.529 270.861 53.6207 271.148 53.9063ZM244.931 31.4214C245.18 31.6695 245.29 32.0427 245.184 32.4034C245.031 32.9308 244.479 33.2331 243.952 33.0799C242.37 32.6181 240.743 32.2481 239.114 31.9823C238.572 31.8936 238.205 31.3818 238.295 30.8408C238.384 30.2998 238.895 29.9318 239.436 30.0215C241.143 30.3019 242.849 30.6886 244.509 31.1723C244.675 31.2202 244.817 31.3089 244.931 31.4225V31.4214ZM234.922 29.7765C235.112 29.9662 235.225 30.2331 235.214 30.5218C235.191 31.0701 234.728 31.4965 234.179 31.4736C232.528 31.4048 230.858 31.435 229.218 31.5642C228.67 31.607 228.192 31.1984 228.149 30.6521C228.106 30.1049 228.514 29.6274 229.061 29.5847C230.782 29.4492 232.532 29.4169 234.263 29.4888C234.521 29.4992 234.753 29.6087 234.923 29.7775L234.922 29.7765ZM224.806 30.5771C224.941 30.7105 225.038 30.8835 225.078 31.0826C225.188 31.6205 224.839 32.1449 224.302 32.2533C222.682 32.5806 221.069 33.0111 219.506 33.5323C218.986 33.7043 218.423 33.4239 218.25 32.9037C218.077 32.3836 218.358 31.8207 218.879 31.6466C220.517 31.1014 222.209 30.649 223.908 30.305C224.246 30.2372 224.579 30.3498 224.806 30.576V30.5771Z" fill="#252935"/>
<path d="M274.305 63.5997C274.441 63.7352 274.539 63.9104 274.578 64.1126C274.741 64.9476 274.88 65.7899 274.991 66.6186C275.064 67.1617 274.683 67.6631 274.138 67.736C273.595 67.8069 273.095 67.4264 273.021 66.8833C272.916 66.0932 272.782 65.2884 272.628 64.492C272.523 63.9531 272.875 63.4319 273.413 63.3277C273.748 63.263 274.079 63.3746 274.304 63.5997H274.305Z" fill="#252935"/>
<path d="M209.403 50.4738L209.872 50.3003L209.873 50.3011C209.872 50.3005 209.872 50.2996 209.873 50.2982L209.873 50.2969L209.874 50.2966L215.554 45.6436L215.238 45.2566L215.555 45.6433L215.554 45.6435C215.555 45.6434 215.555 45.6431 215.556 45.6431C215.557 45.643 215.557 45.6431 215.558 45.6432C215.558 45.6433 215.558 45.6434 215.558 45.6434L215.558 45.6436L220.767 48.8542L221.002 48.9989L221.25 48.8775C223.843 47.6061 226.586 46.7929 229.367 46.4267L229.641 46.3906L229.756 46.1399L232.315 40.5776L232.315 40.5775C232.316 40.5761 232.318 40.5753 232.319 40.5754L232.318 40.5753L232.368 40.0778C232.154 40.0569 231.951 40.1737 231.861 40.3686L229.302 45.9309C226.468 46.3041 223.672 47.1328 221.029 48.4286L215.821 45.2179C215.638 45.1053 215.404 45.121 215.238 45.2565L209.557 49.9098C209.391 50.0453 209.329 50.2726 209.403 50.4738ZM209.403 50.4738L209.873 50.3011M209.403 50.4738L211.526 56.2123C209.735 58.5473 208.372 61.1252 207.448 63.8302L209.873 50.3011M209.873 50.3011L211.995 56.0388L212.09 56.2976L211.923 56.5166C210.165 58.8076 208.828 61.3372 207.921 63.9919L207.832 64.253L207.563 64.3167L201.607 65.7299L209.873 50.3011ZM201.603 65.7344C201.604 65.7321 201.605 65.7305 201.607 65.73L226.031 103.753L224.617 97.7955L224.553 97.5271L224.292 97.4378C221.638 96.5304 219.108 95.1934 216.817 93.4363L216.598 93.2683L216.339 93.3641L210.602 95.4861C210.601 95.4862 210.601 95.4863 210.601 95.4863C210.6 95.4864 210.6 95.4864 210.599 95.4861L210.597 95.4856L210.597 95.4856L210.597 95.4853L205.944 89.8045C205.944 89.8045 205.944 89.8044 205.944 89.8044C205.944 89.8043 205.944 89.8042 205.944 89.804C205.944 89.8037 205.944 89.8033 205.944 89.8028C205.943 89.8015 205.944 89.8011 205.944 89.8009L205.944 89.8008L205.944 89.8006L209.155 84.5917L209.299 84.3568L209.178 84.1091C207.907 81.5173 207.093 78.774 206.727 75.9925L206.691 75.7189L206.44 75.6035L200.879 73.0448C200.878 73.0444 200.877 73.0428 200.877 73.0406C200.877 73.0406 200.877 73.0406 200.877 73.0406L201.603 65.7346C201.603 65.7345 201.603 65.7345 201.603 65.7344ZM233.344 104.482C233.343 104.482 233.343 104.482 233.341 104.482L232.319 40.5754L239.625 41.3017C239.625 41.3017 239.625 41.3017 239.625 41.3018C239.628 41.302 239.629 41.3035 239.63 41.3055C239.63 41.3056 239.63 41.3056 239.63 41.3057L241.043 47.2618L241.107 47.5303L241.368 47.6195C244.023 48.5269 246.552 49.8639 248.843 51.6211L249.062 51.789L249.321 51.6933L255.059 49.5712C255.06 49.5708 255.062 49.5709 255.064 49.573C255.064 49.573 255.064 49.5731 255.064 49.5731L259.716 55.2528C259.716 55.2529 259.716 55.2529 259.716 55.2529C259.716 55.2531 259.717 55.2535 259.717 55.2545C259.717 55.2551 259.717 55.2555 259.717 55.2558C259.717 55.2562 259.716 55.2563 259.716 55.2565L259.716 55.2567L256.506 60.4656L256.361 60.7005L256.482 60.9482C257.754 63.54 258.567 66.2833 258.933 69.0648L258.969 69.3385L259.22 69.4538L264.782 72.0129L264.782 72.013L264.782 72.013C264.783 72.013 264.783 72.0131 264.783 72.0131L264.782 72.0148L264.056 79.3217C264.056 79.3217 264.056 79.3217 264.056 79.3218C264.056 79.3228 264.056 79.3238 264.055 79.3245C264.054 79.3254 264.053 79.326 264.052 79.3263C264.052 79.3263 264.052 79.3263 264.052 79.3263L258.096 80.7395L257.827 80.8033L257.738 81.0644C256.831 83.7201 255.494 86.2486 253.737 88.5397L253.569 88.7587L253.665 89.0175L255.787 94.7551C255.787 94.7552 255.787 94.7552 255.787 94.7553C255.787 94.7564 255.787 94.7587 255.785 94.7605C255.785 94.7605 255.785 94.7605 255.785 94.7606L250.105 99.413L250.103 99.4139C250.103 99.4141 250.102 99.4144 250.101 99.4139L250.101 99.4138L244.892 96.2031L244.657 96.0584L244.41 96.1799C241.818 97.4512 239.074 98.2644 236.293 98.6307L236.019 98.6667L235.904 98.9174L233.345 104.48L233.344 104.481C233.344 104.481 233.344 104.481 233.344 104.482L233.344 104.482Z" stroke="#4075EF" stroke-opacity="0.4"/>
<path d="M237.527 67.2596C238.662 68.3907 239.402 69.85 239.643 71.4637C239.939 73.4485 239.445 75.4311 238.25 77.0437C235.786 80.3732 231.071 81.0779 227.739 78.6126C224.409 76.1379 223.705 71.4314 226.171 68.1009C227.365 66.4872 229.116 65.4354 231.101 65.1394C233.087 64.8423 235.069 65.3374 236.682 66.532C236.984 66.7551 237.266 66.998 237.527 67.2586V67.2596ZM228.306 76.4871C228.496 76.6758 228.701 76.853 228.922 77.0166C231.372 78.8294 234.839 78.3113 236.653 75.8616C237.531 74.6754 237.896 73.217 237.678 71.7576C237.46 70.2972 236.685 69.0099 235.499 68.1301C234.313 67.2513 232.855 66.8875 231.394 67.1054C229.934 67.3232 228.645 68.0967 227.767 69.284C226.117 71.5116 226.397 74.5847 228.305 76.486L228.306 76.4871Z" fill="#4075EF" fill-opacity="0.4"/>
<path d="M245.254 59.3019C245.699 59.7459 246.126 60.215 246.533 60.7112C247.341 61.6963 248.049 62.7648 248.639 63.8895C248.665 63.9406 248.691 63.9906 248.717 64.0417C248.919 64.4347 248.834 64.8986 248.538 65.1957C248.466 65.2676 248.381 65.3301 248.286 65.3791C247.799 65.6293 247.201 65.4344 246.95 64.9486C246.409 63.8927 245.751 62.8919 244.997 61.9704C244.955 61.9194 244.913 61.8693 244.872 61.8193C243.065 59.6563 240.788 58.0259 238.235 57.0169C236.85 56.4686 235.381 56.1048 233.863 55.9401C233.85 55.939 233.838 55.937 233.825 55.9359C233.786 55.9317 233.75 55.9276 233.711 55.9244C229.266 55.4824 224.912 56.798 221.457 59.6292C221.01 59.9951 220.584 60.3818 220.182 60.7852C217.474 63.5049 215.796 67.0428 215.411 70.9144C214.969 75.3603 216.285 79.7123 219.117 83.1679C221.948 86.6204 225.956 88.7709 230.402 89.2139C234.848 89.6559 239.201 88.3404 242.656 85.5092C243.096 85.1496 243.516 84.768 243.915 84.3678C245.643 82.6332 246.971 80.54 247.799 78.2331C247.85 78.0914 247.929 77.9673 248.03 77.8673C248.293 77.6035 248.695 77.4982 249.069 77.6327C249.585 77.8193 249.854 78.3864 249.669 78.9034C248.743 81.4844 247.257 83.8267 245.324 85.7677C244.878 86.216 244.408 86.6423 243.916 87.0457C240.048 90.2136 235.179 91.6855 230.204 91.1914C225.23 90.6963 220.745 88.2987 217.578 84.4272C214.41 80.5598 212.938 75.6917 213.433 70.7163C213.864 66.3861 215.74 62.427 218.77 59.3842C219.221 58.9328 219.696 58.5002 220.196 58.0906C227.684 51.958 238.541 52.6106 245.255 59.2998L245.254 59.3019Z" fill="#4075EF" fill-opacity="0.4"/>
<path d="M0.779734 149.85C0.326284 149.715 -0.00207496 149.295 9.87164e-06 148.797C0.00417953 147.87 0.0364936 146.929 0.0969537 146.003C0.135523 145.4 0.655689 144.945 1.2582 144.983C1.86176 145.02 2.31729 145.543 2.27768 146.144C2.22035 147.027 2.18908 147.924 2.18491 148.81C2.18282 149.413 1.6908 149.9 1.0862 149.898C0.978835 149.898 0.875634 149.88 0.777647 149.851L0.779734 149.85Z" fill="#252935"/>
<path d="M1.59181 141.482C1.06122 141.323 0.725563 140.785 0.831889 140.23C1.13106 138.66 1.51571 137.088 1.97229 135.559C2.06819 135.237 2.16931 134.914 2.27251 134.592C2.45806 134.017 3.0981 133.732 3.6485 133.886C4.22287 134.071 4.53872 134.686 4.35421 135.261C4.25518 135.568 4.15928 135.877 4.06755 136.184C3.63182 137.643 3.26489 139.142 2.97927 140.639C2.86564 141.233 2.29336 141.621 1.70127 141.509C1.66374 141.5 1.62726 141.492 1.59181 141.482ZM5.07035 130.679C5.02031 130.665 4.97132 130.646 4.92337 130.624C4.37506 130.37 4.13634 129.72 4.38965 129.172C5.20273 127.413 6.13152 125.69 7.15101 124.051C7.46998 123.539 8.14547 123.384 8.65625 123.7C9.16912 124.019 9.32652 124.693 9.00755 125.205C8.03497 126.77 7.14892 128.413 6.37337 130.09C6.14195 130.589 5.58218 130.832 5.07035 130.679ZM11.0653 121.042C10.9329 121.002 10.8047 120.937 10.69 120.844C10.2209 120.464 10.149 119.775 10.5295 119.306C11.747 117.804 13.0719 116.36 14.4677 115.019C14.9034 114.6 15.5935 114.613 16.0136 115.049C16.4316 115.484 16.4181 116.176 15.9834 116.594C14.6522 117.874 13.3888 119.249 12.2286 120.682C11.9409 121.037 11.477 121.164 11.0653 121.041V121.042ZM19.2461 113.174C19.0293 113.109 18.8313 112.977 18.6843 112.782C18.3226 112.298 18.4216 111.612 18.9053 111.252C20.4574 110.091 22.094 109.017 23.7713 108.059C24.2956 107.76 24.9627 107.944 25.2619 108.466C25.5611 108.991 25.3797 109.658 24.8543 109.958C23.2553 110.87 21.6937 111.896 20.2145 113.002C19.9258 113.218 19.5662 113.27 19.2461 113.174ZM29.1001 107.543C28.7978 107.452 28.5361 107.231 28.4038 106.917C28.1703 106.361 28.4329 105.721 28.9896 105.487C30.7742 104.741 32.6224 104.096 34.4821 103.573C35.0637 103.408 35.6673 103.748 35.8299 104.329C35.9936 104.911 35.6548 105.514 35.0742 105.677C33.3 106.176 31.5373 106.79 29.8339 107.503C29.5911 107.604 29.3325 107.612 29.099 107.542L29.1001 107.543ZM40.0204 104.474C39.6285 104.357 39.3178 104.022 39.2522 103.59C39.1615 102.994 39.5722 102.437 40.1684 102.345C42.0813 102.054 44.0306 101.88 45.9611 101.829C46.5668 101.815 47.0672 102.29 47.0828 102.894C47.0995 103.497 46.622 104 46.0195 104.015C44.1786 104.064 42.321 104.23 40.4968 104.507C40.3311 104.532 40.1695 104.519 40.0194 104.474H40.0204ZM51.3567 104.168C50.8657 104.021 50.5311 103.544 50.5822 103.015C50.6405 102.415 51.1753 101.975 51.7768 102.034C53.6959 102.22 55.6285 102.531 57.5215 102.955C58.1094 103.097 58.4816 103.673 58.3482 104.261C58.2158 104.85 57.632 105.22 57.043 105.089C55.2376 104.683 53.3946 104.387 51.5641 104.209C51.4922 104.202 51.4224 104.188 51.3567 104.168ZM67.6559 108.895C67.5954 108.877 67.5349 108.853 67.4766 108.824C66.0526 108.108 64.5651 107.457 63.0536 106.889C62.8253 106.802 62.6002 106.719 62.374 106.639C61.8048 106.436 61.5088 105.811 61.711 105.242C61.9132 104.672 62.548 104.36 63.1078 104.579C63.3486 104.666 63.5884 104.753 63.8271 104.844C65.4053 105.437 66.9658 106.119 68.4585 106.87C68.9985 107.141 69.2153 107.798 68.9433 108.338C68.7014 108.819 68.1541 109.044 67.6548 108.895H67.6559Z" fill="#252935"/>
<path d="M34.3205 194.446C33.7492 194.275 33.4188 193.675 33.5824 193.099C33.7471 192.518 34.3528 192.182 34.9324 192.347C36.6805 192.846 38.4734 193.241 40.2622 193.522C40.8543 193.621 41.2661 194.176 41.1723 194.772C41.0784 195.369 40.5187 195.775 39.9224 195.682C38.0471 195.386 36.1666 194.972 34.3351 194.45C34.3309 194.449 34.3257 194.447 34.3205 194.446ZM29.0438 192.594C29.0062 192.583 28.9687 192.569 28.9322 192.555C27.1778 191.819 25.4495 190.968 23.7973 190.028C23.273 189.729 23.0895 189.063 23.3887 188.537C23.6868 188.012 24.3571 187.832 24.8793 188.128C26.4565 189.025 28.1056 189.837 29.7797 190.54C30.3364 190.773 30.598 191.413 30.3645 191.97C30.1456 192.491 29.5733 192.753 29.0448 192.595L29.0438 192.594ZM45.345 196.181C44.8812 196.043 44.5497 195.605 44.5664 195.097C44.5862 194.495 45.0917 194.022 45.6953 194.042C47.5133 194.102 49.349 194.053 51.1534 193.893C51.7559 193.843 52.2854 194.285 52.3376 194.887C52.3907 195.487 51.9456 196.019 51.3441 196.072C49.4532 196.239 47.5279 196.291 45.6223 196.227C45.5254 196.224 45.4326 196.208 45.345 196.182V196.181ZM19.342 187.064C19.2232 187.029 19.1075 186.973 19.0022 186.893C17.4751 185.756 16.0021 184.514 14.6272 183.198C14.1904 182.781 14.1748 182.089 14.5917 181.652C15.0077 181.217 15.6998 181.202 16.1366 181.617C17.449 182.87 18.8521 184.055 20.3083 185.139C20.792 185.5 20.8931 186.185 20.5325 186.668C20.251 187.047 19.7704 187.191 19.3431 187.062L19.342 187.064ZM56.4614 195.199C56.0903 195.089 55.79 194.783 55.7046 194.379C55.5784 193.788 55.9558 193.207 56.5458 193.082C58.32 192.706 60.089 192.216 61.8058 191.626C62.3781 191.429 62.9994 191.734 63.1954 192.306C63.3913 192.877 63.0869 193.499 62.5167 193.695C60.7165 194.312 58.862 194.826 57.0013 195.222C56.8158 195.262 56.6313 195.25 56.4624 195.2L56.4614 195.199ZM67.0179 191.579C66.7344 191.495 66.4863 191.296 66.3466 191.009C66.0828 190.466 66.3101 189.811 66.8532 189.548C68.4898 188.755 70.092 187.856 71.6149 186.876C72.1236 186.548 72.8002 186.696 73.1254 187.203C73.4517 187.711 73.3057 188.386 72.7981 188.712C71.2011 189.74 69.5218 190.684 67.807 191.514C67.5516 191.638 67.2702 191.654 67.0179 191.578V191.579ZM76.4048 185.534C76.2057 185.475 76.0212 185.358 75.8784 185.185C75.4927 184.721 75.5563 184.031 76.0212 183.645C77.4201 182.485 78.7596 181.227 80.0022 179.908C80.416 179.47 81.1082 179.448 81.5471 179.863C81.9859 180.277 82.0068 180.969 81.5929 181.409C80.2899 182.792 78.8847 184.11 77.418 185.329C77.1251 185.572 76.7447 185.635 76.4059 185.534H76.4048Z" fill="#252935"/>
<path d="M11.233 179.314C11.0308 179.254 10.8442 179.135 10.7004 178.959C10.1083 178.234 9.53495 177.49 8.99498 176.744C8.6416 176.256 8.75002 175.572 9.23995 175.217C9.72885 174.865 10.4116 174.973 10.7671 175.462C11.281 176.173 11.8283 176.883 12.3933 177.575C12.7758 178.042 12.706 178.731 12.239 179.113C11.9471 179.35 11.5687 179.414 11.233 179.314Z" fill="#252935"/>
<path d="M16.1875 164.844L16.6076 165.853C16.6164 165.874 16.6376 165.887 16.6601 165.886L16.6602 165.886M16.1875 164.844L16.6911 166.385L16.6602 165.886M16.1875 164.844L16.1867 164.846L13.5044 158.395L13.5043 158.394C13.4959 158.374 13.5013 158.349 13.5185 158.334L13.5186 158.334L18.5555 153.861L18.7619 153.678L18.7168 153.405C18.2116 150.355 18.1901 147.201 18.7003 144.061L18.7446 143.788L18.5378 143.606L13.4924 139.15C13.4923 139.15 13.4923 139.15 13.4923 139.15C13.4752 139.135 13.4693 139.109 13.478 139.088C13.478 139.088 13.478 139.088 13.478 139.088L16.5602 131.619L16.5607 131.618C16.5687 131.599 16.5889 131.585 16.613 131.586C16.6132 131.586 16.6133 131.586 16.6134 131.586L23.3329 131.985L23.6085 132.001L23.7691 131.777C25.6216 129.19 27.8604 126.97 30.3701 125.162L30.594 125.001L30.5769 124.725L30.1599 118.002C30.1599 118.002 30.1599 118.002 30.1599 118.002C30.1585 117.979 30.1716 117.958 30.1927 117.949C30.1928 117.949 30.1928 117.949 30.1928 117.949L37.6532 114.847L37.6534 114.847C37.6735 114.838 37.6986 114.844 37.7138 114.861L37.7139 114.861L42.1869 119.898L42.3701 120.104L42.6424 120.059C45.6932 119.554 48.846 119.532 51.9872 120.043L52.2597 120.087L52.4423 119.88L56.8978 114.835C56.8979 114.835 56.898 114.835 56.8981 114.835C56.9135 114.817 56.9383 114.812 56.9588 114.82C56.9589 114.82 56.959 114.82 56.9591 114.82L64.4286 117.902L64.429 117.902C64.4479 117.91 64.4623 117.93 64.461 117.955L64.461 117.954L64.9602 117.984M16.1875 164.844L64.6193 117.439C64.8371 117.529 64.9737 117.748 64.9602 117.984M16.6602 165.886L23.3837 165.468L23.6591 165.451L23.8204 165.675C25.6282 168.184 27.8476 170.423 30.4356 172.276L30.66 172.436L30.6437 172.712L30.2455 179.432L30.2454 179.434C30.2441 179.455 30.2569 179.476 30.2775 179.484L30.278 179.485L37.7464 182.567M16.6602 165.886L37.7464 182.567M64.9602 117.984L64.461 117.955L64.0628 124.674L64.0465 124.95L64.2709 125.111C66.859 126.963 69.0794 129.202 70.886 131.711L71.0473 131.935L71.3228 131.918L78.0463 131.5L78.0154 131.001M64.9602 117.984L64.5619 124.704C67.1951 126.589 69.454 128.866 71.2918 131.419L78.0154 131.001M78.0154 131.001L78.0464 131.5C78.0688 131.499 78.09 131.512 78.0989 131.533M78.0154 131.001C78.2509 130.987 78.4698 131.123 78.5605 131.341M78.5605 131.341L78.0989 131.533M78.5605 131.341L78.0989 131.533M78.5605 131.341L81.6628 138.802C81.7534 139.019 81.6951 139.272 81.5189 139.428L76.482 143.901C76.9959 147.004 77.0188 150.212 76.4986 153.408L81.545 157.864C81.7211 158.02 81.7795 158.272 81.6899 158.49M78.0989 131.533C78.0989 131.533 78.0989 131.533 78.0989 131.533M78.0989 131.533L78.0989 131.533M78.0989 131.533L81.2011 138.994L81.2012 138.994C81.2095 139.014 81.2041 139.039 81.187 139.054L81.1869 139.054L76.1499 143.527L75.9436 143.711L75.9887 143.983C76.4939 147.034 76.5164 150.186 76.0051 153.328L75.9608 153.6L76.1677 153.783L81.214 158.239L81.2143 158.239C81.2297 158.253 81.2364 158.278 81.2275 158.299M81.6899 158.49L81.2277 158.299L81.2275 158.299M81.6899 158.49L81.2275 158.299M81.6899 158.49L78.6074 165.96C78.5178 166.177 78.2989 166.314 78.0633 166.3M81.2275 158.299L78.1452 165.769L78.1451 165.769C78.1373 165.788 78.1167 165.803 78.092 165.801M78.092 165.801L78.0929 165.801L78.0633 166.3M78.092 165.801L71.3725 165.402L71.097 165.386L70.9363 165.61C69.0839 168.197 66.8451 170.418 64.3354 172.225L64.1115 172.387L64.1286 172.662L64.5466 179.386M78.092 165.801L78.0633 166.3M78.0633 166.3L71.3429 165.901C69.4582 168.533 67.1805 170.792 64.6276 172.631L65.0456 179.355M64.5466 179.386L65.0456 179.355M64.5466 179.386C64.548 179.408 64.5349 179.429 64.5138 179.438M64.5466 179.386L64.5466 179.386L65.0456 179.355M65.0456 179.355C65.0602 179.59 64.9237 179.809 64.7058 179.9M64.5138 179.438L64.7058 179.9M64.5138 179.438C64.5138 179.438 64.5137 179.438 64.5136 179.438M64.5138 179.438L64.5136 179.438M64.7058 179.9L64.5136 179.438M64.7058 179.9L57.2452 183.002C57.0274 183.093 56.7751 183.034 56.6188 182.858L52.1457 177.821C49.0425 178.335 45.835 178.358 42.6389 177.838L38.1826 182.884M64.5136 179.438L57.0533 182.54L57.0531 182.54C57.033 182.549 57.0079 182.543 56.9927 182.526L56.9926 182.526L52.5196 177.489L52.3363 177.283L52.0641 177.328C49.0133 177.833 45.8605 177.856 42.7192 177.344L42.4468 177.3L42.2641 177.507L37.8087 182.552L38.1826 182.884M38.1826 182.884L37.8078 182.553L37.8083 182.553C37.7931 182.57 37.7674 182.575 37.7464 182.567M38.1826 182.884C38.0262 183.06 37.774 183.119 37.5561 183.029M37.5561 183.029L37.7469 182.567L37.7464 182.567M37.5561 183.029L37.7464 182.567M37.5561 183.029L37.7464 182.567" stroke="#4075EF" stroke-opacity="0.4"/>
<path d="M44.9687 156.61C43.279 156.106 41.8019 155.077 40.7282 153.638C39.4075 151.868 38.8539 149.691 39.1719 147.505C39.8255 142.994 44.0285 139.857 48.5401 140.509C53.0568 141.172 56.1903 145.368 55.5357 149.878C55.2188 152.064 54.0701 153.996 52.3 155.317C50.53 156.638 48.3524 157.192 46.1654 156.874C45.7568 156.815 45.3565 156.726 44.9687 156.61ZM49.0977 142.866C48.8163 142.782 48.5255 142.717 48.2252 142.673C44.9062 142.193 41.8154 144.5 41.3338 147.82C41.1014 149.427 41.5069 151.03 42.4795 152.33C43.452 153.632 44.8728 154.475 46.4802 154.711C48.0876 154.944 49.6909 154.537 50.9918 153.565C52.2938 152.593 53.1392 151.172 53.3727 149.565C53.8105 146.546 51.9394 143.714 49.0988 142.865L49.0977 142.866Z" fill="#4075EF" fill-opacity="0.4"/>
<path d="M41.6257 168.347C40.9627 168.149 40.305 167.915 39.6524 167.647C38.3567 167.113 37.1141 166.446 35.956 165.664C35.9039 165.628 35.8528 165.593 35.8007 165.557C35.4004 165.282 35.2409 164.788 35.3733 164.346C35.4056 164.239 35.4546 164.134 35.5213 164.037C35.8643 163.54 36.5439 163.418 37.0412 163.758C38.1159 164.499 39.2751 165.127 40.4853 165.626C40.552 165.654 40.6187 165.68 40.6854 165.707C43.5625 166.862 46.6189 167.256 49.6189 166.905C51.2472 166.714 52.8598 166.303 54.4182 165.671C54.4307 165.666 54.4432 165.66 54.4557 165.655C54.4943 165.639 54.5329 165.624 54.5714 165.607C59.1101 163.719 62.6429 160.177 64.5182 155.633C64.761 155.046 64.9716 154.45 65.152 153.849C66.3601 149.803 66.1422 145.5 64.4994 141.547C62.6116 137.009 59.0695 133.477 54.5256 131.602C49.9838 129.729 44.9791 129.734 40.4394 131.62C35.9008 133.508 32.368 137.05 30.4927 141.594C30.254 142.173 30.0455 142.761 29.8673 143.356C29.0969 145.938 28.8989 148.658 29.2991 151.324C29.3231 151.489 29.3106 151.649 29.2658 151.798C29.148 152.191 28.8134 152.502 28.3808 152.567C27.7835 152.654 27.2268 152.246 27.1372 151.647C26.69 148.664 26.911 145.619 27.772 142.731C27.9711 142.064 28.2036 141.407 28.4704 140.76C30.5688 135.675 34.5206 131.713 39.5992 129.601C44.6768 127.49 50.2725 127.478 55.3574 129.579C60.4423 131.677 64.4045 135.628 66.5165 140.707C68.3553 145.128 68.5992 149.942 67.2472 154.469C67.046 155.141 66.8104 155.808 66.5394 156.465C62.4771 166.309 51.6162 171.331 41.6247 168.346L41.6257 168.347Z" fill="#4075EF" fill-opacity="0.4"/>
<path d="M121.117 214.916C120.296 214.989 119.534 214.431 119.372 213.603C119.018 211.794 118.737 209.942 118.537 208.099C118.44 207.203 119.088 206.397 119.984 206.3C119.994 206.3 120.005 206.298 120.015 206.297C120.898 206.218 121.686 206.861 121.782 207.747C121.972 209.497 122.239 211.257 122.575 212.976C122.748 213.861 122.172 214.719 121.287 214.892C121.23 214.903 121.173 214.91 121.117 214.916ZM119.958 200.743C119.894 200.748 119.83 200.75 119.764 200.749C118.863 200.723 118.154 199.972 118.179 199.071C118.232 197.22 118.365 195.353 118.574 193.522C118.676 192.627 119.482 191.986 120.38 192.085C121.276 192.187 121.919 192.997 121.817 193.891C121.617 195.632 121.491 197.405 121.441 199.165C121.417 200.001 120.769 200.671 119.957 200.743H119.958ZM121.948 186.667C121.767 186.684 121.58 186.669 121.394 186.621C120.522 186.395 119.998 185.505 120.223 184.632C120.686 182.844 121.232 181.053 121.847 179.309C122.147 178.459 123.08 178.014 123.93 178.312C124.779 178.612 125.225 179.544 124.926 180.395C124.342 182.05 123.823 183.752 123.383 185.451C123.206 186.138 122.616 186.609 121.948 186.668V186.667ZM127.037 173.387C126.738 173.414 126.428 173.358 126.142 173.21C125.341 172.795 125.029 171.809 125.444 171.009C126.297 169.368 127.23 167.744 128.218 166.182C128.701 165.421 129.709 165.194 130.471 165.675C131.233 166.157 131.459 167.166 130.977 167.928C130.039 169.411 129.152 170.953 128.343 172.513C128.076 173.027 127.575 173.339 127.038 173.387H127.037ZM134.959 161.575C134.54 161.613 134.107 161.489 133.76 161.195C133.072 160.612 132.986 159.582 133.569 158.894C134.76 157.487 136.03 156.11 137.34 154.803C137.978 154.166 139.012 154.167 139.648 154.806C140.284 155.444 140.283 156.478 139.644 157.115C138.397 158.356 137.191 159.666 136.059 161.003C135.77 161.344 135.371 161.538 134.958 161.574L134.959 161.575ZM145.297 151.811C144.754 151.86 144.198 151.635 143.846 151.167C143.304 150.446 143.448 149.423 144.168 148.881C145.644 147.769 147.186 146.707 148.752 145.725C149.516 145.246 150.523 145.477 151.002 146.241C151.482 147.004 151.25 148.012 150.487 148.491C149 149.425 147.534 150.433 146.132 151.489C145.88 151.68 145.59 151.784 145.297 151.811ZM204.528 142.623C204.303 142.643 204.07 142.617 203.843 142.537C202.189 141.956 200.485 141.439 198.783 141.002C197.911 140.778 197.384 139.889 197.608 139.015C197.833 138.142 198.722 137.615 199.595 137.84C201.388 138.301 203.181 138.844 204.924 139.455C205.775 139.753 206.222 140.685 205.924 141.536C205.705 142.159 205.146 142.567 204.528 142.622V142.623ZM157.533 144.585C156.858 144.645 156.19 144.278 155.898 143.626C155.529 142.802 155.898 141.837 156.721 141.469C158.407 140.713 160.147 140.022 161.891 139.415C162.744 139.122 163.673 139.568 163.97 140.419C164.266 141.271 163.816 142.201 162.965 142.498C161.307 143.074 159.656 143.731 158.054 144.448C157.884 144.524 157.708 144.569 157.532 144.585H157.533ZM190.665 139.457C190.558 139.467 190.448 139.467 190.337 139.454C188.593 139.258 186.817 139.136 185.06 139.088C184.158 139.063 183.447 138.314 183.472 137.412C183.497 136.511 184.246 135.796 185.147 135.824C186.997 135.874 188.865 136.004 190.7 136.209C191.596 136.309 192.241 137.118 192.141 138.014C192.053 138.797 191.423 139.39 190.666 139.457H190.665ZM171.076 140.273C170.255 140.346 169.495 139.791 169.332 138.964C169.157 138.08 169.732 137.221 170.616 137.045C172.427 136.687 174.277 136.402 176.116 136.2C176.127 136.198 176.139 136.197 176.15 136.196C177.032 136.116 177.819 136.757 177.917 137.642C178.016 138.539 177.37 139.346 176.473 139.444C174.726 139.637 172.969 139.908 171.249 140.248C171.191 140.259 171.133 140.268 171.075 140.272L171.076 140.273Z" fill="#252935"/>
<path d="M214.955 147.382C214.635 147.41 214.303 147.345 214.002 147.173C213.272 146.756 212.52 146.348 211.768 145.958C210.967 145.543 210.654 144.558 211.069 143.758C211.484 142.958 212.469 142.644 213.27 143.06C214.061 143.47 214.851 143.899 215.62 144.339C216.403 144.786 216.676 145.783 216.229 146.566C215.954 147.048 215.469 147.337 214.955 147.383V147.382Z" fill="#252935"/>
<path d="M245.111 186.969C244.326 187.039 243.585 186.532 243.385 185.744C243.179 184.927 242.951 184.103 242.711 183.291C242.453 182.427 242.946 181.518 243.809 181.261C244.677 181.004 245.582 181.497 245.839 182.36C246.093 183.215 246.332 184.083 246.55 184.942C246.771 185.816 246.241 186.704 245.368 186.925C245.282 186.947 245.196 186.96 245.11 186.968L245.111 186.969Z" fill="#252935"/>
<path d="M189.207 265.93C188.458 265.997 187.707 266.051 186.951 266.093C186.051 266.143 185.281 265.453 185.231 264.553C185.181 263.654 185.874 262.879 186.77 262.833C188.514 262.736 190.251 262.57 191.951 262.333C192.846 262.21 193.668 262.832 193.793 263.725C193.917 264.618 193.294 265.442 192.401 265.566C191.349 265.712 190.275 265.835 189.208 265.93H189.207ZM178.333 265.98C178.242 265.989 178.15 265.989 178.055 265.981C176.24 265.835 174.411 265.611 172.618 265.313C171.728 265.166 171.127 264.325 171.274 263.437C171.422 262.548 172.263 261.943 173.151 262.093C174.854 262.376 176.591 262.588 178.316 262.728C179.215 262.8 179.884 263.587 179.812 264.485C179.748 265.29 179.11 265.911 178.332 265.98H178.333ZM200.806 263.796C200.039 263.865 199.308 263.382 199.092 262.614C198.847 261.746 199.352 260.844 200.22 260.599C201.879 260.131 203.542 259.585 205.161 258.976C206.005 258.66 206.946 259.086 207.263 259.929C207.58 260.773 207.154 261.715 206.309 262.032C204.605 262.673 202.854 263.248 201.106 263.741C201.006 263.769 200.906 263.787 200.806 263.796ZM164.59 263.327C164.384 263.346 164.171 263.324 163.96 263.26C162.223 262.719 160.488 262.097 158.804 261.412C157.969 261.073 157.567 260.121 157.907 259.286C158.247 258.45 159.199 258.049 160.034 258.388C161.633 259.039 163.281 259.629 164.931 260.143C165.792 260.411 166.272 261.326 166.005 262.186C165.802 262.836 165.23 263.27 164.591 263.327H164.59ZM213.761 258.53C213.132 258.586 212.5 258.273 212.18 257.683C211.751 256.89 212.045 255.899 212.837 255.47C214.353 254.648 215.854 253.75 217.3 252.8C218.053 252.305 219.065 252.514 219.561 253.268C220.055 254.022 219.845 255.033 219.093 255.528C217.571 256.528 215.989 257.474 214.394 258.339C214.192 258.449 213.977 258.511 213.762 258.531L213.761 258.53ZM225.247 250.548C224.745 250.593 224.228 250.405 223.871 249.996C223.279 249.316 223.349 248.285 224.028 247.693C225.331 246.557 226.601 245.352 227.803 244.113C228.43 243.464 229.463 243.449 230.111 244.077C230.758 244.705 230.774 245.738 230.146 246.385C228.881 247.689 227.544 248.957 226.174 250.152C225.904 250.388 225.579 250.518 225.247 250.548ZM234.72 240.252C234.338 240.287 233.943 240.187 233.609 239.942C232.883 239.408 232.727 238.387 233.261 237.66C234.287 236.266 235.264 234.814 236.166 233.343C236.637 232.575 237.642 232.334 238.412 232.806C239.18 233.279 239.421 234.283 238.949 235.052C237.999 236.6 236.97 238.128 235.891 239.595C235.602 239.988 235.171 240.213 234.72 240.254V240.252ZM241.722 228.136C241.458 228.16 241.183 228.12 240.923 228.005C240.097 227.642 239.722 226.68 240.085 225.855C240.78 224.271 241.415 222.64 241.973 221.006C242.263 220.154 243.193 219.698 244.045 219.989C244.899 220.28 245.354 221.209 245.062 222.061C244.475 223.782 243.806 225.499 243.074 227.167C242.826 227.732 242.297 228.085 241.723 228.138L241.722 228.136ZM245.895 214.774C245.746 214.787 245.593 214.78 245.439 214.75C244.554 214.579 243.975 213.722 244.147 212.837C244.475 211.143 244.735 209.414 244.919 207.695C245.015 206.798 245.823 206.151 246.717 206.247C247.613 206.343 248.261 207.147 248.166 208.044C247.971 209.854 247.697 211.675 247.351 213.458C247.21 214.189 246.601 214.711 245.895 214.775V214.774ZM247.03 200.83C246.997 200.834 246.964 200.835 246.929 200.837C246.029 200.862 245.277 200.152 245.252 199.251C245.217 197.979 245.14 196.693 245.028 195.429C244.987 194.971 244.94 194.514 244.89 194.06C244.791 193.163 245.436 192.357 246.332 192.258C247.237 192.139 248.035 192.804 248.134 193.699C248.187 194.178 248.235 194.657 248.279 195.14C248.398 196.47 248.477 197.824 248.515 199.162C248.54 200.029 247.882 200.756 247.03 200.833V200.83Z" fill="#252935"/>
<path d="M151.735 257.694C151.412 257.723 151.077 257.657 150.775 257.483C150.01 257.041 149.239 256.575 148.485 256.096C147.723 255.614 147.496 254.605 147.979 253.843C148.462 253.083 149.47 252.855 150.232 253.338C150.948 253.792 151.68 254.234 152.406 254.654C153.187 255.105 153.455 256.103 153.004 256.884C152.727 257.363 152.245 257.648 151.734 257.694H151.735Z" fill="#252935"/>
<path d="M145.199 169.393C144.966 169.621 144.903 169.971 145.042 170.265L149.008 178.66C146.678 182.317 144.914 186.372 143.845 190.704L135.036 193.624C134.728 193.726 134.517 194.014 134.514 194.339L134.381 205.476C134.377 205.802 134.58 206.094 134.886 206.204M145.199 169.393L145.548 169.751M145.199 169.393L145.548 169.751M145.199 169.393L153.168 161.613C153.402 161.385 153.753 161.331 154.044 161.477L162.341 165.644C166.052 163.402 170.148 161.735 174.505 160.769L177.635 152.034M145.548 169.751C145.468 169.83 145.446 169.951 145.494 170.051M145.548 169.751C145.548 169.751 145.548 169.751 145.548 169.751M145.548 169.751L145.548 169.751M145.494 170.051L145.494 170.051L145.043 170.264L145.494 170.051ZM145.494 170.051L149.46 178.447L149.578 178.696L149.43 178.929C147.128 182.541 145.387 186.546 144.33 190.824L144.264 191.092L144.002 191.179L135.194 194.099L135.194 194.099C135.087 194.134 135.015 194.233 135.014 194.344L135.014 194.345L134.881 205.482L134.881 205.483C134.879 205.594 134.948 205.695 135.055 205.734L135.055 205.733L134.886 206.204M134.886 206.204L135.056 205.734M134.886 206.204L143.622 209.333C144.588 213.69 146.254 217.786 148.496 221.497L135.056 205.734M135.056 205.734L143.79 208.863L144.05 208.956L144.11 209.225C145.064 213.527 146.709 217.573 148.924 221.239L149.067 221.475L148.943 221.722L144.776 230.02M135.056 205.734L144.776 230.02M144.776 230.02C144.726 230.121 144.745 230.242 144.823 230.323M144.776 230.02L144.823 230.323M144.823 230.323C144.823 230.323 144.823 230.323 144.823 230.323L152.603 238.291L144.823 230.323ZM145.548 169.751L153.517 161.971L153.168 161.613L153.518 161.97L153.517 161.971C153.598 161.892 153.719 161.874 153.819 161.924L154.043 161.478L153.82 161.924L162.117 166.091L162.364 166.214L162.6 166.072C166.265 163.857 170.31 162.211 174.614 161.258L174.883 161.198L174.976 160.938L178.105 152.204L177.635 152.034M177.635 152.034L178.105 152.203L178.105 152.203C178.144 152.096 178.245 152.027 178.356 152.028L178.356 152.028L189.493 152.162L189.499 151.662M177.635 152.034C177.745 151.728 178.037 151.524 178.362 151.528L189.499 151.662M189.499 151.662L189.493 152.162L189.493 152.162C189.605 152.163 189.705 152.236 189.74 152.342L189.74 152.342L192.66 161.151L192.747 161.413L193.015 161.479C197.293 162.535 201.298 164.277 204.91 166.578L205.143 166.727L205.392 166.609L213.788 162.642L213.789 162.642C213.89 162.594 214.009 162.615 214.087 162.695L214.088 162.696L221.868 170.665L221.869 170.665C221.946 170.745 221.965 170.865 221.915 170.966M189.499 151.662C189.825 151.666 190.112 151.877 190.215 152.185L193.134 160.994C197.467 162.063 201.522 163.827 205.178 166.157L213.574 162.19C213.868 162.051 214.218 162.113 214.445 162.347L222.226 170.316C222.453 170.548 222.508 170.9 222.362 171.19M222.362 171.19L221.915 170.966L221.915 170.966M222.362 171.19L221.915 170.966M222.362 171.19L218.195 179.489C220.437 183.2 222.104 187.296 223.069 191.653L231.805 194.782C232.111 194.893 232.315 195.185 232.31 195.51L232.177 206.647C232.174 206.972 231.963 207.26 231.655 207.362L222.846 210.282C221.777 214.614 220.013 218.669 217.683 222.326L221.65 230.722C221.789 231.016 221.727 231.366 221.493 231.593L213.524 239.374M221.915 170.966L217.748 179.265L217.624 179.511L217.767 179.748C219.982 183.413 221.628 187.458 222.581 191.761L222.641 192.031L222.901 192.124L231.635 195.253M231.635 195.253C231.742 195.291 231.812 195.393 231.81 195.504L231.81 195.504L231.677 206.641L231.677 206.642C231.676 206.753 231.604 206.852 231.498 206.888L231.497 206.888L222.689 209.807L222.427 209.894L222.361 210.162C221.305 214.441 219.563 218.445 217.262 222.057L217.113 222.29L217.231 222.54L221.198 230.935L221.198 230.936C221.246 231.037 221.224 231.157 221.145 231.235L221.144 231.235L213.175 239.015L213.524 239.374M231.635 195.253L231.805 194.783L231.636 195.253L231.635 195.253ZM213.524 239.374L213.175 239.016L213.175 239.016C213.094 239.094 212.973 239.113 212.873 239.062L212.652 239.502L212.873 239.062L204.574 234.896L204.327 234.772L204.091 234.915C200.426 237.129 196.38 238.775 192.077 239.729L191.808 239.789L191.715 240.048L188.586 248.783M213.524 239.374C213.291 239.601 212.939 239.655 212.648 239.509L204.35 235.343C200.639 237.585 196.542 239.251 192.186 240.217L189.056 248.952M189.056 248.952L188.586 248.783M189.056 248.952L188.586 248.784L188.586 248.783M189.056 248.952C188.946 249.259 188.654 249.462 188.329 249.458L177.192 249.325M188.586 248.783C188.547 248.89 188.446 248.96 188.335 248.958L188.335 248.958L177.198 248.825M177.198 248.825L177.192 249.325M177.198 248.825C177.198 248.825 177.198 248.825 177.198 248.825M177.198 248.825L177.198 248.825M177.192 249.325L177.198 248.825M177.192 249.325C176.866 249.32 176.579 249.11 176.477 248.801L173.557 239.994C169.225 238.924 165.17 237.161 161.513 234.831L153.117 238.797C152.823 238.937 152.473 238.873 152.246 238.641L152.603 238.292C152.682 238.372 152.803 238.393 152.903 238.346L152.904 238.345L161.299 234.379L161.549 234.261L161.781 234.409C165.393 236.71 169.398 238.452 173.677 239.509L173.945 239.575L174.031 239.837L176.951 248.644L176.951 248.644C176.986 248.75 177.086 248.823 177.198 248.825" stroke="#4075EF" stroke-opacity="0.4"/>
<path d="M184.333 211.646C178.897 212.13 173.768 208.565 172.459 203.104C171.02 197.101 174.733 191.046 180.736 189.607C183.644 188.908 186.65 189.386 189.198 190.949C191.748 192.512 193.536 194.975 194.233 197.883C195.673 203.886 191.96 209.94 185.956 211.38C185.415 211.509 184.872 211.598 184.334 211.646H184.333ZM182.601 191.941C182.181 191.978 181.762 192.046 181.345 192.146C176.742 193.249 173.896 197.892 175 202.494C176.103 207.096 180.744 209.945 185.349 208.84C189.951 207.738 192.798 203.095 191.694 198.492C191.159 196.263 189.788 194.375 187.834 193.176C186.245 192.202 184.425 191.778 182.602 191.941H182.601Z" fill="#4075EF" fill-opacity="0.4"/>
<path d="M185.998 227.731C185.064 227.814 184.122 227.851 183.171 227.839C182.872 227.836 182.573 227.828 182.275 227.814C180.802 227.75 179.335 227.567 177.9 227.271C177.88 227.267 177.86 227.263 177.841 227.259C177.786 227.247 177.731 227.236 177.674 227.223C177.566 227.2 177.459 227.176 177.351 227.151C177.069 227.087 176.871 226.848 176.846 226.574C176.839 226.507 176.845 226.438 176.86 226.37C176.94 226.018 177.291 225.799 177.642 225.879C179.451 226.291 181.317 226.511 183.187 226.533C192.478 226.646 200.713 221.886 205.458 214.633C208.098 210.6 209.658 205.794 209.719 200.627C209.731 199.721 209.695 198.821 209.616 197.93C209.08 191.938 206.522 186.359 202.262 181.995C197.369 176.983 190.817 174.177 183.813 174.094C169.35 173.923 157.453 185.543 157.28 200C157.269 200.891 157.303 201.78 157.383 202.662C157.725 206.484 158.898 210.19 160.834 213.508C160.884 213.594 160.912 213.687 160.921 213.779C160.943 214.023 160.825 214.27 160.6 214.402C160.287 214.582 159.889 214.479 159.706 214.166C157.674 210.682 156.44 206.792 156.082 202.78C155.998 201.854 155.963 200.921 155.973 199.986C156.155 184.807 168.654 172.608 183.828 172.788C191.18 172.876 198.058 175.822 203.195 181.084C207.667 185.664 210.353 191.522 210.916 197.813C210.999 198.748 211.036 199.692 211.024 200.643C210.937 207.996 207.991 214.874 202.73 220.011C198.148 224.484 192.289 227.17 185.997 227.731H185.998Z" fill="#4075EF" fill-opacity="0.4"/>
</svg>
